<?xml version="1.0" encoding="utf-8"?>
<!-- Generator: Adobe Illustrator 25.2.0, SVG Export Plug-In . SVG Version: 6.00 Build 0)  -->
<svg version="1.1" id="Layer_1" xmlns="http://www.w3.org/2000/svg" xmlns:xlink="http://www.w3.org/1999/xlink" x="0px" y="0px"
	 viewBox="0 0 512 512" style="enable-background:new 0 0 512 512;" xml:space="preserve">
<style type="text/css">
	.st0{fill:#E3E4D8;}
	.st1{fill:#D0CEBD;}
	.st2{fill:#ED8A19;}
	.st3{fill:#FFFFFF;}
	.st4{fill:#B8ACA6;}
	.st5{fill:#DC691D;}
	.st6{fill:#C5411E;}
</style>
<path class="st0" d="M432.1,485.5H79V0h273.7l79.4,79.4V485.5z"/>
<path class="st1" d="M352.7,0v79.4h79.4L352.7,0z"/>
<path class="st2" d="M79,353.1h353.1V512H79V353.1z"/>
<path class="st3" d="M237.9,485.5h-8.8c-4.9,0-8.8-3.9-8.8-8.8v-88.3c0-4.9,4-8.8,8.8-8.8h8.8c29.2,0,53,23.8,53,53
	S267.1,485.5,237.9,485.5z M237.9,467.9L237.9,467.9L237.9,467.9z M237.9,397.2v70.6c19.5,0,35.3-15.8,35.3-35.3
	S257.4,397.2,237.9,397.2z"/>
<path class="st3" d="M162.9,441.4H132c-4.9,0-8.8-3.9-8.8-8.8c0-4.9,4-8.8,8.8-8.8h30.9c7.3,0,13.2-5.9,13.2-13.2
	c0-7.3-5.9-13.2-13.2-13.2H132c-4.9,0-8.8-3.9-8.8-8.8s4-8.8,8.8-8.8h30.9c17,0,30.9,13.9,30.9,30.9
	C193.8,427.5,179.9,441.4,162.9,441.4z"/>
<path class="st3" d="M162.9,485.5H132c-4.9,0-8.8-3.9-8.8-8.8c0-4.9,4-8.8,8.8-8.8h30.9c7.3,0,13.2-5.9,13.2-13.2
	s-5.9-13.2-13.2-13.2H132c-4.9,0-8.8-3.9-8.8-8.8c0-4.9,4-8.8,8.8-8.8h30.9c17,0,30.9,13.9,30.9,30.9
	C193.8,471.7,179.9,485.5,162.9,485.5z"/>
<path class="st3" d="M357.1,485.5h-30.9c-4.9,0-8.8-3.9-8.8-8.8c0-4.9,4-8.8,8.8-8.8h30.9c7.3,0,13.2-5.9,13.2-13.2
	s-5.9-13.2-13.2-13.2h-8.8c-17,0-30.9-13.9-30.9-30.9c0-17,13.9-30.9,30.9-30.9h30.9c4.9,0,8.8,3.9,8.8,8.8s-4,8.8-8.8,8.8h-30.9
	c-7.3,0-13.2,5.9-13.2,13.2c0,7.3,5.9,13.2,13.2,13.2h8.8c17,0,30.9,13.9,30.9,30.9C388,471.7,374.1,485.5,357.1,485.5z"/>
<path class="st4" d="M255.6,150.1c-4.9,0-8.8-3.9-8.8-8.8v-53c0-4.9,4-8.8,8.8-8.8c4.9,0,8.8,3.9,8.8,8.8v53
	C264.4,146.1,260.4,150.1,255.6,150.1z"/>
<path class="st4" d="M229.1,194.2c-1.6,0-3.2-0.4-4.7-1.3l-70.6-44.1c-4.1-2.6-5.4-8-2.8-12.2c2.6-4.1,8-5.4,12.2-2.8l70.6,44.1
	c4.1,2.6,5.4,8,2.8,12.2C234.9,192.7,232,194.2,229.1,194.2z"/>
<path class="st4" d="M299.7,185.4c-2.9,0-5.7-1.4-7.4-3.9c-2.7-4.1-1.6-9.5,2.4-12.2l53-35.3c4.1-2.7,9.5-1.6,12.2,2.4
	c2.7,4.1,1.6,9.5-2.4,12.2l-53,35.3C303.1,184.9,301.4,185.4,299.7,185.4z"/>
<path class="st4" d="M255.6,326.6c-4.9,0-8.8-3.9-8.8-8.8v-53c0-4.9,4-8.8,8.8-8.8c4.9,0,8.8,3.9,8.8,8.8v53
	C264.4,322.7,260.4,326.6,255.6,326.6z"/>
<path class="st4" d="M352.6,273.7c-1.7,0-3.4-0.5-4.9-1.5l-53-35.3c-4.1-2.7-5.1-8.2-2.4-12.2c2.7-4.1,8.2-5.2,12.2-2.4l53,35.3
	c4.1,2.7,5.1,8.2,2.4,12.2C358.3,272.3,355.5,273.7,352.6,273.7z"/>
<path class="st4" d="M158.5,273.7c-2.8,0-5.5-1.3-7.2-3.7c-2.8-4-1.9-9.5,2.1-12.3l61.8-44.1c4-2.8,9.5-1.9,12.3,2
	c2.8,4,1.9,9.5-2.1,12.3L163.6,272C162,273.1,160.2,273.7,158.5,273.7z"/>
<path class="st2" d="M255.6,282.5l-70.6-35.3v-88.3l70.6,35.3V282.5z"/>
<path class="st5" d="M255.6,282.5l70.6-35.3v-88.3l-70.6,35.3V282.5z"/>
<path class="st6" d="M255.6,194.2l-70.6-35.3l70.6-35.3l70.6,35.3L255.6,194.2z"/>
<text transform="matrix(1 0 0 1 960 540)" style="font-family:'MyriadPro-Regular'; font-size:12px;">.primary-grid .actions .mat-icon-button.disabled</text>
<text transform="matrix(1 0 0 1 960 540)" style="font-family:'MyriadPro-Regular'; font-size:12px;">.primary-grid .actions .mat-icon-button.disabled</text>
</svg>
