<?xml version="1.0" encoding="utf-8"?>
<!-- Generator: Adobe Illustrator 25.2.0, SVG Export Plug-In . SVG Version: 6.00 Build 0)  -->
<svg version="1.1" id="Layer_1" xmlns="http://www.w3.org/2000/svg" xmlns:xlink="http://www.w3.org/1999/xlink" x="0px" y="0px"
	 viewBox="0 0 512 512" style="enable-background:new 0 0 512 512;" xml:space="preserve">
<style type="text/css">
	.st0{fill:#E3E4D8;}
	.st1{fill:#F6B700;}
	.st2{fill:#D0CEBD;}
	.st3{fill:#E48A00;}
	.st4{fill:#9884B7;}
	.st5{fill:#FFFFFF;}
	.st6{fill:#684F89;}
	.st7{fill:#FFDD88;}
</style>
<path class="st0" d="M432.1,485.5H79V0h273.7l79.4,79.4V485.5z"/>
<path class="st1" d="M255.6,79.4c0,0-11.6,45.4-53,97.1l17.7,61.8h70.6l17.7-61.8C267.1,124.8,255.6,79.4,255.6,79.4z"/>
<path class="st2" d="M352.7,0v79.4h79.4L352.7,0z"/>
<path class="st3" d="M79,353.1h353.1V512H79V353.1z"/>
<path class="st4" d="M211.4,264.8h88.3V309h-88.3V264.8z"/>
<path class="st5" d="M229.1,485.5c-4.9,0-8.8-4-8.8-8.8v-77.4c0-1.1-0.9-2-2-2H187c-1.1,0-2,0.9-2,2v77.4c0,4.9-4,8.8-8.8,8.8
	c-4.9,0-8.8-4-8.8-8.8v-77.4c0-10.8,8.8-19.7,19.7-19.7h31.3c10.9,0,19.7,8.8,19.7,19.7v77.4C237.9,481.6,233.9,485.5,229.1,485.5z"
	/>
<path class="st5" d="M229.1,441.4h-53c-4.9,0-8.8-4-8.8-8.8c0-4.9,4-8.8,8.8-8.8h53c4.9,0,8.8,4,8.8,8.8
	C237.9,437.4,233.9,441.4,229.1,441.4z"/>
<path class="st5" d="M308.5,485.5c-4.9,0-8.8-4-8.8-8.8v-88.3c0-4.9,4-8.8,8.8-8.8c4.9,0,8.8,4,8.8,8.8v88.3
	C317.3,481.6,313.4,485.5,308.5,485.5z"/>
<path class="st5" d="M335,485.5h-53c-4.9,0-8.8-4-8.8-8.8c0-4.9,4-8.8,8.8-8.8h53c4.9,0,8.8,4,8.8,8.8
	C343.8,481.6,339.9,485.5,335,485.5z"/>
<path class="st5" d="M335,397.2h-53c-4.9,0-8.8-4-8.8-8.8c0-4.9,4-8.8,8.8-8.8h53c4.9,0,8.8,4,8.8,8.8
	C343.8,393.3,339.9,397.2,335,397.2z"/>
<path class="st6" d="M299.7,273.7h-88.3c-9.8,0-17.7-7.9-17.7-17.7s7.9-17.7,17.7-17.7h88.3c9.8,0,17.7,7.9,17.7,17.7
	S309.4,273.7,299.7,273.7z"/>
<path class="st7" d="M255.6,79.4c0,0-2.4,9.3-8.8,24.3v81.7c0,4.9,4,8.8,8.8,8.8c4.9,0,8.8-4,8.8-8.8v-81.7
	C258,88.8,255.6,79.4,255.6,79.4z"/>
</svg>
