<?xml version="1.0" encoding="utf-8"?>
<!-- Generator: Adobe Illustrator 24.3.0, SVG Export Plug-In . SVG Version: 6.00 Build 0)  -->
<svg version="1.1" id="Layer_1" xmlns="http://www.w3.org/2000/svg" xmlns:xlink="http://www.w3.org/1999/xlink" x="0px" y="0px"
	 viewBox="0 0 512 512" style="enable-background:new 0 0 512 512;" xml:space="preserve">
<style type="text/css">
	.st0{fill:#E3E4D8;}
	.st1{fill:#D0CEBD;}
	.st2{fill:#4E74BA;}
	.st3{fill:#FFFFFF;}
	.st4{fill:#4F75BA;}
</style>
<path class="st0" d="M432.1,485.5H79V0h273.7l79.4,79.4V485.5z"/>
<path class="st1" d="M352.7,0v79.4h79.4L352.7,0z"/>
<path class="st2" d="M79,353.1h353.1V512H79V353.1z"/>
<path class="st3" d="M352.7,211.9c0,53.6-43.5,97.1-97.1,97.1s-97.1-43.5-97.1-97.1s43.5-97.1,97.1-97.1S352.7,158.2,352.7,211.9z"
	/>
<path class="st4" d="M290.9,211.9l-53,35.3v-70.6L290.9,211.9z"/>
<g>
	<path class="st3" d="M255.6,485.5c-3.6,0-6.8-2.2-8.2-5.5L212,391.7c-1.8-4.5,0.4-9.7,4.9-11.5c4.5-1.8,9.7,0.4,11.5,4.9l27.1,67.8
		l27.1-67.8c1.8-4.5,6.9-6.7,11.5-4.9c4.5,1.8,6.7,6.9,4.9,11.5L263.7,480C262.4,483.3,259.2,485.5,255.6,485.5z"/>
	<path class="st3" d="M352.7,485.5c-4.9,0-8.8-4-8.8-8.8v-88.3c0-4.9,4-8.8,8.8-8.8c4.9,0,8.8,4,8.8,8.8v88.3
		C361.5,481.6,357.5,485.5,352.7,485.5z"/>
	<path class="st3" d="M379.1,485.5h-53c-4.9,0-8.8-4-8.8-8.8c0-4.9,4-8.8,8.8-8.8h53c4.9,0,8.8,4,8.8,8.8
		C388,481.6,384,485.5,379.1,485.5z"/>
	<path class="st3" d="M379.1,397.2h-53c-4.9,0-8.8-4-8.8-8.8c0-4.9,4-8.8,8.8-8.8h53c4.9,0,8.8,4,8.8,8.8
		C388,393.3,384,397.2,379.1,397.2z"/>
	<path class="st3" d="M184.9,485.5c-4.9,0-8.8-4-8.8-8.8v-77.4c0-1.1-0.9-2-2-2h-31.3c-1.1,0-2,0.9-2,2v77.4c0,4.9-4,8.8-8.8,8.8
		c-4.9,0-8.8-4-8.8-8.8v-77.4c0-10.8,8.8-19.7,19.7-19.7h31.3c10.8,0,19.7,8.8,19.7,19.7v77.4C193.8,481.6,189.8,485.5,184.9,485.5z
		"/>
	<path class="st3" d="M184.9,441.4h-53c-4.9,0-8.8-4-8.8-8.8c0-4.9,4-8.8,8.8-8.8h53c4.9,0,8.8,4,8.8,8.8
		C193.8,437.4,189.8,441.4,184.9,441.4z"/>
</g>
</svg>
