<?xml version="1.0" encoding="utf-8"?>
<!-- Generator: Adobe Illustrator 25.2.0, SVG Export Plug-In . SVG Version: 6.00 Build 0)  -->
<svg version="1.1" id="Layer_1" xmlns="http://www.w3.org/2000/svg" xmlns:xlink="http://www.w3.org/1999/xlink" x="0px" y="0px"
	 viewBox="0 0 512 512" style="enable-background:new 0 0 512 512;" xml:space="preserve">
<style type="text/css">
	.st0{fill:#E3E4D8;}
	.st1{fill:#D3D2C1;}
	.st2{fill:#A09893;}
</style>
<path class="st0" d="M432.1,512H79V0h273.7l79.4,79.4V512z"/>
<path class="st1" d="M352.7,0v79.4h79.4L352.7,0z"/>
<path class="st2" d="M290.9,432.6h-70.6c-4.9,0-8.8-3.9-8.8-8.8v-70.6c0-4.9,4-8.8,8.8-8.8h70.6c4.9,0,8.8,3.9,8.8,8.8v70.6
	C299.7,428.6,295.7,432.6,290.9,432.6z M229.1,414.9h53v-53h-53V414.9z"/>
<path class="st2" d="M255.6,361.9c-4.9,0-8.8-3.9-8.8-8.8v-203c0-4.9,4-8.8,8.8-8.8c4.9,0,8.8,3.9,8.8,8.8v203
	C264.4,358,260.4,361.9,255.6,361.9z"/>
<path class="st2" d="M246.7,423.7h17.7V512h-17.7V423.7z"/>
<path class="st2" d="M282,317.8h-53c-4.9,0-8.8-3.9-8.8-8.8s4-8.8,8.8-8.8h53c4.9,0,8.8,3.9,8.8,8.8S286.9,317.8,282,317.8z"/>
<path class="st2" d="M282,273.7h-53c-4.9,0-8.8-3.9-8.8-8.8s4-8.8,8.8-8.8h53c4.9,0,8.8,3.9,8.8,8.8S286.9,273.7,282,273.7z"/>
<path class="st2" d="M282,229.5h-53c-4.9,0-8.8-3.9-8.8-8.8c0-4.9,4-8.8,8.8-8.8h53c4.9,0,8.8,3.9,8.8,8.8
	C290.9,225.6,286.9,229.5,282,229.5z"/>
<path class="st2" d="M282,185.4h-53c-4.9,0-8.8-3.9-8.8-8.8c0-4.9,4-8.8,8.8-8.8h53c4.9,0,8.8,3.9,8.8,8.8
	C290.9,181.4,286.9,185.4,282,185.4z"/>
<path class="st2" d="M290.9,397.2h-70.6c-4.9,0-8.8-3.9-8.8-8.8v-35.3c0-4.9,4-8.8,8.8-8.8h70.6c4.9,0,8.8,3.9,8.8,8.8v35.3
	C299.7,393.3,295.7,397.2,290.9,397.2z M229.1,379.6h53v-17.7h-53V379.6z"/>
</svg>
