<?xml version="1.0" encoding="utf-8"?>
<!-- Generator: Adobe Illustrator 25.2.0, SVG Export Plug-In . SVG Version: 6.00 Build 0)  -->
<svg version="1.1" id="Layer_1" xmlns="http://www.w3.org/2000/svg" xmlns:xlink="http://www.w3.org/1999/xlink" x="0px" y="0px"
	 viewBox="0 0 512 512" style="enable-background:new 0 0 512 512;" xml:space="preserve">
<style type="text/css">
	.st0{fill:#E3E4D8;}
	.st1{fill:#D0CEBD;}
	.st2{fill:#E3558F;}
	.st3{fill:#A09893;}
	.st4{fill:#FFFFFF;}
</style>
<path class="st0" d="M432.1,485.5H79V0h273.7l79.4,79.4V485.5z"/>
<path class="st1" d="M352.7,0v79.4h79.4L352.7,0z"/>
<path class="st2" d="M79,353.1h353.1V512H79V353.1z"/>
<path class="st3" d="M326.2,225.6v-9.7l-2.6-0.3c-8-1-15.1-6.2-17.9-13.7c-0.4-1-0.8-1.9-1.2-2.9c-3.4-7.6-2-16.5,3.2-23l1.3-1.7
	l-6.9-6.9l-1.7,1.3c-6.6,5.1-15.4,6.5-23,3.2c-0.9-0.4-1.9-0.8-2.9-1.2c-7.6-2.8-12.7-9.9-13.7-17.9l-0.3-2.6h-9.7l-0.3,2.6
	c-1,8-6.2,15.1-13.7,17.9c-1,0.4-1.9,0.8-2.9,1.2c-7.6,3.4-16.5,1.9-23-3.2l-1.7-1.3l-6.9,6.9l1.3,1.7c5.1,6.6,6.5,15.4,3.2,23
	c-0.4,0.9-0.8,1.9-1.2,2.9c-2.8,7.6-9.9,12.7-17.9,13.7l-2.6,0.3v9.7l2.6,0.3c8,1,15.1,6.2,17.9,13.7c0.4,1,0.8,1.9,1.2,2.9
	c3.4,7.6,1.9,16.5-3.2,23l-1.3,1.7l6.9,6.9l1.7-1.3c6.6-5.1,15.4-6.5,23-3.2c0.9,0.4,1.9,0.8,2.9,1.2c7.6,2.8,12.7,9.9,13.7,17.9
	l0.3,2.6h9.7l0.3-2.6c1-8,6.2-15.1,13.7-17.9c1-0.4,1.9-0.8,2.9-1.2c7.6-3.4,16.5-1.9,23,3.2l1.7,1.3l6.9-6.9l-1.3-1.7
	c-5.1-6.6-6.5-15.4-3.1-23c0.4-0.9,0.8-1.9,1.2-2.9c2.8-7.6,9.9-12.7,17.9-13.7L326.2,225.6z"/>
<path class="st3" d="M158.4,282.5c-2.5,0-5-1.1-6.8-3.2l-44.1-53c-2.7-3.3-2.7-8,0-11.3l44.1-53c3.1-3.8,8.7-4.2,12.4-1.1
	c3.7,3.1,4.3,8.7,1.1,12.4l-39.4,47.3l39.4,47.3c3.1,3.8,2.6,9.3-1.1,12.4C162.4,281.8,160.4,282.5,158.4,282.5z"/>
<path class="st3" d="M352.7,282.5c-2,0-4-0.7-5.7-2c-3.7-3.1-4.2-8.7-1.1-12.4l39.4-47.3l-39.4-47.3c-3.1-3.8-2.6-9.3,1.1-12.4
	c3.7-3.1,9.3-2.6,12.4,1.1l44.1,53c2.7,3.3,2.7,8,0,11.3l-44.1,53C357.7,281.4,355.2,282.5,352.7,282.5z"/>
<path class="st4" d="M237.9,203h35.3v35.3h-35.3V203z"/>
<path class="st4" d="M184.9,485.5c-4.9,0-8.8-3.9-8.8-8.8v-77.4c0-1.1-0.9-2-2-2h-31.3c-1.1,0-2,0.9-2,2v77.4c0,4.9-4,8.8-8.8,8.8
	c-4.9,0-8.8-3.9-8.8-8.8v-77.4c0-10.8,8.8-19.7,19.7-19.7h31.3c10.8,0,19.7,8.8,19.7,19.7v77.4C193.8,481.6,189.8,485.5,184.9,485.5
	z"/>
<path class="st4" d="M184.9,441.4h-53c-4.9,0-8.8-3.9-8.8-8.8c0-4.9,4-8.8,8.8-8.8h53c4.9,0,8.8,3.9,8.8,8.8
	C193.8,437.4,189.8,441.4,184.9,441.4z"/>
<path class="st4" d="M260,485.5h-30.9c-4.9,0-8.8-3.9-8.8-8.8c0-4.9,4-8.8,8.8-8.8H260c7.3,0,13.2-5.9,13.2-13.2
	s-5.9-13.2-13.2-13.2h-8.8c-17,0-30.9-13.9-30.9-30.9c0-17,13.9-30.9,30.9-30.9H282c4.9,0,8.8,3.9,8.8,8.8s-4,8.8-8.8,8.8h-30.9
	c-7.3,0-13.2,5.9-13.2,13.2c0,7.3,5.9,13.2,13.2,13.2h8.8c17,0,30.9,13.9,30.9,30.9C290.9,471.7,277,485.5,260,485.5z"/>
<path class="st4" d="M326.2,485.5c-4.9,0-8.8-3.9-8.8-8.8v-88.3c0-4.9,4-8.8,8.8-8.8c4.9,0,8.8,3.9,8.8,8.8v88.3
	C335,481.6,331,485.5,326.2,485.5z"/>
<path class="st4" d="M352.7,450.2h-26.5c-4.9,0-8.8-3.9-8.8-8.8v-53c0-4.9,4-8.8,8.8-8.8h26.5c19.5,0,35.3,15.8,35.3,35.3
	C388,434.4,372.1,450.2,352.7,450.2z M335,432.6h17.7c9.7,0,17.7-7.9,17.7-17.7c0-9.7-7.9-17.7-17.7-17.7H335V432.6z"/>
</svg>
