<?xml version="1.0" encoding="utf-8"?>
<!-- Generator: Adobe Illustrator 25.2.0, SVG Export Plug-In . SVG Version: 6.00 Build 0)  -->
<svg version="1.1" id="Layer_1" xmlns="http://www.w3.org/2000/svg" xmlns:xlink="http://www.w3.org/1999/xlink" x="0px" y="0px"
	 viewBox="0 0 512 512" style="enable-background:new 0 0 512 512;" xml:space="preserve">
<style type="text/css">
	.st0{fill:#E3E4D8;}
	.st1{fill:#D0CEBD;}
	.st2{fill:#879695;}
	.st3{fill:#A09893;}
	.st4{fill:#FFFFFF;}
</style>
<path class="st0" d="M432.1,485.5H79V0h273.7l79.4,79.4V485.5z"/>
<path class="st1" d="M352.7,0v79.4h79.4L352.7,0z"/>
<path class="st2" d="M79,353.1h353.1V512H79V353.1z"/>
<path class="st3" d="M264.4,203h-17.7c-14.6,0-26.5-11.9-26.5-26.5v-44.1c0-14.6,11.9-26.5,26.5-26.5h17.7
	c14.6,0,26.5,11.9,26.5,26.5v44.1C290.9,191.2,279,203,264.4,203z M246.7,123.6c-4.9,0-8.8,4-8.8,8.8v44.1c0,4.9,4,8.8,8.8,8.8h17.7
	c4.9,0,8.8-4,8.8-8.8v-44.1c0-4.9-4-8.8-8.8-8.8H246.7z"/>
<path class="st3" d="M326.2,150.1c-2.3,0-4.5-0.9-6.2-2.6c-3.4-3.5-3.4-9,0-12.5l26.5-26.5c3.4-3.4,9-3.4,12.5,0
	c3.5,3.5,3.5,9,0,12.5l-26.5,26.5C330.7,149.2,328.4,150.1,326.2,150.1z"/>
<path class="st3" d="M352.7,203c-4.9,0-8.8-4-8.8-8.8v-79.4c0-4.9,4-8.8,8.8-8.8c4.9,0,8.8,4,8.8,8.8v79.4
	C361.5,199.1,357.5,203,352.7,203z"/>
<path class="st3" d="M370.3,203H335c-4.9,0-8.8-4-8.8-8.8s4-8.8,8.8-8.8h35.3c4.9,0,8.8,4,8.8,8.8S375.2,203,370.3,203z"/>
<path class="st3" d="M176.1,203h-35.3c-4.9,0-8.8-4-8.8-8.8s4-8.8,8.8-8.8h35.3c4.9,0,8.8,4,8.8,8.8S181,203,176.1,203z"/>
<path class="st3" d="M132,150.1c-2.3,0-4.5-0.9-6.2-2.6c-3.4-3.5-3.4-9,0-12.5l26.5-26.5c3.4-3.4,9-3.4,12.5,0c3.5,3.5,3.5,9,0,12.5
	l-26.5,26.5C136.5,149.2,134.2,150.1,132,150.1z"/>
<path class="st3" d="M158.4,203c-4.9,0-8.8-4-8.8-8.8v-79.4c0-4.9,4-8.8,8.8-8.8c4.9,0,8.8,4,8.8,8.8v79.4
	C167.3,199.1,163.3,203,158.4,203z"/>
<path class="st3" d="M264.4,326.6h-17.7c-14.6,0-26.5-11.9-26.5-26.5V256c0-14.6,11.9-26.5,26.5-26.5h17.7
	c14.6,0,26.5,11.9,26.5,26.5v44.1C290.9,314.7,279,326.6,264.4,326.6z M246.7,247.2c-4.9,0-8.8,4-8.8,8.8v44.1c0,4.9,4,8.8,8.8,8.8
	h17.7c4.9,0,8.8-4,8.8-8.8V256c0-4.9-4-8.8-8.8-8.8H246.7z"/>
<path class="st3" d="M326.2,273.7c-2.3,0-4.5-0.9-6.2-2.6c-3.4-3.5-3.4-9,0-12.5l26.5-26.5c3.4-3.5,9-3.5,12.5,0
	c3.5,3.4,3.5,9,0,12.5l-26.5,26.5C330.7,272.8,328.4,273.7,326.2,273.7z"/>
<path class="st3" d="M352.7,326.6c-4.9,0-8.8-4-8.8-8.8v-79.4c0-4.9,4-8.8,8.8-8.8c4.9,0,8.8,4,8.8,8.8v79.4
	C361.5,322.7,357.5,326.6,352.7,326.6z"/>
<path class="st3" d="M370.3,326.6H335c-4.9,0-8.8-4-8.8-8.8s4-8.8,8.8-8.8h35.3c4.9,0,8.8,4,8.8,8.8S375.2,326.6,370.3,326.6z"/>
<path class="st3" d="M167.3,326.6h-17.7c-14.6,0-26.5-11.9-26.5-26.5V256c0-14.6,11.9-26.5,26.5-26.5h17.7
	c14.6,0,26.5,11.9,26.5,26.5v44.1C193.8,314.7,181.9,326.6,167.3,326.6z M149.6,247.2c-4.9,0-8.8,4-8.8,8.8v44.1
	c0,4.9,4,8.8,8.8,8.8h17.7c4.9,0,8.8-4,8.8-8.8V256c0-4.9-4-8.8-8.8-8.8H149.6z"/>
<path class="st4" d="M162.9,441.4H132c-4.9,0-8.8-4-8.8-8.8v-44.1c0-4.9,4-8.8,8.8-8.8h30.9c17,0,30.9,13.9,30.9,30.9
	C193.8,427.5,179.9,441.4,162.9,441.4z M140.8,423.7h22.1c7.3,0,13.2-5.9,13.2-13.2c0-7.3-5.9-13.2-13.2-13.2h-22.1V423.7z"/>
<path class="st4" d="M162.9,485.5H132c-4.9,0-8.8-4-8.8-8.8v-44.1c0-4.9,4-8.8,8.8-8.8h30.9c17,0,30.9,13.9,30.9,30.9
	C193.8,471.7,179.9,485.5,162.9,485.5z M140.8,467.9h22.1c7.3,0,13.2-5.9,13.2-13.2s-5.9-13.2-13.2-13.2h-22.1V467.9z"/>
<path class="st4" d="M282,397.2h-53c-4.9,0-8.8-4-8.8-8.8c0-4.9,4-8.8,8.8-8.8h53c4.9,0,8.8,4,8.8,8.8
	C290.9,393.3,286.9,397.2,282,397.2z"/>
<path class="st4" d="M282,485.5h-53c-4.9,0-8.8-4-8.8-8.8c0-4.9,4-8.8,8.8-8.8h53c4.9,0,8.8,4,8.8,8.8
	C290.9,481.6,286.9,485.5,282,485.5z"/>
<path class="st4" d="M255.6,485.5c-4.9,0-8.8-4-8.8-8.8v-88.3c0-4.9,4-8.8,8.8-8.8c4.9,0,8.8,4,8.8,8.8v88.3
	C264.4,481.6,260.4,485.5,255.6,485.5z"/>
<path class="st4" d="M379.1,485.5c-3,0-5.9-1.6-7.6-4.3l-36.6-61v56.4c0,4.9-4,8.8-8.8,8.8c-4.9,0-8.8-4-8.8-8.8v-88.3
	c0-4,2.6-7.4,6.5-8.5c3.8-1,7.9,0.6,9.9,4l36.6,61v-56.4c0-4.9,4-8.8,8.8-8.8c4.9,0,8.8,4,8.8,8.8v88.3c0,4-2.6,7.4-6.5,8.5
	C380.7,485.4,379.9,485.5,379.1,485.5z"/>
</svg>
