<?xml version="1.0" encoding="utf-8"?>
<!-- Generator: Adobe Illustrator 25.2.0, SVG Export Plug-In . SVG Version: 6.00 Build 0)  -->
<svg version="1.1" id="Layer_1" xmlns="http://www.w3.org/2000/svg" xmlns:xlink="http://www.w3.org/1999/xlink" x="0px" y="0px"
	 viewBox="0 0 512 512" style="enable-background:new 0 0 512 512;" xml:space="preserve">
<style type="text/css">
	.st0{fill:#E3E4D8;}
	.st1{fill:#D0CEBD;}
	.st2{fill:#4E74BA;}
	.st3{fill:#FFFFFF;}
	.st4{fill:#AFB6BB;}
	.st5{fill:#E7ECED;}
	.st6{fill:#28384C;}
</style>
<path class="st0" d="M432.1,485.5H79V0h273.7l79.4,79.4V485.5z"/>
<path class="st1" d="M352.7,0v79.4h79.4L352.7,0z"/>
<path class="st2" d="M79,353.1h353.1V512H79V353.1z"/>
<path class="st3" d="M379.1,485.5c-4.9,0-8.8-3.9-8.8-8.8v-55l-18.8,32.9c-3.1,5.5-12.2,5.5-15.3,0l-18.8-32.9v55
	c0,4.9-4,8.8-8.8,8.8c-4.9,0-8.8-3.9-8.8-8.8v-88.3c0-4,2.7-7.5,6.6-8.5c3.9-1,7.9,0.7,9.9,4.2l27.6,48.4l27.6-48.4
	c2-3.5,6.1-5.2,9.9-4.2c3.9,1,6.6,4.5,6.6,8.5v88.3C388,481.6,384,485.5,379.1,485.5z"/>
<path class="st3" d="M255.6,485.5h-17.7c-14.6,0-26.5-11.9-26.5-26.5v-53c0-14.6,11.9-26.5,26.5-26.5h17.7
	c14.6,0,26.5,11.9,26.5,26.5v53C282,473.6,270.2,485.5,255.6,485.5z M237.9,397.2c-4.9,0-8.8,4-8.8,8.8v53c0,4.9,4,8.8,8.8,8.8h17.7
	c4.9,0,8.8-4,8.8-8.8v-53c0-4.9-4-8.8-8.8-8.8H237.9z"/>
<path class="st3" d="M184.9,485.5h-35.2c-14.6,0-26.6-11.9-26.6-26.6v-52.8c0-14.6,11.9-26.6,26.6-26.6h35.2c4.9,0,8.8,3.9,8.8,8.8
	s-4,8.8-8.8,8.8h-35.2c-4.9,0-8.9,4-8.9,8.9V459c0,4.9,4,8.9,8.9,8.9h35.2c4.9,0,8.8,3.9,8.8,8.8
	C193.8,481.6,189.8,485.5,184.9,485.5z"/>
<path class="st4" d="M229.1,247.2h53V309h-53V247.2z"/>
<path class="st5" d="M308.5,317.8H202.6c-4.9,0-8.8-3.9-8.8-8.8s4-8.8,8.8-8.8h105.9c4.9,0,8.8,3.9,8.8,8.8S313.4,317.8,308.5,317.8
	z"/>
<path class="st6" d="M361.5,229.5H149.6v-88.3c0-9.7,7.9-17.6,17.6-17.6h176.6c9.7,0,17.6,7.9,17.6,17.6V229.5z"/>
<path class="st5" d="M343.8,256H167.3c-9.7,0-17.6-7.9-17.6-17.6v-17.7h211.9v17.7C361.5,248.1,353.6,256,343.8,256z"/>
</svg>
