<?xml version="1.0" encoding="utf-8"?>
<!-- Generator: Adobe Illustrator 25.2.0, SVG Export Plug-In . SVG Version: 6.00 Build 0)  -->
<svg version="1.1" id="Layer_1" xmlns="http://www.w3.org/2000/svg" xmlns:xlink="http://www.w3.org/1999/xlink" x="0px" y="0px"
	 viewBox="0 0 512 512" style="enable-background:new 0 0 512 512;" xml:space="preserve">
<style type="text/css">
	.st0{fill:#E3E4D8;}
	.st1{fill:#D0CEBD;}
	.st2{fill:#2F9171;}
	.st3{fill:#A09893;}
	.st4{fill:#FFFFFF;}
</style>
<path class="st0" d="M432.1,485.5H79V0h273.7l79.4,79.4V485.5z"/>
<path class="st1" d="M352.7,0v79.4h79.4L352.7,0z"/>
<path class="st2" d="M79,353.1h353.1V512H79V353.1z"/>
<path class="st3" d="M193.8,167.7H132c-4.9,0-8.8-4-8.8-8.8v-35.3c0-4.9,4-8.8,8.8-8.8h61.8c4.9,0,8.8,4,8.8,8.8v35.3
	C202.6,163.8,198.6,167.7,193.8,167.7z M140.8,150.1h44.1v-17.7h-44.1V150.1z"/>
<path class="st3" d="M255.6,167.7h-61.8c-4.9,0-8.8-4-8.8-8.8v-35.3c0-4.9,4-8.8,8.8-8.8h61.8c4.9,0,8.8,4,8.8,8.8v35.3
	C264.4,163.8,260.4,167.7,255.6,167.7z M202.6,150.1h44.1v-17.7h-44.1V150.1z"/>
<path class="st3" d="M317.3,167.7h-61.8c-4.9,0-8.8-4-8.8-8.8v-35.3c0-4.9,4-8.8,8.8-8.8h61.8c4.9,0,8.8,4,8.8,8.8v35.3
	C326.2,163.8,322.2,167.7,317.3,167.7z M264.4,150.1h44.1v-17.7h-44.1V150.1z"/>
<path class="st3" d="M379.1,167.7h-61.8c-4.9,0-8.8-4-8.8-8.8v-35.3c0-4.9,4-8.8,8.8-8.8h61.8c4.9,0,8.8,4,8.8,8.8v35.3
	C388,163.8,384,167.7,379.1,167.7z M326.2,150.1h44.1v-17.7h-44.1V150.1z"/>
<path class="st3" d="M193.8,203H132c-4.9,0-8.8-4-8.8-8.8v-35.3c0-4.9,4-8.8,8.8-8.8h61.8c4.9,0,8.8,4,8.8,8.8v35.3
	C202.6,199.1,198.6,203,193.8,203z M140.8,185.4h44.1v-17.7h-44.1V185.4z"/>
<path class="st3" d="M255.6,203h-61.8c-4.9,0-8.8-4-8.8-8.8v-35.3c0-4.9,4-8.8,8.8-8.8h61.8c4.9,0,8.8,4,8.8,8.8v35.3
	C264.4,199.1,260.4,203,255.6,203z M202.6,185.4h44.1v-17.7h-44.1V185.4z"/>
<path class="st3" d="M317.3,203h-61.8c-4.9,0-8.8-4-8.8-8.8v-35.3c0-4.9,4-8.8,8.8-8.8h61.8c4.9,0,8.8,4,8.8,8.8v35.3
	C326.2,199.1,322.2,203,317.3,203z M264.4,185.4h44.1v-17.7h-44.1V185.4z"/>
<path class="st3" d="M379.1,203h-61.8c-4.9,0-8.8-4-8.8-8.8v-35.3c0-4.9,4-8.8,8.8-8.8h61.8c4.9,0,8.8,4,8.8,8.8v35.3
	C388,199.1,384,203,379.1,203z M326.2,185.4h44.1v-17.7h-44.1V185.4z"/>
<path class="st3" d="M193.8,238.3H132c-4.9,0-8.8-4-8.8-8.8v-35.3c0-4.9,4-8.8,8.8-8.8h61.8c4.9,0,8.8,4,8.8,8.8v35.3
	C202.6,234.4,198.6,238.3,193.8,238.3z M140.8,220.7h44.1V203h-44.1V220.7z"/>
<path class="st3" d="M255.6,238.3h-61.8c-4.9,0-8.8-4-8.8-8.8v-35.3c0-4.9,4-8.8,8.8-8.8h61.8c4.9,0,8.8,4,8.8,8.8v35.3
	C264.4,234.4,260.4,238.3,255.6,238.3z M202.6,220.7h44.1V203h-44.1V220.7z"/>
<path class="st3" d="M317.3,238.3h-61.8c-4.9,0-8.8-4-8.8-8.8v-35.3c0-4.9,4-8.8,8.8-8.8h61.8c4.9,0,8.8,4,8.8,8.8v35.3
	C326.2,234.4,322.2,238.3,317.3,238.3z M264.4,220.7h44.1V203h-44.1V220.7z"/>
<path class="st3" d="M379.1,238.3h-61.8c-4.9,0-8.8-4-8.8-8.8v-35.3c0-4.9,4-8.8,8.8-8.8h61.8c4.9,0,8.8,4,8.8,8.8v35.3
	C388,234.4,384,238.3,379.1,238.3z M326.2,220.7h44.1V203h-44.1V220.7z"/>
<path class="st3" d="M193.8,273.7H132c-4.9,0-8.8-4-8.8-8.8v-35.3c0-4.9,4-8.8,8.8-8.8h61.8c4.9,0,8.8,4,8.8,8.8v35.3
	C202.6,269.7,198.6,273.7,193.8,273.7z M140.8,256h44.1v-17.7h-44.1V256z"/>
<path class="st3" d="M255.6,273.7h-61.8c-4.9,0-8.8-4-8.8-8.8v-35.3c0-4.9,4-8.8,8.8-8.8h61.8c4.9,0,8.8,4,8.8,8.8v35.3
	C264.4,269.7,260.4,273.7,255.6,273.7z M202.6,256h44.1v-17.7h-44.1V256z"/>
<path class="st3" d="M317.3,273.7h-61.8c-4.9,0-8.8-4-8.8-8.8v-35.3c0-4.9,4-8.8,8.8-8.8h61.8c4.9,0,8.8,4,8.8,8.8v35.3
	C326.2,269.7,322.2,273.7,317.3,273.7z M264.4,256h44.1v-17.7h-44.1V256z"/>
<path class="st3" d="M379.1,273.7h-61.8c-4.9,0-8.8-4-8.8-8.8v-35.3c0-4.9,4-8.8,8.8-8.8h61.8c4.9,0,8.8,4,8.8,8.8v35.3
	C388,269.7,384,273.7,379.1,273.7z M326.2,256h44.1v-17.7h-44.1V256z"/>
<path class="st3" d="M193.8,309H132c-4.9,0-8.8-4-8.8-8.8v-35.3c0-4.9,4-8.8,8.8-8.8h61.8c4.9,0,8.8,4,8.8,8.8v35.3
	C202.6,305,198.6,309,193.8,309z M140.8,291.3h44.1v-17.7h-44.1V291.3z"/>
<path class="st3" d="M255.6,309h-61.8c-4.9,0-8.8-4-8.8-8.8v-35.3c0-4.9,4-8.8,8.8-8.8h61.8c4.9,0,8.8,4,8.8,8.8v35.3
	C264.4,305,260.4,309,255.6,309z M202.6,291.3h44.1v-17.7h-44.1V291.3z"/>
<path class="st3" d="M317.3,309h-61.8c-4.9,0-8.8-4-8.8-8.8v-35.3c0-4.9,4-8.8,8.8-8.8h61.8c4.9,0,8.8,4,8.8,8.8v35.3
	C326.2,305,322.2,309,317.3,309z M264.4,291.3h44.1v-17.7h-44.1V291.3z"/>
<path class="st3" d="M379.1,309h-61.8c-4.9,0-8.8-4-8.8-8.8v-35.3c0-4.9,4-8.8,8.8-8.8h61.8c4.9,0,8.8,4,8.8,8.8v35.3
	C388,305,384,309,379.1,309z M326.2,291.3h44.1v-17.7h-44.1V291.3z"/>
<path class="st4" d="M184.9,485.5h-35.2c-14.6,0-26.6-11.9-26.6-26.6v-52.8c0-14.6,11.9-26.6,26.6-26.6h35.2c4.9,0,8.8,4,8.8,8.8
	c0,4.9-4,8.8-8.8,8.8h-35.2c-4.9,0-8.9,4-8.9,8.9V459c0,4.9,4,8.9,8.9,8.9h35.2c4.9,0,8.8,4,8.8,8.8
	C193.8,481.6,189.8,485.5,184.9,485.5z"/>
<path class="st4" d="M251.1,485.5h-30.9c-4.9,0-8.8-4-8.8-8.8c0-4.9,4-8.8,8.8-8.8h30.9c7.3,0,13.2-5.9,13.2-13.2
	s-5.9-13.2-13.2-13.2h-8.8c-17,0-30.9-13.9-30.9-30.9c0-17,13.9-30.9,30.9-30.9h30.9c4.9,0,8.8,4,8.8,8.8c0,4.9-4,8.8-8.8,8.8h-30.9
	c-7.3,0-13.2,5.9-13.2,13.2c0,7.3,5.9,13.2,13.2,13.2h8.8c17,0,30.9,13.9,30.9,30.9C282,471.7,268.2,485.5,251.1,485.5z"/>
<path class="st4" d="M343.8,485.5c-3.6,0-6.9-2.2-8.2-5.5l-35.3-88.3c-1.8-4.5,0.4-9.7,4.9-11.5c4.5-1.8,9.7,0.4,11.5,4.9l27.1,67.8
	l27.1-67.8c1.8-4.5,6.9-6.7,11.5-4.9c4.5,1.8,6.7,6.9,4.9,11.5L352,480C350.7,483.3,347.4,485.5,343.8,485.5z"/>
</svg>
