<?xml version="1.0" encoding="utf-8"?>
<!-- Generator: Adobe Illustrator 25.2.0, SVG Export Plug-In . SVG Version: 6.00 Build 0)  -->
<svg version="1.1" id="Layer_1" xmlns="http://www.w3.org/2000/svg" xmlns:xlink="http://www.w3.org/1999/xlink" x="0px" y="0px"
	 viewBox="0 0 512 512" style="enable-background:new 0 0 512 512;" xml:space="preserve">
<style type="text/css">
	.st0{fill:#E3E4D8;}
	.st1{fill:#D0CEBD;}
	.st2{fill:#EF3C54;}
	.st3{fill:#FFFFFF;}
	.st4{fill:#EF394F;}
</style>
<path class="st0" d="M432.1,485.5H79V0h273.7l79.4,79.4V485.5z"/>
<path class="st1" d="M352.7,0v79.4h79.4L352.7,0z"/>
<path class="st2" d="M79,353.1h353.1V512H79V353.1z"/>
<path class="st3" d="M357.1,485.5h-30.9c-4.9,0-8.8-4-8.8-8.8c0-4.9,4-8.8,8.8-8.8h30.9c7.3,0,13.2-5.9,13.2-13.2
	s-5.9-13.2-13.2-13.2h-8.8c-17,0-30.9-13.9-30.9-30.9c0-17,13.9-30.9,30.9-30.9h30.9c4.9,0,8.8,4,8.8,8.8c0,4.9-4,8.8-8.8,8.8h-30.9
	c-7.3,0-13.2,5.9-13.2,13.2c0,7.3,5.9,13.2,13.2,13.2h8.8c17,0,30.9,13.9,30.9,30.9C388,471.7,374.1,485.5,357.1,485.5z"/>
<path class="st3" d="M184.9,485.5h-35.2c-14.6,0-26.6-11.9-26.6-26.6v-52.8c0-14.6,11.9-26.6,26.6-26.6h35.2c4.9,0,8.8,4,8.8,8.8
	c0,4.9-4,8.8-8.8,8.8h-35.2c-4.9,0-8.9,4-8.9,8.9V459c0,4.9,4,8.9,8.9,8.9h35.2c4.9,0,8.8,4,8.8,8.8
	C193.8,481.6,189.8,485.5,184.9,485.5z"/>
<path class="st3" d="M260,485.5h-30.9c-4.9,0-8.8-4-8.8-8.8c0-4.9,4-8.8,8.8-8.8H260c7.3,0,13.2-5.9,13.2-13.2s-5.9-13.2-13.2-13.2
	h-8.8c-17,0-30.9-13.9-30.9-30.9c0-17,13.9-30.9,30.9-30.9H282c4.9,0,8.8,4,8.8,8.8c0,4.9-4,8.8-8.8,8.8h-30.9
	c-7.3,0-13.2,5.9-13.2,13.2c0,7.3,5.9,13.2,13.2,13.2h8.8c17,0,30.9,13.9,30.9,30.9C290.9,471.7,277,485.5,260,485.5z"/>
<path class="st4" d="M202.6,317.8c-19.5,0-35.3-15.8-35.3-35.3v-53c0-9.7-7.9-17.7-17.7-17.7c-4.9,0-8.8-4-8.8-8.8
	c0-4.9,4-8.8,8.8-8.8c9.7,0,17.7-7.9,17.7-17.7v-53c0-19.5,15.8-35.3,35.3-35.3c4.9,0,8.8,4,8.8,8.8c0,4.9-4,8.8-8.8,8.8
	c-9.7,0-17.7,7.9-17.7,17.7v53c0,10.5-4.6,20-12,26.5c7.3,6.5,12,15.9,12,26.5v53c0,9.7,7.9,17.7,17.7,17.7c4.9,0,8.8,4,8.8,8.8
	C211.4,313.8,207.5,317.8,202.6,317.8z"/>
<path class="st4" d="M308.5,317.8c-4.9,0-8.8-4-8.8-8.8c0-4.9,4-8.8,8.8-8.8c9.7,0,17.7-7.9,17.7-17.7v-53c0-10.5,4.6-20,12-26.5
	c-7.3-6.5-12-16-12-26.5v-53c0-9.7-7.9-17.7-17.7-17.7c-4.9,0-8.8-4-8.8-8.8c0-4.9,4-8.8,8.8-8.8c19.5,0,35.3,15.8,35.3,35.3v53
	c0,9.7,7.9,17.7,17.7,17.7c4.9,0,8.8,4,8.8,8.8c0,4.9-4,8.8-8.8,8.8c-9.7,0-17.7,7.9-17.7,17.7v53C343.8,302,328,317.8,308.5,317.8z
	"/>
</svg>
