<?xml version="1.0" encoding="utf-8"?>
<!-- Generator: Adobe Illustrator 25.2.0, SVG Export Plug-In . SVG Version: 6.00 Build 0)  -->
<svg version="1.1" id="Layer_1" xmlns="http://www.w3.org/2000/svg" xmlns:xlink="http://www.w3.org/1999/xlink" x="0px" y="0px"
	 viewBox="0 0 512 512" style="enable-background:new 0 0 512 512;" xml:space="preserve">
<style type="text/css">
	.st0{fill:#E3E4D8;}
	.st1{fill:#D0CEBD;}
	.st2{fill:#87C58C;}
	.st3{fill:#FFFFFF;}
	.st4{fill:#AFB6BB;}
</style>
<path class="st0" d="M432.1,485.5H79V0h273.7l79.4,79.4V485.5z"/>
<path class="st1" d="M352.7,0v79.4h79.4L352.7,0z"/>
<path class="st2" d="M79,353.1h353.1V512H79V353.1z"/>
<path class="st3" d="M140.8,485.5H132c-4.9,0-8.8-3.9-8.8-8.8v-88.3c0-4.9,4-8.8,8.8-8.8h8.8c29.2,0,53,23.8,53,53
	S170,485.5,140.8,485.5z M140.8,467.9L140.8,467.9L140.8,467.9z M140.8,397.2v70.6c19.5,0,35.3-15.8,35.3-35.3
	S160.3,397.2,140.8,397.2z"/>
<path class="st3" d="M282,485.5h-53c-4.9,0-8.8-3.9-8.8-8.8v-88.3c0-4.9,4-8.8,8.8-8.8c4.9,0,8.8,3.9,8.8,8.8v79.4H282
	c4.9,0,8.8,3.9,8.8,8.8C290.9,481.6,286.9,485.5,282,485.5z"/>
<path class="st3" d="M379.1,485.5h-53c-4.9,0-8.8-3.9-8.8-8.8v-88.3c0-4.9,4-8.8,8.8-8.8c4.9,0,8.8,3.9,8.8,8.8v79.4h44.1
	c4.9,0,8.8,3.9,8.8,8.8C388,481.6,384,485.5,379.1,485.5z"/>
<path class="st3" d="M343.8,209.1v-12.2l-3.3-0.4c-10-1.3-18.8-7.7-22.4-17.1c-0.4-1.2-0.9-2.4-1.5-3.6c-4.2-9.5-2.4-20.6,3.9-28.8
	l1.6-2.1l-8.6-8.6l-2.1,1.6c-8.2,6.4-19.3,8.2-28.8,3.9c-1.2-0.5-2.4-1-3.6-1.5c-9.4-3.6-15.9-12.4-17.1-22.4l-0.4-3.3h-12.2
	l-0.4,3.3c-1.3,10-7.7,18.8-17.1,22.4c-1.2,0.4-2.4,0.9-3.6,1.5c-9.5,4.2-20.6,2.4-28.8-3.9l-2.1-1.6l-8.6,8.6l1.7,2.1
	c6.4,8.2,8.2,19.3,3.9,28.8c-0.5,1.2-1,2.4-1.5,3.6c-3.6,9.4-12.4,15.9-22.4,17.1l-3.3,0.4v12.2l3.3,0.4c10,1.3,18.8,7.7,22.4,17.1
	c0.4,1.2,0.9,2.4,1.5,3.6c4.2,9.5,2.4,20.6-3.9,28.8l-1.7,2.1l8.6,8.6l2.1-1.7c8.2-6.4,19.3-8.2,28.8-3.9c1.2,0.5,2.4,1,3.6,1.5
	c9.4,3.6,15.9,12.4,17.1,22.4l0.4,3.3h12.2l0.4-3.3c1.3-10,7.7-18.8,17.1-22.4c1.2-0.5,2.4-0.9,3.6-1.5c9.5-4.2,20.6-2.4,28.8,3.9
	l2.1,1.7l8.6-8.6l-1.7-2.1c-6.4-8.2-8.2-19.3-3.9-28.8c0.5-1.2,1-2.4,1.5-3.6c3.6-9.4,12.4-15.9,22.4-17.1L343.8,209.1z"/>
<path class="st4" d="M282,203c0,14.6-11.9,26.5-26.5,26.5c-14.6,0-26.5-11.9-26.5-26.5s11.9-26.5,26.5-26.5
	C270.2,176.6,282,188.4,282,203z"/>
</svg>
