<?xml version="1.0" encoding="utf-8"?>
<!-- Generator: Adobe Illustrator 25.2.0, SVG Export Plug-In . SVG Version: 6.00 Build 0)  -->
<svg version="1.1" id="Layer_1" xmlns="http://www.w3.org/2000/svg" xmlns:xlink="http://www.w3.org/1999/xlink" x="0px" y="0px"
	 viewBox="0 0 512 512" style="enable-background:new 0 0 512 512;" xml:space="preserve">
<style type="text/css">
	.st0{fill:#E3E4D8;}
	.st1{fill:#D0CEBD;}
	.st2{fill:#7E8BD1;}
	.st3{fill:#FFFFFF;}
	.st4{fill:#B8ACA6;}
	.st5{fill:#988E89;}
</style>
<path class="st0" d="M432.1,485.5H79V0h273.7l79.4,79.4V485.5z"/>
<path class="st1" d="M352.7,0v79.4h79.4L352.7,0z"/>
<path class="st2" d="M79,353.1h353.1V512H79V353.1z"/>
<path class="st3" d="M132,485.5h-8.8c-4.9,0-8.8-3.9-8.8-8.8v-88.3c0-4.9,4-8.8,8.8-8.8h8.8c29.2,0,53,23.8,53,53
	S161.2,485.5,132,485.5z M132,467.9L132,467.9L132,467.9z M132,397.2v70.6c19.5,0,35.3-15.8,35.3-35.3S151.4,397.2,132,397.2z"/>
<path class="st3" d="M282,485.5c-3.5,0-6.7-2.1-8.1-5.3l-18.4-42.9l-18.4,42.9c-1.6,3.7-5.5,5.9-9.5,5.2c-4-0.6-7-3.8-7.4-7.8
	l-8.8-88.3c-0.5-4.9,3.1-9.2,7.9-9.7c4.8-0.4,9.2,3.1,9.7,7.9l5.4,54.2l13-30.3c1.4-3.2,4.6-5.3,8.1-5.3s6.7,2.1,8.1,5.3l13,30.3
	l5.4-54.2c0.5-4.9,4.8-8.3,9.7-7.9c4.8,0.5,8.4,4.8,7.9,9.7l-8.8,88.3c-0.4,4-3.5,7.2-7.4,7.8C282.9,485.5,282.5,485.5,282,485.5z"
	/>
<path class="st3" d="M370.3,485.5h-17.6c-14.6,0-26.6-11.9-26.6-26.6v-52.8c0-14.6,11.9-26.6,26.6-26.6H388c4.9,0,8.8,3.9,8.8,8.8
	s-4,8.8-8.8,8.8h-35.2c-4.9,0-8.9,4-8.9,8.9V459c0,4.9,4,8.9,8.9,8.9h17.6c4.9,0,8.9-4,8.9-8.9v-26.4c0-4.9,4-8.8,8.8-8.8
	c4.9,0,8.8,3.9,8.8,8.8V459C396.8,473.6,384.9,485.5,370.3,485.5z"/>
<path class="st3" d="M388,441.4h-17.7c-4.9,0-8.8-3.9-8.8-8.8c0-4.9,4-8.8,8.8-8.8H388c4.9,0,8.8,3.9,8.8,8.8
	C396.8,437.4,392.8,441.4,388,441.4z"/>
<path class="st4" d="M255.6,158.9c-4.9,0-8.8-3.9-8.8-8.8V79.4c0-4.9,4-8.8,8.8-8.8c4.9,0,8.8,3.9,8.8,8.8v70.6
	C264.4,154.9,260.4,158.9,255.6,158.9z"/>
<path class="st4" d="M255.6,317.8c-4.9,0-8.8-3.9-8.8-8.8v-70.6c0-4.9,4-8.8,8.8-8.8c4.9,0,8.8,3.9,8.8,8.8V309
	C264.4,313.8,260.4,317.8,255.6,317.8z"/>
<path class="st4" d="M370.3,203h-70.6c-4.9,0-8.8-3.9-8.8-8.8s4-8.8,8.8-8.8h70.6c4.9,0,8.8,3.9,8.8,8.8S375.2,203,370.3,203z"/>
<path class="st4" d="M211.4,203h-70.6c-4.9,0-8.8-3.9-8.8-8.8s4-8.8,8.8-8.8h70.6c4.9,0,8.8,3.9,8.8,8.8S216.3,203,211.4,203z"/>
<path class="st5" d="M211.4,150.1h88.3v88.3h-88.3V150.1z"/>
</svg>
