<?xml version="1.0" encoding="utf-8"?>
<!-- Generator: Adobe Illustrator 25.2.0, SVG Export Plug-In . SVG Version: 6.00 Build 0)  -->
<svg version="1.1" id="Layer_1" xmlns="http://www.w3.org/2000/svg" xmlns:xlink="http://www.w3.org/1999/xlink" x="0px" y="0px"
	 viewBox="0 0 512 512" style="enable-background:new 0 0 512 512;" xml:space="preserve">
<style type="text/css">
	.st0{fill:#E3E4D8;}
	.st1{fill:#D0CEBD;}
	.st2{fill:#2C81E4;}
	.st3{fill:#FFFFFF;}
	.st4{fill:#D794FA;}
	.st5{fill:#82C288;}
	.st6{fill:#F28793;}
	.st7{fill:#EACD3B;}
	.st8{fill:#B53438;}
	.st9{fill:#82619A;}
	.st10{fill:#D36A0A;}
</style>
<path class="st0" d="M432.1,485.5H79V0h273.7l79.4,79.4V485.5z"/>
<path class="st1" d="M352.7,0v79.4h79.4L352.7,0z"/>
<path class="st2" d="M79,353.1h353.1V512H79V353.1z"/>
<path class="st3" d="M388,485.5h-35.2c-14.6,0-26.6-11.9-26.6-26.6v-52.8c0-14.6,11.9-26.6,26.6-26.6H388c4.9,0,8.8,4,8.8,8.8
	c0,4.9-4,8.8-8.8,8.8h-35.2c-4.9,0-8.9,4-8.9,8.9V459c0,4.9,4,8.9,8.9,8.9H388c4.9,0,8.8,4,8.8,8.8
	C396.8,481.6,392.8,485.5,388,485.5z"/>
<path class="st3" d="M149.6,485.5h-8.8c-4.9,0-8.8-4-8.8-8.8v-88.3c0-4.9,4-8.8,8.8-8.8h8.8c29.2,0,53,23.8,53,53
	S178.8,485.5,149.6,485.5z M149.6,467.9L149.6,467.9L149.6,467.9z M149.6,397.2v70.6c19.5,0,35.3-15.8,35.3-35.3
	S169.1,397.2,149.6,397.2z"/>
<path class="st3" d="M273.2,485.5h-17.7c-14.6,0-26.5-11.9-26.5-26.5v-53c0-14.6,11.9-26.5,26.5-26.5h17.7
	c14.6,0,26.5,11.9,26.5,26.5v53C299.7,473.6,287.8,485.5,273.2,485.5z M255.6,397.2c-4.9,0-8.8,4-8.8,8.8v53c0,4.9,4,8.8,8.8,8.8
	h17.7c4.9,0,8.8-4,8.8-8.8v-53c0-4.9-4-8.8-8.8-8.8H255.6z"/>
<path class="st4" d="M211.4,309h-70.6c-4.9,0-8.8-4-8.8-8.8c0-4.9,4-8.8,8.8-8.8h70.6c4.9,0,8.8,4,8.8,8.8
	C220.2,305,216.3,309,211.4,309z"/>
<path class="st5" d="M335,309h-88.3c-4.9,0-8.8-4-8.8-8.8c0-4.9,4-8.8,8.8-8.8H335c4.9,0,8.8,4,8.8,8.8C343.8,305,339.9,309,335,309
	z"/>
<path class="st6" d="M388,309h-17.7c-4.9,0-8.8-4-8.8-8.8c0-4.9,4-8.8,8.8-8.8H388c4.9,0,8.8,4,8.8,8.8C396.8,305,392.8,309,388,309
	z"/>
<path class="st7" d="M141.1,211.9h53v53h-53V211.9z"/>
<path class="st8" d="M141.1,123.6h247.2v53H141.1V123.6z"/>
<path class="st9" d="M335.3,211.9h53v53h-53V211.9z"/>
<path class="st10" d="M238.2,211.9h53v53h-53V211.9z"/>
</svg>
