<svg width="512" height="512" viewBox="0 0 512 512" fill="none" xmlns="http://www.w3.org/2000/svg">
<path d="M432.1 485.5H79V0H352.7L432.1 79.4V485.5Z" fill="#E3E4D8"/>
<path d="M352.7 0V79.4H432.1L352.7 0Z" fill="#D0CEBD"/>
<path d="M79 353H432.1V511.9H79V353Z" fill="#222741"/>
<path d="M106.776 466.736C104.28 466.736 102.36 466.064 101.016 464.72C99.672 463.376 99 461.456 99 458.96V406.832C99 404.336 99.672 402.416 101.016 401.072C102.36 399.728 104.28 399.056 106.776 399.056H125.496C137.08 399.056 146.008 402 152.28 407.888C158.616 413.712 161.784 422.032 161.784 432.848C161.784 438.288 160.952 443.12 159.288 447.344C157.688 451.504 155.352 455.024 152.28 457.904C149.208 460.784 145.432 462.992 140.952 464.528C136.472 466 131.32 466.736 125.496 466.736H106.776ZM113.88 454.544H124.632C128.28 454.544 131.448 454.096 134.136 453.2C136.824 452.304 139.064 450.96 140.856 449.168C142.648 447.376 143.992 445.136 144.888 442.448C145.784 439.696 146.232 436.496 146.232 432.848C146.232 425.552 144.408 420.144 140.76 416.624C137.176 413.04 131.8 411.248 124.632 411.248H113.88V454.544Z" fill="white"/>
<path d="M180.832 467.6C178.4 467.6 176.544 466.928 175.264 465.584C173.984 464.24 173.344 462.352 173.344 459.92V405.872C173.344 403.44 173.984 401.552 175.264 400.208C176.544 398.864 178.4 398.192 180.832 398.192C183.2 398.192 185.024 398.864 186.304 400.208C187.584 401.552 188.224 403.44 188.224 405.872V459.92C188.224 462.352 187.584 464.24 186.304 465.584C185.088 466.928 183.264 467.6 180.832 467.6Z" fill="white"/>
<path d="M234.676 467.792C227.38 467.792 221.14 466.352 215.956 463.472C210.772 460.592 206.772 456.56 203.956 451.376C201.204 446.128 199.828 439.952 199.828 432.848C199.828 427.536 200.596 422.768 202.132 418.544C203.732 414.256 206.036 410.608 209.044 407.6C212.052 404.528 215.7 402.16 219.988 400.496C224.34 398.832 229.236 398 234.676 398C237.876 398 241.108 398.416 244.372 399.248C247.7 400.016 250.58 401.136 253.012 402.608C254.612 403.504 255.7 404.624 256.276 405.968C256.852 407.312 257.012 408.656 256.756 410C256.564 411.344 256.02 412.496 255.124 413.456C254.292 414.416 253.236 415.024 251.956 415.28C250.676 415.536 249.236 415.248 247.636 414.416C245.716 413.264 243.7 412.432 241.588 411.92C239.476 411.408 237.332 411.152 235.156 411.152C230.868 411.152 227.252 412.016 224.308 413.744C221.428 415.408 219.252 417.84 217.78 421.04C216.308 424.24 215.572 428.176 215.572 432.848C215.572 437.456 216.308 441.392 217.78 444.656C219.252 447.92 221.428 450.416 224.308 452.144C227.252 453.808 230.868 454.64 235.156 454.64C237.204 454.64 239.284 454.384 241.396 453.872C243.572 453.36 245.652 452.56 247.636 451.472C249.3 450.64 250.772 450.352 252.052 450.608C253.396 450.8 254.484 451.376 255.316 452.336C256.212 453.232 256.756 454.32 256.948 455.6C257.204 456.88 257.076 458.16 256.564 459.44C256.052 460.72 255.092 461.808 253.684 462.704C251.316 464.304 248.404 465.552 244.948 466.448C241.492 467.344 238.068 467.792 234.676 467.792Z" fill="white"/>
<path d="M296.611 467.792C289.955 467.792 284.099 466.352 279.043 463.472C274.051 460.528 270.147 456.432 267.331 451.184C264.579 445.936 263.203 439.824 263.203 432.848C263.203 427.536 263.971 422.768 265.507 418.544C267.107 414.256 269.379 410.608 272.323 407.6C275.267 404.528 278.787 402.16 282.883 400.496C287.043 398.832 291.619 398 296.611 398C303.395 398 309.283 399.44 314.275 402.32C319.267 405.2 323.139 409.264 325.891 414.512C328.707 419.696 330.115 425.776 330.115 432.752C330.115 438.064 329.315 442.864 327.715 447.152C326.115 451.44 323.843 455.12 320.899 458.192C317.955 461.264 314.435 463.632 310.339 465.296C306.243 466.96 301.667 467.792 296.611 467.792ZM296.611 455.12C300.387 455.12 303.587 454.256 306.211 452.528C308.899 450.736 310.947 448.176 312.355 444.848C313.827 441.456 314.563 437.456 314.563 432.848C314.563 425.808 312.995 420.368 309.859 416.528C306.723 412.624 302.307 410.672 296.611 410.672C292.899 410.672 289.699 411.536 287.011 413.264C284.323 414.992 282.275 417.52 280.867 420.848C279.459 424.176 278.755 428.176 278.755 432.848C278.755 439.824 280.323 445.296 283.459 449.264C286.595 453.168 290.979 455.12 296.611 455.12Z" fill="white"/>
<path d="M348.537 467.6C346.361 467.6 344.697 466.992 343.545 465.776C342.393 464.56 341.817 462.864 341.817 460.688V405.104C341.817 402.928 342.425 401.232 343.641 400.016C344.921 398.8 346.649 398.192 348.825 398.192C350.745 398.192 352.249 398.576 353.337 399.344C354.489 400.048 355.545 401.296 356.505 403.088L378.681 443.6H375.417L397.593 403.088C398.553 401.296 399.577 400.048 400.665 399.344C401.817 398.576 403.321 398.192 405.177 398.192C407.353 398.192 409.017 398.8 410.169 400.016C411.385 401.232 411.993 402.928 411.993 405.104V460.688C411.993 462.864 411.417 464.56 410.265 465.776C409.113 466.992 407.449 467.6 405.273 467.6C403.097 467.6 401.401 466.992 400.185 465.776C399.033 464.56 398.457 462.864 398.457 460.688V421.808H400.569L382.713 453.776C381.945 454.992 381.113 455.92 380.217 456.56C379.385 457.136 378.265 457.424 376.857 457.424C375.449 457.424 374.297 457.104 373.401 456.464C372.505 455.824 371.705 454.928 371.001 453.776L352.953 421.712H355.257V460.688C355.257 462.864 354.681 464.56 353.529 465.776C352.441 466.992 350.777 467.6 348.537 467.6Z" fill="white"/>
<path d="M265.097 281.207V294.693C265.097 296.277 264.467 297.797 263.347 298.917C262.227 300.037 260.708 300.667 259.123 300.667H254.877C253.292 300.667 251.773 300.037 250.653 298.917C249.533 297.797 248.903 296.277 248.903 294.693V281.207C249.533 281.3 264.677 281.277 265.097 281.207V281.207Z" fill="#222741"/>
<path d="M274.71 257.196V266.016C274.71 268.82 273.596 271.508 271.614 273.49C269.632 275.473 266.943 276.586 264.14 276.586H249.86C247.057 276.586 244.368 275.473 242.386 273.49C240.404 271.508 239.29 268.82 239.29 266.016V257.196H244.237C244.237 260.581 245.581 263.828 247.975 266.221C250.369 268.615 253.615 269.96 257 269.96C260.385 269.96 263.631 268.615 266.025 266.221C268.419 263.828 269.763 260.581 269.763 257.196H274.71Z" fill="#222741"/>
<path d="M328.587 234.843C330.694 237.428 331.758 240.708 331.568 244.037C331.378 247.367 329.948 250.505 327.56 252.833C324.62 255.726 321.493 257.15 318.367 254.536L311.157 248.283C306.264 244.05 300.01 241.723 293.54 241.726H265.097V229.173H316.897C319.749 229.16 322.544 229.97 324.947 231.506C328.134 229.603 330.84 226.993 332.857 223.876C335.837 221.566 338.248 218.602 339.902 215.213C341.557 211.824 342.411 208.1 342.4 204.329C342.389 200.558 341.512 196.84 339.837 193.461C338.162 190.082 335.734 187.132 332.74 184.84C330.985 188.028 328.604 190.83 325.74 193.076C328.108 194.81 329.871 197.245 330.78 200.036C331.689 202.826 331.697 205.832 330.805 208.628C329.913 211.424 328.164 213.869 325.806 215.617C323.449 217.365 320.601 218.328 317.667 218.37H265.097V190.65C322.45 190.65 318.6 190.533 320.607 190.93C324.192 188.718 327.142 185.615 329.17 181.923C332.402 177.611 333.898 172.243 333.362 166.881C332.827 161.519 330.298 156.553 326.277 152.966C324.318 156.03 321.744 158.652 318.717 160.666C320.425 162.084 321.656 163.993 322.243 166.134C322.83 168.275 322.744 170.545 321.998 172.636C321.252 174.726 319.881 176.537 318.071 177.823C316.261 179.109 314.1 179.807 311.88 179.823H265.213V158.333H313.21C317.101 156.693 320.37 153.857 322.543 150.236C324.211 147.849 325.302 145.107 325.728 142.227C326.154 139.346 325.905 136.406 324.999 133.638C324.094 130.871 322.558 128.351 320.512 126.279C318.466 124.207 315.966 122.64 313.21 121.7C313.169 121.923 313.106 122.142 313.023 122.353C311.821 125.766 309.895 128.878 307.377 131.476C309.493 131.507 311.511 132.378 312.985 133.896C314.46 135.414 315.271 137.456 315.24 139.573C315.209 141.689 314.339 143.707 312.82 145.181C311.302 146.656 309.26 147.467 307.143 147.436H265.143V131.453H299.443C303.743 129.176 307.014 125.346 308.59 120.743C308.59 120.743 308.59 120.743 308.59 120.626C308.59 120.51 308.59 120.346 308.753 120.23C309.941 117.406 310.415 114.333 310.133 111.283C309.852 108.232 308.825 105.298 307.142 102.739C305.459 100.179 303.171 98.0733 300.482 96.6068C297.792 95.1403 294.783 94.3582 291.72 94.3296H281.663L278.607 105.133H291.79C292.845 105.075 293.9 105.233 294.892 105.597C295.883 105.96 296.79 106.522 297.557 107.249C298.324 107.975 298.935 108.85 299.353 109.82C299.77 110.79 299.986 111.835 299.986 112.891C299.986 113.947 299.77 114.993 299.353 115.963C298.935 116.933 298.324 117.808 297.557 118.534C296.79 119.26 295.883 119.822 294.892 120.186C293.9 120.55 292.845 120.707 291.79 120.65H265.097V116.986H248.903V120.65H222.21C221.156 120.707 220.1 120.55 219.109 120.186C218.117 119.822 217.21 119.26 216.443 118.534C215.676 117.808 215.065 116.933 214.647 115.963C214.23 114.993 214.015 113.947 214.015 112.891C214.015 111.835 214.23 110.79 214.647 109.82C215.065 108.85 215.676 107.975 216.443 107.249C217.21 106.522 218.117 105.96 219.109 105.597C220.1 105.233 221.156 105.075 222.21 105.133H235.393L232.337 94.3296H222.21C219.096 94.3524 216.038 95.1537 213.313 96.6607C210.588 98.1678 208.283 100.333 206.609 102.958C204.934 105.583 203.943 108.586 203.725 111.692C203.508 114.798 204.071 117.91 205.363 120.743C206.831 125.286 209.955 129.109 214.113 131.453H248.903V147.436H206.903C204.787 147.492 202.735 146.705 201.199 145.247C199.663 143.79 198.769 141.783 198.713 139.666C198.658 137.55 199.445 135.498 200.902 133.962C202.359 132.426 204.367 131.532 206.483 131.476C203.852 128.699 201.91 125.342 200.813 121.676C198.057 122.619 195.557 124.19 193.511 126.264C191.465 128.338 189.929 130.859 189.024 133.629C188.119 136.398 187.87 139.34 188.296 142.222C188.722 145.104 189.812 147.847 191.48 150.236C193.642 153.861 196.915 156.692 200.813 158.31H248.903V179.916H202.237C199.983 179.953 197.773 179.285 195.917 178.006C194.06 176.727 192.65 174.9 191.881 172.78C191.113 170.66 191.026 168.354 191.632 166.182C192.237 164.011 193.506 162.082 195.26 160.666C192.224 158.641 189.655 155.993 187.723 152.896C183.695 156.488 181.161 161.46 180.621 166.83C180.081 172.2 181.575 177.577 184.807 181.9C186.844 185.617 189.8 188.751 193.393 191C195.377 190.603 191.363 190.72 248.903 190.72V218.37H196.333C192.641 218.37 189.097 216.911 186.475 214.31C183.853 211.71 182.364 208.179 182.333 204.486C182.329 202.266 182.863 200.079 183.892 198.111C184.92 196.144 186.411 194.456 188.237 193.193C185.388 190.921 183.011 188.115 181.237 184.933C178.279 187.208 175.877 190.125 174.213 193.464C172.548 196.804 171.665 200.478 171.629 204.209C171.593 207.94 172.405 211.63 174.005 215.001C175.605 218.372 177.95 221.335 180.863 223.666C183.343 226.781 186.675 229.108 190.453 230.363C192.3 229.531 194.309 229.124 196.333 229.173H248.903V241.726H220.46C213.991 241.723 207.736 244.05 202.843 248.283L195.657 254.466C194.907 255.151 193.974 255.604 192.972 255.77C191.97 255.936 190.941 255.807 190.01 255.4C188.098 254.435 186.435 253.04 185.153 251.324C183.871 249.609 183.003 247.62 182.619 245.513C182.235 243.406 182.344 241.238 182.938 239.18C183.532 237.123 184.595 235.231 186.043 233.653C182.773 232.042 179.867 229.779 177.503 227.003C173.684 231.469 171.589 237.156 171.6 243.033C171.6 260.44 190.033 273.623 202.727 262.656L209.89 256.473C212.826 253.932 216.578 252.532 220.46 252.53H248.903V257.01C248.903 259.157 249.757 261.216 251.275 262.735C252.793 264.253 254.853 265.106 257 265.106C259.148 265.106 261.207 264.253 262.725 262.735C264.244 261.216 265.097 259.157 265.097 257.01V252.53H293.54C297.423 252.532 301.174 253.932 304.11 256.473L311.32 262.68C313.65 264.743 316.534 266.08 319.615 266.523C322.696 266.967 325.839 266.499 328.657 265.176C332.035 263.543 334.99 261.15 337.29 258.186C339.59 255.221 341.174 251.765 341.917 248.087C342.661 244.409 342.543 240.609 341.575 236.984C340.606 233.359 338.812 230.007 336.333 227.19C334.241 230.193 331.615 232.787 328.587 234.843V234.843Z" fill="#222741"/>
<path d="M265.89 112.32H248.11C246.428 112.327 244.79 111.784 243.446 110.773C242.101 109.762 241.125 108.338 240.667 106.72L236.14 90.6664C235.793 89.5159 235.721 88.3001 235.93 87.1167C236.138 85.9332 236.622 84.8153 237.341 83.8529C238.061 82.8905 238.996 82.1104 240.072 81.5755C241.148 81.0406 242.335 80.7657 243.537 80.7731H270.463C271.665 80.7657 272.852 81.0406 273.928 81.5755C275.004 82.1104 275.939 82.8905 276.659 83.8529C277.378 84.8153 277.862 85.9332 278.07 87.1167C278.279 88.3001 278.207 89.5159 277.86 90.6664L273.333 106.72C272.875 108.338 271.899 109.762 270.554 110.773C269.21 111.784 267.572 112.327 265.89 112.32V112.32Z" fill="#222741"/>
<path d="M265.61 86.5596H248.413C246.274 86.5596 244.54 88.2937 244.54 90.4329V90.4562C244.54 92.5954 246.274 94.3296 248.413 94.3296H265.61C267.749 94.3296 269.483 92.5954 269.483 90.4562V90.4329C269.483 88.2937 267.749 86.5596 265.61 86.5596Z" fill="#222741"/>
</svg>
