<?xml version="1.0" encoding="utf-8"?>
<!-- Generator: Adobe Illustrator 25.2.0, SVG Export Plug-In . SVG Version: 6.00 Build 0)  -->
<svg version="1.1" id="Layer_1" xmlns="http://www.w3.org/2000/svg" xmlns:xlink="http://www.w3.org/1999/xlink" x="0px" y="0px"
	 viewBox="0 0 512 512" style="enable-background:new 0 0 512 512;" xml:space="preserve">
<style type="text/css">
	.st0{fill:#E3E4D8;}
	.st1{fill:#D0CEBD;}
	.st2{fill:#4D4799;}
	.st3{fill:#FFFFFF;}
</style>
<path class="st0" d="M432.1,485.5H79V0h273.7l79.4,79.4V485.5z"/>
<path class="st1" d="M352.7,0v79.4h79.4L352.7,0z"/>
<path class="st2" d="M79,353.1h353.1V512H79V353.1z"/>
<path class="st2" d="M299.7,282.5c-1.2,0-2.3-0.2-3.5-0.7c-4.5-1.9-6.6-7.1-4.6-11.6l53-123.6c1.9-4.5,7.1-6.6,11.6-4.6
	c4.5,1.9,6.6,7.1,4.6,11.6l-53,123.6C306.4,280.5,303.1,282.5,299.7,282.5z"/>
<path class="st3" d="M379.1,441.4h-53c-4.9,0-8.8-4-8.8-8.8v-44.1c0-4.9,4-8.8,8.8-8.8h53c4.9,0,8.8,4,8.8,8.8c0,4.9-4,8.8-8.8,8.8
	H335v26.5h44.1c4.9,0,8.8,4,8.8,8.8C388,437.4,384,441.4,379.1,441.4z"/>
<path class="st3" d="M379.1,485.5h-53c-4.9,0-8.8-4-8.8-8.8v-44.1c0-4.9,4-8.8,8.8-8.8h53c4.9,0,8.8,4,8.8,8.8c0,4.9-4,8.8-8.8,8.8
	H335v26.5h44.1c4.9,0,8.8,4,8.8,8.8C388,481.6,384,485.5,379.1,485.5z"/>
<path class="st3" d="M229.1,485.5c-1.5,0-3.1-0.4-4.5-1.3c-4.2-2.5-5.5-7.9-3-12.1l53-88.3c2.5-4.2,7.9-5.5,12.1-3
	c4.2,2.5,5.5,7.9,3,12.1l-53,88.3C235,484,232.1,485.5,229.1,485.5z"/>
<path class="st3" d="M282,485.5c-3,0-5.9-1.5-7.6-4.3l-53-88.3c-2.5-4.2-1.2-9.6,3-12.1c4.2-2.5,9.6-1.2,12.1,3l53,88.3
	c2.5,4.2,1.2,9.6-3,12.1C285.2,485.1,283.6,485.5,282,485.5z"/>
<path class="st3" d="M184.9,441.4h-53c-4.9,0-8.8-4-8.8-8.8v-44.1c0-4.9,4-8.8,8.8-8.8h53c4.9,0,8.8,4,8.8,8.8c0,4.9-4,8.8-8.8,8.8
	h-44.1v26.5h44.1c4.9,0,8.8,4,8.8,8.8C193.8,437.4,189.8,441.4,184.9,441.4z"/>
<path class="st3" d="M184.9,485.5h-53c-4.9,0-8.8-4-8.8-8.8v-44.1c0-4.9,4-8.8,8.8-8.8h53c4.9,0,8.8,4,8.8,8.8c0,4.9-4,8.8-8.8,8.8
	h-44.1v26.5h44.1c4.9,0,8.8,4,8.8,8.8C193.8,481.6,189.8,485.5,184.9,485.5z"/>
<path class="st2" d="M211.4,273.7h-35.2c-14.6,0-26.6-11.9-26.6-26.6v-70.5c0-14.6,11.9-26.6,26.6-26.6h35.2c4.9,0,8.8,4,8.8,8.8
	c0,4.9-4,8.8-8.8,8.8h-35.2c-4.9,0-8.9,4-8.9,8.9v70.5c0,4.9,4,8.9,8.9,8.9h35.2c4.9,0,8.8,4,8.8,8.8
	C220.2,269.8,216.3,273.7,211.4,273.7z"/>
<path class="st2" d="M255.6,194.2c-4.9,0-8.8-4-8.8-8.8v-8.8c0-4.9,4-8.8,8.8-8.8c4.9,0,8.8,4,8.8,8.8v8.8
	C264.4,190.3,260.4,194.2,255.6,194.2z"/>
<path class="st2" d="M255.6,256c-4.9,0-8.8-4-8.8-8.8v-8.8c0-4.9,4-8.8,8.8-8.8c4.9,0,8.8,4,8.8,8.8v8.8
	C264.4,252,260.4,256,255.6,256z"/>
</svg>
