<?xml version="1.0" encoding="utf-8"?>
<!-- Generator: Adobe Illustrator 25.2.0, SVG Export Plug-In . SVG Version: 6.00 Build 0)  -->
<svg version="1.1" id="Layer_1" xmlns="http://www.w3.org/2000/svg" xmlns:xlink="http://www.w3.org/1999/xlink" x="0px" y="0px"
	 viewBox="0 0 512 512" style="enable-background:new 0 0 512 512;" xml:space="preserve">
<style type="text/css">
	.st0{fill:#E3E4D8;}
	.st1{fill:#F6B700;}
	.st2{fill:#D0CEBD;}
	.st3{fill:#FFFFFF;}
	.st4{fill:#AFB6BB;}
	.st5{fill:#C19016;}
</style>
<path class="st0" d="M432.1,485.5H79V0h273.7l79.4,79.4V485.5z"/>
<path class="st1" d="M176.1,220.7H335v79.4H176.1V220.7z"/>
<path class="st2" d="M352.7,0v79.4h79.4L352.7,0z"/>
<path class="st1" d="M79,353.1h353.1V512H79V353.1z"/>
<path class="st3" d="M379.1,485.5h-53c-4.9,0-8.8-3.9-8.8-8.8c0-4.9,4-8.8,8.8-8.8h53c4.9,0,8.8,3.9,8.8,8.8
	C388,481.6,384,485.5,379.1,485.5z"/>
<path class="st3" d="M326.2,485.5c-4.9,0-8.8-3.9-8.8-8.8v-88.3c0-4.9,4-8.8,8.8-8.8c4.9,0,8.8,3.9,8.8,8.8v88.3
	C335,481.6,331,485.5,326.2,485.5z"/>
<path class="st3" d="M290.9,485.5c-4.9,0-8.8-3.9-8.8-8.8v-55l-18.8,32.9c-3.1,5.5-12.2,5.5-15.3,0l-18.8-32.9v55
	c0,4.9-4,8.8-8.8,8.8c-4.9,0-8.8-3.9-8.8-8.8v-88.3c0-4,2.7-7.5,6.6-8.5c3.9-1,7.9,0.7,9.9,4.2l27.6,48.4l27.6-48.4
	c2-3.5,6-5.2,9.9-4.2c3.9,1,6.6,4.5,6.6,8.5v88.3C299.7,481.6,295.7,485.5,290.9,485.5z"/>
<path class="st3" d="M184.9,441.4h-53c-4.9,0-8.8-3.9-8.8-8.8v-44.1c0-4.9,4-8.8,8.8-8.8h53c4.9,0,8.8,3.9,8.8,8.8s-4,8.8-8.8,8.8
	h-44.1v26.5h44.1c4.9,0,8.8,3.9,8.8,8.8C193.8,437.4,189.8,441.4,184.9,441.4z"/>
<path class="st3" d="M184.9,485.5h-53c-4.9,0-8.8-3.9-8.8-8.8v-44.1c0-4.9,4-8.8,8.8-8.8h53c4.9,0,8.8,3.9,8.8,8.8
	c0,4.9-4,8.8-8.8,8.8h-44.1v26.5h44.1c4.9,0,8.8,3.9,8.8,8.8C193.8,481.6,189.8,485.5,184.9,485.5z"/>
<path class="st3" d="M255.6,261.3l12.6,8.8l58-40.6V114.8H184.9v114.8l58,40.6L255.6,261.3z"/>
<path class="st4" d="M273.2,167.7h-35.3c-4.9,0-8.8-3.9-8.8-8.8c0-4.9,4-8.8,8.8-8.8h35.3c4.9,0,8.8,3.9,8.8,8.8
	C282,163.8,278.1,167.7,273.2,167.7z"/>
<path class="st4" d="M290.9,203h-70.6c-4.9,0-8.8-3.9-8.8-8.8s4-8.8,8.8-8.8h70.6c4.9,0,8.8,3.9,8.8,8.8S295.7,203,290.9,203z"/>
<path class="st5" d="M343.8,309H167.3l88.3-61.8L343.8,309z"/>
<path class="st1" d="M268.2,256l75.7,53V203L268.2,256z"/>
<path class="st1" d="M167.3,203V309l75.7-53L167.3,203z"/>
</svg>
