<?xml version="1.0" encoding="utf-8"?>
<!-- Generator: Adobe Illustrator 25.2.0, SVG Export Plug-In . SVG Version: 6.00 Build 0)  -->
<svg version="1.1" id="Layer_1" xmlns="http://www.w3.org/2000/svg" xmlns:xlink="http://www.w3.org/1999/xlink" x="0px" y="0px"
	 viewBox="0 0 512 512" style="enable-background:new 0 0 512 512;" xml:space="preserve">
<style type="text/css">
	.st0{fill:#E3E4D8;}
	.st1{fill:#CDC8BF;}
	.st2{fill:#D0CEBD;}
	.st3{fill:#571D32;}
	.st4{fill:#563C09;}
	.st5{fill:#FFFFFF;}
</style>
<path class="st0" d="M432.1,485.5H79V0h273.7l79.4,79.4V485.5z"/>
<path class="st1" d="M370.3,167.7h-97.1c-4.9,0-8.8-4-8.8-8.8c0-4.9,4-8.8,8.8-8.8h97.1c4.9,0,8.8,4,8.8,8.8
	C379.1,163.8,375.2,167.7,370.3,167.7z"/>
<path class="st1" d="M237.9,167.7h-97.1c-4.9,0-8.8-4-8.8-8.8c0-4.9,4-8.8,8.8-8.8h97.1c4.9,0,8.8,4,8.8,8.8
	C246.7,163.8,242.8,167.7,237.9,167.7z"/>
<path class="st1" d="M352.7,247.2c-4.9,0-8.8-4-8.8-8.8c0-38.9-31.7-70.6-70.6-70.6c-4.9,0-8.8-4-8.8-8.8c0-4.9,4-8.8,8.8-8.8
	c48.7,0,88.3,39.6,88.3,88.3C361.5,243.2,357.5,247.2,352.7,247.2z"/>
<path class="st1" d="M158.4,247.2c-4.9,0-8.8-4-8.8-8.8c0-48.7,39.6-88.3,88.3-88.3c4.9,0,8.8,4,8.8,8.8c0,4.9-4,8.8-8.8,8.8
	c-38.9,0-70.6,31.7-70.6,70.6C167.3,243.2,163.3,247.2,158.4,247.2z"/>
<path class="st2" d="M352.7,0v79.4h79.4L352.7,0z"/>
<path class="st3" d="M79,353.1h353.1V512H79V353.1z"/>
<path class="st4" d="M237.9,141.2h35.3v35.3h-35.3V141.2z"/>
<path class="st4" d="M335,238.3h35.3v35.3H335V238.3z"/>
<path class="st4" d="M176.1,273.7h-35.3v-35.3h35.3V273.7z"/>
<path class="st5" d="M357.1,485.5h-30.9c-4.9,0-8.8-4-8.8-8.8c0-4.9,4-8.8,8.8-8.8h30.9c7.3,0,13.2-5.9,13.2-13.2
	s-5.9-13.2-13.2-13.2h-8.8c-17,0-30.9-13.9-30.9-30.9c0-17,13.9-30.9,30.9-30.9h30.9c4.9,0,8.8,4,8.8,8.8c0,4.9-4,8.8-8.8,8.8h-30.9
	c-7.3,0-13.2,5.9-13.2,13.2c0,7.3,5.9,13.2,13.2,13.2h8.8c17,0,30.9,13.9,30.9,30.9C388,471.7,374.1,485.5,357.1,485.5z"/>
<path class="st5" d="M184.9,441.4h-53c-4.9,0-8.8-4-8.8-8.8v-44.1c0-4.9,4-8.8,8.8-8.8h53c4.9,0,8.8,4,8.8,8.8c0,4.9-4,8.8-8.8,8.8
	h-44.1v26.5h44.1c4.9,0,8.8,4,8.8,8.8C193.8,437.4,189.8,441.4,184.9,441.4z"/>
<path class="st5" d="M184.9,485.5h-53c-4.9,0-8.8-4-8.8-8.8v-44.1c0-4.9,4-8.8,8.8-8.8h53c4.9,0,8.8,4,8.8,8.8c0,4.9-4,8.8-8.8,8.8
	h-44.1v26.5h44.1c4.9,0,8.8,4,8.8,8.8C193.8,481.6,189.8,485.5,184.9,485.5z"/>
<path class="st5" d="M229.1,485.5c-4.9,0-8.8-4-8.8-8.8v-88.3c0-4.9,4-8.8,8.8-8.8c4.9,0,8.8,4,8.8,8.8v88.3
	C237.9,481.6,233.9,485.5,229.1,485.5z"/>
<path class="st5" d="M255.6,450.2h-26.5c-4.9,0-8.8-4-8.8-8.8v-53c0-4.9,4-8.8,8.8-8.8h26.5c19.5,0,35.3,15.8,35.3,35.3
	C290.9,434.4,275,450.2,255.6,450.2z M237.9,432.6h17.7c9.7,0,17.7-7.9,17.7-17.7c0-9.7-7.9-17.7-17.7-17.7h-17.7V432.6z"/>
</svg>
