<?xml version="1.0" encoding="utf-8"?>
<!-- Generator: Adobe Illustrator 25.2.0, SVG Export Plug-In . SVG Version: 6.00 Build 0)  -->
<svg version="1.1" id="Layer_1" xmlns="http://www.w3.org/2000/svg" xmlns:xlink="http://www.w3.org/1999/xlink" x="0px" y="0px"
	 viewBox="0 0 512 512" style="enable-background:new 0 0 512 512;" xml:space="preserve">
<style type="text/css">
	.st0{fill:#E3E4D8;}
	.st1{fill:#D0CEBD;}
	.st2{fill:#F6B700;}
	.st3{fill:#FFFFFF;}
	.st4{fill:#A09893;}
</style>
<path class="st0" d="M432.1,485.5H79V0h273.7l79.4,79.4V485.5z"/>
<path class="st1" d="M352.7,0v79.4h79.4L352.7,0z"/>
<path class="st2" d="M79,353.1h353.1V512H79V353.1z"/>
<path class="st3" d="M379.1,485.5c-4.9,0-8.8-4-8.8-8.8v-77.4c0-1.1-0.9-2-2-2H337c-1.1,0-2,0.9-2,2v77.4c0,4.9-4,8.8-8.8,8.8
	c-4.9,0-8.8-4-8.8-8.8v-77.4c0-10.8,8.8-19.7,19.7-19.7h31.3c10.8,0,19.7,8.8,19.7,19.7v77.4C388,481.6,384,485.5,379.1,485.5z"/>
<path class="st3" d="M379.1,441.4h-53c-4.9,0-8.8-4-8.8-8.8c0-4.9,4-8.8,8.8-8.8h53c4.9,0,8.8,4,8.8,8.8
	C388,437.4,384,441.4,379.1,441.4z"/>
<path class="st3" d="M184.9,397.2h-53c-4.9,0-8.8-4-8.8-8.8c0-4.9,4-8.8,8.8-8.8h53c4.9,0,8.8,4,8.8,8.8
	C193.8,393.3,189.8,397.2,184.9,397.2z"/>
<path class="st3" d="M184.9,441.4h-53c-4.9,0-8.8-4-8.8-8.8c0-4.9,4-8.8,8.8-8.8h53c4.9,0,8.8,4,8.8,8.8
	C193.8,437.4,189.8,441.4,184.9,441.4z"/>
<path class="st3" d="M132,485.5c-4.9,0-8.8-4-8.8-8.8v-88.3c0-4.9,4-8.8,8.8-8.8c4.9,0,8.8,4,8.8,8.8v88.3
	C140.8,481.6,136.8,485.5,132,485.5z"/>
<path class="st3" d="M282,485.5h-53c-4.9,0-8.8-4-8.8-8.8c0-4.9,4-8.8,8.8-8.8h53c4.9,0,8.8,4,8.8,8.8
	C290.9,481.6,286.9,485.5,282,485.5z"/>
<path class="st3" d="M229.1,485.5c-4.9,0-8.8-4-8.8-8.8v-88.3c0-4.9,4-8.8,8.8-8.8c4.9,0,8.8,4,8.8,8.8v88.3
	C237.9,481.6,233.9,485.5,229.1,485.5z"/>
<path class="st2" d="M299.7,270.7c-16.3,17.4-37.8,29.4-63.8,29.4c-49.3,0-86.3-39.5-86.3-88.3c0-48.8,37-88.3,86.3-88.3
	c25,0,47.6,13.1,63.8,29.4l-61.8,58.9L299.7,270.7z"/>
<path class="st4" d="M308.5,220.7h-17.7c-4.9,0-8.8-4-8.8-8.8c0-4.9,4-8.8,8.8-8.8h17.7c4.9,0,8.8,4,8.8,8.8
	C317.3,216.7,313.4,220.7,308.5,220.7z"/>
<path class="st4" d="M361.5,220.7h-17.7c-4.9,0-8.8-4-8.8-8.8c0-4.9,4-8.8,8.8-8.8h17.7c4.9,0,8.8,4,8.8,8.8
	C370.3,216.7,366.4,220.7,361.5,220.7z"/>
<path class="st3" d="M220.2,176.6h-17.7c-4.9,0-8.8-4-8.8-8.8c0-4.9,4-8.8,8.8-8.8h17.7c4.9,0,8.8,4,8.8,8.8
	C229.1,172.6,225.1,176.6,220.2,176.6z"/>
</svg>
