<?xml version="1.0" encoding="utf-8"?>
<!-- Generator: Adobe Illustrator 25.2.0, SVG Export Plug-In . SVG Version: 6.00 Build 0)  -->
<svg version="1.1" id="Layer_1" xmlns="http://www.w3.org/2000/svg" xmlns:xlink="http://www.w3.org/1999/xlink" x="0px" y="0px"
	 viewBox="0 0 512 512" style="enable-background:new 0 0 512 512;" xml:space="preserve">
<style type="text/css">
	.st0{fill:#E3E4D8;}
	.st1{fill:#D0CEBD;}
	.st2{fill:#25AE88;}
	.st3{fill:#FFFFFF;}
</style>
<path class="st0" d="M432.1,485.5H79V0h273.7l79.4,79.4V485.5z"/>
<path class="st1" d="M352.7,0v79.4h79.4L352.7,0z"/>
<path class="st2" d="M79,353.1h353.1V512H79V353.1z"/>
<path class="st3" d="M140.8,114.8h229.5v203H140.8V114.8z"/>
<path class="st3" d="M167.2,485.5h-17.5c-14.6,0-26.6-11.9-26.6-26.6v-52.8c0-14.6,11.9-26.6,26.6-26.6h35.2c4.9,0,8.8,3.9,8.8,8.8
	s-4,8.8-8.8,8.8h-35.2c-4.9,0-8.9,4-8.9,8.9V459c0,4.9,4,8.9,8.9,8.9h17.6c4.9,0,8.9-4,8.9-8.9v-26.4c0-4.9,4-8.8,8.8-8.8
	c4.9,0,8.8,3.9,8.8,8.8V459C193.8,473.6,181.9,485.5,167.2,485.5z"/>
<path class="st3" d="M184.9,441.4h-17.7c-4.9,0-8.8-3.9-8.8-8.8c0-4.9,4-8.8,8.8-8.8h17.7c4.9,0,8.8,3.9,8.8,8.8
	C193.8,437.4,189.8,441.4,184.9,441.4z"/>
<path class="st3" d="M379.1,397.2h-53c-4.9,0-8.8-3.9-8.8-8.8s4-8.8,8.8-8.8h53c4.9,0,8.8,3.9,8.8,8.8S384,397.2,379.1,397.2z"/>
<path class="st3" d="M379.1,441.4h-53c-4.9,0-8.8-3.9-8.8-8.8c0-4.9,4-8.8,8.8-8.8h53c4.9,0,8.8,3.9,8.8,8.8
	C388,437.4,384,441.4,379.1,441.4z"/>
<path class="st3" d="M326.2,485.5c-4.9,0-8.8-3.9-8.8-8.8v-88.3c0-4.9,4-8.8,8.8-8.8c4.9,0,8.8,3.9,8.8,8.8v88.3
	C335,481.6,331,485.5,326.2,485.5z"/>
<path class="st3" d="M255.6,485.5c-4.9,0-8.8-3.9-8.8-8.8v-88.3c0-4.9,4-8.8,8.8-8.8c4.9,0,8.8,3.9,8.8,8.8v88.3
	C264.4,481.6,260.4,485.5,255.6,485.5z"/>
<path class="st3" d="M282,485.5h-53c-4.9,0-8.8-3.9-8.8-8.8c0-4.9,4-8.8,8.8-8.8h53c4.9,0,8.8,3.9,8.8,8.8
	C290.9,481.6,286.9,485.5,282,485.5z"/>
<path class="st3" d="M282,397.2h-53c-4.9,0-8.8-3.9-8.8-8.8s4-8.8,8.8-8.8h53c4.9,0,8.8,3.9,8.8,8.8S286.9,397.2,282,397.2z"/>
<path class="st2" d="M290.9,203c-2.3,0-4.5-0.9-6.2-2.6c-3.5-3.5-3.5-9,0-12.5l26.5-26.5c3.4-3.5,9-3.5,12.5,0c3.5,3.4,3.5,9,0,12.5
	l-26.5,26.5C295.4,202.2,293.1,203,290.9,203z"/>
<path class="st2" d="M317.3,176.6c-2.3,0-4.5-0.9-6.2-2.6l-26.5-26.5c-3.5-3.5-3.5-9,0-12.5c3.4-3.5,9-3.5,12.5,0l26.5,26.5
	c3.5,3.4,3.5,9,0,12.5C321.9,175.7,319.6,176.6,317.3,176.6z"/>
<path class="st2" d="M193.8,211.9c-4.9,0-8.8-3.9-8.8-8.8c0-24.3,19.8-44.1,44.1-44.1h88.3c4.9,0,8.8,3.9,8.8,8.8
	c0,4.9-4,8.8-8.8,8.8h-88.3c-14.6,0-26.5,11.9-26.5,26.5C202.6,207.9,198.6,211.9,193.8,211.9z"/>
<path class="st2" d="M193.8,273.7c-2.3,0-4.5-0.9-6.2-2.6c-3.4-3.5-3.4-9,0-12.5l26.5-26.5c3.4-3.5,9-3.5,12.5,0
	c3.4,3.4,3.4,9,0,12.5L200,271.1C198.3,272.8,196,273.7,193.8,273.7z"/>
<path class="st2" d="M220.2,300.1c-2.3,0-4.5-0.9-6.2-2.6l-26.5-26.5c-3.4-3.5-3.4-9,0-12.5c3.4-3.4,9-3.4,12.5,0l26.5,26.5
	c3.4,3.4,3.4,9,0,12.5C224.8,299.3,222.5,300.1,220.2,300.1z"/>
<path class="st2" d="M282,273.7h-88.3c-4.9,0-8.8-3.9-8.8-8.8s4-8.8,8.8-8.8H282c14.6,0,26.5-11.9,26.5-26.5c0-4.9,4-8.8,8.8-8.8
	c4.9,0,8.8,3.9,8.8,8.8C326.2,253.9,306.4,273.7,282,273.7z"/>
</svg>
