<?xml version="1.0" encoding="utf-8"?>
<!-- Generator: Adobe Illustrator 25.2.0, SVG Export Plug-In . SVG Version: 6.00 Build 0)  -->
<svg version="1.1" id="Layer_1" xmlns="http://www.w3.org/2000/svg" xmlns:xlink="http://www.w3.org/1999/xlink" x="0px" y="0px"
	 viewBox="0 0 512 512" style="enable-background:new 0 0 512 512;" xml:space="preserve">
<style type="text/css">
	.st0{fill:#E3E4D8;}
	.st1{fill:#7383BF;}
	.st2{fill:#D0CEBD;}
	.st3{fill:#454C6E;}
	.st4{fill:#FFFFFF;}
	.st5{fill:#556080;}
</style>
<path class="st0" d="M432.1,485.5H79V0h273.7l79.4,79.4V485.5z"/>
<path class="st1" d="M352.7,211.9c0,53.6-43.5,97.1-97.1,97.1s-97.1-43.5-97.1-97.1s43.5-97.1,97.1-97.1S352.7,158.2,352.7,211.9z"
	/>
<path class="st2" d="M352.7,0v79.4h79.4L352.7,0z"/>
<path class="st3" d="M79,353.1h353.1V512H79V353.1z"/>
<path class="st4" d="M132,485.5c-4.9,0-8.8-3.9-8.8-8.8v-88.3c0-4.9,4-8.8,8.8-8.8c4.9,0,8.8,3.9,8.8,8.8v88.3
	C140.8,481.6,136.8,485.5,132,485.5z"/>
<path class="st4" d="M184.9,485.5c-4.9,0-8.8-3.9-8.8-8.8v-88.3c0-4.9,4-8.8,8.8-8.8c4.9,0,8.8,3.9,8.8,8.8v88.3
	C193.8,481.6,189.8,485.5,184.9,485.5z"/>
<path class="st4" d="M184.9,441.4h-53c-4.9,0-8.8-3.9-8.8-8.8c0-4.9,4-8.8,8.8-8.8h53c4.9,0,8.8,3.9,8.8,8.8
	C193.8,437.4,189.8,441.4,184.9,441.4z"/>
<path class="st4" d="M273.2,397.2h-53c-4.9,0-8.8-3.9-8.8-8.8s4-8.8,8.8-8.8h53c4.9,0,8.8,3.9,8.8,8.8S278.1,397.2,273.2,397.2z"/>
<path class="st4" d="M246.7,485.5c-4.9,0-8.8-3.9-8.8-8.8v-88.3c0-4.9,4-8.8,8.8-8.8c4.9,0,8.8,3.9,8.8,8.8v88.3
	C255.6,481.6,251.6,485.5,246.7,485.5z"/>
<path class="st4" d="M379.1,485.5c-4.9,0-8.8-3.9-8.8-8.8v-55l-18.8,32.9c-3.1,5.5-12.2,5.5-15.3,0l-18.8-32.9v55
	c0,4.9-4,8.8-8.8,8.8c-4.9,0-8.8-3.9-8.8-8.8v-88.3c0-4,2.7-7.5,6.6-8.5c3.9-1,7.9,0.7,9.9,4.2l27.6,48.4l27.6-48.4
	c2-3.5,6.1-5.2,9.9-4.2c3.9,1,6.6,4.5,6.6,8.5v88.3C388,481.6,384,485.5,379.1,485.5z"/>
<path class="st5" d="M255.6,317.8c-58.4,0-105.9-47.5-105.9-105.9c0-58.4,47.5-105.9,105.9-105.9c58.4,0,105.9,47.5,105.9,105.9
	C361.5,270.3,314,317.8,255.6,317.8z M255.6,123.6c-48.7,0-88.3,39.6-88.3,88.3s39.6,88.3,88.3,88.3s88.3-39.6,88.3-88.3
	S304.2,123.6,255.6,123.6z"/>
<path class="st5" d="M255.6,317.8c-27.9,0-35.3-66.6-35.3-105.9c0-39.3,7.4-105.9,35.3-105.9c27.9,0,35.3,66.6,35.3,105.9
	C290.9,251.2,283.4,317.8,255.6,317.8z M255.2,123.5c-5.5,2.5-17.3,35-17.3,88.3c0,53.3,11.7,85.9,18,88.3
	c5.5-2.5,17.3-35,17.3-88.3C273.2,158.5,261.5,126,255.2,123.5z"/>
<path class="st5" d="M352.7,220.7H158.4c-4.9,0-8.8-3.9-8.8-8.8c0-4.9,4-8.8,8.8-8.8h194.2c4.9,0,8.8,3.9,8.8,8.8
	C361.5,216.7,357.5,220.7,352.7,220.7z"/>
</svg>
