<?xml version="1.0" encoding="utf-8"?>
<!-- Generator: Adobe Illustrator 25.2.0, SVG Export Plug-In . SVG Version: 6.00 Build 0)  -->
<svg version="1.1" id="Layer_1" xmlns="http://www.w3.org/2000/svg" xmlns:xlink="http://www.w3.org/1999/xlink" x="0px" y="0px"
	 viewBox="0 0 512 512" style="enable-background:new 0 0 512 512;" xml:space="preserve">
<style type="text/css">
	.st0{fill:#E3E4D8;}
	.st1{fill:#D0CEBD;}
	.st2{fill:#454C6E;}
	.st3{fill:#FFFFFF;}
	.st4{fill:#AFB6BB;}
</style>
<path class="st0" d="M432.1,485.5H79V0h273.7l79.4,79.4V485.5z"/>
<path class="st1" d="M352.7,0v79.4h79.4L352.7,0z"/>
<path class="st2" d="M79,353.1h353.1V512H79V353.1z"/>
<path class="st3" d="M282,485.5c-3,0-5.9-1.6-7.6-4.3l-36.6-61v56.4c0,4.9-4,8.8-8.8,8.8c-4.9,0-8.8-3.9-8.8-8.8v-88.3
	c0-4,2.6-7.4,6.5-8.5c3.8-1,7.9,0.6,9.9,4l36.6,61v-56.4c0-4.9,4-8.8,8.8-8.8c4.9,0,8.8,3.9,8.8,8.8v88.3c0,4-2.6,7.4-6.5,8.5
	C283.6,485.4,282.8,485.5,282,485.5z"/>
<path class="st3" d="M184.9,397.2h-53c-4.9,0-8.8-3.9-8.8-8.8s4-8.8,8.8-8.8h53c4.9,0,8.8,3.9,8.8,8.8S189.8,397.2,184.9,397.2z"/>
<path class="st3" d="M184.9,485.5h-53c-4.9,0-8.8-3.9-8.8-8.8c0-4.9,4-8.8,8.8-8.8h53c4.9,0,8.8,3.9,8.8,8.8
	C193.8,481.6,189.8,485.5,184.9,485.5z"/>
<path class="st3" d="M158.4,485.5c-4.9,0-8.8-3.9-8.8-8.8v-88.3c0-4.9,4-8.8,8.8-8.8c4.9,0,8.8,3.9,8.8,8.8v88.3
	C167.3,481.6,163.3,485.5,158.4,485.5z"/>
<path class="st3" d="M379.1,397.2h-53c-4.9,0-8.8-3.9-8.8-8.8s4-8.8,8.8-8.8h53c4.9,0,8.8,3.9,8.8,8.8S384,397.2,379.1,397.2z"/>
<path class="st3" d="M379.1,485.5h-53c-4.9,0-8.8-3.9-8.8-8.8c0-4.9,4-8.8,8.8-8.8h53c4.9,0,8.8,3.9,8.8,8.8
	C388,481.6,384,485.5,379.1,485.5z"/>
<path class="st3" d="M352.7,485.5c-4.9,0-8.8-3.9-8.8-8.8v-88.3c0-4.9,4-8.8,8.8-8.8c4.9,0,8.8,3.9,8.8,8.8v88.3
	C361.5,481.6,357.5,485.5,352.7,485.5z"/>
<path class="st3" d="M335,300.1H176.1V105.9H282l53,53V300.1z"/>
<path class="st4" d="M335,158.9h-53v-53L335,158.9z"/>
<path class="st4" d="M282,238.3h-53c-4.9,0-8.8-3.9-8.8-8.8c0-4.9,4-8.8,8.8-8.8h53c4.9,0,8.8,3.9,8.8,8.8
	C290.9,234.4,286.9,238.3,282,238.3z"/>
<path class="st4" d="M282,203h-53c-4.9,0-8.8-3.9-8.8-8.8s4-8.8,8.8-8.8h53c4.9,0,8.8,3.9,8.8,8.8S286.9,203,282,203z"/>
<path class="st4" d="M282,273.7h-53c-4.9,0-8.8-3.9-8.8-8.8s4-8.8,8.8-8.8h53c4.9,0,8.8,3.9,8.8,8.8S286.9,273.7,282,273.7z"/>
</svg>
