<?xml version="1.0" encoding="utf-8"?>
<!-- Generator: Adobe Illustrator 25.2.0, SVG Export Plug-In . SVG Version: 6.00 Build 0)  -->
<svg version="1.1" id="Layer_1" xmlns="http://www.w3.org/2000/svg" xmlns:xlink="http://www.w3.org/1999/xlink" x="0px" y="0px"
	 viewBox="0 0 512 512" style="enable-background:new 0 0 512 512;" xml:space="preserve">
<style type="text/css">
	.st0{fill:#E3E4D8;}
	.st1{fill:#D0CEBD;}
	.st2{fill:#6AB86F;}
	.st3{fill:#FFFFFF;}
	.st4{fill:#A09893;}
</style>
<path class="st0" d="M432.1,485.5H79V0h273.7l79.4,79.4V485.5z"/>
<path class="st1" d="M352.7,0v79.4h79.4L352.7,0z"/>
<path class="st2" d="M79,353.1h353.1V512H79V353.1z"/>
<path class="st3" d="M260,485.5h-30.9c-4.9,0-8.8-4-8.8-8.8c0-4.9,4-8.8,8.8-8.8H260c7.3,0,13.2-5.9,13.2-13.2s-5.9-13.2-13.2-13.2
	h-8.8c-17,0-30.9-13.9-30.9-30.9c0-17,13.9-30.9,30.9-30.9H282c4.9,0,8.8,4,8.8,8.8c0,4.9-4,8.8-8.8,8.8h-30.9
	c-7.3,0-13.2,5.9-13.2,13.2c0,7.3,5.9,13.2,13.2,13.2h8.8c17,0,30.9,13.9,30.9,30.9C290.9,471.7,277,485.5,260,485.5z"/>
<path class="st3" d="M361.5,485.5h-17.7c-14.6,0-26.5-11.9-26.5-26.5v-53c0-14.6,11.9-26.5,26.5-26.5h17.7
	c14.6,0,26.5,11.9,26.5,26.5v53C388,473.6,376.1,485.5,361.5,485.5z M343.8,397.2c-4.9,0-8.8,4-8.8,8.8v53c0,4.9,4,8.8,8.8,8.8h17.7
	c4.9,0,8.8-4,8.8-8.8v-53c0-4.9-4-8.8-8.8-8.8H343.8z"/>
<path class="st3" d="M158.4,485.5c-4.9,0-8.8-4-8.8-8.8v-88.3c0-4.9,4-8.8,8.8-8.8c4.9,0,8.8,4,8.8,8.8v88.3
	C167.3,481.6,163.3,485.5,158.4,485.5z"/>
<path class="st3" d="M184.9,485.5h-53c-4.9,0-8.8-4-8.8-8.8c0-4.9,4-8.8,8.8-8.8h53c4.9,0,8.8,4,8.8,8.8
	C193.8,481.6,189.8,485.5,184.9,485.5z"/>
<path class="st3" d="M184.9,397.2h-53c-4.9,0-8.8-4-8.8-8.8c0-4.9,4-8.8,8.8-8.8h53c4.9,0,8.8,4,8.8,8.8
	C193.8,393.3,189.8,397.2,184.9,397.2z"/>
<path class="st4" d="M255.6,317.8c-58.4,0-105.9-47.5-105.9-105.9c0-58.4,47.5-105.9,105.9-105.9c58.4,0,105.9,47.5,105.9,105.9
	C361.5,270.3,314,317.8,255.6,317.8z M255.6,123.6c-48.7,0-88.3,39.6-88.3,88.3s39.6,88.3,88.3,88.3s88.3-39.6,88.3-88.3
	S304.2,123.6,255.6,123.6z"/>
<path class="st4" d="M255.6,247.2c-19.5,0-35.3-15.8-35.3-35.3c0-19.5,15.8-35.3,35.3-35.3s35.3,15.8,35.3,35.3
	C290.9,231.3,275,247.2,255.6,247.2z M255.6,194.2c-9.7,0-17.7,7.9-17.7,17.7c0,9.7,7.9,17.7,17.7,17.7c9.7,0,17.7-7.9,17.7-17.7
	C273.2,202.1,265.3,194.2,255.6,194.2z"/>
<path class="st4" d="M193.8,220.7c-4.9,0-8.8-4-8.8-8.8c0-38.9,31.7-70.6,70.6-70.6c4.9,0,8.8,4,8.8,8.8c0,4.9-4,8.8-8.8,8.8
	c-29.2,0-53,23.8-53,53C202.6,216.7,198.6,220.7,193.8,220.7z"/>
<path class="st4" d="M255.6,282.5c-4.9,0-8.8-4-8.8-8.8c0-4.9,4-8.8,8.8-8.8c29.2,0,53-23.8,53-53c0-4.9,4-8.8,8.8-8.8
	c4.9,0,8.8,4,8.8,8.8C326.2,250.8,294.5,282.5,255.6,282.5z"/>
</svg>
