<?xml version="1.0" encoding="utf-8"?>
<!-- Generator: Adobe Illustrator 25.2.0, SVG Export Plug-In . SVG Version: 6.00 Build 0)  -->
<svg version="1.1" id="Layer_1" xmlns="http://www.w3.org/2000/svg" xmlns:xlink="http://www.w3.org/1999/xlink" x="0px" y="0px"
	 viewBox="0 0 512 512" style="enable-background:new 0 0 512 512;" xml:space="preserve">
<style type="text/css">
	.st0{fill:#E3E4D8;}
	.st1{fill:#D0CEBD;}
	.st2{fill:#2C81E4;}
	.st3{fill:#FFFFFF;}
</style>
<path class="st0" d="M432.1,485.5H79V0h273.7l79.4,79.4V485.5z"/>
<path class="st1" d="M352.7,0v79.4h79.4L352.7,0z"/>
<path class="st2" d="M79,353.1h353.1V512H79V353.1z"/>
<path class="st3" d="M158.4,141.2h194.2v158.9H158.4V141.2z"/>
<path class="st3" d="M361.5,485.5h-17.7c-14.6,0-26.5-11.9-26.5-26.5v-53c0-14.6,11.9-26.5,26.5-26.5h17.7
	c14.6,0,26.5,11.9,26.5,26.5v53C388,473.6,376.1,485.5,361.5,485.5z M343.8,397.2c-4.9,0-8.8,4-8.8,8.8v53c0,4.9,4,8.8,8.8,8.8h17.7
	c4.9,0,8.8-4,8.8-8.8v-53c0-4.9-4-8.8-8.8-8.8H343.8z"/>
<path class="st3" d="M282,485.5h-35.2c-14.6,0-26.6-11.9-26.6-26.6v-52.8c0-14.6,11.9-26.6,26.6-26.6H282c4.9,0,8.8,4,8.8,8.8
	c0,4.9-4,8.8-8.8,8.8h-35.2c-4.9,0-8.9,4-8.9,8.9V459c0,4.9,4,8.9,8.9,8.9H282c4.9,0,8.8,4,8.8,8.8
	C290.9,481.6,286.9,485.5,282,485.5z"/>
<path class="st3" d="M184.9,397.2h-53c-4.9,0-8.8-4-8.8-8.8c0-4.9,4-8.8,8.8-8.8h53c4.9,0,8.8,4,8.8,8.8
	C193.8,393.3,189.8,397.2,184.9,397.2z"/>
<path class="st3" d="M184.9,485.5h-53c-4.9,0-8.8-4-8.8-8.8c0-4.9,4-8.8,8.8-8.8h53c4.9,0,8.8,4,8.8,8.8
	C193.8,481.6,189.8,485.5,184.9,485.5z"/>
<path class="st3" d="M158.4,485.5c-4.9,0-8.8-4-8.8-8.8v-88.3c0-4.9,4-8.8,8.8-8.8c4.9,0,8.8,4,8.8,8.8v88.3
	C167.3,481.6,163.3,485.5,158.4,485.5z"/>
<path class="st2" d="M282,185.4h-53c-4.9,0-8.8-4-8.8-8.8c0-4.9,4-8.8,8.8-8.8h53c4.9,0,8.8,4,8.8,8.8
	C290.9,181.4,286.9,185.4,282,185.4z"/>
<path class="st2" d="M282,273.7h-53c-4.9,0-8.8-4-8.8-8.8c0-4.9,4-8.8,8.8-8.8h53c4.9,0,8.8,4,8.8,8.8
	C290.9,269.7,286.9,273.7,282,273.7z"/>
<path class="st2" d="M255.6,273.7c-4.9,0-8.8-4-8.8-8.8v-88.3c0-4.9,4-8.8,8.8-8.8c4.9,0,8.8,4,8.8,8.8v88.3
	C264.4,269.7,260.4,273.7,255.6,273.7z"/>
</svg>
