<?xml version="1.0" encoding="utf-8"?>
<!-- Generator: Adobe Illustrator 25.2.0, SVG Export Plug-In . SVG Version: 6.00 Build 0)  -->
<svg version="1.1" id="Layer_1" xmlns="http://www.w3.org/2000/svg" xmlns:xlink="http://www.w3.org/1999/xlink" x="0px" y="0px"
	 viewBox="0 0 512 512" style="enable-background:new 0 0 512 512;" xml:space="preserve">
<style type="text/css">
	.st0{fill:#E3E4D8;}
	.st1{fill:#D0CEBD;}
	.st2{fill:#B53438;}
	.st3{fill:#FFFFFF;}
	.st4{fill:#AFB6BB;}
</style>
<path class="st0" d="M432.1,485.5H79V0h273.7l79.4,79.4V485.5z"/>
<path class="st1" d="M352.7,0v79.4h79.4L352.7,0z"/>
<path class="st2" d="M79,353.1h353.1V512H79V353.1z"/>
<path class="st3" d="M158.4,485.5c-19.5,0-35.3-15.8-35.3-35.3c0-4.9,4-8.8,8.8-8.8c4.9,0,8.8,3.9,8.8,8.8c0,9.7,7.9,17.7,17.7,17.7
	c9.7,0,17.7-7.9,17.7-17.7v-61.8c0-4.9,4-8.8,8.8-8.8c4.9,0,8.8,3.9,8.8,8.8v61.8C193.8,469.7,177.9,485.5,158.4,485.5z"/>
<path class="st3" d="M282,485.5c-4.9,0-8.8-3.9-8.8-8.8v-77.4c0-1.1-0.9-2-2-2h-31.3c-1.1,0-2,0.9-2,2v77.4c0,4.9-4,8.8-8.8,8.8
	c-4.9,0-8.8-3.9-8.8-8.8v-77.4c0-10.8,8.8-19.7,19.7-19.7h31.3c10.9,0,19.7,8.8,19.7,19.7v77.4C290.9,481.6,286.9,485.5,282,485.5z"
	/>
<path class="st3" d="M282,441.4h-53c-4.9,0-8.8-3.9-8.8-8.8c0-4.9,4-8.8,8.8-8.8h53c4.9,0,8.8,3.9,8.8,8.8
	C290.9,437.4,286.9,441.4,282,441.4z"/>
<path class="st3" d="M326.2,485.5c-4.9,0-8.8-3.9-8.8-8.8v-88.3c0-4.9,4-8.8,8.8-8.8c4.9,0,8.8,3.9,8.8,8.8v88.3
	C335,481.6,331,485.5,326.2,485.5z"/>
<path class="st3" d="M352.7,450.2h-26.5c-4.9,0-8.8-3.9-8.8-8.8v-53c0-4.9,4-8.8,8.8-8.8h26.5c19.5,0,35.3,15.8,35.3,35.3
	C388,434.4,372.1,450.2,352.7,450.2z M335,432.6h17.7c9.7,0,17.7-7.9,17.7-17.7c0-9.7-7.9-17.7-17.7-17.7H335V432.6z"/>
<path class="st3" d="M379.1,485.5c-2.7,0-5.3-1.2-7.1-3.5l-26.5-35.3c-2.9-3.9-2.1-9.4,1.8-12.4c3.9-2.9,9.4-2.1,12.4,1.8l26.5,35.3
	c2.9,3.9,2.1,9.4-1.8,12.3C382.8,484.9,381,485.5,379.1,485.5z"/>
<path class="st4" d="M310.2,150.1v26.5c0,6-0.6,11.9-1.7,17.7H335c24.4,0,44.1-19.8,44.1-44.1H310.2z"/>
<path class="st3" d="M229.1,273.7c-53.6,0-97.1-43.5-97.1-97.1v-26.5h194.2v26.5C326.2,230.2,282.7,273.7,229.1,273.7z"/>
<path class="st4" d="M308.5,282.5H149.6c-4.9,0-8.8-3.9-8.8-8.8c0-4.9,4-8.8,8.8-8.8h158.9c4.9,0,8.8,3.9,8.8,8.8
	C317.3,278.5,313.4,282.5,308.5,282.5z"/>
</svg>
