<?xml version="1.0" encoding="utf-8"?>
<!-- Generator: Adobe Illustrator 25.2.0, SVG Export Plug-In . SVG Version: 6.00 Build 0)  -->
<svg version="1.1" id="Layer_1" xmlns="http://www.w3.org/2000/svg" xmlns:xlink="http://www.w3.org/1999/xlink" x="0px" y="0px"
	 viewBox="0 0 512 512" style="enable-background:new 0 0 512 512;" xml:space="preserve">
<style type="text/css">
	.st0{fill:#E3E4D8;}
	.st1{fill:#FFFFFF;}
	.st2{fill:#D0CEBD;}
	.st3{fill:#B53438;}
	.st4{fill:#EACD3B;}
</style>
<path class="st0" d="M432.1,485.5H79V0h273.7l79.4,79.4V485.5z"/>
<path class="st1" d="M140.8,114.8h229.5V309H140.8V114.8z"/>
<path class="st2" d="M352.7,0v79.4h79.4L352.7,0z"/>
<path class="st3" d="M79,353.1h353.1V512H79V353.1z"/>
<path class="st3" d="M293.4,203L240,259.1l-22.3-20.8L140.8,309h229.5v-26.5L293.4,203z"/>
<path class="st4" d="M220.2,172.1c0,12.2-9.9,22.1-22.1,22.1s-22.1-9.9-22.1-22.1c0-12.2,9.9-22.1,22.1-22.1
	S220.2,159.9,220.2,172.1z"/>
<path class="st1" d="M361.4,485.5h-17.6c-14.6,0-26.6-11.9-26.6-26.6v-52.8c0-14.6,11.9-26.6,26.6-26.6h35.2c4.9,0,8.8,4,8.8,8.8
	c0,4.9-4,8.8-8.8,8.8h-35.2c-4.9,0-8.9,4-8.9,8.9V459c0,4.9,4,8.9,8.9,8.9h17.6c4.9,0,8.9-4,8.9-8.9v-26.5c0-4.9,4-8.8,8.8-8.8
	c4.9,0,8.8,4,8.8,8.8V459C388,473.6,376.1,485.5,361.4,485.5z"/>
<path class="st1" d="M379.1,441.4h-17.7c-4.9,0-8.8-4-8.8-8.8c0-4.9,4-8.8,8.8-8.8h17.7c4.9,0,8.8,4,8.8,8.8
	C388,437.4,384,441.4,379.1,441.4z"/>
<path class="st1" d="M229.1,485.5c-4.9,0-8.8-4-8.8-8.8v-88.3c0-4.9,4-8.8,8.8-8.8c4.9,0,8.8,4,8.8,8.8v88.3
	C237.9,481.6,233.9,485.5,229.1,485.5z"/>
<path class="st1" d="M255.6,450.2h-26.5c-4.9,0-8.8-4-8.8-8.8v-53c0-4.9,4-8.8,8.8-8.8h26.5c19.5,0,35.3,15.8,35.3,35.3
	C290.9,434.4,275,450.2,255.6,450.2z M237.9,432.6h17.7c9.7,0,17.7-7.9,17.7-17.7c0-9.7-7.9-17.7-17.7-17.7h-17.7V432.6z"/>
<path class="st1" d="M158.4,485.5c-19.5,0-35.3-15.8-35.3-35.3c0-4.9,4-8.8,8.8-8.8c4.9,0,8.8,4,8.8,8.8c0,9.7,7.9,17.7,17.7,17.7
	c9.7,0,17.7-7.9,17.7-17.7v-61.8c0-4.9,4-8.8,8.8-8.8c4.9,0,8.8,4,8.8,8.8v61.8C193.8,469.7,177.9,485.5,158.4,485.5z"/>
</svg>
