<?xml version="1.0" encoding="utf-8"?>
<!-- Generator: Adobe Illustrator 25.2.0, SVG Export Plug-In . SVG Version: 6.00 Build 0)  -->
<svg version="1.1" id="Layer_1" xmlns="http://www.w3.org/2000/svg" xmlns:xlink="http://www.w3.org/1999/xlink" x="0px" y="0px"
	 viewBox="0 0 512 512" style="enable-background:new 0 0 512 512;" xml:space="preserve">
<style type="text/css">
	.st0{fill:#E3E4D8;}
	.st1{fill:#D0CEBD;}
	.st2{fill:#B53438;}
	.st3{fill:#FFFFFF;}
	.st4{fill:#E1A02F;}
	.st5{fill:#AD772A;}
</style>
<path class="st0" d="M432.1,485.5H79V0h273.7l79.4,79.4V485.5z"/>
<path class="st1" d="M352.7,0v79.4h79.4L352.7,0z"/>
<path class="st2" d="M79,353.1h353.1V512H79V353.1z"/>
<path class="st2" d="M167.3,123.6h176.6v176.6H167.3V123.6z"/>
<path class="st3" d="M282,211.9l-53,35.3v-70.6L282,211.9z"/>
<path class="st4" d="M149.6,123.6h35.3v35.3h-35.3V123.6z"/>
<path class="st5" d="M149.6,158.9h35.3v35.3h-35.3V158.9z"/>
<path class="st4" d="M149.6,194.2h35.3v35.3h-35.3V194.2z"/>
<path class="st5" d="M149.6,229.5h35.3v35.3h-35.3V229.5z"/>
<path class="st4" d="M149.6,264.8h35.3v35.3h-35.3V264.8z"/>
<path class="st4" d="M326.2,123.6h35.3v35.3h-35.3V123.6z"/>
<path class="st5" d="M326.2,158.9h35.3v35.3h-35.3V158.9z"/>
<path class="st4" d="M326.2,194.2h35.3v35.3h-35.3V194.2z"/>
<path class="st5" d="M326.2,229.5h35.3v35.3h-35.3V229.5z"/>
<path class="st4" d="M326.2,264.8h35.3v35.3h-35.3V264.8z"/>
<path class="st3" d="M193.8,485.5c-4.9,0-8.8-4-8.8-8.8v-55l-18.8,32.9c-3.1,5.5-12.2,5.5-15.3,0L132,421.7v55c0,4.9-4,8.8-8.8,8.8
	c-4.9,0-8.8-4-8.8-8.8v-88.3c0-4,2.7-7.5,6.6-8.5c3.9-1.1,7.9,0.7,9.9,4.1l27.6,48.4l27.6-48.4c2-3.5,6-5.2,9.9-4.1
	c3.9,1,6.6,4.5,6.6,8.5v88.3C202.6,481.6,198.6,485.5,193.8,485.5z"/>
<path class="st3" d="M352.7,485.5c-3.6,0-6.9-2.2-8.2-5.5l-35.3-88.3c-1.8-4.5,0.4-9.7,4.9-11.5c4.5-1.8,9.7,0.4,11.5,4.9l27.1,67.8
	l27.1-67.8c1.8-4.5,6.9-6.7,11.5-4.9c4.5,1.8,6.7,6.9,4.9,11.5L360.8,480C359.5,483.3,356.3,485.5,352.7,485.5z"/>
<path class="st3" d="M264.4,485.5h-17.7c-14.6,0-26.5-11.9-26.5-26.5v-53c0-14.6,11.9-26.5,26.5-26.5h17.7
	c14.6,0,26.5,11.9,26.5,26.5v53C290.9,473.6,279,485.5,264.4,485.5z M246.7,397.2c-4.9,0-8.8,4-8.8,8.8v53c0,4.9,4,8.8,8.8,8.8h17.7
	c4.9,0,8.8-4,8.8-8.8v-53c0-4.9-4-8.8-8.8-8.8H246.7z"/>
</svg>
