<?xml version="1.0" encoding="utf-8"?>
<!-- Generator: Adobe Illustrator 24.3.0, SVG Export Plug-In . SVG Version: 6.00 Build 0)  -->
<svg version="1.1" id="Layer_1" xmlns="http://www.w3.org/2000/svg" xmlns:xlink="http://www.w3.org/1999/xlink" x="0px" y="0px"
	 viewBox="0 0 512 512" style="enable-background:new 0 0 512 512;" xml:space="preserve">
<style type="text/css">
	.st0{fill:#E3E4D8;}
	.st1{fill:#D0CEBD;}
	.st2{fill:#82619A;}
	.st3{fill:#FFFFFF;}
</style>
<path class="st0" d="M432.1,485.5H79V0h273.7l79.4,79.4V485.5z"/>
<path class="st1" d="M352.7,0v79.4h79.4L352.7,0z"/>
<path class="st2" d="M79,353.1h353.1V512H79V353.1z"/>
<path class="st3" d="M237.9,485.5c-4.9,0-8.8-4-8.8-8.8v-88.3c0-4.9,4-8.8,8.8-8.8c4.9,0,8.8,4,8.8,8.8v88.3
	C246.7,481.6,242.8,485.5,237.9,485.5z"/>
<path class="st3" d="M264.4,450.2h-26.5c-4.9,0-8.8-4-8.8-8.8v-53c0-4.9,4-8.8,8.8-8.8h26.5c19.5,0,35.3,15.8,35.3,35.3
	C299.7,434.4,283.9,450.2,264.4,450.2z M246.7,432.6h17.7c9.7,0,17.7-7.9,17.7-17.7c0-9.7-7.9-17.7-17.7-17.7h-17.7V432.6z"/>
<g>
	<path class="st2" d="M202.6,317.8c-19.5,0-35.3-15.8-35.3-35.3c0-19.5,15.8-35.3,35.3-35.3s35.3,15.8,35.3,35.3
		C237.9,302,222.1,317.8,202.6,317.8z M202.6,264.8c-9.7,0-17.7,7.9-17.7,17.7c0,9.7,7.9,17.7,17.7,17.7s17.7-7.9,17.7-17.7
		C220.2,272.7,212.3,264.8,202.6,264.8z"/>
	<path class="st2" d="M290.9,282.5c-19.5,0-35.3-15.8-35.3-35.3s15.8-35.3,35.3-35.3c19.5,0,35.3,15.8,35.3,35.3
		S310.3,282.5,290.9,282.5z M290.9,229.5c-9.7,0-17.7,7.9-17.7,17.7c0,9.7,7.9,17.7,17.7,17.7c9.7,0,17.7-7.9,17.7-17.7
		C308.5,237.4,300.6,229.5,290.9,229.5z"/>
	<path class="st2" d="M229.1,291.3c-4.9,0-8.8-4-8.8-8.8V150.1c0-4.9,4-8.8,8.8-8.8c4.9,0,8.8,4,8.8,8.8v132.4
		C237.9,287.4,233.9,291.3,229.1,291.3z"/>
	<path class="st2" d="M317.3,256c-4.9,0-8.8-4-8.8-8.8V114.8c0-4.9,4-8.8,8.8-8.8c4.9,0,8.8,4,8.8,8.8v132.4
		C326.2,252,322.2,256,317.3,256z"/>
	<path class="st2" d="M229.1,194.2c-1.7,0-3.5-0.5-5-1.5c-2.4-1.6-3.9-4.4-3.9-7.3v-35.3c0-3.6,2.2-6.9,5.5-8.2l88.3-35.3
		c2.7-1.1,5.8-0.8,8.2,0.9c2.4,1.6,3.9,4.4,3.9,7.3v35.3c0,3.6-2.2,6.8-5.5,8.2l-88.3,35.3C231.3,194,230.2,194.2,229.1,194.2z
		 M237.9,156v16.3l70.6-28.2v-16.3L237.9,156z M317.3,150.1L317.3,150.1L317.3,150.1z"/>
</g>
<path class="st3" d="M193.8,485.5c-4.9,0-8.8-4-8.8-8.8v-55l-18.8,32.9c-3.1,5.5-12.2,5.5-15.3,0L132,421.7v55c0,4.9-4,8.8-8.8,8.8
	c-4.9,0-8.8-4-8.8-8.8v-88.3c0-4,2.7-7.5,6.6-8.5c3.9-1.1,7.9,0.7,9.9,4.1l27.6,48.4l27.6-48.4c2-3.5,6-5.2,9.9-4.1
	c3.9,1,6.6,4.5,6.6,8.5v88.3C202.6,481.6,198.6,485.5,193.8,485.5z"/>
<path class="st3" d="M365.9,441.4H335c-4.9,0-8.8-4-8.8-8.8c0-4.9,4-8.8,8.8-8.8h30.9c7.3,0,13.2-5.9,13.2-13.2
	c0-7.3-5.9-13.2-13.2-13.2H335c-4.9,0-8.8-4-8.8-8.8c0-4.9,4-8.8,8.8-8.8h30.9c17,0,30.9,13.9,30.9,30.9
	C396.8,427.5,382.9,441.4,365.9,441.4z"/>
<path class="st3" d="M365.9,485.5H335c-4.9,0-8.8-4-8.8-8.8c0-4.9,4-8.8,8.8-8.8h30.9c7.3,0,13.2-5.9,13.2-13.2s-5.9-13.2-13.2-13.2
	H335c-4.9,0-8.8-4-8.8-8.8c0-4.9,4-8.8,8.8-8.8h30.9c17,0,30.9,13.9,30.9,30.9C396.8,471.7,382.9,485.5,365.9,485.5z"/>
</svg>
