<?xml version="1.0" encoding="utf-8"?>
<!-- Generator: Adobe Illustrator 24.3.0, SVG Export Plug-In . SVG Version: 6.00 Build 0)  -->
<svg version="1.1" id="Layer_1" xmlns="http://www.w3.org/2000/svg" xmlns:xlink="http://www.w3.org/1999/xlink" x="0px" y="0px"
	 viewBox="0 0 512 512" style="enable-background:new 0 0 512 512;" xml:space="preserve">
<style type="text/css">
	.st0{fill:#E3E4D8;}
	.st1{fill:#E65B17;}
	.st2{fill:#D0CEBD;}
	.st3{fill:#FFFFFF;}
	.st4{fill:#B74316;}
</style>
<path class="st0" d="M432.1,485.5H79V0h273.7l79.4,79.4V485.5z"/>
<path class="st1" d="M176.1,273.7H335v17.7H176.1V273.7z"/>
<path class="st2" d="M352.7,0v79.4h79.4L352.7,0z"/>
<path class="st1" d="M79,353.1h353.1V512H79V353.1z"/>
<g>
	<path class="st3" d="M193.8,485.5c-4.9,0-8.8-4-8.8-8.8v-55l-18.8,32.9c-3.1,5.5-12.2,5.5-15.3,0L132,421.7v55c0,4.9-4,8.8-8.8,8.8
		c-4.9,0-8.8-4-8.8-8.8v-88.3c0-4,2.7-7.5,6.6-8.5c3.9-1.1,7.9,0.7,9.9,4.1l27.6,48.4l27.6-48.4c2-3.5,6.1-5.2,9.9-4.1
		c3.9,1,6.6,4.5,6.6,8.5v88.3C202.6,481.6,198.6,485.5,193.8,485.5z"/>
	<path class="st3" d="M352.7,485.5c-3.6,0-6.9-2.2-8.2-5.5l-35.3-88.3c-1.8-4.5,0.4-9.7,4.9-11.5c4.5-1.8,9.7,0.4,11.5,4.9
		l27.1,67.8l27.1-67.8c1.8-4.5,6.9-6.7,11.5-4.9c4.5,1.8,6.7,6.9,4.9,11.5L360.8,480C359.5,483.3,356.3,485.5,352.7,485.5z"/>
	<path class="st3" d="M229.1,485.5c-4.9,0-8.8-4-8.8-8.8v-88.3c0-4.9,4-8.8,8.8-8.8c4.9,0,8.8,4,8.8,8.8v88.3
		C237.9,481.6,233.9,485.5,229.1,485.5z"/>
	<path class="st3" d="M229.1,441.4c-2.5,0-5-1.1-6.8-3.2c-3.1-3.7-2.6-9.3,1.1-12.4l53-44.1c3.7-3.1,9.3-2.6,12.4,1.1
		c3.1,3.7,2.6,9.3-1.1,12.4l-53,44.1C233.1,440.7,231.1,441.4,229.1,441.4z"/>
	<path class="st3" d="M282,485.5c-2,0-4-0.7-5.6-2l-53-44.1c-3.7-3.1-4.3-8.7-1.1-12.4s8.7-4.2,12.4-1.1l53,44.1
		c3.7,3.1,4.2,8.7,1.1,12.4C287.1,484.4,284.6,485.5,282,485.5z"/>
</g>
<path class="st4" d="M140.8,282.5h229.5v35.3H140.8V282.5z"/>
<path class="st1" d="M329.9,244.1c-0.4,0-0.8,0.1-1.2,0.1c-6.3,0-10.3-3.5-12.2-7.9c-7.6-5.7-7-19.3,1.9-23.7l-17.6-48.3
	c-0.6,0.1-1.1,0.2-1.7,0.2c-5.8,0-9.7-2.9-11.7-6.9c-7.6-5.8-6.9-19.6,2.3-23.8l-16.6-45.5h-35.3l-16.4,45.1
	c10.8,2.8,12.5,17.3,5.2,23.9c-2,3.9-5.9,6.8-11.7,6.8c-1.6,0-3.1-0.3-4.4-0.7l-18,49.5c12.8,2.2,14,20.3,3.9,25.8
	c-2.2,2.9-5.7,4.9-10.5,4.9c-1.6,0-3-0.3-4.4-0.7l-14.4,39.6h176.6L329.9,244.1z"/>
<path class="st3" d="M209,167.7h93.1l-12.8-35.3h-67.4L209,167.7z"/>
<path class="st3" d="M180.1,247.2H331l-12.8-35.3H193L180.1,247.2z"/>
</svg>
