<?xml version="1.0" encoding="utf-8"?>
<!-- Generator: Adobe Illustrator 24.3.0, SVG Export Plug-In . SVG Version: 6.00 Build 0)  -->
<svg version="1.1" id="Layer_1" xmlns="http://www.w3.org/2000/svg" xmlns:xlink="http://www.w3.org/1999/xlink" x="0px" y="0px"
	 viewBox="0 0 512 512" style="enable-background:new 0 0 512 512;" xml:space="preserve">
<style type="text/css">
	.st0{fill:#E3E4D8;}
	.st1{fill:#D0CEBD;}
	.st2{fill:#B53438;}
	.st3{fill:#FFFFFF;}
</style>
<path class="st0" d="M432.1,485.5H79V0h273.7l79.4,79.4V485.5z"/>
<path class="st1" d="M352.7,0v79.4h79.4L352.7,0z"/>
<path class="st2" d="M79,353.1h353.1V512H79V353.1z"/>
<g>
	<path class="st3" d="M237.9,485.5c-4.9,0-8.8-4-8.8-8.8v-88.3c0-4.9,4-8.8,8.8-8.8c4.9,0,8.8,4,8.8,8.8v88.3
		C246.7,481.6,242.8,485.5,237.9,485.5z"/>
	<path class="st3" d="M264.4,450.2h-26.5c-4.9,0-8.8-4-8.8-8.8v-53c0-4.9,4-8.8,8.8-8.8h26.5c19.5,0,35.3,15.8,35.3,35.3
		C299.7,434.4,283.9,450.2,264.4,450.2z M246.7,432.6h17.7c9.7,0,17.7-7.9,17.7-17.7c0-9.7-7.9-17.7-17.7-17.7h-17.7V432.6z"/>
	<path class="st3" d="M193.8,485.5c-4.9,0-8.8-4-8.8-8.8v-55l-18.8,32.9c-3.1,5.5-12.2,5.5-15.3,0L132,421.7v55c0,4.9-4,8.8-8.8,8.8
		c-4.9,0-8.8-4-8.8-8.8v-88.3c0-4,2.7-7.5,6.6-8.5c3.9-1.1,7.9,0.7,9.9,4.1l27.6,48.4l27.6-48.4c2-3.5,6-5.2,9.9-4.1
		c3.9,1,6.6,4.5,6.6,8.5v88.3C202.6,481.6,198.6,485.5,193.8,485.5z"/>
	<path class="st3" d="M335,441.4c-1.1,0-2.2-0.2-3.3-0.6c-4.5-1.8-6.7-6.9-4.9-11.5l17.7-44.1c1.8-4.5,6.9-6.7,11.5-4.9
		c4.5,1.8,6.7,6.9,4.9,11.5l-17.7,44.1C341.8,439.3,338.5,441.4,335,441.4z"/>
	<path class="st3" d="M388,441.4h-53c-4.9,0-8.8-4-8.8-8.8c0-4.9,4-8.8,8.8-8.8h53c4.9,0,8.8,4,8.8,8.8
		C396.8,437.4,392.8,441.4,388,441.4z"/>
	<path class="st3" d="M370.3,485.5c-4.9,0-8.8-4-8.8-8.8v-61.8c0-4.9,4-8.8,8.8-8.8c4.9,0,8.8,4,8.8,8.8v61.8
		C379.1,481.6,375.2,485.5,370.3,485.5z"/>
</g>
<path class="st2" d="M132,141.2h247.2v158.9H132V141.2z"/>
<path class="st3" d="M290.9,220.7l-53,35.3v-70.6L290.9,220.7z"/>
</svg>
