<?xml version="1.0" encoding="utf-8"?>
<!-- Generator: Adobe Illustrator 25.2.0, SVG Export Plug-In . SVG Version: 6.00 Build 0)  -->
<svg version="1.1" id="Layer_1" xmlns="http://www.w3.org/2000/svg" xmlns:xlink="http://www.w3.org/1999/xlink" x="0px" y="0px"
	 viewBox="0 0 512 512" style="enable-background:new 0 0 512 512;" xml:space="preserve">
<style type="text/css">
	.st0{fill:#E3E4D8;}
	.st1{fill:#D0CEBD;}
	.st2{fill:#91D396;}
	.st3{fill:#FFFFFF;}
</style>
<path class="st0" d="M432.1,485.5H79V0h273.7l79.4,79.4V485.5z"/>
<path class="st1" d="M352.7,0v79.4h79.4L352.7,0z"/>
<path class="st2" d="M79,353.1h353.1V512H79V353.1z"/>
<path class="st3" d="M229.1,114.8h35.3v35.3h-35.3V114.8z"/>
<path class="st3" d="M229.1,194.2h35.3v105.9h-35.3V194.2z"/>
<path class="st3" d="M352.7,485.5H335c-14.6,0-26.5-11.9-26.5-26.5v-53c0-14.6,11.9-26.5,26.5-26.5h17.7c14.6,0,26.5,11.9,26.5,26.5
	v53C379.1,473.6,367.3,485.5,352.7,485.5z M335,397.2c-4.9,0-8.8,4-8.8,8.8v53c0,4.9,4,8.8,8.8,8.8h17.7c4.9,0,8.8-4,8.8-8.8v-53
	c0-4.9-4-8.8-8.8-8.8H335z"/>
<path class="st3" d="M176.1,485.5c-3,0-5.9-1.6-7.6-4.3l-36.6-61v56.4c0,4.9-4,8.8-8.8,8.8c-4.9,0-8.8-3.9-8.8-8.8v-88.3
	c0-4,2.6-7.4,6.5-8.5c3.8-1,7.9,0.6,9.9,4l36.6,61v-56.4c0-4.9,4-8.8,8.8-8.8c4.9,0,8.8,3.9,8.8,8.8v88.3c0,4-2.6,7.4-6.5,8.5
	C177.7,485.4,176.9,485.5,176.1,485.5z"/>
<path class="st3" d="M273.2,397.2h-53c-4.9,0-8.8-3.9-8.8-8.8s4-8.8,8.8-8.8h53c4.9,0,8.8,3.9,8.8,8.8S278.1,397.2,273.2,397.2z"/>
<path class="st3" d="M273.2,441.4h-53c-4.9,0-8.8-3.9-8.8-8.8c0-4.9,4-8.8,8.8-8.8h53c4.9,0,8.8,3.9,8.8,8.8
	C282,437.4,278.1,441.4,273.2,441.4z"/>
<path class="st3" d="M220.2,485.5c-4.9,0-8.8-3.9-8.8-8.8v-88.3c0-4.9,4-8.8,8.8-8.8c4.9,0,8.8,3.9,8.8,8.8v88.3
	C229.1,481.6,225.1,485.5,220.2,485.5z"/>
</svg>
