<?xml version="1.0" encoding="utf-8"?>
<!-- Generator: Adobe Illustrator 25.2.0, SVG Export Plug-In . SVG Version: 6.00 Build 0)  -->
<svg version="1.1" id="Layer_1" xmlns="http://www.w3.org/2000/svg" xmlns:xlink="http://www.w3.org/1999/xlink" x="0px" y="0px"
	 viewBox="0 0 512 512" style="enable-background:new 0 0 512 512;" xml:space="preserve">
<style type="text/css">
	.st0{fill:#E3E4D8;}
	.st1{fill:#D0CEBD;}
	.st2{fill:#859594;}
	.st3{fill:#FFFFFF;}
	.st4{fill:#28384C;}
</style>
<path class="st0" d="M432.1,485.5H79V0h273.7l79.4,79.4V485.5z"/>
<path class="st1" d="M352.7,0v79.4h79.4L352.7,0z"/>
<path class="st2" d="M79,353.1h353.1V512H79V353.1z"/>
<path class="st3" d="M282,397.2h-53c-4.9,0-8.8-3.9-8.8-8.8s4-8.8,8.8-8.8h53c4.9,0,8.8,3.9,8.8,8.8S286.9,397.2,282,397.2z"/>
<path class="st3" d="M255.6,485.5c-4.9,0-8.8-3.9-8.8-8.8v-88.3c0-4.9,4-8.8,8.8-8.8c4.9,0,8.8,3.9,8.8,8.8v88.3
	C264.4,481.6,260.4,485.5,255.6,485.5z"/>
<path class="st4" d="M149.6,114.8v70.6h35.3v-35.3h53v123.6h-53V309h141.2v-35.3h-53V150.1h53v35.3h35.3v-70.6H149.6z"/>
<path class="st3" d="M167.3,485.5h-17.7c-14.6,0-26.5-11.9-26.5-26.5v-53c0-14.6,11.9-26.5,26.5-26.5h17.7
	c14.6,0,26.5,11.9,26.5,26.5v53C193.8,473.6,181.9,485.5,167.3,485.5z M149.6,397.2c-4.9,0-8.8,4-8.8,8.8v53c0,4.9,4,8.8,8.8,8.8
	h17.7c4.9,0,8.8-4,8.8-8.8v-53c0-4.9-4-8.8-8.8-8.8H149.6z"/>
<path class="st3" d="M379.1,397.2h-53c-4.9,0-8.8-3.9-8.8-8.8s4-8.8,8.8-8.8h53c4.9,0,8.8,3.9,8.8,8.8S384,397.2,379.1,397.2z"/>
<path class="st3" d="M379.1,441.4h-53c-4.9,0-8.8-3.9-8.8-8.8c0-4.9,4-8.8,8.8-8.8h53c4.9,0,8.8,3.9,8.8,8.8
	C388,437.4,384,441.4,379.1,441.4z"/>
<path class="st3" d="M326.2,485.5c-4.9,0-8.8-3.9-8.8-8.8v-88.3c0-4.9,4-8.8,8.8-8.8c4.9,0,8.8,3.9,8.8,8.8v88.3
	C335,481.6,331,485.5,326.2,485.5z"/>
</svg>
