<?xml version="1.0" encoding="utf-8"?>
<!-- Generator: Adobe Illustrator 25.2.0, SVG Export Plug-In . SVG Version: 6.00 Build 0)  -->
<svg version="1.1" id="Layer_1" xmlns="http://www.w3.org/2000/svg" xmlns:xlink="http://www.w3.org/1999/xlink" x="0px" y="0px"
	 viewBox="0 0 512 512" style="enable-background:new 0 0 512 512;" xml:space="preserve">
<style type="text/css">
	.st0{fill:#E3E4D8;}
	.st1{fill:#D0CEBD;}
	.st2{fill:#EF394F;}
	.st3{fill:#FFFFFF;}
	.st4{fill:#988E89;}
	.st5{fill:#B8ACA6;}
</style>
<path class="st0" d="M432.1,485.5H79V0h273.7l79.4,79.4V485.5z"/>
<path class="st1" d="M352.7,0v79.4h79.4L352.7,0z"/>
<path class="st2" d="M79,353.1h353.1V512H79V353.1z"/>
<path class="st3" d="M352.7,485.5c-19.5,0-35.3-15.8-35.3-35.3c0-4.9,4-8.8,8.8-8.8c4.9,0,8.8,3.9,8.8,8.8c0,9.7,7.9,17.7,17.7,17.7
	c9.7,0,17.7-7.9,17.7-17.7v-61.8c0-4.9,4-8.8,8.8-8.8c4.9,0,8.8,3.9,8.8,8.8v61.8C388,469.7,372.1,485.5,352.7,485.5z"/>
<path class="st3" d="M167.3,485.5h-17.7c-14.6,0-26.5-11.9-26.5-26.5v-53c0-14.6,11.9-26.5,26.5-26.5h17.7
	c14.6,0,26.5,11.9,26.5,26.5v53C193.8,473.6,181.9,485.5,167.3,485.5z M149.6,397.2c-4.9,0-8.8,4-8.8,8.8v53c0,4.9,4,8.8,8.8,8.8
	h17.7c4.9,0,8.8-4,8.8-8.8v-53c0-4.9-4-8.8-8.8-8.8H149.6z"/>
<path class="st3" d="M260,441.4h-30.9c-4.9,0-8.8-3.9-8.8-8.8v-44.1c0-4.9,4-8.8,8.8-8.8H260c17,0,30.9,13.9,30.9,30.9
	C290.9,427.5,277,441.4,260,441.4z M237.9,423.7H260c7.3,0,13.2-5.9,13.2-13.2c0-7.3-5.9-13.2-13.2-13.2h-22.1V423.7z"/>
<path class="st3" d="M260,485.5h-30.9c-4.9,0-8.8-3.9-8.8-8.8v-44.1c0-4.9,4-8.8,8.8-8.8H260c17,0,30.9,13.9,30.9,30.9
	C290.9,471.7,277,485.5,260,485.5z M237.9,467.9H260c7.3,0,13.2-5.9,13.2-13.2s-5.9-13.2-13.2-13.2h-22.1V467.9z"/>
<path class="st4" d="M273.2,167.7h-53v123.6h123.6V167.7H273.2z"/>
<path class="st5" d="M149.6,97.1h123.6v123.6H149.6V97.1z"/>
</svg>
