<?xml version="1.0" encoding="utf-8"?>
<!-- Generator: Adobe Illustrator 25.2.0, SVG Export Plug-In . SVG Version: 6.00 Build 0)  -->
<svg version="1.1" id="Layer_1" xmlns="http://www.w3.org/2000/svg" xmlns:xlink="http://www.w3.org/1999/xlink" x="0px" y="0px"
	 viewBox="0 0 512 512" style="enable-background:new 0 0 512 512;" xml:space="preserve">
<style type="text/css">
	.st0{fill:#E3E4D8;}
	.st1{fill:#A09893;}
	.st2{fill:#D0CEBD;}
	.st3{fill:#D36A0A;}
	.st4{fill:#FFFFFF;}
	.st5{fill:#C8C1BD;}
</style>
<path class="st0" d="M432.1,485.5H79V0h273.7l79.4,79.4V485.5z"/>
<path class="st1" d="M202.6,317.8c-1.5,0-3.1-0.4-4.5-1.3c-4.2-2.5-5.5-7.9-3-12.1l26.5-44.1c2.5-4.2,7.9-5.5,12.1-3
	c4.2,2.5,5.5,7.9,3,12.1l-26.5,44.1C208.5,316.3,205.6,317.8,202.6,317.8z"/>
<path class="st1" d="M308.5,317.8c-3,0-5.9-1.5-7.6-4.3l-26.5-44.1c-2.5-4.2-1.2-9.6,3-12.1c4.2-2.5,9.6-1.2,12.1,3l26.5,44.1
	c2.5,4.2,1.2,9.6-3,12.1C311.6,317.4,310.1,317.8,308.5,317.8z"/>
<path class="st1" d="M255.6,132.4c-2.3,0-4.5-0.9-6.2-2.6l-26.5-26.5c-3.5-3.4-3.5-9,0-12.5c3.4-3.5,9-3.5,12.5,0l26.5,26.5
	c3.5,3.5,3.5,9,0,12.5C260.1,131.5,257.8,132.4,255.6,132.4z"/>
<path class="st1" d="M255.6,132.4c-2.3,0-4.5-0.9-6.2-2.6c-3.5-3.5-3.5-9,0-12.5l26.5-26.5c3.4-3.5,9-3.5,12.5,0
	c3.4,3.4,3.4,9,0,12.5l-26.5,26.5C260.1,131.5,257.8,132.4,255.6,132.4z"/>
<path class="st2" d="M352.7,0v79.4h79.4L352.7,0z"/>
<path class="st3" d="M79,353.1h353.1V512H79V353.1z"/>
<path class="st4" d="M132,485.5c-4.9,0-8.8-4-8.8-8.8v-88.3c0-4.9,4-8.8,8.8-8.8c4.9,0,8.8,4,8.8,8.8v88.3
	C140.8,481.6,136.8,485.5,132,485.5z"/>
<path class="st4" d="M158.4,450.2H132c-4.9,0-8.8-4-8.8-8.8v-53c0-4.9,4-8.8,8.8-8.8h26.5c19.5,0,35.3,15.8,35.3,35.3
	C193.8,434.4,177.9,450.2,158.4,450.2z M140.8,432.6h17.7c9.7,0,17.7-7.9,17.7-17.7c0-9.7-7.9-17.7-17.7-17.7h-17.7V432.6z"/>
<path class="st4" d="M229.1,485.5c-4.9,0-8.8-4-8.8-8.8v-88.3c0-4.9,4-8.8,8.8-8.8c4.9,0,8.8,4,8.8,8.8v88.3
	C237.9,481.6,233.9,485.5,229.1,485.5z"/>
<path class="st4" d="M255.6,450.2h-26.5c-4.9,0-8.8-4-8.8-8.8v-53c0-4.9,4-8.8,8.8-8.8h26.5c19.5,0,35.3,15.8,35.3,35.3
	C290.9,434.4,275,450.2,255.6,450.2z M237.9,432.6h17.7c9.7,0,17.7-7.9,17.7-17.7c0-9.7-7.9-17.7-17.7-17.7h-17.7V432.6z"/>
<path class="st4" d="M379.1,397.2h-53c-4.9,0-8.8-4-8.8-8.8c0-4.9,4-8.8,8.8-8.8h53c4.9,0,8.8,4,8.8,8.8
	C388,393.3,384,397.2,379.1,397.2z"/>
<path class="st4" d="M352.7,485.5c-4.9,0-8.8-4-8.8-8.8v-88.3c0-4.9,4-8.8,8.8-8.8c4.9,0,8.8,4,8.8,8.8v88.3
	C361.5,481.6,357.5,485.5,352.7,485.5z"/>
<path class="st5" d="M140.8,123.6h229.5v141.2H140.8V123.6z"/>
<path class="st1" d="M246.7,167.7h-70.6c-4.9,0-8.8-4-8.8-8.8c0-4.9,4-8.8,8.8-8.8h70.6c4.9,0,8.8,4,8.8,8.8
	C255.6,163.8,251.6,167.7,246.7,167.7z"/>
<path class="st1" d="M335,238.3h-70.6c-4.9,0-8.8-4-8.8-8.8c0-4.9,4-8.8,8.8-8.8H335c4.9,0,8.8,4,8.8,8.8
	C343.8,234.4,339.9,238.3,335,238.3z"/>
<path class="st1" d="M290.9,203h-70.6c-4.9,0-8.8-4-8.8-8.8s4-8.8,8.8-8.8h70.6c4.9,0,8.8,4,8.8,8.8S295.7,203,290.9,203z"/>
</svg>
