<?xml version="1.0" encoding="utf-8"?>
<!-- Generator: Adobe Illustrator 25.2.0, SVG Export Plug-In . SVG Version: 6.00 Build 0)  -->
<svg version="1.1" id="Layer_1" xmlns="http://www.w3.org/2000/svg" xmlns:xlink="http://www.w3.org/1999/xlink" x="0px" y="0px"
	 viewBox="0 0 512 512" style="enable-background:new 0 0 512 512;" xml:space="preserve">
<style type="text/css">
	.st0{fill:#E3E4D8;}
	.st1{fill:#684F89;}
	.st2{fill:#D0CEBD;}
	.st3{fill:#4E74BA;}
	.st4{fill:#FFFFFF;}
	.st5{fill:#EFBB48;}
	.st6{fill:#443260;}
</style>
<path class="st0" d="M432.1,485.5H79V0h273.7l79.4,79.4V485.5z"/>
<path class="st1" d="M353.6,113.8c-7.2-7.2-18.6-7.6-26.2-0.9c-33.5,29.7-73.9,69.5-119.3,122l24.4,24.4
	c58.6-50.8,102-96.9,122-119.2C361.1,132.6,360.8,121,353.6,113.8z"/>
<path class="st2" d="M352.7,0v79.4h79.4L352.7,0z"/>
<path class="st3" d="M79,353.1h353.1V512H79V353.1z"/>
<path class="st4" d="M132,485.5c-4.9,0-8.8-4-8.8-8.8v-88.3c0-4.9,4-8.8,8.8-8.8c4.9,0,8.8,4,8.8,8.8v88.3
	C140.8,481.6,136.8,485.5,132,485.5z"/>
<path class="st4" d="M158.4,450.2H132c-4.9,0-8.8-4-8.8-8.8v-53c0-4.9,4-8.8,8.8-8.8h26.5c19.5,0,35.3,15.8,35.3,35.3
	C193.8,434.4,177.9,450.2,158.4,450.2z M140.8,432.6h17.7c9.7,0,17.7-7.9,17.7-17.7c0-9.7-7.9-17.7-17.7-17.7h-17.7V432.6z"/>
<path class="st4" d="M335,485.5h-8.8c-4.9,0-8.8-4-8.8-8.8v-88.3c0-4.9,4-8.8,8.8-8.8h8.8c29.2,0,53,23.8,53,53
	S364.2,485.5,335,485.5z M335,467.9L335,467.9L335,467.9z M335,397.2v70.6c19.5,0,35.3-15.8,35.3-35.3S354.5,397.2,335,397.2z"/>
<path class="st4" d="M260,485.5h-30.9c-4.9,0-8.8-4-8.8-8.8c0-4.9,4-8.8,8.8-8.8H260c7.3,0,13.2-5.9,13.2-13.2s-5.9-13.2-13.2-13.2
	h-8.8c-17,0-30.9-13.9-30.9-30.9c0-17,13.9-30.9,30.9-30.9H282c4.9,0,8.8,4,8.8,8.8c0,4.9-4,8.8-8.8,8.8h-30.9
	c-7.3,0-13.2,5.9-13.2,13.2c0,7.3,5.9,13.2,13.2,13.2h8.8c17,0,30.9,13.9,30.9,30.9C290.9,471.7,277,485.5,260,485.5z"/>
<path class="st5" d="M208.1,235c-9.4,3.2-18.9,11.9-30.9,25.5c-28.1,31.8-27.6,57.3-27.6,57.3s25.6,0.6,57.4-27.5
	c13.6-12,22.2-21.6,25.4-31L208.1,235z"/>
<path class="st6" d="M260.8,177.2l29.4,29.4c9.8-9.4,19.1-18.6,27.7-27.4l-29.7-29.7C279.4,158.2,270.2,167.4,260.8,177.2z"/>
</svg>
