<?xml version="1.0" encoding="utf-8"?>
<!-- Generator: Adobe Illustrator 25.2.0, SVG Export Plug-In . SVG Version: 6.00 Build 0)  -->
<svg version="1.1" id="Layer_1" xmlns="http://www.w3.org/2000/svg" xmlns:xlink="http://www.w3.org/1999/xlink" x="0px" y="0px"
	 viewBox="0 0 512 512" style="enable-background:new 0 0 512 512;" xml:space="preserve">
<style type="text/css">
	.st0{fill:#E3E4D8;}
	.st1{fill:#BE6E41;}
	.st2{fill:#D0CEBD;}
	.st3{fill:#D36A0A;}
	.st4{fill:#F7E6A1;}
	.st5{fill:#8C4D2D;}
	.st6{fill:#FFFFFF;}
</style>
<path class="st0" d="M432.1,485.5H79V0h273.7l79.4,79.4V485.5z"/>
<path class="st1" d="M288.7,123.6c-0.1,8-6.5,12.8-13.8,13.7c-13.1,1.5-26.5-1.1-39.7,0.2c-7.5,0.7-13.8-6.9-13.8-13.8h-62.9v176.6
	h194.2V123.6H288.7z"/>
<path class="st2" d="M352.7,0v79.4h79.4L352.7,0z"/>
<path class="st3" d="M79,353.1h353.1V512H79V353.1z"/>
<path class="st4" d="M220.2,123.6h70.6v53h-70.6V123.6z"/>
<path class="st5" d="M229.1,273.7h-35.3c-4.9,0-8.8-3.9-8.8-8.8v-35.3c0-4.9,4-8.8,8.8-8.8c4.9,0,8.8,3.9,8.8,8.8V256h26.5
	c4.9,0,8.8,3.9,8.8,8.8S233.9,273.7,229.1,273.7z"/>
<path class="st5" d="M317.3,273.7H282c-4.9,0-8.8-3.9-8.8-8.8s4-8.8,8.8-8.8h26.5v-26.5c0-4.9,4-8.8,8.8-8.8c4.9,0,8.8,3.9,8.8,8.8
	v35.3C326.2,269.7,322.2,273.7,317.3,273.7z"/>
<path class="st6" d="M132,485.5c-4.9,0-8.8-3.9-8.8-8.8v-88.3c0-4.9,4-8.8,8.8-8.8c4.9,0,8.8,3.9,8.8,8.8v88.3
	C140.8,481.6,136.8,485.5,132,485.5z"/>
<path class="st6" d="M158.4,450.2H132c-4.9,0-8.8-3.9-8.8-8.8v-53c0-4.9,4-8.8,8.8-8.8h26.5c19.5,0,35.3,15.8,35.3,35.3
	C193.8,434.4,177.9,450.2,158.4,450.2z M140.8,432.6h17.7c9.7,0,17.7-7.9,17.7-17.7c0-9.7-7.9-17.7-17.7-17.7h-17.7V432.6z"/>
<path class="st6" d="M229.1,485.5c-4.9,0-8.8-3.9-8.8-8.8v-88.3c0-4.9,4-8.8,8.8-8.8c4.9,0,8.8,3.9,8.8,8.8v88.3
	C237.9,481.6,233.9,485.5,229.1,485.5z"/>
<path class="st6" d="M229.1,441.4c-2.5,0-5-1.1-6.8-3.2c-3.1-3.8-2.6-9.3,1.1-12.4l53-44.1c3.7-3.1,9.3-2.6,12.4,1.1
	c3.1,3.8,2.6,9.3-1.1,12.4l-53,44.1C233.1,440.7,231.1,441.4,229.1,441.4z"/>
<path class="st6" d="M282,485.5c-2,0-4-0.7-5.6-2l-53-44.1c-3.7-3.1-4.3-8.7-1.1-12.4c3.1-3.7,8.7-4.2,12.4-1.1l53,44.1
	c3.7,3.1,4.3,8.7,1.1,12.4C287.1,484.4,284.6,485.5,282,485.5z"/>
<path class="st6" d="M361.4,485.5h-17.6c-14.6,0-26.6-11.9-26.6-26.6v-52.8c0-14.6,11.9-26.6,26.6-26.6h35.2c4.9,0,8.8,3.9,8.8,8.8
	s-4,8.8-8.8,8.8h-35.2c-4.9,0-8.9,4-8.9,8.9V459c0,4.9,4,8.9,8.9,8.9h17.6c4.9,0,8.9-4,8.9-8.9v-26.4c0-4.9,4-8.8,8.8-8.8
	c4.9,0,8.8,3.9,8.8,8.8V459C388,473.6,376.1,485.5,361.4,485.5z"/>
<path class="st6" d="M379.1,441.4h-17.7c-4.9,0-8.8-3.9-8.8-8.8c0-4.9,4-8.8,8.8-8.8h17.7c4.9,0,8.8,3.9,8.8,8.8
	C388,437.4,384,441.4,379.1,441.4z"/>
</svg>
