<?xml version="1.0" encoding="utf-8"?>
<!-- Generator: Adobe Illustrator 24.3.0, SVG Export Plug-In . SVG Version: 6.00 Build 0)  -->
<svg version="1.1" id="Layer_1" xmlns="http://www.w3.org/2000/svg" xmlns:xlink="http://www.w3.org/1999/xlink" x="0px" y="0px"
	 viewBox="0 0 512 512" style="enable-background:new 0 0 512 512;" xml:space="preserve">
<style type="text/css">
	.st0{fill:#E3E4D8;}
	.st1{fill:#D0CEBD;}
	.st2{fill:#B53438;}
	.st3{fill:#FFFFFF;}
</style>
<path class="st0" d="M432.1,485.5H79V0h273.7l79.4,79.4V485.5z"/>
<path class="st1" d="M352.7,0v79.4h79.4L352.7,0z"/>
<path class="st2" d="M79,353.1h353.1V512H79V353.1z"/>
<g>
	<path class="st3" d="M132,485.5c-4.9,0-8.8-4-8.8-8.8v-88.3c0-4.9,4-8.8,8.8-8.8c4.9,0,8.8,4,8.8,8.8v88.3
		C140.8,481.6,136.8,485.5,132,485.5z"/>
	<path class="st3" d="M379.1,397.2h-53c-4.9,0-8.8-4-8.8-8.8c0-4.9,4-8.8,8.8-8.8h53c4.9,0,8.8,4,8.8,8.8
		C388,393.3,384,397.2,379.1,397.2z"/>
	<path class="st3" d="M379.1,441.4h-53c-4.9,0-8.8-4-8.8-8.8c0-4.9,4-8.8,8.8-8.8h53c4.9,0,8.8,4,8.8,8.8
		C388,437.4,384,441.4,379.1,441.4z"/>
	<path class="st3" d="M326.2,485.5c-4.9,0-8.8-4-8.8-8.8v-88.3c0-4.9,4-8.8,8.8-8.8c4.9,0,8.8,4,8.8,8.8v88.3
		C335,481.6,331,485.5,326.2,485.5z"/>
</g>
<path class="st2" d="M249.2,95.1c-0.9,0.3-11.7,15.3,0.8,27.9C258.4,104.7,249.6,95,249.2,95.1 M254.5,168.7
	c-6.3,21.5-14.6,44.7-23.5,65.7c18.4-7,38.4-13.2,57.1-17.5C276.3,203.2,264.4,186.2,254.5,168.7 M320.3,225.8
	c7.2,5.4,8.9,8.2,13.6,8.2c2.1,0,7.9-0.1,10.6-3.8c1.3-1.8,1.8-3,2-3.6c-1.1-0.6-2.5-1.7-10.3-1.7
	C331.7,224.9,326.2,225.1,320.3,225.8 M200.3,264.4c-18.8,10.4-26.5,19-27,23.8c-0.1,0.8-0.3,2.9,3.8,6
	C178.4,293.9,186,290.4,200.3,264.4 M176.9,309c-3.1,0-6-1-8.5-2.8c-9.2-6.8-10.4-14.3-9.8-19.5c1.6-14.1,19.3-28.9,52.6-44
	c13.2-28.6,25.8-63.9,33.3-93.4c-8.8-18.9-17.3-43.4-11.1-57.7c2.2-5,4.9-8.9,10-10.6c2-0.7,7.1-1.5,8.9-1.5c4.6,0,9.1,5.5,11.2,9.1
	c4,6.6,4,14.4,3.4,21.9c-0.6,7.3-1.8,14.5-3.3,21.6c-1,5.2-2.2,10.5-3.5,15.7c11.9,24.2,28.6,48.8,44.7,65.7
	c11.5-2.1,21.5-3.1,29.5-3.1c13.8,0,22.1,3.2,25.5,9.7c2.8,5.4,1.7,11.7-3.4,18.8c-4.9,6.8-11.6,10.3-19.5,10.3
	c-10.7,0-23.2-6.7-37.1-19.9c-25,5.2-54.1,14.3-77.7,24.5c-7.4,15.4-14.4,27.8-21,36.9C192.4,303.1,184.6,309,176.9,309"/>
<path class="st3" d="M158.4,450.2H132c-4.9,0-8.8-4-8.8-8.8v-53c0-4.9,4-8.8,8.8-8.8h26.5c19.5,0,35.3,15.8,35.3,35.3
	C193.8,434.4,177.9,450.2,158.4,450.2z M140.8,432.6h17.7c9.7,0,17.7-7.9,17.7-17.7c0-9.7-7.9-17.7-17.7-17.7h-17.7V432.6z"/>
<path class="st3" d="M237.9,485.5h-8.8c-4.9,0-8.8-4-8.8-8.8v-88.3c0-4.9,4-8.8,8.8-8.8h8.8c29.2,0,53,23.8,53,53
	S267.1,485.5,237.9,485.5z M237.9,467.9L237.9,467.9L237.9,467.9z M237.9,397.2v70.6c19.5,0,35.3-15.8,35.3-35.3
	S257.4,397.2,237.9,397.2z"/>
</svg>
