<?xml version="1.0" encoding="utf-8"?>
<!-- Generator: Adobe Illustrator 25.2.0, SVG Export Plug-In . SVG Version: 6.00 Build 0)  -->
<svg version="1.1" id="Layer_1" xmlns="http://www.w3.org/2000/svg" xmlns:xlink="http://www.w3.org/1999/xlink" x="0px" y="0px"
	 viewBox="0 0 512 512" style="enable-background:new 0 0 512 512;" xml:space="preserve">
<style type="text/css">
	.st0{fill:#E3E4D8;}
	.st1{fill:#D0CEBD;}
	.st2{fill:#D794FA;}
	.st3{fill:#A09893;}
	.st4{fill:#FFFFFF;}
</style>
<path class="st0" d="M432.1,485.5H79V0h273.7l79.4,79.4V485.5z"/>
<path class="st1" d="M352.7,0v79.4h79.4L352.7,0z"/>
<path class="st2" d="M79,353.1h353.1V512H79V353.1z"/>
<path class="st3" d="M202.6,229.5H132c-4.9,0-8.8-4-8.8-8.8c0-4.9,4-8.8,8.8-8.8h70.6c4.9,0,8.8,4,8.8,8.8
	C211.4,225.6,207.5,229.5,202.6,229.5z"/>
<path class="st3" d="M326.2,229.5h-88.3c-4.9,0-8.8-4-8.8-8.8c0-4.9,4-8.8,8.8-8.8h88.3c4.9,0,8.8,4,8.8,8.8
	C335,225.6,331,229.5,326.2,229.5z"/>
<path class="st3" d="M299.7,264.8h-97.1c-4.9,0-8.8-4-8.8-8.8s4-8.8,8.8-8.8h97.1c4.9,0,8.8,4,8.8,8.8S304.6,264.8,299.7,264.8z"/>
<path class="st3" d="M379.1,229.5h-17.7c-4.9,0-8.8-4-8.8-8.8c0-4.9,4-8.8,8.8-8.8h17.7c4.9,0,8.8,4,8.8,8.8
	C388,225.6,384,229.5,379.1,229.5z"/>
<path class="st3" d="M379.1,264.8H335c-4.9,0-8.8-4-8.8-8.8s4-8.8,8.8-8.8h44.1c4.9,0,8.8,4,8.8,8.8S384,264.8,379.1,264.8z"/>
<path class="st3" d="M167.3,264.8H132c-4.9,0-8.8-4-8.8-8.8s4-8.8,8.8-8.8h35.3c4.9,0,8.8,4,8.8,8.8S172.1,264.8,167.3,264.8z"/>
<path class="st3" d="M202.6,300.1H132c-4.9,0-8.8-4-8.8-8.8c0-4.9,4-8.8,8.8-8.8h70.6c4.9,0,8.8,4,8.8,8.8
	C211.4,296.2,207.5,300.1,202.6,300.1z"/>
<path class="st3" d="M326.2,300.1h-88.3c-4.9,0-8.8-4-8.8-8.8c0-4.9,4-8.8,8.8-8.8h88.3c4.9,0,8.8,4,8.8,8.8
	C335,296.2,331,300.1,326.2,300.1z"/>
<path class="st3" d="M379.1,300.1h-17.7c-4.9,0-8.8-4-8.8-8.8c0-4.9,4-8.8,8.8-8.8h17.7c4.9,0,8.8,4,8.8,8.8
	C388,296.2,384,300.1,379.1,300.1z"/>
<path class="st3" d="M379.1,194.2h-70.6c-4.9,0-8.8-4-8.8-8.8c0-4.9,4-8.8,8.8-8.8h70.6c4.9,0,8.8,4,8.8,8.8
	C388,190.3,384,194.2,379.1,194.2z"/>
<path class="st3" d="M273.2,194.2h-88.3c-4.9,0-8.8-4-8.8-8.8c0-4.9,4-8.8,8.8-8.8h88.3c4.9,0,8.8,4,8.8,8.8
	C282,190.3,278.1,194.2,273.2,194.2z"/>
<path class="st3" d="M308.5,158.9h-97.1c-4.9,0-8.8-4-8.8-8.8c0-4.9,4-8.8,8.8-8.8h97.1c4.9,0,8.8,4,8.8,8.8
	C317.3,154.9,313.4,158.9,308.5,158.9z"/>
<path class="st3" d="M149.6,194.2H132c-4.9,0-8.8-4-8.8-8.8c0-4.9,4-8.8,8.8-8.8h17.7c4.9,0,8.8,4,8.8,8.8
	C158.4,190.3,154.5,194.2,149.6,194.2z"/>
<path class="st3" d="M176.1,158.9H132c-4.9,0-8.8-4-8.8-8.8c0-4.9,4-8.8,8.8-8.8h44.1c4.9,0,8.8,4,8.8,8.8
	C184.9,154.9,181,158.9,176.1,158.9z"/>
<path class="st3" d="M379.1,158.9h-35.3c-4.9,0-8.8-4-8.8-8.8c0-4.9,4-8.8,8.8-8.8h35.3c4.9,0,8.8,4,8.8,8.8
	C388,154.9,384,158.9,379.1,158.9z"/>
<path class="st4" d="M132,485.5c-4.9,0-8.8-4-8.8-8.8v-88.3c0-4.9,4-8.8,8.8-8.8c4.9,0,8.8,4,8.8,8.8v88.3
	C140.8,481.6,136.8,485.5,132,485.5z"/>
<path class="st4" d="M158.4,450.2H132c-4.9,0-8.8-4-8.8-8.8v-53c0-4.9,4-8.8,8.8-8.8h26.5c19.5,0,35.3,15.8,35.3,35.3
	C193.8,434.4,177.9,450.2,158.4,450.2z M140.8,432.6h17.7c9.7,0,17.7-7.9,17.7-17.7c0-9.7-7.9-17.7-17.7-17.7h-17.7V432.6z"/>
<path class="st4" d="M282,397.2h-53c-4.9,0-8.8-4-8.8-8.8c0-4.9,4-8.8,8.8-8.8h53c4.9,0,8.8,4,8.8,8.8
	C290.9,393.3,286.9,397.2,282,397.2z"/>
<path class="st4" d="M255.6,485.5c-4.9,0-8.8-4-8.8-8.8v-88.3c0-4.9,4-8.8,8.8-8.8c4.9,0,8.8,4,8.8,8.8v88.3
	C264.4,481.6,260.4,485.5,255.6,485.5z"/>
<path class="st4" d="M379.1,397.2h-53c-4.9,0-8.8-4-8.8-8.8c0-4.9,4-8.8,8.8-8.8h53c4.9,0,8.8,4,8.8,8.8
	C388,393.3,384,397.2,379.1,397.2z"/>
<path class="st4" d="M379.1,441.4h-53c-4.9,0-8.8-4-8.8-8.8c0-4.9,4-8.8,8.8-8.8h53c4.9,0,8.8,4,8.8,8.8
	C388,437.4,384,441.4,379.1,441.4z"/>
<path class="st4" d="M326.2,485.5c-4.9,0-8.8-4-8.8-8.8v-88.3c0-4.9,4-8.8,8.8-8.8c4.9,0,8.8,4,8.8,8.8v88.3
	C335,481.6,331,485.5,326.2,485.5z"/>
<path class="st4" d="M184.9,485.5c-2.7,0-5.3-1.2-7.1-3.5l-26.5-35.3c-2.9-3.9-2.1-9.4,1.8-12.4c3.9-2.9,9.4-2.1,12.4,1.8l26.5,35.3
	c2.9,3.9,2.1,9.4-1.8,12.4C188.6,484.9,186.8,485.5,184.9,485.5z"/>
</svg>
