<?xml version="1.0" encoding="utf-8"?>
<!-- Generator: Adobe Illustrator 25.2.0, SVG Export Plug-In . SVG Version: 6.00 Build 0)  -->
<svg version="1.1" id="Layer_1" xmlns="http://www.w3.org/2000/svg" xmlns:xlink="http://www.w3.org/1999/xlink" x="0px" y="0px"
	 viewBox="0 0 512 512" style="enable-background:new 0 0 512 512;" xml:space="preserve">
<style type="text/css">
	.st0{fill:#E3E4D8;}
	.st1{fill:#D3D2C1;}
	.st2{fill:#A09893;}
	.st3{fill:#556080;}
	.st4{fill:#FFFFFF;}
	.st5{fill:#212F3F;}
</style>
<path class="st0" d="M432.1,512H79V0h273.7l79.4,79.4V512z"/>
<path class="st1" d="M352.7,0v79.4h79.4L352.7,0z"/>
<path class="st2" d="M184.9,247.2h-53c-4.9,0-8.8-3.9-8.8-8.8c0-4.9,4-8.8,8.8-8.8h53c4.9,0,8.8,3.9,8.8,8.8
	C193.8,243.2,189.8,247.2,184.9,247.2z"/>
<path class="st2" d="M379.1,247.2h-17.7c-4.9,0-8.8-3.9-8.8-8.8c0-4.9,4-8.8,8.8-8.8h17.7c4.9,0,8.8,3.9,8.8,8.8
	C388,243.2,384,247.2,379.1,247.2z"/>
<path class="st2" d="M379.1,282.5h-61.8c-4.9,0-8.8-3.9-8.8-8.8c0-4.9,4-8.8,8.8-8.8h61.8c4.9,0,8.8,3.9,8.8,8.8
	C388,278.5,384,282.5,379.1,282.5z"/>
<path class="st2" d="M167.3,282.5H132c-4.9,0-8.8-3.9-8.8-8.8c0-4.9,4-8.8,8.8-8.8h35.3c4.9,0,8.8,3.9,8.8,8.8
	C176.1,278.5,172.1,282.5,167.3,282.5z"/>
<path class="st2" d="M184.9,317.8h-53c-4.9,0-8.8-3.9-8.8-8.8s4-8.8,8.8-8.8h53c4.9,0,8.8,3.9,8.8,8.8S189.8,317.8,184.9,317.8z"/>
<path class="st2" d="M379.1,211.9h-70.6c-4.9,0-8.8-3.9-8.8-8.8s4-8.8,8.8-8.8h70.6c4.9,0,8.8,3.9,8.8,8.8S384,211.9,379.1,211.9z"
	/>
<path class="st2" d="M273.2,211.9h-88.3c-4.9,0-8.8-3.9-8.8-8.8s4-8.8,8.8-8.8h88.3c4.9,0,8.8,3.9,8.8,8.8S278.1,211.9,273.2,211.9z
	"/>
<path class="st2" d="M308.5,176.6h-97.1c-4.9,0-8.8-3.9-8.8-8.8c0-4.9,4-8.8,8.8-8.8h97.1c4.9,0,8.8,3.9,8.8,8.8
	C317.3,172.6,313.4,176.6,308.5,176.6z"/>
<path class="st2" d="M149.6,211.9H132c-4.9,0-8.8-3.9-8.8-8.8s4-8.8,8.8-8.8h17.7c4.9,0,8.8,3.9,8.8,8.8S154.5,211.9,149.6,211.9z"
	/>
<path class="st2" d="M176.1,176.6H132c-4.9,0-8.8-3.9-8.8-8.8c0-4.9,4-8.8,8.8-8.8h44.1c4.9,0,8.8,3.9,8.8,8.8
	C184.9,172.6,181,176.6,176.1,176.6z"/>
<path class="st2" d="M379.1,176.6h-35.3c-4.9,0-8.8-3.9-8.8-8.8c0-4.9,4-8.8,8.8-8.8h35.3c4.9,0,8.8,3.9,8.8,8.8
	C388,172.6,384,176.6,379.1,176.6z"/>
<path class="st3" d="M379.1,449.3c-2.3,0-4.5-0.9-6.2-2.6l-61.4-61.3c-3.5-3.5-3.5-9,0-12.5c3.4-3.4,9-3.4,12.5,0l61.4,61.3
	c3.5,3.5,3.5,9,0,12.5C383.7,448.5,381.4,449.3,379.1,449.3z"/>
<path class="st4" d="M343.8,317.8c0,43.9-35.6,79.4-79.4,79.4s-79.4-35.6-79.4-79.4s35.6-79.4,79.4-79.4S343.8,273.9,343.8,317.8z"
	/>
<path class="st5" d="M299.7,291.3h-70.6c-4.9,0-8.8-3.9-8.8-8.8c0-4.9,4-8.8,8.8-8.8h70.6c4.9,0,8.8,3.9,8.8,8.8
	C308.5,287.4,304.6,291.3,299.7,291.3z"/>
<path class="st5" d="M229.1,300.1c-4.9,0-8.8-3.9-8.8-8.8v-8.8c0-4.9,4-8.8,8.8-8.8c4.9,0,8.8,3.9,8.8,8.8v8.8
	C237.9,296.2,233.9,300.1,229.1,300.1z"/>
<path class="st5" d="M299.7,300.1c-4.9,0-8.8-3.9-8.8-8.8v-8.8c0-4.9,4-8.8,8.8-8.8c4.9,0,8.8,3.9,8.8,8.8v8.8
	C308.5,296.2,304.6,300.1,299.7,300.1z"/>
<path class="st5" d="M264.4,361.9c-4.9,0-8.8-3.9-8.8-8.8v-70.6c0-4.9,4-8.8,8.8-8.8c4.9,0,8.8,3.9,8.8,8.8v70.6
	C273.2,358,269.3,361.9,264.4,361.9z"/>
<path class="st5" d="M282,361.9h-35.3c-4.9,0-8.8-3.9-8.8-8.8c0-4.9,4-8.8,8.8-8.8H282c4.9,0,8.8,3.9,8.8,8.8
	C290.9,358,286.9,361.9,282,361.9z"/>
</svg>
