<?xml version="1.0" encoding="utf-8"?>
<!-- Generator: Adobe Illustrator 25.2.0, SVG Export Plug-In . SVG Version: 6.00 Build 0)  -->
<svg version="1.1" id="Layer_1" xmlns="http://www.w3.org/2000/svg" xmlns:xlink="http://www.w3.org/1999/xlink" x="0px" y="0px"
	 viewBox="0 0 512 512" style="enable-background:new 0 0 512 512;" xml:space="preserve">
<style type="text/css">
	.st0{fill:#E3E4D8;}
	.st1{fill:#CDC8BF;}
	.st2{fill:#D0CEBD;}
	.st3{fill:#E48A00;}
	.st4{fill:#FFFFFF;}
	.st5{fill:#563C09;}
</style>
<path class="st0" d="M432.1,485.5H79V0h273.7l79.4,79.4V485.5z"/>
<path class="st1" d="M370.3,167.7h-97.1c-4.9,0-8.8-4-8.8-8.8c0-4.9,4-8.8,8.8-8.8h97.1c4.9,0,8.8,4,8.8,8.8
	C379.1,163.8,375.2,167.7,370.3,167.7z"/>
<path class="st1" d="M237.9,167.7h-97.1c-4.9,0-8.8-4-8.8-8.8c0-4.9,4-8.8,8.8-8.8h97.1c4.9,0,8.8,4,8.8,8.8
	C246.7,163.8,242.8,167.7,237.9,167.7z"/>
<path class="st1" d="M352.7,247.2c-4.9,0-8.8-4-8.8-8.8c0-38.9-31.7-70.6-70.6-70.6c-4.9,0-8.8-4-8.8-8.8c0-4.9,4-8.8,8.8-8.8
	c48.7,0,88.3,39.6,88.3,88.3C361.5,243.2,357.5,247.2,352.7,247.2z"/>
<path class="st1" d="M158.4,247.2c-4.9,0-8.8-4-8.8-8.8c0-48.7,39.6-88.3,88.3-88.3c4.9,0,8.8,4,8.8,8.8c0,4.9-4,8.8-8.8,8.8
	c-38.9,0-70.6,31.7-70.6,70.6C167.3,243.2,163.3,247.2,158.4,247.2z"/>
<path class="st2" d="M352.7,0v79.4h79.4L352.7,0z"/>
<path class="st3" d="M79,353.1h353.1V512H79V353.1z"/>
<path class="st4" d="M162.9,485.5H132c-4.9,0-8.8-4-8.8-8.8c0-4.9,4-8.8,8.8-8.8h30.9c7.3,0,13.2-5.9,13.2-13.2s-5.9-13.2-13.2-13.2
	H154c-17,0-30.9-13.9-30.9-30.9c0-17,13.9-30.9,30.9-30.9h30.9c4.9,0,8.8,4,8.8,8.8c0,4.9-4,8.8-8.8,8.8H154
	c-7.3,0-13.2,5.9-13.2,13.2c0,7.3,5.9,13.2,13.2,13.2h8.8c17,0,30.9,13.9,30.9,30.9C193.8,471.7,179.9,485.5,162.9,485.5z"/>
<path class="st5" d="M237.9,141.2h35.3v35.3h-35.3V141.2z"/>
<path class="st5" d="M335,238.3h35.3v35.3H335V238.3z"/>
<path class="st5" d="M176.1,273.7h-35.3v-35.3h35.3V273.7z"/>
<path class="st4" d="M255.6,485.5c-3.6,0-6.9-2.2-8.2-5.5l-35.3-88.3c-1.8-4.5,0.4-9.7,4.9-11.5c4.5-1.8,9.7,0.4,11.5,4.9l27.1,67.8
	l27.1-67.8c1.8-4.5,7-6.7,11.5-4.9c4.5,1.8,6.7,6.9,4.9,11.5L263.8,480C262.4,483.3,259.2,485.5,255.6,485.5z"/>
<path class="st4" d="M361.4,485.5h-17.6c-14.6,0-26.6-11.9-26.6-26.6v-52.8c0-14.6,11.9-26.6,26.6-26.6h35.2c4.9,0,8.8,4,8.8,8.8
	c0,4.9-4,8.8-8.8,8.8h-35.2c-4.9,0-8.9,4-8.9,8.9V459c0,4.9,4,8.9,8.9,8.9h17.6c4.9,0,8.9-4,8.9-8.9v-26.5c0-4.9,4-8.8,8.8-8.8
	c4.9,0,8.8,4,8.8,8.8V459C388,473.6,376.1,485.5,361.4,485.5z"/>
<path class="st4" d="M379.1,441.4h-17.7c-4.9,0-8.8-4-8.8-8.8c0-4.9,4-8.8,8.8-8.8h17.7c4.9,0,8.8,4,8.8,8.8
	C388,437.4,384,441.4,379.1,441.4z"/>
</svg>
