<?xml version="1.0" encoding="utf-8"?>
<!-- Generator: Adobe Illustrator 24.3.0, SVG Export Plug-In . SVG Version: 6.00 Build 0)  -->
<svg version="1.1" id="Layer_1" xmlns="http://www.w3.org/2000/svg" xmlns:xlink="http://www.w3.org/1999/xlink" x="0px" y="0px"
	 viewBox="0 0 512 512" style="enable-background:new 0 0 512 512;" xml:space="preserve">
<style type="text/css">
	.st0{fill:#E3E4D8;}
	.st1{fill:#D0CEBD;}
	.st2{fill:#4E74BA;}
	.st3{fill:#A09893;}
	.st4{fill:#FFFFFF;}
</style>
<path class="st0" d="M432.1,485.5H79V0h273.7l79.4,79.4V485.5z"/>
<path class="st1" d="M352.7,0v79.4h79.4L352.7,0z"/>
<path class="st2" d="M79,353.1h353.1V512H79V353.1z"/>
<g>
	<path class="st3" d="M202.6,229.5H132c-4.9,0-8.8-4-8.8-8.8c0-4.9,4-8.8,8.8-8.8h70.6c4.9,0,8.8,4,8.8,8.8
		C211.4,225.6,207.5,229.5,202.6,229.5z"/>
	<path class="st3" d="M326.2,229.5h-88.3c-4.9,0-8.8-4-8.8-8.8c0-4.9,4-8.8,8.8-8.8h88.3c4.9,0,8.8,4,8.8,8.8
		C335,225.6,331,229.5,326.2,229.5z"/>
	<path class="st3" d="M299.7,264.8h-97.1c-4.9,0-8.8-4-8.8-8.8s4-8.8,8.8-8.8h97.1c4.9,0,8.8,4,8.8,8.8S304.6,264.8,299.7,264.8z"/>
	<path class="st3" d="M379.1,229.5h-17.7c-4.9,0-8.8-4-8.8-8.8c0-4.9,4-8.8,8.8-8.8h17.7c4.9,0,8.8,4,8.8,8.8
		C388,225.6,384,229.5,379.1,229.5z"/>
	<path class="st3" d="M379.1,264.8H335c-4.9,0-8.8-4-8.8-8.8s4-8.8,8.8-8.8h44.1c4.9,0,8.8,4,8.8,8.8S384,264.8,379.1,264.8z"/>
	<path class="st3" d="M167.3,264.8H132c-4.9,0-8.8-4-8.8-8.8s4-8.8,8.8-8.8h35.3c4.9,0,8.8,4,8.8,8.8S172.1,264.8,167.3,264.8z"/>
	<path class="st3" d="M202.6,300.1H132c-4.9,0-8.8-4-8.8-8.8c0-4.9,4-8.8,8.8-8.8h70.6c4.9,0,8.8,4,8.8,8.8
		C211.4,296.2,207.5,300.1,202.6,300.1z"/>
	<path class="st3" d="M326.2,300.1h-88.3c-4.9,0-8.8-4-8.8-8.8c0-4.9,4-8.8,8.8-8.8h88.3c4.9,0,8.8,4,8.8,8.8
		C335,296.2,331,300.1,326.2,300.1z"/>
	<path class="st3" d="M379.1,300.1h-17.7c-4.9,0-8.8-4-8.8-8.8c0-4.9,4-8.8,8.8-8.8h17.7c4.9,0,8.8,4,8.8,8.8
		C388,296.2,384,300.1,379.1,300.1z"/>
	<path class="st3" d="M379.1,194.2h-70.6c-4.9,0-8.8-4-8.8-8.8c0-4.9,4-8.8,8.8-8.8h70.6c4.9,0,8.8,4,8.8,8.8
		C388,190.3,384,194.2,379.1,194.2z"/>
	<path class="st3" d="M273.2,194.2h-88.3c-4.9,0-8.8-4-8.8-8.8c0-4.9,4-8.8,8.8-8.8h88.3c4.9,0,8.8,4,8.8,8.8
		C282,190.3,278.1,194.2,273.2,194.2z"/>
	<path class="st3" d="M308.5,158.9h-97.1c-4.9,0-8.8-4-8.8-8.8c0-4.9,4-8.8,8.8-8.8h97.1c4.9,0,8.8,4,8.8,8.8
		C317.3,154.9,313.4,158.9,308.5,158.9z"/>
	<path class="st3" d="M149.6,194.2H132c-4.9,0-8.8-4-8.8-8.8c0-4.9,4-8.8,8.8-8.8h17.7c4.9,0,8.8,4,8.8,8.8
		C158.4,190.3,154.5,194.2,149.6,194.2z"/>
	<path class="st3" d="M176.1,158.9H132c-4.9,0-8.8-4-8.8-8.8c0-4.9,4-8.8,8.8-8.8h44.1c4.9,0,8.8,4,8.8,8.8
		C184.9,154.9,181,158.9,176.1,158.9z"/>
	<path class="st3" d="M379.1,158.9h-35.3c-4.9,0-8.8-4-8.8-8.8c0-4.9,4-8.8,8.8-8.8h35.3c4.9,0,8.8,4,8.8,8.8
		C388,154.9,384,158.9,379.1,158.9z"/>
</g>
<path class="st4" d="M184.9,397.2h-53c-4.9,0-8.8-4-8.8-8.8c0-4.9,4-8.8,8.8-8.8h53c4.9,0,8.8,4,8.8,8.8
	C193.8,393.3,189.8,397.2,184.9,397.2z"/>
<path class="st4" d="M158.4,485.5c-4.9,0-8.8-4-8.8-8.8v-88.3c0-4.9,4-8.8,8.8-8.8c4.9,0,8.8,4,8.8,8.8v88.3
	C167.3,481.6,163.3,485.5,158.4,485.5z"/>
<path class="st4" d="M229.1,485.5c-1.5,0-3.1-0.4-4.5-1.3c-4.2-2.5-5.5-7.9-3-12.1l53-88.3c2.5-4.2,7.9-5.5,12.1-3
	c4.2,2.5,5.5,7.9,3,12.1l-53,88.3C235,484,232.1,485.5,229.1,485.5z"/>
<path class="st4" d="M282,485.5c-3,0-5.9-1.5-7.6-4.3l-53-88.3c-2.5-4.2-1.2-9.6,3-12.1c4.2-2.5,9.6-1.2,12.1,3l53,88.3
	c2.5,4.2,1.2,9.6-3,12.1C285.2,485.1,283.6,485.5,282,485.5z"/>
<path class="st4" d="M379.1,397.2h-53c-4.9,0-8.8-4-8.8-8.8c0-4.9,4-8.8,8.8-8.8h53c4.9,0,8.8,4,8.8,8.8
	C388,393.3,384,397.2,379.1,397.2z"/>
<path class="st4" d="M352.7,485.5c-4.9,0-8.8-4-8.8-8.8v-88.3c0-4.9,4-8.8,8.8-8.8c4.9,0,8.8,4,8.8,8.8v88.3
	C361.5,481.6,357.5,485.5,352.7,485.5z"/>
</svg>
