<?xml version="1.0" encoding="utf-8"?>
<!-- Generator: Adobe Illustrator 25.2.0, SVG Export Plug-In . SVG Version: 6.00 Build 0)  -->
<svg version="1.1" id="Layer_1" xmlns="http://www.w3.org/2000/svg" xmlns:xlink="http://www.w3.org/1999/xlink" x="0px" y="0px"
	 viewBox="0 0 512 512" style="enable-background:new 0 0 512 512;" xml:space="preserve">
<style type="text/css">
	.st0{fill:#E3E4D8;}
	.st1{fill:#D0CEBD;}
	.st2{fill:#BAAFA9;}
	.st3{fill:#FFFFFF;}
	.st4{fill:#28384C;}
</style>
<path class="st0" d="M432.1,485.5H79V0h273.7l79.4,79.4V485.5z"/>
<path class="st1" d="M352.7,0v79.4h79.4L352.7,0z"/>
<path class="st2" d="M79,353.1h353.1V512H79V353.1z"/>
<path class="st3" d="M282,397.2h-53c-4.9,0-8.8-3.9-8.8-8.8s4-8.8,8.8-8.8h53c4.9,0,8.8,3.9,8.8,8.8S286.9,397.2,282,397.2z"/>
<path class="st3" d="M255.6,485.5c-4.9,0-8.8-3.9-8.8-8.8v-88.3c0-4.9,4-8.8,8.8-8.8c4.9,0,8.8,3.9,8.8,8.8v88.3
	C264.4,481.6,260.4,485.5,255.6,485.5z"/>
<path class="st3" d="M379.1,397.2h-53c-4.9,0-8.8-3.9-8.8-8.8s4-8.8,8.8-8.8h53c4.9,0,8.8,3.9,8.8,8.8S384,397.2,379.1,397.2z"/>
<path class="st3" d="M379.1,441.4h-53c-4.9,0-8.8-3.9-8.8-8.8c0-4.9,4-8.8,8.8-8.8h53c4.9,0,8.8,3.9,8.8,8.8
	C388,437.4,384,441.4,379.1,441.4z"/>
<path class="st3" d="M326.2,485.5c-4.9,0-8.8-3.9-8.8-8.8v-88.3c0-4.9,4-8.8,8.8-8.8c4.9,0,8.8,3.9,8.8,8.8v88.3
	C335,481.6,331,485.5,326.2,485.5z"/>
<path class="st3" d="M184.9,397.2h-53c-4.9,0-8.8-3.9-8.8-8.8s4-8.8,8.8-8.8h53c4.9,0,8.8,3.9,8.8,8.8S189.8,397.2,184.9,397.2z"/>
<path class="st3" d="M158.4,485.5c-4.9,0-8.8-3.9-8.8-8.8v-88.3c0-4.9,4-8.8,8.8-8.8c4.9,0,8.8,3.9,8.8,8.8v88.3
	C167.3,481.6,163.3,485.5,158.4,485.5z"/>
<path class="st4" d="M361.5,282.5h-17.7l-17.7-44.1h17.7V203h-26.5l-26.5-97.1h-70.6L193.8,203h-26.5v35.3h17.7l-17.7,44.1h-17.7
	l-8.8,26.5h70.6l8.8-26.5h-17.7l17.7-44.1h70.6l17.7,44.1h-17.7l8.8,26.5h70.6L361.5,282.5z M229.1,203l17.7-61.8h17.7L282,203
	H229.1z"/>
</svg>
