<svg xmlns="http://www.w3.org/2000/svg" xmlns:xlink="http://www.w3.org/1999/xlink" version="1.1" id="Layer_1" x="0px" y="0px" viewBox="0 0 512 512" style="enable-background:new 0 0 512 512;" xml:space="preserve">
<style type="text/css">
	.st0{fill:#E3E4D8;}
	.st1{fill:#D0CEBD;}
	.st2{fill:#324946;}
	.st3{fill:#E1A02F;}
	.st4{fill:#FFFFFF;}
	.st5{fill:#1B2D2A;}
</style>
<path class="st0" d="M432.1,485.5H79V0h273.7l79.4,79.4V485.5z"/>
<path class="st1" d="M352.7,0v79.4h79.4L352.7,0z"/>
<path class="st2" d="M79,353.1h353.1V512H79V353.1z"/>
<path class="st3" d="M167.3,123.6h176.6v176.6H167.3V123.6z"/>
<path class="st4" d="M282,211.9l-53,35.3v-70.6L282,211.9z"/>

<path class="st2" d="M149.6,123.6h35.3v35.3h-35.3V123.6z"/>
<path class="st5" d="M149.6,158.9h35.3v35.3h-35.3V158.9z"/>
<path class="st2" d="M149.6,194.2h35.3v35.3h-35.3V194.2z"/>
<path class="st5" d="M149.6,229.5h35.3v35.3h-35.3V229.5z"/>
<path class="st2" d="M149.6,264.8h35.3v35.3h-35.3V264.8z"/>


<path class="st2" d="M326.2,123.6h35.3v35.3h-35.3V123.6z"/>
<path class="st5" d="M326.2,158.9h35.3v35.3h-35.3V158.9z"/>
<path class="st2" d="M326.2,194.2h35.3v35.3h-35.3V194.2z"/>
<path class="st5" d="M326.2,229.5h35.3v35.3h-35.3V229.5z"/>
<path class="st2" d="M326.2,264.8h35.3v35.3h-35.3V264.8z"/>
</svg>