<?xml version="1.0" encoding="utf-8"?>
<!-- Generator: Adobe Illustrator 25.2.0, SVG Export Plug-In . SVG Version: 6.00 Build 0)  -->
<svg version="1.1" id="Layer_1" xmlns="http://www.w3.org/2000/svg" xmlns:xlink="http://www.w3.org/1999/xlink" x="0px" y="0px"
	 viewBox="0 0 512 512" style="enable-background:new 0 0 512 512;" xml:space="preserve">
<style type="text/css">
	.st0{fill:#E3E4D8;}
	.st1{fill:#D0CEBD;}
	.st2{fill:#82619A;}
	.st3{fill:#FFFFFF;}
	.st4{fill:#5F4575;}
</style>
<path class="st0" d="M432.1,485.5H79V0h273.7l79.4,79.4V485.5z"/>
<path class="st1" d="M352.7,0v79.4h79.4L352.7,0z"/>
<path class="st2" d="M79,353.1h353.1V512H79V353.1z"/>
<path class="st3" d="M140.8,114.8h229.5v203H140.8V114.8z"/>
<path class="st4" d="M290.9,220.7h-70.7c-19.5,0-35.3,15.8-35.3,35.3v26.5h141.2V256C326.2,236.5,310.4,220.7,290.9,220.7z"/>
<path class="st3" d="M158.4,485.5c-3.6,0-6.9-2.2-8.2-5.6l-35.3-88.3c-1.8-4.5,0.4-9.7,4.9-11.5c4.5-1.8,9.7,0.4,11.5,4.9l27.1,67.8
	l27.1-67.8c1.8-4.5,7-6.7,11.5-4.9c4.5,1.8,6.7,6.9,4.9,11.5L166.6,480C165.3,483.3,162.1,485.5,158.4,485.5z"/>
<path class="st3" d="M388,397.2h-53c-4.9,0-8.8-3.9-8.8-8.8s4-8.8,8.8-8.8h53c4.9,0,8.8,3.9,8.8,8.8S392.8,397.2,388,397.2z"/>
<path class="st3" d="M388,441.4h-53c-4.9,0-8.8-3.9-8.8-8.8c0-4.9,4-8.8,8.8-8.8h53c4.9,0,8.8,3.9,8.8,8.8
	C396.8,437.4,392.8,441.4,388,441.4z"/>
<path class="st3" d="M335,485.5c-4.9,0-8.8-3.9-8.8-8.8v-88.3c0-4.9,4-8.8,8.8-8.8s8.8,3.9,8.8,8.8v88.3
	C343.8,481.6,339.9,485.5,335,485.5z"/>
<path class="st3" d="M290.9,485.5h-35.2c-14.6,0-26.6-11.9-26.6-26.6v-52.8c0-14.6,11.9-26.6,26.6-26.6h35.2c4.9,0,8.8,3.9,8.8,8.8
	s-4,8.8-8.8,8.8h-35.2c-4.9,0-8.9,4-8.9,8.9V459c0,4.9,4,8.9,8.9,8.9h35.2c4.9,0,8.8,3.9,8.8,8.8
	C299.7,481.6,295.7,485.5,290.9,485.5z"/>
<path class="st2" d="M299.7,194.2c0,24.4-19.8,44.1-44.1,44.1c-24.4,0-44.1-19.8-44.1-44.1s19.8-44.1,44.1-44.1
	C279.9,150.1,299.7,169.8,299.7,194.2z"/>
</svg>
