<?xml version="1.0" encoding="utf-8"?>
<!-- Generator: Adobe Illustrator 25.2.0, SVG Export Plug-In . SVG Version: 6.00 Build 0)  -->
<svg version="1.1" id="Layer_1" xmlns="http://www.w3.org/2000/svg" xmlns:xlink="http://www.w3.org/1999/xlink" x="0px" y="0px"
	 viewBox="0 0 512 512" style="enable-background:new 0 0 512 512;" xml:space="preserve">
<style type="text/css">
	.st0{fill:#E3E4D8;}
	.st1{fill:#D0CEBD;}
	.st2{fill:#4E74BA;}
	.st3{fill:#FFFFFF;}
	.st4{fill:#375A93;}
	.st5{fill:#23416D;}
</style>
<path class="st0" d="M432.1,485.5H79V0h273.7l79.4,79.4V485.5z"/>
<path class="st1" d="M352.7,0v79.4h79.4L352.7,0z"/>
<path class="st2" d="M79,353.1h353.1V512H79V353.1z"/>
<path class="st2" d="M317.3,211.9c0,34.1-27.7,61.8-61.8,61.8c-34.1,0-61.8-27.7-61.8-61.8c0-34.1,27.7-61.8,61.8-61.8
	C289.7,150.1,317.3,177.7,317.3,211.9z"/>
<path class="st3" d="M282,211.9l-44.1,26.5v-53L282,211.9z"/>
<path class="st4" d="M335,291.3c-2.1,0-4.2-0.7-5.8-2.2c-3.7-3.2-4-8.8-0.8-12.5c15.6-17.7,24.3-40.7,24.3-64.8s-8.6-47-24.3-64.8
	c-3.2-3.7-2.9-9.2,0.8-12.5s9.2-2.9,12.5,0.8c18.5,21,28.7,48.1,28.7,76.5c0,28.3-10.2,55.5-28.7,76.5
	C339.9,290.3,337.4,291.3,335,291.3z"/>
<path class="st5" d="M370.3,309c-1.8,0-3.5-0.5-5.1-1.6c-4-2.8-4.9-8.3-2.1-12.3c16-22.7,24.9-52.2,24.9-83.2
	c0-30.9-8.8-60.5-24.9-83.2c-2.8-4-1.9-9.5,2.1-12.3c4-2.8,9.5-1.9,12.3,2.1c18.1,25.7,28.1,58.8,28.1,93.4s-10,67.7-28.1,93.4
	C375.8,307.7,373.1,309,370.3,309z"/>
<path class="st4" d="M176.1,291.3c-2.4,0-4.9-1-6.6-3c-18.5-21-28.7-48.1-28.7-76.5c0-28.3,10.2-55.5,28.7-76.5
	c3.2-3.7,8.8-4,12.5-0.8c3.7,3.2,4,8.8,0.8,12.5c-15.6,17.7-24.3,40.7-24.3,64.8c0,24,8.6,47,24.3,64.8c3.2,3.7,2.9,9.2-0.8,12.5
	C180.3,290.6,178.2,291.3,176.1,291.3z"/>
<path class="st5" d="M140.8,309c-2.8,0-5.5-1.3-7.2-3.7c-18.1-25.7-28.1-58.8-28.1-93.4s10-67.7,28.1-93.4c2.8-4,8.3-4.9,12.3-2.1
	c4,2.8,4.9,8.3,2.1,12.3c-16,22.7-24.9,52.2-24.9,83.2c0,30.9,8.8,60.5,24.9,83.2c2.8,4,1.9,9.5-2.1,12.3
	C144.3,308.4,142.6,309,140.8,309z"/>
<path class="st3" d="M352.7,485.5c-3.6,0-6.9-2.2-8.2-5.6l-35.3-88.3c-1.8-4.5,0.4-9.7,4.9-11.5c4.5-1.8,9.7,0.4,11.5,4.9l27.1,67.8
	l27.1-67.8c1.8-4.5,6.9-6.8,11.5-4.9c4.5,1.8,6.7,6.9,4.9,11.5L360.8,480C359.5,483.3,356.3,485.5,352.7,485.5z"/>
<path class="st3" d="M282,485.5c-4.9,0-8.8-3.9-8.8-8.8v-77.4c0-1.1-0.9-2-2-2h-31.3c-1.1,0-2,0.9-2,2v77.4c0,4.9-4,8.8-8.8,8.8
	c-4.9,0-8.8-3.9-8.8-8.8v-77.4c0-10.8,8.8-19.7,19.7-19.7h31.3c10.9,0,19.7,8.8,19.7,19.7v77.4C290.9,481.6,286.9,485.5,282,485.5z"
	/>
<path class="st3" d="M282,441.4h-53c-4.9,0-8.8-3.9-8.8-8.8c0-4.9,4-8.8,8.8-8.8h53c4.9,0,8.8,3.9,8.8,8.8
	C290.9,437.4,286.9,441.4,282,441.4z"/>
<path class="st3" d="M184.9,485.5c-3.5,0-6.7-2.1-8.1-5.3l-18.4-42.9l-18.4,42.9c-1.6,3.7-5.5,5.9-9.5,5.2c-4-0.6-7-3.8-7.4-7.8
	l-8.8-88.3c-0.5-4.9,3.1-9.2,7.9-9.7c4.9-0.4,9.2,3.1,9.7,7.9l5.4,54.2l13-30.3c1.4-3.3,4.6-5.4,8.1-5.4s6.7,2.1,8.1,5.3l13,30.3
	l5.4-54.2c0.5-4.9,4.8-8.3,9.7-7.9c4.9,0.5,8.4,4.8,7.9,9.7l-8.8,88.3c-0.4,4-3.5,7.2-7.4,7.8C185.8,485.5,185.4,485.5,184.9,485.5z
	"/>
</svg>
