<?xml version="1.0" encoding="utf-8"?>
<!-- Generator: Adobe Illustrator 25.2.0, SVG Export Plug-In . SVG Version: 6.00 Build 0)  -->
<svg version="1.1" id="Layer_1" xmlns="http://www.w3.org/2000/svg" xmlns:xlink="http://www.w3.org/1999/xlink" x="0px" y="0px"
	 viewBox="0 0 512 512" style="enable-background:new 0 0 512 512;" xml:space="preserve">
<style type="text/css">
	.st0{fill:#E3E4D8;}
	.st1{fill:#D0CEBD;}
	.st2{fill:#2C81E4;}
	.st3{fill:#FFFFFF;}
</style>
<path class="st0" d="M432.1,485.5H79V0h273.7l79.4,79.4V485.5z"/>
<path class="st1" d="M352.7,0v79.4h79.4L352.7,0z"/>
<path class="st2" d="M79,353.1h353.1V512H79V353.1z"/>
<path class="st3" d="M379.1,485.5h-35.2c-14.6,0-26.6-11.9-26.6-26.6v-52.8c0-14.6,11.9-26.6,26.6-26.6h35.2c4.9,0,8.8,4,8.8,8.8
	c0,4.9-4,8.8-8.8,8.8h-35.2c-4.9,0-8.9,4-8.9,8.9V459c0,4.9,4,8.9,8.9,8.9h35.2c4.9,0,8.8,4,8.8,8.8
	C388,481.6,384,485.5,379.1,485.5z"/>
<path class="st2" d="M158.4,132.4h194.2v167.7H158.4V132.4z"/>
<path class="st3" d="M282,264.8c-3.8,0-7.2-2.4-8.4-6l-18.1-54.3l-18.1,54.3c-1.2,3.6-4.6,6-8.4,6c-3.8,0-7.2-2.4-8.4-6l-26.5-79.4
	c-1.5-4.6,1-9.6,5.6-11.2c4.6-1.5,9.6,1,11.2,5.6l18.1,54.3l18.1-54.3c1.2-3.6,4.6-6,8.4-6c3.8,0,7.2,2.4,8.4,6l18.1,54.3l18.1-54.3
	c1.5-4.6,6.6-7.1,11.2-5.6c4.6,1.5,7.1,6.5,5.6,11.2l-26.5,79.4C289.2,262.4,285.8,264.8,282,264.8z"/>
<path class="st3" d="M140.8,485.5H132c-4.9,0-8.8-4-8.8-8.8v-88.3c0-4.9,4-8.8,8.8-8.8h8.8c29.2,0,53,23.8,53,53
	S170,485.5,140.8,485.5z M140.8,467.9L140.8,467.9L140.8,467.9z M140.8,397.2v70.6c19.5,0,35.3-15.8,35.3-35.3
	S160.3,397.2,140.8,397.2z"/>
<path class="st3" d="M264.4,485.5h-17.7c-14.6,0-26.5-11.9-26.5-26.5v-53c0-14.6,11.9-26.5,26.5-26.5h17.7
	c14.6,0,26.5,11.9,26.5,26.5v53C290.9,473.6,279,485.5,264.4,485.5z M246.7,397.2c-4.9,0-8.8,4-8.8,8.8v53c0,4.9,4,8.8,8.8,8.8h17.7
	c4.9,0,8.8-4,8.8-8.8v-53c0-4.9-4-8.8-8.8-8.8H246.7z"/>
</svg>
