<?xml version="1.0" encoding="utf-8"?>
<!-- Generator: Adobe Illustrator 25.2.0, SVG Export Plug-In . SVG Version: 6.00 Build 0)  -->
<svg version="1.1" id="Layer_1" xmlns="http://www.w3.org/2000/svg" xmlns:xlink="http://www.w3.org/1999/xlink" x="0px" y="0px"
	 viewBox="0 0 512 512" style="enable-background:new 0 0 512 512;" xml:space="preserve">
<style type="text/css">
	.st0{fill:#E3E4D8;}
	.st1{fill:#D0CEBD;}
	.st2{fill:#83629A;}
	.st3{fill:#FFFFFF;}
</style>
<path class="st0" d="M432.1,485.5H79V0h273.7l79.4,79.4V485.5z"/>
<path class="st1" d="M352.7,0v79.4h79.4L352.7,0z"/>
<path class="st2" d="M79,353.1h353.1V512H79V353.1z"/>
<path class="st3" d="M132,485.5c-1.5,0-3.1-0.4-4.5-1.3c-4.2-2.5-5.5-7.9-3-12.1l53-88.3c2.5-4.2,7.9-5.5,12.1-3
	c4.2,2.5,5.5,7.9,3,12.1l-53,88.3C137.9,484,135,485.5,132,485.5z"/>
<path class="st3" d="M184.9,485.5c-3,0-5.9-1.5-7.6-4.3l-53-88.3c-2.5-4.2-1.2-9.6,3-12.1c4.2-2.5,9.6-1.1,12.1,3l53,88.3
	c2.5,4.2,1.2,9.6-3,12.1C188.1,485.1,186.5,485.5,184.9,485.5z"/>
<path class="st3" d="M379.1,485.5h-53c-4.9,0-8.8-4-8.8-8.8c0-4.9,4-8.8,8.8-8.8h53c4.9,0,8.8,4,8.8,8.8
	C388,481.6,384,485.5,379.1,485.5z"/>
<path class="st3" d="M326.2,485.5c-4.9,0-8.8-4-8.8-8.8v-88.3c0-4.9,4-8.8,8.8-8.8c4.9,0,8.8,4,8.8,8.8v88.3
	C335,481.6,331,485.5,326.2,485.5z"/>
<path class="st3" d="M290.9,485.5c-4.9,0-8.8-4-8.8-8.8v-55l-18.8,32.9c-3.1,5.5-12.2,5.5-15.3,0l-18.8-32.9v55c0,4.9-4,8.8-8.8,8.8
	c-4.9,0-8.8-4-8.8-8.8v-88.3c0-4,2.7-7.5,6.6-8.5c3.9-1.1,7.9,0.7,9.9,4.1l27.6,48.4l27.6-48.4c2-3.5,6.1-5.2,9.9-4.1
	c3.9,1,6.6,4.5,6.6,8.5v88.3C299.7,481.6,295.7,485.5,290.9,485.5z"/>
<path class="st2" d="M184.9,273.7c-2.5,0-5-1.1-6.8-3.2l-44.1-53c-2.7-3.3-2.7-8,0-11.3l44.1-53c3.1-3.7,8.7-4.2,12.4-1.1
	c3.7,3.1,4.3,8.7,1.1,12.4l-39.4,47.3l39.4,47.3c3.1,3.7,2.6,9.3-1.1,12.4C188.9,273,186.9,273.7,184.9,273.7z"/>
<path class="st2" d="M326.2,273.7c-2,0-4-0.7-5.6-2.1c-3.7-3.1-4.3-8.7-1.1-12.4l39.4-47.3l-39.4-47.3c-3.1-3.7-2.6-9.3,1.1-12.4
	c3.7-3.1,9.3-2.6,12.4,1.1l44.1,53c2.7,3.3,2.7,8,0,11.3l-44.1,53C331.2,272.6,328.7,273.7,326.2,273.7z"/>
<path class="st2" d="M229.1,273.7c-1.3,0-2.7-0.3-3.9-0.9c-4.4-2.2-6.1-7.5-3.9-11.8l53-105.9c2.2-4.4,7.5-6.1,11.8-3.9
	s6.1,7.5,3.9,11.8l-53,105.9C235.4,271.9,232.3,273.7,229.1,273.7z"/>
</svg>
