<?xml version="1.0" encoding="utf-8"?>
<!-- Generator: Adobe Illustrator 24.3.0, SVG Export Plug-In . SVG Version: 6.00 Build 0)  -->
<svg version="1.1" id="Layer_1" xmlns="http://www.w3.org/2000/svg" xmlns:xlink="http://www.w3.org/1999/xlink" x="0px" y="0px"
	 viewBox="0 0 512 512" style="enable-background:new 0 0 512 512;" xml:space="preserve">
<style type="text/css">
	.st0{fill:#E3E4D8;}
	.st1{fill:#D0CEBD;}
	.st2{fill:#82C288;}
	.st3{fill:#FFFFFF;}
	.st4{fill:#A09893;}
</style>
<path class="st0" d="M432.1,485.5H79V0h273.7l79.4,79.4V485.5z"/>
<path class="st1" d="M352.7,0v79.4h79.4L352.7,0z"/>
<path class="st2" d="M79,353.1h353.1V512H79V353.1z"/>
<path class="st3" d="M282,485.5h-53c-4.9,0-8.8-4-8.8-8.8c0-4.9,4-8.8,8.8-8.8h53c4.9,0,8.8,4,8.8,8.8
	C290.9,481.6,286.9,485.5,282,485.5z"/>
<path class="st3" d="M229.1,485.5c-4.9,0-8.8-4-8.8-8.8v-88.3c0-4.9,4-8.8,8.8-8.8c4.9,0,8.8,4,8.8,8.8v88.3
	C237.9,481.6,233.9,485.5,229.1,485.5z"/>
<g>
	<path class="st4" d="M202.6,167.7H132c-4.9,0-8.8-4-8.8-8.8v-35.3c0-4.9,4-8.8,8.8-8.8h70.6c4.9,0,8.8,4,8.8,8.8v35.3
		C211.4,163.8,207.5,167.7,202.6,167.7z M140.8,150.1h53v-17.7h-53V150.1z"/>
	<path class="st4" d="M202.6,203H132c-4.9,0-8.8-4-8.8-8.8v-35.3c0-4.9,4-8.8,8.8-8.8h70.6c4.9,0,8.8,4,8.8,8.8v35.3
		C211.4,199.1,207.5,203,202.6,203z M140.8,185.4h53v-17.7h-53V185.4z"/>
	<path class="st4" d="M379.1,203H202.6c-4.9,0-8.8-4-8.8-8.8v-35.3c0-4.9,4-8.8,8.8-8.8h176.6c4.9,0,8.8,4,8.8,8.8v35.3
		C388,199.1,384,203,379.1,203z M211.4,185.4h158.9v-17.7H211.4V185.4z"/>
	<path class="st4" d="M202.6,238.3H132c-4.9,0-8.8-4-8.8-8.8v-35.3c0-4.9,4-8.8,8.8-8.8h70.6c4.9,0,8.8,4,8.8,8.8v35.3
		C211.4,234.4,207.5,238.3,202.6,238.3z M140.8,220.7h53V203h-53V220.7z"/>
	<path class="st4" d="M379.1,238.3H202.6c-4.9,0-8.8-4-8.8-8.8v-35.3c0-4.9,4-8.8,8.8-8.8h176.6c4.9,0,8.8,4,8.8,8.8v35.3
		C388,234.4,384,238.3,379.1,238.3z M211.4,220.7h158.9V203H211.4V220.7z"/>
	<path class="st4" d="M202.6,273.7H132c-4.9,0-8.8-4-8.8-8.8v-35.3c0-4.9,4-8.8,8.8-8.8h70.6c4.9,0,8.8,4,8.8,8.8v35.3
		C211.4,269.7,207.5,273.7,202.6,273.7z M140.8,256h53v-17.7h-53V256z"/>
	<path class="st4" d="M379.1,273.7H202.6c-4.9,0-8.8-4-8.8-8.8v-35.3c0-4.9,4-8.8,8.8-8.8h176.6c4.9,0,8.8,4,8.8,8.8v35.3
		C388,269.7,384,273.7,379.1,273.7z M211.4,256h158.9v-17.7H211.4V256z"/>
	<path class="st4" d="M202.6,309H132c-4.9,0-8.8-4-8.8-8.8v-35.3c0-4.9,4-8.8,8.8-8.8h70.6c4.9,0,8.8,4,8.8,8.8v35.3
		C211.4,305,207.5,309,202.6,309z M140.8,291.3h53v-17.7h-53V291.3z"/>
	<path class="st4" d="M379.1,309H202.6c-4.9,0-8.8-4-8.8-8.8v-35.3c0-4.9,4-8.8,8.8-8.8h176.6c4.9,0,8.8,4,8.8,8.8v35.3
		C388,305,384,309,379.1,309z M211.4,291.3h158.9v-17.7H211.4V291.3z"/>
</g>
<path class="st3" d="M132,485.5c-1.5,0-3.1-0.4-4.5-1.3c-4.2-2.5-5.5-7.9-3-12.1l53-88.3c2.5-4.2,7.9-5.5,12.1-3s5.5,7.9,3,12.1
	l-53,88.3C137.9,484,135,485.5,132,485.5z"/>
<path class="st3" d="M184.9,485.5c-3,0-5.9-1.5-7.6-4.3l-53-88.3c-2.5-4.2-1.2-9.6,3-12.1c4.2-2.5,9.6-1.2,12.1,3l53,88.3
	c2.5,4.2,1.2,9.6-3,12.1C188.1,485.1,186.5,485.5,184.9,485.5z"/>
<path class="st3" d="M357.1,485.5h-30.9c-4.9,0-8.8-4-8.8-8.8c0-4.9,4-8.8,8.8-8.8h30.9c7.3,0,13.2-5.9,13.2-13.2
	s-5.9-13.2-13.2-13.2h-8.8c-17,0-30.9-13.9-30.9-30.9c0-17,13.9-30.9,30.9-30.9h30.9c4.9,0,8.8,4,8.8,8.8c0,4.9-4,8.8-8.8,8.8h-30.9
	c-7.3,0-13.2,5.9-13.2,13.2c0,7.3,5.9,13.2,13.2,13.2h8.8c17,0,30.9,13.9,30.9,30.9C388,471.7,374.1,485.5,357.1,485.5z"/>
</svg>
