<?xml version="1.0" encoding="utf-8"?>
<!-- Generator: Adobe Illustrator 24.3.0, SVG Export Plug-In . SVG Version: 6.00 Build 0)  -->
<svg version="1.1" id="Layer_1" xmlns="http://www.w3.org/2000/svg" xmlns:xlink="http://www.w3.org/1999/xlink" x="0px" y="0px"
	 viewBox="0 0 512 512" style="enable-background:new 0 0 512 512;" xml:space="preserve">
<style type="text/css">
	.st0{fill:#E3E4D8;}
	.st1{fill:#D0CEBD;}
	.st2{fill:#859594;}
	.st3{fill:#A09893;}
	.st4{fill:#FFFFFF;}
</style>
<path class="st0" d="M432.1,485.5H79V0h273.7l79.4,79.4V485.5z"/>
<path class="st1" d="M352.7,0v79.4h79.4L352.7,0z"/>
<path class="st2" d="M79,353.1h353.1V512H79V353.1z"/>
<g>
	<path class="st3" d="M255.6,326.6c-24.3,0-44.1-19.8-44.1-44.1v-35.3c0-4.9,4-8.8,8.8-8.8h70.6c4.9,0,8.8,4,8.8,8.8v35.3
		C299.7,306.8,279.9,326.6,255.6,326.6z M229.1,256v26.5c0,14.6,11.9,26.5,26.5,26.5s26.5-11.9,26.5-26.5V256H229.1z"/>
	<path class="st3" d="M264.4,291.3h-17.7c-4.9,0-8.8-4-8.8-8.8c0-4.9,4-8.8,8.8-8.8h17.7c4.9,0,8.8,4,8.8,8.8
		C273.2,287.4,269.3,291.3,264.4,291.3z"/>
	<path class="st3" d="M255.6,256c-4.9,0-8.8-4-8.8-8.8V88.3c0-4.9,4-8.8,8.8-8.8c4.9,0,8.8,4,8.8,8.8v158.9
		C264.4,252,260.4,256,255.6,256z"/>
	<path class="st3" d="M282,211.9h-53c-4.9,0-8.8-4-8.8-8.8c0-4.9,4-8.8,8.8-8.8h53c4.9,0,8.8,4,8.8,8.8
		C290.9,207.9,286.9,211.9,282,211.9z"/>
	<path class="st3" d="M282,167.7h-53c-4.9,0-8.8-4-8.8-8.8c0-4.9,4-8.8,8.8-8.8h53c4.9,0,8.8,4,8.8,8.8
		C290.9,163.8,286.9,167.7,282,167.7z"/>
	<path class="st3" d="M282,123.6h-53c-4.9,0-8.8-4-8.8-8.8c0-4.9,4-8.8,8.8-8.8h53c4.9,0,8.8,4,8.8,8.8
		C290.9,119.6,286.9,123.6,282,123.6z"/>
</g>
<path class="st4" d="M184.9,485.5h-53c-3.2,0-6.1-1.7-7.7-4.5c-1.6-2.8-1.5-6.2,0.1-8.9l44.9-74.9H132c-4.9,0-8.8-4-8.8-8.8
	c0-4.9,4-8.8,8.8-8.8h53c3.2,0,6.1,1.7,7.7,4.5c1.6,2.8,1.5,6.2-0.1,8.9l-44.9,74.9h37.4c4.9,0,8.8,4,8.8,8.8
	C193.8,481.6,189.8,485.5,184.9,485.5z"/>
<path class="st4" d="M326.2,485.5c-4.9,0-8.8-4-8.8-8.8v-88.3c0-4.9,4-8.8,8.8-8.8c4.9,0,8.8,4,8.8,8.8v88.3
	C335,481.6,331,485.5,326.2,485.5z"/>
<path class="st4" d="M352.7,450.2h-26.5c-4.9,0-8.8-4-8.8-8.8v-53c0-4.9,4-8.8,8.8-8.8h26.5c19.5,0,35.3,15.8,35.3,35.3
	C388,434.4,372.1,450.2,352.7,450.2z M335,432.6h17.7c9.7,0,17.7-7.9,17.7-17.7c0-9.7-7.9-17.7-17.7-17.7H335V432.6z"/>
<path class="st4" d="M255.6,485.5c-4.9,0-8.8-4-8.8-8.8v-88.3c0-4.9,4-8.8,8.8-8.8c4.9,0,8.8,4,8.8,8.8v88.3
	C264.4,481.6,260.4,485.5,255.6,485.5z"/>
<path class="st4" d="M282,485.5h-53c-4.9,0-8.8-4-8.8-8.8c0-4.9,4-8.8,8.8-8.8h53c4.9,0,8.8,4,8.8,8.8
	C290.9,481.6,286.9,485.5,282,485.5z"/>
<path class="st4" d="M282,397.2h-53c-4.9,0-8.8-4-8.8-8.8c0-4.9,4-8.8,8.8-8.8h53c4.9,0,8.8,4,8.8,8.8
	C290.9,393.3,286.9,397.2,282,397.2z"/>
</svg>
