<svg id="Component_87_1" data-name="Component 87 – 1" xmlns="http://www.w3.org/2000/svg" width="18" height="22.002" viewBox="0 0 18 22.002">
  <defs>
    <style>
      .cls-1, .cls-2 {
        fill: none;
      }

      .cls-2 {
        stroke: #707070;
        stroke-linecap: round;
      }

      .cls-3, .cls-4 {
        stroke: none;
      }

      .cls-4 {
        fill: #707070;
      }
    </style>
  </defs>
  <g id="Subtraction_3" data-name="Subtraction 3" class="cls-1" transform="translate(-3893.999 -11999.999)">
    <path class="cls-3" d="M3905,12022h-8a3,3,0,0,1-3-3v-16a3,3,0,0,1,3-3h12a3,3,0,0,1,3,3v13h-7v6Z"/>
    <path class="cls-4" d="M 3904 12021.0009765625 L 3904 12016.0009765625 L 3904 12015.0009765625 L 3905 12015.0009765625 L 3910.9990234375 12015.0009765625 L 3910.9990234375 12002.9990234375 C 3910.9990234375 12001.896484375 3910.101806640625 12000.9990234375 3908.9990234375 12000.9990234375 L 3896.9990234375 12000.9990234375 C 3895.89599609375 12000.9990234375 3894.998779296875 12001.896484375 3894.998779296875 12002.9990234375 L 3894.998779296875 12019.0009765625 C 3894.998779296875 12020.103515625 3895.89599609375 12021.0009765625 3896.9990234375 12021.0009765625 L 3904 12021.0009765625 M 3905 12022.0009765625 L 3904.9990234375 12022.0009765625 L 3896.9990234375 12022.0009765625 C 3895.3447265625 12022.0009765625 3893.998779296875 12020.6552734375 3893.998779296875 12019.0009765625 L 3893.998779296875 12002.9990234375 C 3893.998779296875 12001.3447265625 3895.3447265625 11999.9990234375 3896.9990234375 11999.9990234375 L 3908.9990234375 11999.9990234375 C 3910.6533203125 11999.9990234375 3911.9990234375 12001.3447265625 3911.9990234375 12002.9990234375 L 3911.9990234375 12016.0009765625 L 3905 12016.0009765625 L 3905 12022 L 3905 12022.0009765625 Z"/>
  </g>
  <path id="Path_319" data-name="Path 319" class="cls-2" d="M0,0H11.824" transform="translate(3.001 3.501)"/>
  <line id="Line_63" data-name="Line 63" class="cls-2" x2="11.824" transform="translate(3.001 6.501)"/>
  <path id="Path_320" data-name="Path 320" class="cls-2" d="M0,0H11.824" transform="translate(3.001 9.501)"/>
  <g id="Group_363" data-name="Group 363" transform="translate(-3.999 -1.999)">
    <path id="Path_321" data-name="Path 321" class="cls-2" d="M-3663.176-11838.882v3.11" transform="translate(3682 11858.511)"/>
    <path id="Path_322" data-name="Path 322" class="cls-2" d="M0,0v3.11" transform="translate(17.269 21.184) rotate(-90)"/>
  </g>
</svg>
