<?xml version="1.0" encoding="utf-8"?>
<!-- Generator: Adobe Illustrator 24.3.0, SVG Export Plug-In . SVG Version: 6.00 Build 0)  -->
<svg version="1.1" id="Component_87_1" xmlns="http://www.w3.org/2000/svg" xmlns:xlink="http://www.w3.org/1999/xlink" x="0px"
	 y="0px" viewBox="0 0 26 26" style="enable-background:new 0 0 26 26;" xml:space="preserve">
<style type="text/css">
	.st0{fill:none;}
	.st1{fill:#707070;}
	.st2{fill:none;stroke:#707070;stroke-linecap:round;}
</style>
<g id="Subtraction_3" transform="translate(-3893.999 -11999.999)">
	<path class="st0" d="M3909,12024h-8c-1.7,0-3-1.3-3-3v-16c0-1.7,1.3-3,3-3h12c1.7,0,3,1.3,3,3v13h-7V12024z"/>
	<path class="st1" d="M3908,12023v-5v-1h1h6v-12c0-1.1-0.9-2-2-2h-12c-1.1,0-2,0.9-2,2v16c0,1.1,0.9,2,2,2H3908 M3909,12024
		L3909,12024h-8c-1.7,0-3-1.3-3-3v-16c0-1.7,1.3-3,3-3h12c1.7,0,3,1.3,3,3v13h-7V12024L3909,12024z"/>
</g>
<path id="Path_319" class="st2" d="M7,5.5h11.8"/>
<line id="Line_63" class="st2" x1="7" y1="8.5" x2="18.8" y2="8.5"/>
<path id="Path_320" class="st2" d="M7,11.5h11.8"/>
<g id="Group_363" transform="translate(-3.999 -1.999)">
	<path id="Path_321" class="st2" d="M22.8,21.6v3.1"/>
	<path id="Path_322" class="st2" d="M21.3,23.2h3.1"/>
</g>
</svg>
