<?xml version="1.0" encoding="utf-8"?>
<!-- Generator: Adobe Illustrator 24.3.0, SVG Export Plug-In . SVG Version: 6.00 Build 0)  -->
<svg version="1.1" id="Layer_1" xmlns="http://www.w3.org/2000/svg" xmlns:xlink="http://www.w3.org/1999/xlink" x="0px" y="0px"
	 viewBox="0 0 26 26" style="enable-background:new 0 0 26 26;" xml:space="preserve">
<style type="text/css">
	.st0{fill:none;}
	.st1{fill:none;stroke:#707070;}
	.st2{fill:#707070;}
</style>
<g id="Group_1405" transform="translate(18761 19046)">
	<g id="Rectangle_3108" transform="translate(-18761 -19046)">
		<path class="st0" d="M7,2h12c1.7,0,3,1.3,3,3v16c0,1.7-1.3,3-3,3H7c-1.7,0-3-1.3-3-3V5C4,3.3,5.3,2,7,2z"/>
		<path class="st1" d="M7,2.5h12c1.4,0,2.5,1.1,2.5,2.5v16c0,1.4-1.1,2.5-2.5,2.5H7c-1.4,0-2.5-1.1-2.5-2.5V5C4.5,3.6,5.6,2.5,7,2.5
			z"/>
	</g>
	<g id="announcement-24px" transform="translate(-18757 -19040)">
		<path id="Path_530" class="st0" d="M4,2h10.6v10.6H4V2z"/>
		<path id="Path_531" class="st2" d="M12.8,2.9h-7c-0.5,0-0.9,0.4-0.9,0.9c0,0,0,0,0,0v7.9l1.8-1.8h6.2c0.5,0,0.9-0.4,0.9-0.9V3.8
			C13.7,3.3,13.3,2.9,12.8,2.9z M9.7,6.8H8.8V4.2h0.9V6.8z M9.7,8.6H8.8V7.7h0.9V8.6z"/>
	</g>
</g>
</svg>
