<?xml version="1.0" encoding="utf-8"?>
<!-- Generator: Adobe Illustrator 24.3.0, SVG Export Plug-In . SVG Version: 6.00 Build 0)  -->
<svg version="1.1" id="Layer_1" xmlns="http://www.w3.org/2000/svg" xmlns:xlink="http://www.w3.org/1999/xlink" x="0px" y="0px"
	 viewBox="0 0 198.1 216" style="enable-background:new 0 0 198.1 216;" xml:space="preserve">
<style type="text/css">
	.st0{filter:url(#Adobe_OpacityMaskFilter);}
	.st1{fill:#FFFFFF;}
	.st2{mask:url(#SVGID_1_);}
	.st3{fill:#3060AA;}
</style>
<defs>
	<filter id="Adobe_OpacityMaskFilter" filterUnits="userSpaceOnUse" x="-4.1" y="-0.1" width="206.3" height="235.5">
		<feColorMatrix  type="matrix" values="1 0 0 0 0  0 1 0 0 0  0 0 1 0 0  0 0 0 1 0"/>
	</filter>
</defs>
<mask maskUnits="userSpaceOnUse" x="-4.1" y="-0.1" width="206.3" height="235.5" id="SVGID_1_">
	<g class="st0">
		<rect class="st1" width="198.1" height="216"/>
	</g>
</mask>
<g class="st2">
	<path class="st3" d="M190.8,87.4c0.4,0,0.6-0.3,0.6-0.6c0-0.4-0.3-0.6-0.6-0.6c-0.4,0-0.6,0.3-0.6,0.6
		C190.1,87.1,190.4,87.4,190.8,87.4z"/>
	<path class="st3" d="M189.2,73.4c0.3,0,0.5-0.2,0.5-0.5c0-0.3-0.2-0.5-0.5-0.5c-0.3,0-0.5,0.2-0.5,0.5
		C188.7,73.2,188.9,73.4,189.2,73.4z"/>
	<path class="st3" d="M191.8,64.9c0.3,0,0.5-0.2,0.5-0.5s-0.2-0.5-0.5-0.5c-0.3,0-0.5,0.2-0.5,0.5S191.5,64.9,191.8,64.9z"/>
	<path class="st3" d="M195.5,62.7c0.2,0,0.4-0.2,0.4-0.4c0-0.2-0.2-0.4-0.4-0.4c-0.2,0-0.4,0.2-0.4,0.4
		C195.1,62.5,195.3,62.7,195.5,62.7z"/>
	<path class="st3" d="M182.8,68.6c0.3,0,0.6-0.3,0.6-0.6c0-0.3-0.3-0.6-0.6-0.6c-0.3,0-0.6,0.3-0.6,0.6
		C182.2,68.4,182.5,68.6,182.8,68.6z"/>
	<path class="st3" d="M185.9,54.8c0.4,0,0.7-0.3,0.7-0.7c0-0.4-0.3-0.7-0.7-0.7c-0.4,0-0.7,0.3-0.7,0.7
		C185.2,54.5,185.5,54.8,185.9,54.8z"/>
	<path class="st3" d="M191.5,44.8c0.3,0,0.5-0.2,0.5-0.5c0-0.3-0.2-0.5-0.5-0.5c-0.3,0-0.5,0.2-0.5,0.5
		C191,44.6,191.2,44.8,191.5,44.8z"/>
	<path class="st3" d="M197.4,39.2c0.3,0,0.5-0.2,0.5-0.5c0-0.3-0.2-0.5-0.5-0.5c-0.3,0-0.5,0.2-0.5,0.5
		C196.9,39,197.1,39.2,197.4,39.2z"/>
	<path class="st3" d="M193,102c0.3,0,0.6-0.3,0.6-0.6c0-0.3-0.3-0.6-0.6-0.6c-0.3,0-0.6,0.3-0.6,0.6C192.4,101.8,192.7,102,193,102z
		"/>
	<path class="st3" d="M184.5,85.4c0.4,0,0.6-0.3,0.6-0.6c0-0.4-0.3-0.6-0.6-0.6c-0.4,0-0.6,0.3-0.6,0.6
		C183.8,85.1,184.1,85.4,184.5,85.4z"/>
	<path class="st3" d="M182.5,46.1c0.5,0,0.9-0.4,0.9-0.9c0-0.5-0.4-0.9-0.9-0.9c-0.5,0-0.9,0.4-0.9,0.9
		C181.6,45.7,182,46.1,182.5,46.1z"/>
	<path class="st3" d="M189.9,33.7c0.3,0,0.6-0.3,0.6-0.6c0-0.3-0.3-0.6-0.6-0.6c-0.3,0-0.6,0.3-0.6,0.6
		C189.3,33.5,189.6,33.7,189.9,33.7z"/>
	<path class="st3" d="M195.7,111.7c0.4,0,0.6-0.3,0.6-0.6c0-0.4-0.3-0.6-0.6-0.6c-0.4,0-0.6,0.3-0.6,0.6
		C195.1,111.4,195.4,111.7,195.7,111.7z"/>
	<path class="st3" d="M183.5,96.4c0.4,0,0.6-0.3,0.6-0.6c0-0.4-0.3-0.6-0.6-0.6c-0.4,0-0.6,0.3-0.6,0.6
		C182.9,96.1,183.2,96.4,183.5,96.4z"/>
	<path class="st3" d="M177.7,78.6c0.3,0,0.6-0.3,0.6-0.6c0-0.3-0.3-0.6-0.6-0.6c-0.3,0-0.6,0.3-0.6,0.6
		C177.2,78.3,177.4,78.6,177.7,78.6z"/>
	<path class="st3" d="M177.8,61.1c0.3,0,0.6-0.3,0.6-0.6c0-0.3-0.3-0.6-0.6-0.6c-0.3,0-0.6,0.3-0.6,0.6
		C177.3,60.8,177.5,61.1,177.8,61.1z"/>
	<path class="st3" d="M190.8,23c0.6,0,1-0.5,1-1c0-0.6-0.5-1-1-1c-0.6,0-1,0.5-1,1C189.7,22.5,190.2,23,190.8,23z"/>
	<path class="st3" d="M194.5,116.8c0.3,0,0.6-0.3,0.6-0.6c0-0.3-0.3-0.6-0.6-0.6c-0.3,0-0.6,0.3-0.6,0.6
		C193.9,116.5,194.2,116.8,194.5,116.8z"/>
	<path class="st3" d="M181.5,102.7c0.4,0,0.8-0.3,0.8-0.8c0-0.4-0.3-0.8-0.8-0.8c-0.4,0-0.8,0.3-0.8,0.8
		C180.7,102.4,181,102.7,181.5,102.7z"/>
	<path class="st3" d="M173.9,85.2c0.4,0,0.6-0.3,0.6-0.6c0-0.4-0.3-0.6-0.6-0.6c-0.4,0-0.6,0.3-0.6,0.6
		C173.2,84.9,173.5,85.2,173.9,85.2z"/>
	<path class="st3" d="M171.9,67.3c0.5,0,1-0.4,1-1c0-0.5-0.4-1-1-1c-0.5,0-1,0.4-1,1C170.9,66.8,171.4,67.3,171.9,67.3z"/>
	<path class="st3" d="M174.8,50c0.5,0,1-0.4,1-1c0-0.5-0.4-1-1-1c-0.5,0-1,0.4-1,1C173.8,49.6,174.3,50,174.8,50z"/>
	<path class="st3" d="M181.5,35c0.5,0,1-0.4,1-1c0-0.5-0.4-1-1-1c-0.5,0-1,0.4-1,1C180.6,34.6,181,35,181.5,35z"/>
	<path class="st3" d="M188.7,118.5c0.4,0,0.6-0.3,0.6-0.6c0-0.4-0.3-0.6-0.6-0.6s-0.6,0.3-0.6,0.6
		C188.1,118.2,188.4,118.5,188.7,118.5z"/>
	<path class="st3" d="M176.6,104.1c0.3,0,0.6-0.3,0.6-0.6c0-0.3-0.3-0.6-0.6-0.6c-0.3,0-0.6,0.3-0.6,0.6
		C176,103.8,176.3,104.1,176.6,104.1z"/>
	<path class="st3" d="M169.1,87.1c0.4,0,0.8-0.3,0.8-0.8c0-0.4-0.3-0.8-0.8-0.8c-0.4,0-0.8,0.3-0.8,0.8
		C168.4,86.8,168.7,87.1,169.1,87.1z"/>
	<path class="st3" d="M166.6,68.8c0.3,0,0.5-0.2,0.5-0.5c0-0.3-0.2-0.5-0.5-0.5c-0.3,0-0.5,0.2-0.5,0.5
		C166.1,68.5,166.4,68.8,166.6,68.8z"/>
	<path class="st3" d="M168.7,51.1c0.3,0,0.5-0.2,0.5-0.5S169,50,168.7,50c-0.3,0-0.5,0.2-0.5,0.5S168.4,51.1,168.7,51.1z"/>
	<path class="st3" d="M174.7,35.4c0.5,0,1-0.4,1-1c0-0.5-0.4-1-1-1c-0.5,0-1,0.4-1,1C173.8,35,174.2,35.4,174.7,35.4z"/>
	<path class="st3" d="M183.7,21.8c0.6,0,1-0.5,1-1c0-0.6-0.5-1-1-1c-0.6,0-1,0.5-1,1C182.6,21.3,183.1,21.8,183.7,21.8z"/>
	<path class="st3" d="M194.6,10.8c0.6,0,1-0.5,1-1c0-0.6-0.5-1-1-1c-0.6,0-1,0.5-1,1C193.6,10.3,194.1,10.8,194.6,10.8z"/>
	<path class="st3" d="M192.9,128.1c0.4,0,0.8-0.3,0.8-0.8c0-0.4-0.3-0.8-0.8-0.8s-0.8,0.3-0.8,0.8
		C192.1,127.8,192.4,128.1,192.9,128.1z"/>
	<path class="st3" d="M179.2,116.2c0.3,0,0.6-0.3,0.6-0.6c0-0.3-0.3-0.6-0.6-0.6c-0.3,0-0.6,0.3-0.6,0.6
		C178.7,115.9,178.9,116.2,179.2,116.2z"/>
	<path class="st3" d="M169.1,101.2c0.3,0,0.6-0.3,0.6-0.6c0-0.3-0.3-0.6-0.6-0.6c-0.3,0-0.6,0.3-0.6,0.6
		C168.6,100.9,168.8,101.2,169.1,101.2z"/>
	<path class="st3" d="M163.1,84.1c0.3,0,0.5-0.2,0.5-0.5c0-0.3-0.2-0.5-0.5-0.5c-0.3,0-0.5,0.2-0.5,0.5
		C162.6,83.9,162.8,84.1,163.1,84.1z"/>
	<path class="st3" d="M161.4,66.2c0.3,0,0.5-0.2,0.5-0.5c0-0.3-0.2-0.5-0.5-0.5c-0.3,0-0.5,0.2-0.5,0.5
		C161,66,161.2,66.2,161.4,66.2z"/>
	<path class="st3" d="M163.7,48.7c0.2,0,0.4-0.2,0.4-0.4c0-0.2-0.2-0.4-0.4-0.4c-0.2,0-0.4,0.2-0.4,0.4
		C163.4,48.5,163.5,48.7,163.7,48.7z"/>
	<path class="st3" d="M169.6,32.6c0.2,0,0.4-0.2,0.4-0.4c0-0.2-0.2-0.4-0.4-0.4c-0.2,0-0.4,0.2-0.4,0.4
		C169.2,32.4,169.4,32.6,169.6,32.6z"/>
	<path class="st3" d="M178.4,18.5c0.3,0,0.5-0.2,0.5-0.5c0-0.3-0.2-0.5-0.5-0.5c-0.3,0-0.5,0.2-0.5,0.5
		C178,18.3,178.2,18.5,178.4,18.5z"/>
	<path class="st3" d="M189.4,7.4c0.6,0,1.1-0.5,1.1-1.1c0-0.6-0.5-1.1-1.1-1.1c-0.6,0-1.1,0.5-1.1,1.1
		C188.2,6.9,188.7,7.4,189.4,7.4z"/>
	<path class="st3" d="M191.6,133.6c0.3,0,0.6-0.3,0.6-0.6c0-0.3-0.3-0.6-0.6-0.6c-0.3,0-0.6,0.3-0.6,0.6
		C191,133.3,191.3,133.6,191.6,133.6z"/>
	<path class="st3" d="M178.4,123.1c0.3,0,0.6-0.3,0.6-0.6c0-0.3-0.3-0.6-0.6-0.6c-0.3,0-0.6,0.3-0.6,0.6
		C177.8,122.8,178,123.1,178.4,123.1z"/>
	<path class="st3" d="M167.7,109.8c0.4,0,0.8-0.3,0.8-0.8c0-0.4-0.3-0.8-0.8-0.8s-0.8,0.3-0.8,0.8
		C167,109.4,167.3,109.8,167.7,109.8z"/>
	<path class="st3" d="M160.3,94c0.4,0,0.6-0.3,0.6-0.6c0-0.4-0.3-0.6-0.6-0.6c-0.4,0-0.6,0.3-0.6,0.6C159.7,93.7,160,94,160.3,94z"
		/>
	<path class="st3" d="M156.6,76.9c0.3,0,0.5-0.2,0.5-0.5c0-0.3-0.2-0.5-0.5-0.5c-0.3,0-0.5,0.2-0.5,0.5
		C156,76.7,156.3,76.9,156.6,76.9z"/>
	<path class="st3" d="M156.4,59.7c0.3,0,0.6-0.3,0.6-0.6c0-0.3-0.3-0.6-0.6-0.6c-0.3,0-0.6,0.3-0.6,0.6
		C155.8,59.4,156.1,59.7,156.4,59.7z"/>
	<path class="st3" d="M159.7,42.8c0.3,0,0.5-0.2,0.5-0.5c0-0.3-0.2-0.5-0.5-0.5c-0.3,0-0.5,0.2-0.5,0.5
		C159.2,42.6,159.4,42.8,159.7,42.8z"/>
	<path class="st3" d="M166.1,27.1c0.2,0,0.4-0.2,0.4-0.4c0-0.2-0.2-0.4-0.4-0.4c-0.2,0-0.4,0.2-0.4,0.4
		C165.7,26.9,165.9,27.1,166.1,27.1z"/>
	<path class="st3" d="M175.1,13.3c0.2,0,0.4-0.2,0.4-0.4c0-0.2-0.2-0.4-0.4-0.4c-0.2,0-0.4,0.2-0.4,0.4
		C174.7,13.1,174.9,13.3,175.1,13.3z"/>
	<path class="st3" d="M186.2,1.5c0.2,0,0.4-0.2,0.4-0.4c0-0.2-0.2-0.4-0.4-0.4c-0.2,0-0.4,0.2-0.4,0.4
		C185.8,1.3,185.9,1.5,186.2,1.5z"/>
	<path class="st3" d="M198.5,144.2c0.5,0,1-0.4,1-1c0-0.5-0.4-1-1-1c-0.5,0-1,0.4-1,1C197.6,143.8,198,144.2,198.5,144.2z"/>
	<path class="st3" d="M185.1,136.6c0.5,0,0.9-0.4,0.9-0.9c0-0.5-0.4-0.9-0.9-0.9c-0.5,0-0.9,0.4-0.9,0.9
		C184.3,136.2,184.7,136.6,185.1,136.6z"/>
	<path class="st3" d="M173.2,126.3c0.5,0,1-0.4,1-1c0-0.5-0.4-1-1-1c-0.5,0-1,0.4-1,1C172.2,125.9,172.7,126.3,173.2,126.3z"/>
	<path class="st3" d="M163.3,113.1c0.3,0,0.6-0.3,0.6-0.6c0-0.3-0.3-0.6-0.6-0.6c-0.3,0-0.6,0.3-0.6,0.6
		C162.8,112.9,163,113.1,163.3,113.1z"/>
	<path class="st3" d="M156.1,98.4c0.3,0,0.5-0.2,0.5-0.5c0-0.3-0.2-0.5-0.5-0.5c-0.3,0-0.5,0.2-0.5,0.5
		C155.5,98.1,155.8,98.4,156.1,98.4z"/>
	<path class="st3" d="M151.7,82.5c0.4,0,0.6-0.3,0.6-0.6c0-0.4-0.3-0.6-0.6-0.6c-0.4,0-0.6,0.3-0.6,0.6
		C151.1,82.2,151.4,82.5,151.7,82.5z"/>
	<path class="st3" d="M150.5,66.1c0.4,0,0.8-0.3,0.8-0.8c0-0.4-0.3-0.8-0.8-0.8s-0.8,0.3-0.8,0.8C149.7,65.7,150.1,66.1,150.5,66.1z
		"/>
	<path class="st3" d="M152.3,49.6c0.4,0,0.8-0.3,0.8-0.8s-0.3-0.8-0.8-0.8c-0.4,0-0.8,0.3-0.8,0.8S151.9,49.6,152.3,49.6z"/>
	<path class="st3" d="M157,33.5c0.3,0,0.5-0.2,0.5-0.5c0-0.3-0.2-0.5-0.5-0.5c-0.3,0-0.5,0.2-0.5,0.5
		C156.5,33.3,156.7,33.5,157,33.5z"/>
	<path class="st3" d="M164.3,18.9c0.3,0,0.5-0.2,0.5-0.5c0-0.3-0.2-0.5-0.5-0.5c-0.3,0-0.5,0.2-0.5,0.5
		C163.8,18.6,164,18.9,164.3,18.9z"/>
	<path class="st3" d="M173.8,5.9c0.3,0,0.6-0.3,0.6-0.6c0-0.3-0.3-0.6-0.6-0.6c-0.3,0-0.6,0.3-0.6,0.6
		C173.2,5.6,173.5,5.9,173.8,5.9z"/>
	<path class="st3" d="M198.2,151.1c0.4,0,0.8-0.3,0.8-0.8c0-0.4-0.3-0.8-0.8-0.8s-0.8,0.3-0.8,0.8
		C197.5,150.7,197.8,151.1,198.2,151.1z"/>
	<path class="st3" d="M186,144.7c0.4,0,0.8-0.3,0.8-0.8c0-0.4-0.3-0.8-0.8-0.8c-0.4,0-0.8,0.3-0.8,0.8
		C185.3,144.3,185.6,144.7,186,144.7z"/>
	<path class="st3" d="M174.6,135.9c0.3,0,0.6-0.3,0.6-0.6s-0.3-0.6-0.6-0.6c-0.3,0-0.6,0.3-0.6,0.6S174.3,135.9,174.6,135.9z"/>
	<path class="st3" d="M164.4,125.4c0.5,0,0.9-0.4,0.9-0.9c0-0.5-0.4-0.9-0.9-0.9c-0.5,0-0.9,0.4-0.9,0.9
		C163.6,125,164,125.4,164.4,125.4z"/>
	<path class="st3" d="M156.1,113c0.6,0,1-0.5,1-1c0-0.6-0.5-1-1-1c-0.6,0-1,0.5-1,1C155,112.5,155.5,113,156.1,113z"/>
	<path class="st3" d="M149.8,98.6c0.4,0,0.8-0.3,0.8-0.8c0-0.4-0.3-0.8-0.8-0.8c-0.4,0-0.8,0.3-0.8,0.8
		C149,98.3,149.4,98.6,149.8,98.6z"/>
	<path class="st3" d="M145.9,83.3c0.4,0,0.6-0.3,0.6-0.6c0-0.4-0.3-0.6-0.6-0.6c-0.4,0-0.6,0.3-0.6,0.6
		C145.3,83,145.6,83.3,145.9,83.3z"/>
	<path class="st3" d="M144.7,67.8c0.5,0,0.9-0.4,0.9-0.9c0-0.5-0.4-0.9-0.9-0.9c-0.5,0-0.9,0.4-0.9,0.9
		C143.8,67.4,144.2,67.8,144.7,67.8z"/>
	<path class="st3" d="M146,51.7c0.4,0,0.6-0.3,0.6-0.6c0-0.4-0.3-0.6-0.6-0.6c-0.4,0-0.6,0.3-0.6,0.6
		C145.3,51.4,145.6,51.7,146,51.7z"/>
	<path class="st3" d="M149.8,36.3c0.4,0,0.6-0.3,0.6-0.6c0-0.4-0.3-0.6-0.6-0.6c-0.4,0-0.6,0.3-0.6,0.6
		C149.2,36,149.5,36.3,149.8,36.3z"/>
	<path class="st3" d="M156,21.8c0.4,0,0.8-0.3,0.8-0.8c0-0.4-0.3-0.8-0.8-0.8c-0.4,0-0.8,0.3-0.8,0.8
		C155.3,21.5,155.6,21.8,156,21.8z"/>
	<path class="st3" d="M164.4,8.3c0.4,0,0.6-0.3,0.6-0.6c0-0.4-0.3-0.6-0.6-0.6c-0.4,0-0.6,0.3-0.6,0.6C163.7,8,164,8.3,164.4,8.3z"
		/>
	<path class="st3" d="M191.6,156.4c0.6,0,1-0.5,1-1s-0.5-1-1-1c-0.6,0-1,0.5-1,1S191,156.4,191.6,156.4z"/>
	<path class="st3" d="M180.9,149.5c0.3,0,0.5-0.2,0.5-0.5c0-0.3-0.2-0.5-0.5-0.5c-0.3,0-0.5,0.2-0.5,0.5
		C180.4,149.3,180.6,149.5,180.9,149.5z"/>
	<path class="st3" d="M170.8,141.6c0.3,0,0.6-0.3,0.6-0.6c0-0.3-0.3-0.6-0.6-0.6c-0.3,0-0.6,0.3-0.6,0.6
		C170.2,141.3,170.5,141.6,170.8,141.6z"/>
	<path class="st3" d="M161.5,132c0.4,0,0.6-0.3,0.6-0.6c0-0.4-0.3-0.6-0.6-0.6c-0.4,0-0.6,0.3-0.6,0.6
		C160.8,131.7,161.1,132,161.5,132z"/>
	<path class="st3" d="M153.4,120.7c0.4,0,0.6-0.3,0.6-0.6s-0.3-0.6-0.6-0.6c-0.4,0-0.6,0.3-0.6,0.6S153,120.7,153.4,120.7z"/>
	<path class="st3" d="M146.8,108.4c0.5,0,0.9-0.4,0.9-0.9c0-0.5-0.4-0.9-0.9-0.9c-0.5,0-0.9,0.4-0.9,0.9
		C145.9,108,146.3,108.4,146.8,108.4z"/>
	<path class="st3" d="M142,95.1c0.7,0,1.3-0.6,1.3-1.3c0-0.7-0.6-1.3-1.3-1.3c-0.7,0-1.3,0.6-1.3,1.3
		C140.8,94.5,141.3,95.1,142,95.1z"/>
	<path class="st3" d="M139.2,80.6c0.7,0,1.3-0.6,1.3-1.3c0-0.7-0.6-1.3-1.3-1.3c-0.7,0-1.3,0.6-1.3,1.3
		C137.9,80,138.5,80.6,139.2,80.6z"/>
	<path class="st3" d="M138.6,66.3c1.1,0,2-0.9,2-2c0-1.1-0.9-2-2-2c-1.1,0-2,0.9-2,2C136.6,65.4,137.5,66.3,138.6,66.3z"/>
	<path class="st3" d="M140.1,50.4c0.6,0,1.1-0.5,1.1-1.1c0-0.6-0.5-1.1-1.1-1.1c-0.6,0-1.1,0.5-1.1,1.1
		C139,49.9,139.5,50.4,140.1,50.4z"/>
	<path class="st3" d="M143.8,35.7c0.6,0,1.1-0.5,1.1-1.1c0-0.6-0.5-1.1-1.1-1.1c-0.6,0-1.1,0.5-1.1,1.1
		C142.7,35.2,143.2,35.7,143.8,35.7z"/>
	<path class="st3" d="M149.5,21.9c0.8,0,1.4-0.6,1.4-1.4c0-0.8-0.6-1.4-1.4-1.4c-0.8,0-1.4,0.6-1.4,1.4
		C148.1,21.3,148.7,21.9,149.5,21.9z"/>
	<path class="st3" d="M157.1,8.9c0.9,0,1.6-0.7,1.6-1.6s-0.7-1.6-1.6-1.6c-0.9,0-1.6,0.7-1.6,1.6S156.3,8.9,157.1,8.9z"/>
	<path class="st3" d="M198.6,169.3c0.7,0,1.3-0.6,1.3-1.3s-0.6-1.3-1.3-1.3c-0.7,0-1.3,0.6-1.3,1.3S197.9,169.3,198.6,169.3z"/>
	<path class="st3" d="M189.4,164.9c0.7,0,1.3-0.6,1.3-1.3c0-0.7-0.6-1.3-1.3-1.3c-0.7,0-1.3,0.6-1.3,1.3
		C188.1,164.3,188.7,164.9,189.4,164.9z"/>
	<path class="st3" d="M180.1,159.8c1,0,1.7-0.8,1.7-1.7c0-0.9-0.8-1.7-1.7-1.7c-1,0-1.7,0.8-1.7,1.7
		C178.4,159,179.2,159.8,180.1,159.8z"/>
	<path class="st3" d="M171.1,153.4c1.1,0,2-0.9,2-2c0-1.1-0.9-2-2-2s-2,0.9-2,2C169.1,152.5,170,153.4,171.1,153.4z"/>
	<path class="st3" d="M162.5,144.9c0.8,0,1.5-0.7,1.5-1.5c0-0.8-0.7-1.5-1.5-1.5c-0.8,0-1.5,0.7-1.5,1.5
		C160.9,144.2,161.6,144.9,162.5,144.9z"/>
	<path class="st3" d="M154.5,135.7c0.8,0,1.5-0.7,1.5-1.5c0-0.8-0.7-1.5-1.5-1.5c-0.8,0-1.5,0.7-1.5,1.5
		C152.9,135,153.6,135.7,154.5,135.7z"/>
	<path class="st3" d="M147.3,125.2c0.9,0,1.6-0.7,1.6-1.6c0-0.9-0.7-1.6-1.6-1.6s-1.6,0.7-1.6,1.6
		C145.8,124.5,146.5,125.2,147.3,125.2z"/>
	<path class="st3" d="M141.4,113.1c0.6,0,1-0.5,1-1c0-0.6-0.5-1-1-1c-0.6,0-1,0.5-1,1C140.3,112.7,140.8,113.1,141.4,113.1z"/>
	<path class="st3" d="M136.7,100.8c0.7,0,1.3-0.6,1.3-1.3c0-0.7-0.6-1.3-1.3-1.3c-0.7,0-1.3,0.6-1.3,1.3
		C135.4,100.3,136,100.8,136.7,100.8z"/>
	<path class="st3" d="M133.6,87.5c0.7,0,1.3-0.6,1.3-1.3c0-0.7-0.6-1.3-1.3-1.3c-0.7,0-1.3,0.6-1.3,1.3
		C132.3,86.9,132.9,87.5,133.6,87.5z"/>
	<path class="st3" d="M132.2,73.3c0.5,0,0.9-0.4,0.9-0.9c0-0.5-0.4-0.9-0.9-0.9c-0.5,0-0.9,0.4-0.9,0.9
		C131.3,72.9,131.7,73.3,132.2,73.3z"/>
	<path class="st3" d="M132.5,59c0.4,0,0.7-0.3,0.7-0.7c0-0.4-0.3-0.7-0.7-0.7c-0.4,0-0.7,0.3-0.7,0.7C131.8,58.6,132.1,59,132.5,59z
		"/>
	<path class="st3" d="M134.6,44.8c0.4,0,0.7-0.3,0.7-0.7c0-0.4-0.3-0.7-0.7-0.7c-0.4,0-0.7,0.3-0.7,0.7
		C133.9,44.5,134.2,44.8,134.6,44.8z"/>
	<path class="st3" d="M138.6,32.2c1.1,0,2-0.9,2-2c0-1.1-0.9-2-2-2c-1.1,0-2,0.9-2,2C136.6,31.3,137.5,32.2,138.6,32.2z"/>
	<path class="st3" d="M144.2,19c1.2,0,2.1-1,2.1-2.1c0-1.2-1-2.1-2.1-2.1c-1.2,0-2.1,1-2.1,2.1C142.1,18,143.1,19,144.2,19z"/>
	<path class="st3" d="M151.6,6.2c1.1,0,2-0.9,2-2c0-1.1-0.9-2-2-2c-1.1,0-2,0.9-2,2C149.6,5.3,150.5,6.2,151.6,6.2z"/>
	<path class="st3" d="M196.3,179.7c0.7,0,1.3-0.6,1.3-1.3c0-0.7-0.6-1.3-1.3-1.3c-0.7,0-1.3,0.6-1.3,1.3
		C195,179.1,195.6,179.7,196.3,179.7z"/>
	<path class="st3" d="M188.7,175.7c0.7,0,1.2-0.5,1.2-1.2c0-0.7-0.5-1.2-1.2-1.2c-0.7,0-1.2,0.5-1.2,1.2
		C187.5,175.1,188,175.7,188.7,175.7z"/>
	<path class="st3" d="M181,170.5c0.4,0,0.6-0.3,0.6-0.6c0-0.4-0.3-0.6-0.6-0.6c-0.4,0-0.6,0.3-0.6,0.6
		C180.3,170.2,180.6,170.5,181,170.5z"/>
	<path class="st3" d="M173.2,165.4c0.5,0,1-0.4,1-1c0-0.5-0.4-1-1-1c-0.5,0-1,0.4-1,1C172.3,164.9,172.7,165.4,173.2,165.4z"/>
	<path class="st3" d="M165.5,158.7c0.3,0,0.6-0.3,0.6-0.6c0-0.3-0.3-0.6-0.6-0.6c-0.3,0-0.6,0.3-0.6,0.6
		C165,158.4,165.2,158.7,165.5,158.7z"/>
	<path class="st3" d="M158.1,152c0.6,0,1.1-0.5,1.1-1.1c0-0.6-0.5-1.1-1.1-1.1c-0.6,0-1.1,0.5-1.1,1.1
		C157,151.5,157.5,152,158.1,152z"/>
	<path class="st3" d="M151,144.8c1.1,0,2.1-0.9,2.1-2.1c0-1.1-0.9-2.1-2.1-2.1c-1.1,0-2.1,0.9-2.1,2.1
		C148.9,143.9,149.8,144.8,151,144.8z"/>
	<path class="st3" d="M144.4,135.5c1,0,1.9-0.8,1.9-1.9c0-1-0.8-1.9-1.9-1.9c-1,0-1.9,0.8-1.9,1.9
		C142.5,134.7,143.4,135.5,144.4,135.5z"/>
	<path class="st3" d="M138.5,125.5c1,0,1.9-0.8,1.9-1.9c0-1-0.8-1.9-1.9-1.9c-1,0-1.9,0.8-1.9,1.9
		C136.6,124.6,137.5,125.5,138.5,125.5z"/>
	<path class="st3" d="M133.5,114.6c1.1,0,1.9-0.9,1.9-1.9s-0.9-1.9-1.9-1.9c-1.1,0-1.9,0.9-1.9,1.9S132.5,114.6,133.5,114.6z"/>
	<path class="st3" d="M129.6,102.3c0.7,0,1.3-0.6,1.3-1.3c0-0.7-0.6-1.3-1.3-1.3c-0.7,0-1.3,0.6-1.3,1.3
		C128.3,101.7,128.9,102.3,129.6,102.3z"/>
	<path class="st3" d="M126.8,90c0.7,0,1.3-0.6,1.3-1.3c0-0.7-0.6-1.3-1.3-1.3c-0.7,0-1.3,0.6-1.3,1.3C125.5,89.4,126.1,90,126.8,90z
		"/>
	<path class="st3" d="M125.4,77.1c0.7,0,1.3-0.6,1.3-1.3c0-0.7-0.6-1.3-1.3-1.3c-0.7,0-1.3,0.6-1.3,1.3
		C124,76.5,124.6,77.1,125.4,77.1z"/>
	<path class="st3" d="M125.3,63.9c0.7,0,1.3-0.6,1.3-1.3c0-0.7-0.6-1.3-1.3-1.3c-0.7,0-1.3,0.6-1.3,1.3
		C124,63.3,124.6,63.9,125.3,63.9z"/>
	<path class="st3" d="M126.7,50.2c0.5,0,1-0.4,1-1c0-0.5-0.4-1-1-1c-0.5,0-1,0.4-1,1C125.8,49.8,126.2,50.2,126.7,50.2z"/>
	<path class="st3" d="M129.7,36.7c0.4,0,0.7-0.3,0.7-0.7c0-0.4-0.3-0.7-0.7-0.7c-0.4,0-0.7,0.3-0.7,0.7
		C129,36.4,129.3,36.7,129.7,36.7z"/>
	<path class="st3" d="M134.1,23.8c0.4,0,0.8-0.3,0.8-0.8c0-0.4-0.3-0.8-0.8-0.8c-0.4,0-0.8,0.3-0.8,0.8
		C133.4,23.5,133.7,23.8,134.1,23.8z"/>
	<path class="st3" d="M140,11.6c0.6,0,1.1-0.5,1.1-1.1c0-0.6-0.5-1.1-1.1-1.1c-0.6,0-1.1,0.5-1.1,1.1C139,11.1,139.4,11.6,140,11.6z
		"/>
	<path class="st3" d="M200,196.6c1.2,0,2.2-1,2.2-2.2c0-1.2-1-2.2-2.2-2.2c-1.2,0-2.2,1-2.2,2.2C197.9,195.6,198.8,196.6,200,196.6z
		"/>
	<path class="st3" d="M194,193.3c1.1,0,2.1-0.9,2.1-2.1c0-1.1-0.9-2.1-2.1-2.1c-1.1,0-2.1,0.9-2.1,2.1
		C191.9,192.3,192.8,193.3,194,193.3z"/>
	<path class="st3" d="M187.8,189.4c1,0,1.8-0.8,1.8-1.8c0-1-0.8-1.8-1.8-1.8c-1,0-1.8,0.8-1.8,1.8
		C186,188.6,186.8,189.4,187.8,189.4z"/>
	<path class="st3" d="M181.5,185.2c0.9,0,1.6-0.7,1.6-1.6c0-0.9-0.7-1.6-1.6-1.6c-0.9,0-1.6,0.7-1.6,1.6
		C179.9,184.5,180.6,185.2,181.5,185.2z"/>
	<path class="st3" d="M175,179.9c0.5,0,0.8-0.4,0.8-0.8c0-0.5-0.4-0.8-0.8-0.8c-0.5,0-0.8,0.4-0.8,0.8
		C174.2,179.5,174.6,179.9,175,179.9z"/>
	<path class="st3" d="M168.6,174.9c0.5,0,0.8-0.4,0.8-0.8c0-0.5-0.4-0.8-0.8-0.8c-0.5,0-0.8,0.4-0.8,0.8
		C167.7,174.5,168.1,174.9,168.6,174.9z"/>
	<path class="st3" d="M162.1,169.3c0.5,0,0.9-0.4,0.9-0.9c0-0.5-0.4-0.9-0.9-0.9c-0.5,0-0.9,0.4-0.9,0.9
		C161.2,169,161.6,169.3,162.1,169.3z"/>
	<path class="st3" d="M155.6,162.9c0.4,0,0.7-0.3,0.7-0.7c0-0.4-0.3-0.7-0.7-0.7c-0.4,0-0.7,0.3-0.7,0.7
		C154.9,162.6,155.3,162.9,155.6,162.9z"/>
	<path class="st3" d="M149.4,156c0.4,0,0.6-0.3,0.6-0.6c0-0.4-0.3-0.6-0.6-0.6c-0.4,0-0.6,0.3-0.6,0.6
		C148.7,155.7,149,156,149.4,156z"/>
	<path class="st3" d="M143.4,148.3c0.4,0,0.6-0.3,0.6-0.6c0-0.4-0.3-0.6-0.6-0.6c-0.4,0-0.6,0.3-0.6,0.6
		C142.7,148,143,148.3,143.4,148.3z"/>
	<path class="st3" d="M137.7,140.1c0.4,0,0.8-0.3,0.8-0.8c0-0.4-0.3-0.8-0.8-0.8c-0.4,0-0.8,0.3-0.8,0.8
		C136.9,139.8,137.3,140.1,137.7,140.1z"/>
	<path class="st3" d="M132.5,132c1,0,1.8-0.8,1.8-1.8c0-1-0.8-1.8-1.8-1.8c-1,0-1.8,0.8-1.8,1.8C130.7,131.2,131.5,132,132.5,132z"
		/>
	<path class="st3" d="M127.9,121.7c0.7,0,1.3-0.6,1.3-1.3c0-0.7-0.6-1.3-1.3-1.3c-0.7,0-1.3,0.6-1.3,1.3
		C126.6,121.2,127.2,121.7,127.9,121.7z"/>
	<path class="st3" d="M124,111.8c1,0,1.8-0.8,1.8-1.8c0-1-0.8-1.8-1.8-1.8c-1,0-1.8,0.8-1.8,1.8C122.3,111,123,111.8,124,111.8z"/>
	<path class="st3" d="M121,100.9c1,0,1.9-0.8,1.9-1.9c0-1-0.8-1.9-1.9-1.9c-1,0-1.9,0.8-1.9,1.9C119.1,100,119.9,100.9,121,100.9z"
		/>
	<path class="st3" d="M118.9,89.1c0.9,0,1.7-0.7,1.7-1.7c0-0.9-0.7-1.7-1.7-1.7c-0.9,0-1.7,0.7-1.7,1.7
		C117.2,88.3,118,89.1,118.9,89.1z"/>
	<path class="st3" d="M117.8,76.8c0.8,0,1.4-0.6,1.4-1.4c0-0.8-0.6-1.4-1.4-1.4c-0.8,0-1.4,0.6-1.4,1.4
		C116.5,76.1,117.1,76.8,117.8,76.8z"/>
	<path class="st3" d="M117.9,64.4c0.7,0,1.3-0.6,1.3-1.3c0-0.7-0.6-1.3-1.3-1.3c-0.7,0-1.3,0.6-1.3,1.3
		C116.7,63.8,117.2,64.4,117.9,64.4z"/>
	<path class="st3" d="M119.2,51.9c0.7,0,1.3-0.6,1.3-1.3c0-0.7-0.6-1.3-1.3-1.3c-0.7,0-1.3,0.6-1.3,1.3
		C118,51.3,118.5,51.9,119.2,51.9z"/>
	<path class="st3" d="M121.7,39.2c0.6,0,1-0.5,1-1c0-0.6-0.5-1-1-1c-0.6,0-1,0.5-1,1C120.7,38.7,121.2,39.2,121.7,39.2z"/>
	<path class="st3" d="M125.5,27.3c0.8,0,1.5-0.7,1.5-1.5c0-0.8-0.7-1.5-1.5-1.5c-0.8,0-1.5,0.7-1.5,1.5
		C124,26.6,124.7,27.3,125.5,27.3z"/>
	<path class="st3" d="M130.6,15.6c1,0,1.8-0.8,1.8-1.8c0-1-0.8-1.8-1.8-1.8c-1,0-1.8,0.8-1.8,1.8C128.7,14.8,129.6,15.6,130.6,15.6z
		"/>
	<path class="st3" d="M136.8,4.2c1.1,0,2.1-0.9,2.1-2.1c0-1.1-0.9-2.1-2.1-2.1c-1.1,0-2.1,0.9-2.1,2.1
		C134.7,3.3,135.7,4.2,136.8,4.2z"/>
	<path class="st3" d="M197.3,212.9c1.6,0,3-1.3,3-3c0-1.6-1.3-3-3-3s-3,1.3-3,3C194.3,211.6,195.7,212.9,197.3,212.9z"/>
	<path class="st3" d="M192,209.5c1.5,0,2.7-1.2,2.7-2.7c0-1.5-1.2-2.7-2.7-2.7c-1.5,0-2.7,1.2-2.7,2.7
		C189.3,208.3,190.5,209.5,192,209.5z"/>
	<path class="st3" d="M186.7,205.8c1.4,0,2.5-1.1,2.5-2.5c0-1.4-1.1-2.5-2.5-2.5c-1.4,0-2.5,1.1-2.5,2.5
		C184.2,204.7,185.3,205.8,186.7,205.8z"/>
	<path class="st3" d="M181.3,202c1.3,0,2.3-1,2.3-2.3c0-1.3-1-2.3-2.3-2.3c-1.3,0-2.3,1-2.3,2.3C179,201,180,202,181.3,202z"/>
	<path class="st3" d="M175.9,197.9c1.2,0,2.2-1,2.2-2.2s-1-2.2-2.2-2.2c-1.2,0-2.2,1-2.2,2.2S174.7,197.9,175.9,197.9z"/>
	<path class="st3" d="M170.4,193.8c1.3,0,2.4-1.1,2.4-2.4c0-1.3-1.1-2.4-2.4-2.4s-2.4,1.1-2.4,2.4
		C168.1,192.8,169.1,193.8,170.4,193.8z"/>
	<path class="st3" d="M164.9,188.5c0.9,0,1.7-0.7,1.7-1.7c0-0.9-0.7-1.7-1.7-1.7c-0.9,0-1.7,0.7-1.7,1.7
		C163.2,187.8,164,188.5,164.9,188.5z"/>
	<path class="st3" d="M159.4,183.5c0.9,0,1.7-0.7,1.7-1.7c0-0.9-0.7-1.7-1.7-1.7c-0.9,0-1.7,0.7-1.7,1.7
		C157.7,182.8,158.5,183.5,159.4,183.5z"/>
	<path class="st3" d="M153.9,178c0.9,0,1.6-0.7,1.6-1.6c0-0.9-0.7-1.6-1.6-1.6c-0.9,0-1.6,0.7-1.6,1.6
		C152.3,177.3,153,178,153.9,178z"/>
	<path class="st3" d="M148.4,171.6c0.6,0,1.1-0.5,1.1-1.1c0-0.6-0.5-1.1-1.1-1.1c-0.6,0-1.1,0.5-1.1,1.1
		C147.4,171.2,147.8,171.6,148.4,171.6z"/>
	<path class="st3" d="M143.1,165.2c0.6,0,1-0.5,1-1c0-0.6-0.5-1-1-1c-0.6,0-1,0.5-1,1C142,164.8,142.5,165.2,143.1,165.2z"/>
	<path class="st3" d="M137.9,158.1c0.4,0,0.8-0.3,0.8-0.8c0-0.4-0.3-0.8-0.8-0.8c-0.4,0-0.8,0.3-0.8,0.8
		C137.1,157.8,137.4,158.1,137.9,158.1z"/>
	<path class="st3" d="M132.8,150.7c0.4,0,0.8-0.3,0.8-0.8c0-0.4-0.3-0.8-0.8-0.8c-0.4,0-0.8,0.3-0.8,0.8
		C132.1,150.4,132.4,150.7,132.8,150.7z"/>
	<path class="st3" d="M128.1,143.1c0.6,0,1.1-0.5,1.1-1.1c0-0.6-0.5-1.1-1.1-1.1c-0.6,0-1.1,0.5-1.1,1.1
		C127,142.6,127.5,143.1,128.1,143.1z"/>
	<path class="st3" d="M123.7,135c0.8,0,1.5-0.7,1.5-1.5c0-0.8-0.7-1.5-1.5-1.5c-0.8,0-1.5,0.7-1.5,1.5
		C122.2,134.4,122.9,135,123.7,135z"/>
	<path class="st3" d="M119.8,126c0.8,0,1.5-0.7,1.5-1.5c0-0.8-0.7-1.5-1.5-1.5c-0.8,0-1.5,0.7-1.5,1.5
		C118.3,125.3,119,126,119.8,126z"/>
	<path class="st3" d="M116.4,117.1c1.2,0,2.2-1,2.2-2.2c0-1.2-1-2.2-2.2-2.2c-1.2,0-2.2,1-2.2,2.2
		C114.2,116.1,115.2,117.1,116.4,117.1z"/>
	<path class="st3" d="M113.6,106.2c0.8,0,1.4-0.6,1.4-1.4c0-0.8-0.6-1.4-1.4-1.4c-0.8,0-1.4,0.6-1.4,1.4
		C112.2,105.6,112.9,106.2,113.6,106.2z"/>
	<path class="st3" d="M111.5,95.7c0.8,0,1.4-0.6,1.4-1.4c0-0.8-0.6-1.4-1.4-1.4c-0.8,0-1.4,0.6-1.4,1.4
		C110.1,95,110.8,95.7,111.5,95.7z"/>
	<path class="st3" d="M110.2,84.4c0.6,0,1.1-0.5,1.1-1.1c0-0.6-0.5-1.1-1.1-1.1c-0.6,0-1.1,0.5-1.1,1.1
		C109.1,83.9,109.6,84.4,110.2,84.4z"/>
	<path class="st3" d="M109.8,73.5c0.8,0,1.4-0.6,1.4-1.4c0-0.8-0.6-1.4-1.4-1.4c-0.8,0-1.4,0.6-1.4,1.4
		C108.3,72.8,109,73.5,109.8,73.5z"/>
	<path class="st3" d="M110.2,62c0.8,0,1.4-0.6,1.4-1.4c0-0.8-0.6-1.4-1.4-1.4c-0.8,0-1.4,0.6-1.4,1.4C108.8,61.3,109.4,62,110.2,62z
		"/>
	<path class="st3" d="M111.7,50.1c0.7,0,1.2-0.5,1.2-1.2s-0.5-1.2-1.2-1.2c-0.7,0-1.2,0.5-1.2,1.2S111,50.1,111.7,50.1z"/>
	<path class="st3" d="M114.2,38.2c0.6,0,1.1-0.5,1.1-1.1c0-0.6-0.5-1.1-1.1-1.1c-0.6,0-1.1,0.5-1.1,1.1
		C113.1,37.8,113.6,38.2,114.2,38.2z"/>
	<path class="st3" d="M117.7,26.8c0.7,0,1.3-0.6,1.3-1.3c0-0.7-0.6-1.3-1.3-1.3c-0.7,0-1.3,0.6-1.3,1.3
		C116.4,26.2,117,26.8,117.7,26.8z"/>
	<path class="st3" d="M122.2,15.5c0.8,0,1.4-0.6,1.4-1.4c0-0.8-0.6-1.4-1.4-1.4c-0.8,0-1.4,0.6-1.4,1.4
		C120.9,14.9,121.5,15.5,122.2,15.5z"/>
	<path class="st3" d="M127.8,3.6c0.4,0,0.6-0.3,0.6-0.6c0-0.4-0.3-0.6-0.6-0.6c-0.4,0-0.6,0.3-0.6,0.6
		C127.2,3.3,127.5,3.6,127.8,3.6z"/>
	<path class="st3" d="M177.8,218.1c1.5,0,2.8-1.3,2.8-2.8c0-1.5-1.3-2.8-2.8-2.8c-1.5,0-2.8,1.3-2.8,2.8
		C175,216.8,176.2,218.1,177.8,218.1z"/>
	<path class="st3" d="M172.7,214.2c1.5,0,2.8-1.3,2.8-2.8c0-1.5-1.3-2.8-2.8-2.8c-1.5,0-2.8,1.3-2.8,2.8
		C169.9,213,171.2,214.2,172.7,214.2z"/>
	<path class="st3" d="M167.7,210c1.5,0,2.6-1.2,2.6-2.6c0-1.5-1.2-2.6-2.6-2.6c-1.5,0-2.6,1.2-2.6,2.6
		C165.1,208.8,166.2,210,167.7,210z"/>
	<path class="st3" d="M162.7,205.8c1.5,0,2.8-1.3,2.8-2.8c0-1.5-1.3-2.8-2.8-2.8c-1.5,0-2.8,1.3-2.8,2.8
		C159.9,204.6,161.2,205.8,162.7,205.8z"/>
	<path class="st3" d="M157.7,201.5c1.7,0,3-1.3,3-3c0-1.7-1.3-3-3-3c-1.7,0-3,1.3-3,3C154.7,200.1,156.1,201.5,157.7,201.5z"/>
	<path class="st3" d="M152.8,196.6c1.7,0,3-1.3,3-3c0-1.7-1.3-3-3-3c-1.7,0-3,1.3-3,3C149.8,195.3,151.1,196.6,152.8,196.6z"/>
	<path class="st3" d="M147.9,191.4c1.6,0,2.9-1.3,2.9-2.9c0-1.6-1.3-2.9-2.9-2.9c-1.6,0-2.9,1.3-2.9,2.9
		C145,190.1,146.3,191.4,147.9,191.4z"/>
	<path class="st3" d="M143.1,185.5c1.3,0,2.4-1.1,2.4-2.4c0-1.3-1.1-2.4-2.4-2.4s-2.4,1.1-2.4,2.4
		C140.7,184.4,141.8,185.5,143.1,185.5z"/>
	<path class="st3" d="M138.3,178.7c0.8,0,1.4-0.6,1.4-1.4c0-0.8-0.6-1.4-1.4-1.4c-0.8,0-1.4,0.6-1.4,1.4
		C136.9,178.1,137.6,178.7,138.3,178.7z"/>
	<path class="st3" d="M133.7,173.4c1.2,0,2.2-1,2.2-2.2c0-1.2-1-2.2-2.2-2.2c-1.2,0-2.2,1-2.2,2.2
		C131.5,172.4,132.5,173.4,133.7,173.4z"/>
	<path class="st3" d="M129.2,166.3c0.9,0,1.7-0.7,1.7-1.7c0-0.9-0.7-1.7-1.7-1.7c-0.9,0-1.7,0.7-1.7,1.7
		C127.5,165.6,128.3,166.3,129.2,166.3z"/>
	<path class="st3" d="M124.8,159.8c1.1,0,2.1-0.9,2.1-2.1c0-1.1-0.9-2.1-2.1-2.1c-1.1,0-2.1,0.9-2.1,2.1
		C122.7,158.9,123.7,159.8,124.8,159.8z"/>
	<path class="st3" d="M120.7,151.4c0.6,0,1-0.5,1-1c0-0.6-0.5-1-1-1c-0.6,0-1,0.5-1,1C119.6,151,120.1,151.4,120.7,151.4z"/>
	<path class="st3" d="M116.8,143.8c0.6,0,1.1-0.5,1.1-1.1c0-0.6-0.5-1.1-1.1-1.1c-0.6,0-1.1,0.5-1.1,1.1
		C115.6,143.3,116.1,143.8,116.8,143.8z"/>
	<path class="st3" d="M113.2,136c0.8,0,1.5-0.7,1.5-1.5c0-0.8-0.7-1.5-1.5-1.5c-0.8,0-1.5,0.7-1.5,1.5
		C111.7,135.4,112.3,136,113.2,136z"/>
	<path class="st3" d="M109.9,127.5c0.9,0,1.6-0.7,1.6-1.6c0-0.9-0.7-1.6-1.6-1.6c-0.9,0-1.6,0.7-1.6,1.6
		C108.4,126.8,109.1,127.5,109.9,127.5z"/>
	<path class="st3" d="M107.1,119.1c1.2,0,2.2-1,2.2-2.2c0-1.2-1-2.2-2.2-2.2c-1.2,0-2.2,1-2.2,2.2
		C104.9,118.1,105.9,119.1,107.1,119.1z"/>
	<path class="st3" d="M104.7,108.4c0.5,0,0.9-0.4,0.9-0.9c0-0.5-0.4-0.9-0.9-0.9c-0.5,0-0.9,0.4-0.9,0.9
		C103.9,108,104.3,108.4,104.7,108.4z"/>
	<path class="st3" d="M102.9,98.9c0.6,0,1.1-0.5,1.1-1.1c0-0.6-0.5-1.1-1.1-1.1c-0.6,0-1.1,0.5-1.1,1.1
		C101.8,98.4,102.3,98.9,102.9,98.9z"/>
	<path class="st3" d="M101.7,88.5c0.5,0,0.8-0.4,0.8-0.8c0-0.5-0.4-0.8-0.8-0.8c-0.5,0-0.8,0.4-0.8,0.8
		C100.9,88.1,101.3,88.5,101.7,88.5z"/>
	<circle class="st3" cx="101.2" cy="77.2" r="0.7"/>
	<path class="st3" d="M101.4,67.3c0.4,0,0.7-0.3,0.7-0.7c0-0.4-0.3-0.7-0.7-0.7c-0.4,0-0.7,0.3-0.7,0.7
		C100.7,66.9,101,67.3,101.4,67.3z"/>
	<path class="st3" d="M102.3,56.3c0.4,0,0.6-0.3,0.6-0.6c0-0.4-0.3-0.6-0.6-0.6c-0.4,0-0.6,0.3-0.6,0.6
		C101.7,56.1,102,56.3,102.3,56.3z"/>
	<path class="st3" d="M104.1,45.9c0.6,0,1.1-0.5,1.1-1.1c0-0.6-0.5-1.1-1.1-1.1c-0.6,0-1.1,0.5-1.1,1.1
		C103,45.4,103.5,45.9,104.1,45.9z"/>
	<path class="st3" d="M106.7,34.9c0.6,0,1.1-0.5,1.1-1.1c0-0.6-0.5-1.1-1.1-1.1c-0.6,0-1.1,0.5-1.1,1.1
		C105.6,34.4,106.1,34.9,106.7,34.9z"/>
	<path class="st3" d="M110.2,23.4c0.3,0,0.5-0.2,0.5-0.5c0-0.3-0.2-0.5-0.5-0.5c-0.3,0-0.5,0.2-0.5,0.5
		C109.7,23.1,109.9,23.4,110.2,23.4z"/>
	<path class="st3" d="M114.6,12.6c0.3,0,0.5-0.2,0.5-0.5c0-0.3-0.2-0.5-0.5-0.5c-0.3,0-0.5,0.2-0.5,0.5
		C114,12.3,114.3,12.6,114.6,12.6z"/>
	<path class="st3" d="M119.8,2.1c0.4,0,0.6-0.3,0.6-0.6c0-0.4-0.3-0.6-0.6-0.6c-0.4,0-0.6,0.3-0.6,0.6
		C119.2,1.9,119.5,2.1,119.8,2.1z"/>
	<path class="st3" d="M154.4,216.9c1.2,0,2.2-1,2.2-2.2c0-1.2-1-2.2-2.2-2.2c-1.2,0-2.2,1-2.2,2.2
		C152.2,215.9,153.2,216.9,154.4,216.9z"/>
	<path class="st3" d="M149.6,212.4c1.3,0,2.4-1.1,2.4-2.4c0-1.3-1.1-2.4-2.4-2.4c-1.3,0-2.4,1.1-2.4,2.4
		C147.2,211.4,148.2,212.4,149.6,212.4z"/>
	<path class="st3" d="M144.9,207.6c1.4,0,2.5-1.1,2.5-2.5c0-1.4-1.1-2.5-2.5-2.5c-1.4,0-2.5,1.1-2.5,2.5
		C142.4,206.5,143.5,207.6,144.9,207.6z"/>
	<path class="st3" d="M140.2,202.4c1.3,0,2.4-1.1,2.4-2.4c0-1.3-1.1-2.4-2.4-2.4c-1.3,0-2.4,1.1-2.4,2.4
		C137.9,201.3,138.9,202.4,140.2,202.4z"/>
	<path class="st3" d="M135.7,197.1c1.3,0,2.4-1.1,2.4-2.4c0-1.3-1.1-2.4-2.4-2.4c-1.3,0-2.4,1.1-2.4,2.4
		C133.3,196,134.4,197.1,135.7,197.1z"/>
	<path class="st3" d="M131.3,191.8c1.5,0,2.6-1.2,2.6-2.6c0-1.5-1.2-2.6-2.6-2.6c-1.5,0-2.6,1.2-2.6,2.6
		C128.7,190.6,129.8,191.8,131.3,191.8z"/>
	<path class="st3" d="M127,185.8c1.4,0,2.5-1.1,2.5-2.5c0-1.4-1.1-2.5-2.5-2.5c-1.4,0-2.5,1.1-2.5,2.5
		C124.5,184.7,125.6,185.8,127,185.8z"/>
	<path class="st3" d="M122.8,179.6c1.3,0,2.4-1.1,2.4-2.4c0-1.3-1.1-2.4-2.4-2.4c-1.3,0-2.4,1.1-2.4,2.4
		C120.4,178.5,121.5,179.6,122.8,179.6z"/>
	<path class="st3" d="M118.8,173.6c1.5,0,2.8-1.3,2.8-2.8c0-1.5-1.3-2.8-2.8-2.8c-1.5,0-2.8,1.3-2.8,2.8
		C116,172.3,117.2,173.6,118.8,173.6z"/>
	<path class="st3" d="M114.9,166.9c1.5,0,2.8-1.3,2.8-2.8c0-1.5-1.3-2.8-2.8-2.8c-1.5,0-2.8,1.3-2.8,2.8
		C112.1,165.6,113.4,166.9,114.9,166.9z"/>
	<path class="st3" d="M111.2,159.3c1.2,0,2.2-1,2.2-2.2s-1-2.2-2.2-2.2c-1.2,0-2.2,1-2.2,2.2S110,159.3,111.2,159.3z"/>
	<path class="st3" d="M107.7,152.8c1.7,0,3.1-1.4,3.1-3.1c0-1.7-1.4-3.1-3.1-3.1c-1.7,0-3.1,1.4-3.1,3.1
		C104.7,151.4,106,152.8,107.7,152.8z"/>
	<path class="st3" d="M104.5,144.9c1.6,0,2.8-1.3,2.8-2.8c0-1.6-1.3-2.8-2.8-2.8c-1.6,0-2.8,1.3-2.8,2.8
		C101.7,143.7,102.9,144.9,104.5,144.9z"/>
	<path class="st3" d="M101.6,135.9c1,0,1.8-0.8,1.8-1.8c0-1-0.8-1.8-1.8-1.8c-1,0-1.8,0.8-1.8,1.8
		C99.8,135.1,100.6,135.9,101.6,135.9z"/>
	<path class="st3" d="M98.9,126.7c0.5,0,0.8-0.4,0.8-0.8c0-0.5-0.4-0.8-0.8-0.8c-0.5,0-0.8,0.4-0.8,0.8
		C98.1,126.3,98.5,126.7,98.9,126.7z"/>
	<path class="st3" d="M96.6,118.8c0.9,0,1.6-0.7,1.6-1.6c0-0.9-0.7-1.6-1.6-1.6c-0.9,0-1.6,0.7-1.6,1.6
		C95,118.1,95.8,118.8,96.6,118.8z"/>
	<path class="st3" d="M94.8,109.3c0.6,0,1.1-0.5,1.1-1.1c0-0.6-0.5-1.1-1.1-1.1c-0.6,0-1.1,0.5-1.1,1.1
		C93.7,108.9,94.2,109.3,94.8,109.3z"/>
	<path class="st3" d="M93.3,99.6c0.3,0,0.6-0.3,0.6-0.6c0-0.3-0.3-0.6-0.6-0.6c-0.3,0-0.6,0.3-0.6,0.6C92.8,99.3,93,99.6,93.3,99.6z
		"/>
	<path class="st3" d="M92.4,90.1c0.3,0,0.6-0.3,0.6-0.6c0-0.3-0.3-0.6-0.6-0.6c-0.3,0-0.6,0.3-0.6,0.6
		C91.8,89.8,92.1,90.1,92.4,90.1z"/>
	<path class="st3" d="M92,80.1c0.2,0,0.4-0.2,0.4-0.4c0-0.2-0.2-0.4-0.4-0.4c-0.2,0-0.4,0.2-0.4,0.4C91.6,80,91.8,80.1,92,80.1z"/>
	<path class="st3" d="M92.2,70.5c0.4,0,0.7-0.3,0.7-0.7c0-0.4-0.3-0.7-0.7-0.7c-0.4,0-0.7,0.3-0.7,0.7
		C91.4,70.2,91.8,70.5,92.2,70.5z"/>
	<path class="st3" d="M92.9,60.3c0.4,0,0.7-0.3,0.7-0.7c0-0.4-0.3-0.7-0.7-0.7c-0.4,0-0.7,0.3-0.7,0.7C92.2,60,92.5,60.3,92.9,60.3z
		"/>
	<path class="st3" d="M94.4,49.9c0.3,0,0.5-0.2,0.5-0.5c0-0.3-0.2-0.5-0.5-0.5c-0.3,0-0.5,0.2-0.5,0.5
		C93.9,49.7,94.1,49.9,94.4,49.9z"/>
	<path class="st3" d="M96.5,39.6c0.3,0,0.6-0.3,0.6-0.6c0-0.3-0.3-0.6-0.6-0.6c-0.3,0-0.6,0.3-0.6,0.6
		C95.9,39.3,96.2,39.6,96.5,39.6z"/>
	<path class="st3" d="M99.3,29.2c0.3,0,0.5-0.2,0.5-0.5c0-0.3-0.2-0.5-0.5-0.5c-0.3,0-0.5,0.2-0.5,0.5C98.8,29,99.1,29.2,99.3,29.2z
		"/>
	<path class="st3" d="M102.9,18.9c0.3,0,0.5-0.2,0.5-0.5c0-0.3-0.2-0.5-0.5-0.5c-0.3,0-0.5,0.2-0.5,0.5
		C102.4,18.7,102.6,18.9,102.9,18.9z"/>
	<path class="st3" d="M107.2,8.7c0.3,0,0.5-0.2,0.5-0.5c0-0.3-0.2-0.5-0.5-0.5c-0.3,0-0.5,0.2-0.5,0.5
		C106.7,8.5,106.9,8.7,107.2,8.7z"/>
	<path class="st3" d="M132.7,212.8c0.4,0,0.7-0.3,0.7-0.7c0-0.4-0.3-0.7-0.7-0.7c-0.4,0-0.7,0.3-0.7,0.7
		C132,212.5,132.3,212.8,132.7,212.8z"/>
	<path class="st3" d="M128.2,208.1c0.8,0,1.4-0.6,1.4-1.4c0-0.8-0.6-1.4-1.4-1.4c-0.8,0-1.4,0.6-1.4,1.4
		C126.8,207.5,127.4,208.1,128.2,208.1z"/>
	<path class="st3" d="M123.8,203.1c1.1,0,1.9-0.9,1.9-1.9c0-1.1-0.9-1.9-1.9-1.9c-1.1,0-1.9,0.9-1.9,1.9
		C121.8,202.2,122.7,203.1,123.8,203.1z"/>
	<path class="st3" d="M119.5,197.1c0.9,0,1.7-0.8,1.7-1.7c0-0.9-0.8-1.7-1.7-1.7c-1,0-1.7,0.8-1.7,1.7
		C117.8,196.3,118.6,197.1,119.5,197.1z"/>
	<path class="st3" d="M115.5,190.6c0.7,0,1.2-0.5,1.2-1.2c0-0.7-0.5-1.2-1.2-1.2c-0.7,0-1.2,0.5-1.2,1.2
		C114.3,190,114.8,190.6,115.5,190.6z"/>
	<path class="st3" d="M111.5,184.2c0.6,0,1-0.5,1-1c0-0.6-0.5-1-1-1c-0.6,0-1,0.5-1,1C110.5,183.7,111,184.2,111.5,184.2z"/>
	<path class="st3" d="M107.8,177.8c0.6,0,1-0.5,1-1c0-0.6-0.5-1-1-1c-0.6,0-1,0.5-1,1C106.8,177.3,107.2,177.8,107.8,177.8z"/>
	<circle class="st3" cx="104.2" cy="170.1" r="1"/>
	<path class="st3" d="M100.8,164c0.5,0,0.8-0.4,0.8-0.8c0-0.5-0.4-0.8-0.8-0.8c-0.5,0-0.8,0.4-0.8,0.8
		C100,163.6,100.4,164,100.8,164z"/>
	<path class="st3" d="M97.6,156.7c0.4,0,0.6-0.3,0.6-0.6c0-0.4-0.3-0.6-0.6-0.6c-0.4,0-0.6,0.3-0.6,0.6
		C97,156.4,97.3,156.7,97.6,156.7z"/>
	<path class="st3" d="M94.7,149.1c0.3,0,0.5-0.2,0.5-0.5c0-0.3-0.2-0.5-0.5-0.5c-0.2,0-0.5,0.2-0.5,0.5
		C94.2,148.9,94.4,149.1,94.7,149.1z"/>
	<path class="st3" d="M92,142.3c0.7,0,1.3-0.6,1.3-1.3c0-0.7-0.6-1.3-1.3-1.3c-0.7,0-1.3,0.6-1.3,1.3
		C90.7,141.7,91.2,142.3,92,142.3z"/>
	<path class="st3" d="M89.5,133.7c0.3,0,0.6-0.3,0.6-0.6c0-0.3-0.3-0.6-0.6-0.6c-0.3,0-0.6,0.3-0.6,0.6
		C89,133.4,89.2,133.7,89.5,133.7z"/>
	<path class="st3" d="M87.4,125.5c0.3,0,0.6-0.3,0.6-0.6c0-0.3-0.3-0.6-0.6-0.6c-0.3,0-0.6,0.3-0.6,0.6
		C86.8,125.3,87.1,125.5,87.4,125.5z"/>
	<path class="st3" d="M85.6,117.4c0.5,0,0.8-0.4,0.8-0.8c0-0.5-0.4-0.8-0.8-0.8c-0.5,0-0.8,0.4-0.8,0.8
		C84.7,117,85.1,117.4,85.6,117.4z"/>
	<path class="st3" d="M84.1,108.4c0.3,0,0.5-0.2,0.5-0.5c0-0.3-0.2-0.5-0.5-0.5c-0.3,0-0.5,0.2-0.5,0.5
		C83.6,108.2,83.8,108.4,84.1,108.4z"/>
	<path class="st3" d="M83,99.6c0.3,0,0.5-0.2,0.5-0.5c0-0.3-0.2-0.5-0.5-0.5c-0.3,0-0.5,0.2-0.5,0.5C82.5,99.3,82.7,99.6,83,99.6z"
		/>
	<path class="st3" d="M82.4,90.5c0.3,0,0.5-0.2,0.5-0.5c0-0.3-0.2-0.5-0.5-0.5c-0.3,0-0.5,0.2-0.5,0.5
		C81.8,90.3,82.1,90.5,82.4,90.5z"/>
	<path class="st3" d="M82.2,81.1c0.2,0,0.4-0.2,0.4-0.4c0-0.2-0.2-0.4-0.4-0.4c-0.2,0-0.4,0.2-0.4,0.4
		C81.8,80.9,81.9,81.1,82.2,81.1z"/>
	<path class="st3" d="M82.4,71.5c0.1,0,0.3-0.1,0.3-0.3c0-0.1-0.1-0.3-0.3-0.3c-0.1,0-0.3,0.1-0.3,0.3
		C82.2,71.4,82.3,71.5,82.4,71.5z"/>
	<path class="st3" d="M83.2,61.9c0.1,0,0.3-0.1,0.3-0.3c0-0.1-0.1-0.3-0.3-0.3c-0.1,0-0.3,0.1-0.3,0.3
		C82.9,61.8,83.1,61.9,83.2,61.9z"/>
	<path class="st3" d="M84.5,52.3c0.2,0,0.3-0.2,0.3-0.3c0-0.2-0.2-0.3-0.3-0.3c-0.2,0-0.3,0.1-0.3,0.3
		C84.2,52.1,84.3,52.3,84.5,52.3z"/>
	<path class="st3" d="M86.4,42.4c0.1,0,0.3-0.1,0.3-0.3c0-0.1-0.1-0.3-0.3-0.3c-0.1,0-0.3,0.1-0.3,0.3
		C86.1,42.3,86.3,42.4,86.4,42.4z"/>
	<path class="st3" d="M88.9,32.7c0.2,0,0.4-0.2,0.4-0.4c0-0.2-0.2-0.4-0.4-0.4c-0.2,0-0.4,0.2-0.4,0.4
		C88.5,32.5,88.7,32.7,88.9,32.7z"/>
	<path class="st3" d="M92,22.8c0.2,0,0.3-0.1,0.3-0.3c0-0.2-0.1-0.3-0.3-0.3c-0.2,0-0.3,0.1-0.3,0.3C91.6,22.7,91.8,22.8,92,22.8z"
		/>
	<path class="st3" d="M95.7,13.1c0.2,0,0.4-0.2,0.4-0.4c0-0.2-0.2-0.4-0.4-0.4c-0.2,0-0.4,0.2-0.4,0.4C95.3,13,95.5,13.1,95.7,13.1z
		"/>
	<path class="st3" d="M100,3.3c0.1,0,0.2-0.1,0.2-0.2c0-0.1-0.1-0.2-0.2-0.2c-0.1,0-0.2,0.1-0.2,0.2C99.8,3.2,99.9,3.3,100,3.3z"/>
	<path class="st3" d="M117.1,214.4c0.2,0,0.4-0.2,0.4-0.4c0-0.2-0.2-0.4-0.4-0.4c-0.2,0-0.4,0.2-0.4,0.4
		C116.8,214.3,116.9,214.4,117.1,214.4z"/>
	<path class="st3" d="M112.7,208.6c0.2,0,0.4-0.2,0.4-0.4c0-0.2-0.2-0.4-0.4-0.4c-0.2,0-0.4,0.2-0.4,0.4
		C112.4,208.5,112.5,208.6,112.7,208.6z"/>
	<path class="st3" d="M108.5,202.7c0.2,0,0.4-0.2,0.4-0.4c0-0.2-0.2-0.4-0.4-0.4c-0.2,0-0.4,0.2-0.4,0.4
		C108.1,202.5,108.3,202.7,108.5,202.7z"/>
	<path class="st3" d="M104.5,196.5c0.2,0,0.4-0.2,0.4-0.4c0-0.2-0.2-0.4-0.4-0.4c-0.2,0-0.4,0.2-0.4,0.4
		C104.1,196.3,104.3,196.5,104.5,196.5z"/>
	<path class="st3" d="M100.6,190.1c0.2,0,0.4-0.2,0.4-0.4c0-0.2-0.2-0.4-0.4-0.4c-0.2,0-0.4,0.2-0.4,0.4
		C100.3,190,100.4,190.1,100.6,190.1z"/>
	<path class="st3" d="M97,183.6c0.2,0,0.4-0.2,0.4-0.4c0-0.2-0.2-0.4-0.4-0.4c-0.2,0-0.4,0.2-0.4,0.4
		C96.6,183.4,96.8,183.6,97,183.6z"/>
	<path class="st3" d="M93.5,176.9c0.2,0,0.4-0.2,0.4-0.4c0-0.2-0.2-0.4-0.4-0.4c-0.2,0-0.4,0.2-0.4,0.4
		C93.1,176.7,93.3,176.9,93.5,176.9z"/>
	<path class="st3" d="M90.3,170c0.2,0,0.4-0.2,0.4-0.4c0-0.2-0.2-0.4-0.4-0.4c-0.2,0-0.4,0.2-0.4,0.4C89.9,169.8,90.1,170,90.3,170z
		"/>
	<path class="st3" d="M87.2,163.1c0.3,0,0.6-0.3,0.6-0.6c0-0.3-0.3-0.6-0.6-0.6c-0.3,0-0.6,0.3-0.6,0.6
		C86.7,162.8,86.9,163.1,87.2,163.1z"/>
	<path class="st3" d="M84.4,155.7c0.3,0,0.5-0.2,0.5-0.5c0-0.3-0.2-0.5-0.5-0.5c-0.3,0-0.5,0.2-0.5,0.5
		C83.9,155.5,84.1,155.7,84.4,155.7z"/>
	<path class="st3" d="M81.8,148.1c0.2,0,0.4-0.2,0.4-0.4c0-0.2-0.2-0.4-0.4-0.4c-0.2,0-0.4,0.2-0.4,0.4
		C81.5,147.9,81.6,148.1,81.8,148.1z"/>
	<path class="st3" d="M79.5,140.4c0.2,0,0.4-0.2,0.4-0.4c0-0.2-0.2-0.4-0.4-0.4c-0.2,0-0.4,0.2-0.4,0.4
		C79.1,140.2,79.3,140.4,79.5,140.4z"/>
	<path class="st3" d="M77.5,132.4c0.1,0,0.3-0.1,0.3-0.3c0-0.1-0.1-0.3-0.3-0.3c-0.1,0-0.3,0.1-0.3,0.3
		C77.2,132.2,77.3,132.4,77.5,132.4z"/>
	<path class="st3" d="M75.7,124.3c0.2,0,0.3-0.2,0.3-0.3c0-0.2-0.1-0.3-0.3-0.3c-0.2,0-0.3,0.1-0.3,0.3
		C75.4,124.2,75.5,124.3,75.7,124.3z"/>
	<path class="st3" d="M74.2,115.9c0.1,0,0.2-0.1,0.2-0.2c0-0.1-0.1-0.2-0.2-0.2c-0.1,0-0.2,0.1-0.2,0.2
		C74,115.8,74.1,115.9,74.2,115.9z"/>
	<path class="st3" d="M73.1,107.5c0.1,0,0.2-0.1,0.2-0.2c0-0.1-0.1-0.2-0.2-0.2c-0.1,0-0.2,0.1-0.2,0.2
		C72.9,107.4,73,107.5,73.1,107.5z"/>
	<path class="st3" d="M72.3,98.8c0.1,0,0.2-0.1,0.2-0.2c0-0.1-0.1-0.2-0.2-0.2c-0.1,0-0.2,0.1-0.2,0.2
		C72.1,98.7,72.2,98.8,72.3,98.8z"/>
	<path class="st3" d="M71.9,90c0.1,0,0.2-0.1,0.2-0.2c0-0.1-0.1-0.2-0.2-0.2c-0.1,0-0.2,0.1-0.2,0.2C71.7,89.9,71.8,90,71.9,90z"/>
	<path class="st3" d="M71.9,81.3c0.2,0,0.4-0.2,0.4-0.4c0-0.2-0.2-0.4-0.4-0.4c-0.2,0-0.4,0.2-0.4,0.4
		C71.5,81.1,71.7,81.3,71.9,81.3z"/>
	<path class="st3" d="M72.3,72.1c0.1,0,0.3-0.1,0.3-0.3c0-0.1-0.1-0.3-0.3-0.3c-0.1,0-0.3,0.1-0.3,0.3C72,71.9,72.1,72.1,72.3,72.1z
		"/>
	<path class="st3" d="M73.1,62.9c0.1,0,0.3-0.1,0.3-0.3c0-0.1-0.1-0.3-0.3-0.3c-0.1,0-0.3,0.1-0.3,0.3C72.8,62.7,73,62.9,73.1,62.9z
		"/>
	<path class="st3" d="M74.4,53.6c0.1,0,0.3-0.1,0.3-0.3c0-0.1-0.1-0.3-0.3-0.3c-0.1,0-0.3,0.1-0.3,0.3
		C74.1,53.5,74.2,53.6,74.4,53.6z"/>
	<path class="st3" d="M76.2,44.2c0.1,0,0.3-0.1,0.3-0.3c0-0.1-0.1-0.3-0.3-0.3c-0.1,0-0.3,0.1-0.3,0.3C75.9,44.1,76,44.2,76.2,44.2z
		"/>
	<path class="st3" d="M78.4,34.8c0.1,0,0.2-0.1,0.2-0.2c0-0.1-0.1-0.2-0.2-0.2c-0.1,0-0.2,0.1-0.2,0.2
		C78.2,34.7,78.3,34.8,78.4,34.8z"/>
	<path class="st3" d="M81.2,25.4c0.1,0,0.2-0.1,0.2-0.2c0-0.1-0.1-0.2-0.2-0.2c-0.1,0-0.2,0.1-0.2,0.2C81,25.3,81.1,25.4,81.2,25.4z
		"/>
	<path class="st3" d="M84.5,15.9C84.6,15.9,84.6,15.9,84.5,15.9c0.1-0.1,0-0.1,0-0.1C84.5,15.7,84.5,15.8,84.5,15.9
		C84.5,15.9,84.5,15.9,84.5,15.9z"/>
	<path class="st3" d="M88.4,6.6C88.4,6.6,88.5,6.6,88.4,6.6c0.1-0.1,0-0.1,0-0.1C88.4,6.5,88.3,6.5,88.4,6.6
		C88.3,6.6,88.4,6.6,88.4,6.6z"/>
	<path class="st3" d="M102.9,216.9c0.2,0,0.5-0.2,0.5-0.5c0-0.3-0.2-0.5-0.5-0.5c-0.3,0-0.5,0.2-0.5,0.5
		C102.5,216.7,102.7,216.9,102.9,216.9z"/>
	<path class="st3" d="M98.6,210.7c0.2,0,0.4-0.2,0.4-0.4c0-0.2-0.2-0.4-0.4-0.4c-0.2,0-0.4,0.2-0.4,0.4
		C98.2,210.5,98.4,210.7,98.6,210.7z"/>
	<path class="st3" d="M94.5,204.3c0.2,0,0.4-0.2,0.4-0.4c0-0.2-0.2-0.4-0.4-0.4c-0.2,0-0.4,0.2-0.4,0.4
		C94.1,204.2,94.3,204.3,94.5,204.3z"/>
	<path class="st3" d="M90.6,197.8c0.2,0,0.4-0.2,0.4-0.4c0-0.2-0.2-0.4-0.4-0.4c-0.2,0-0.4,0.2-0.4,0.4
		C90.2,197.7,90.4,197.8,90.6,197.8z"/>
	<path class="st3" d="M86.9,191.2c0.3,0,0.5-0.2,0.5-0.5c0-0.3-0.2-0.5-0.5-0.5c-0.3,0-0.5,0.2-0.5,0.5
		C86.4,191,86.6,191.2,86.9,191.2z"/>
	<path class="st3" d="M83.4,184.4c0.3,0,0.5-0.2,0.5-0.5c0-0.3-0.2-0.5-0.5-0.5c-0.3,0-0.5,0.2-0.5,0.5
		C83,184.2,83.2,184.4,83.4,184.4z"/>
	<path class="st3" d="M80.1,177.3c0.2,0,0.4-0.2,0.4-0.4c0-0.2-0.2-0.4-0.4-0.4c-0.2,0-0.4,0.2-0.4,0.4
		C79.8,177.2,79.9,177.3,80.1,177.3z"/>
	<path class="st3" d="M77.1,170.2c0.2,0,0.4-0.2,0.4-0.4c0-0.2-0.2-0.4-0.4-0.4c-0.2,0-0.4,0.2-0.4,0.4
		C76.7,170,76.9,170.2,77.1,170.2z"/>
	<path class="st3" d="M74.3,162.9c0.2,0,0.4-0.2,0.4-0.4c0-0.2-0.2-0.4-0.4-0.4c-0.2,0-0.4,0.2-0.4,0.4
		C73.9,162.7,74.1,162.9,74.3,162.9z"/>
	<path class="st3" d="M71.7,155.4c0.2,0,0.4-0.2,0.4-0.4c0-0.2-0.2-0.4-0.4-0.4c-0.2,0-0.4,0.2-0.4,0.4
		C71.3,155.2,71.5,155.4,71.7,155.4z"/>
	<path class="st3" d="M69.4,147.7c0.2,0,0.4-0.2,0.4-0.4s-0.2-0.4-0.4-0.4c-0.2,0-0.4,0.2-0.4,0.4S69.2,147.7,69.4,147.7z"/>
	<path class="st3" d="M67.3,139.9c0.2,0,0.3-0.1,0.3-0.3c0-0.2-0.1-0.3-0.3-0.3c-0.2,0-0.3,0.2-0.3,0.3
		C67,139.8,67.2,139.9,67.3,139.9z"/>
	<path class="st3" d="M65.6,131.8c0.1,0,0.2-0.1,0.2-0.2c0-0.1-0.1-0.2-0.2-0.2s-0.2,0.1-0.2,0.2C65.4,131.7,65.5,131.8,65.6,131.8z
		"/>
	<path class="st3" d="M64.1,123.7c0.1,0,0.2-0.1,0.2-0.2c0-0.1-0.1-0.2-0.2-0.2c-0.1,0-0.2,0.1-0.2,0.2
		C63.9,123.6,63.9,123.7,64.1,123.7z"/>
	<path class="st3" d="M62.8,115.5c0.1,0,0.2-0.1,0.2-0.2s-0.1-0.2-0.2-0.2c-0.1,0-0.2,0.1-0.2,0.2S62.7,115.5,62.8,115.5z"/>
	<path class="st3" d="M61.9,107.1c0.1,0,0.2-0.1,0.2-0.2c0-0.1-0.1-0.2-0.2-0.2c-0.1,0-0.2,0.1-0.2,0.2
		C61.8,107,61.8,107.1,61.9,107.1z"/>
	<path class="st3" d="M61.4,98.6c0.1,0,0.2-0.1,0.2-0.2c0-0.1-0.1-0.2-0.2-0.2c-0.1,0-0.2,0.1-0.2,0.2
		C61.2,98.5,61.3,98.6,61.4,98.6z"/>
	<path class="st3" d="M61.1,90c0.1,0,0.2-0.1,0.2-0.2c0-0.1-0.1-0.2-0.2-0.2c-0.1,0-0.2,0.1-0.2,0.2C60.9,89.9,61,90,61.1,90z"/>
	<path class="st3" d="M61.3,81.2c0.1,0,0.2-0.1,0.2-0.2c0-0.1-0.1-0.2-0.2-0.2c-0.1,0-0.2,0.1-0.2,0.2
		C61.1,81.1,61.2,81.2,61.3,81.2z"/>
	<path class="st3" d="M61.8,72.4c0.1,0,0.2-0.1,0.2-0.2S61.9,72,61.8,72c-0.1,0-0.2,0.1-0.2,0.2S61.6,72.4,61.8,72.4z"/>
	<path class="st3" d="M62.6,63.5c0.1,0,0.2-0.1,0.2-0.2c0-0.1-0.1-0.2-0.2-0.2c-0.1,0-0.2,0.1-0.2,0.2
		C62.4,63.4,62.5,63.5,62.6,63.5z"/>
	<path class="st3" d="M63.9,54.5c0.1,0,0.2-0.1,0.2-0.2c0-0.1-0.1-0.2-0.2-0.2c-0.1,0-0.2,0.1-0.2,0.2
		C63.7,54.4,63.8,54.5,63.9,54.5z"/>
	<path class="st3" d="M65.6,45.4c0.1,0,0.2-0.1,0.2-0.2c0-0.1-0.1-0.2-0.2-0.2s-0.2,0.1-0.2,0.2C65.4,45.3,65.5,45.4,65.6,45.4z"/>
	<path class="st3" d="M67.8,36.3c0.1,0,0.1-0.1,0.1-0.1c0-0.1-0.1-0.1-0.1-0.1c-0.1,0-0.1,0.1-0.1,0.1
		C67.7,36.2,67.7,36.3,67.8,36.3z"/>
	<path class="st3" d="M70.4,27.3c0.1,0,0.2-0.1,0.2-0.2c0-0.1-0.1-0.2-0.2-0.2c-0.1,0-0.2,0.1-0.2,0.2
		C70.2,27.2,70.3,27.3,70.4,27.3z"/>
	<path class="st3" d="M73.4,18.1C73.5,18.1,73.5,18.1,73.4,18.1c0.1-0.1,0-0.1,0-0.1C73.4,18,73.3,18,73.4,18.1
		C73.3,18.1,73.4,18.1,73.4,18.1z"/>
	<path class="st3" d="M80.9,0.3c0.1,0,0.2-0.1,0.2-0.2c0-0.1-0.1-0.2-0.2-0.2S80.7,0,80.7,0.1C80.7,0.2,80.8,0.3,80.9,0.3z"/>
	<path class="st3" d="M85.7,213.5c0.2,0,0.4-0.2,0.4-0.4c0-0.2-0.2-0.4-0.4-0.4c-0.2,0-0.4,0.2-0.4,0.4
		C85.4,213.3,85.5,213.5,85.7,213.5z"/>
	<path class="st3" d="M81.7,206.7c0.1,0,0.3-0.1,0.3-0.3c0-0.1-0.1-0.3-0.3-0.3c-0.1,0-0.3,0.1-0.3,0.3
		C81.4,206.6,81.5,206.7,81.7,206.7z"/>
	<path class="st3" d="M77.8,199.9c0.1,0,0.3-0.1,0.3-0.3c0-0.1-0.1-0.3-0.3-0.3c-0.1,0-0.3,0.1-0.3,0.3
		C77.5,199.8,77.7,199.9,77.8,199.9z"/>
	<path class="st3" d="M74.2,193.1c0.2,0,0.4-0.2,0.4-0.4c0-0.2-0.2-0.4-0.4-0.4c-0.2,0-0.4,0.2-0.4,0.4
		C73.8,192.9,74,193.1,74.2,193.1z"/>
	<path class="st3" d="M70.8,186c0.2,0,0.4-0.2,0.4-0.4c0-0.2-0.2-0.4-0.4-0.4c-0.2,0-0.4,0.2-0.4,0.4C70.4,185.8,70.6,186,70.8,186z
		"/>
	<path class="st3" d="M67.6,178.7c0.2,0,0.4-0.2,0.4-0.4c0-0.2-0.2-0.4-0.4-0.4c-0.2,0-0.4,0.2-0.4,0.4
		C67.2,178.6,67.4,178.7,67.6,178.7z"/>
	<path class="st3" d="M64.7,171.4c0.3,0,0.5-0.2,0.5-0.5c0-0.3-0.2-0.5-0.5-0.5c-0.3,0-0.5,0.2-0.5,0.5
		C64.2,171.2,64.4,171.4,64.7,171.4z"/>
	<path class="st3" d="M62,163.8c0.2,0,0.4-0.2,0.4-0.4c0-0.2-0.2-0.4-0.4-0.4c-0.2,0-0.4,0.2-0.4,0.4
		C61.6,163.7,61.8,163.8,62,163.8z"/>
	<path class="st3" d="M59.6,156.1c0.1,0,0.3-0.1,0.3-0.3c0-0.1-0.1-0.3-0.3-0.3c-0.1,0-0.3,0.1-0.3,0.3
		C59.3,156,59.5,156.1,59.6,156.1z"/>
	<path class="st3" d="M57.4,148.2c0.1,0,0.2-0.1,0.2-0.2c0-0.1-0.1-0.2-0.2-0.2c-0.1,0-0.2,0.1-0.2,0.2
		C57.3,148.1,57.3,148.2,57.4,148.2z"/>
	<path class="st3" d="M55.5,140.3c0.1,0,0.2-0.1,0.2-0.2c0-0.1-0.1-0.2-0.2-0.2c-0.1,0-0.2,0.1-0.2,0.2
		C55.4,140.2,55.4,140.3,55.5,140.3z"/>
	<path class="st3" d="M53.9,132.3c0.1,0,0.2-0.1,0.2-0.2c0-0.1-0.1-0.2-0.2-0.2c-0.1,0-0.2,0.1-0.2,0.2
		C53.7,132.2,53.8,132.3,53.9,132.3z"/>
	<path class="st3" d="M52.6,124.2c0.1,0,0.2-0.1,0.2-0.2c0-0.1-0.1-0.2-0.2-0.2c-0.1,0-0.2,0.1-0.2,0.2
		C52.4,124.1,52.5,124.2,52.6,124.2z"/>
	<path class="st3" d="M51.5,115.9c0.1,0,0.2-0.1,0.2-0.2c0-0.1-0.1-0.2-0.2-0.2c-0.1,0-0.2,0.1-0.2,0.2
		C51.3,115.8,51.4,115.9,51.5,115.9z"/>
	<path class="st3" d="M50.8,107.5c0.1,0,0.2-0.1,0.2-0.2c0-0.1-0.1-0.2-0.2-0.2c-0.1,0-0.2,0.1-0.2,0.2
		C50.6,107.4,50.7,107.5,50.8,107.5z"/>
	<path class="st3" d="M50.3,99.1c0.1,0,0.2-0.1,0.2-0.2c0-0.1-0.1-0.2-0.2-0.2c-0.1,0-0.2,0.1-0.2,0.2C50.1,99,50.2,99.1,50.3,99.1z
		"/>
	<path class="st3" d="M50.2,90.5c0.1,0,0.2-0.1,0.2-0.2c0-0.1-0.1-0.2-0.2-0.2c-0.1,0-0.2,0.1-0.2,0.2C50,90.4,50.1,90.5,50.2,90.5z
		"/>
	<path class="st3" d="M50.4,81.9c0.1,0,0.2-0.1,0.2-0.2c0-0.1-0.1-0.2-0.2-0.2c-0.1,0-0.2,0.1-0.2,0.2
		C50.2,81.8,50.3,81.9,50.4,81.9z"/>
	<path class="st3" d="M51,73.2c0.1,0,0.2-0.1,0.2-0.2c0-0.1-0.1-0.2-0.2-0.2c-0.1,0-0.2,0.1-0.2,0.2C50.8,73.1,50.9,73.2,51,73.2z"
		/>
	<path class="st3" d="M51.9,64.4c0.1,0,0.2-0.1,0.2-0.2c0-0.1-0.1-0.2-0.2-0.2c-0.1,0-0.2,0.1-0.2,0.2
		C51.7,64.3,51.8,64.4,51.9,64.4z"/>
	<path class="st3" d="M53.1,55.6c0.1,0,0.2-0.1,0.2-0.2c0-0.1-0.1-0.2-0.2-0.2c-0.1,0-0.2,0.1-0.2,0.2C53,55.5,53,55.6,53.1,55.6z"
		/>
	<path class="st3" d="M54.8,46.7c0.1,0,0.2-0.1,0.2-0.2c0-0.1-0.1-0.2-0.2-0.2c-0.1,0-0.2,0.1-0.2,0.2
		C54.6,46.7,54.7,46.7,54.8,46.7z"/>
	<path class="st3" d="M56.8,37.8c0.1,0,0.1-0.1,0.1-0.1c0-0.1-0.1-0.1-0.1-0.1c-0.1,0-0.1,0.1-0.1,0.1
		C56.7,37.8,56.8,37.8,56.8,37.8z"/>
	<path class="st3" d="M62.1,20.1c0.1,0,0.1-0.1,0.1-0.1c0-0.1-0.1-0.1-0.1-0.1c-0.1,0-0.1,0.1-0.1,0.1C62,20.1,62.1,20.1,62.1,20.1z
		"/>
	<path class="st3" d="M74,217.1c0.1,0,0.2-0.1,0.2-0.2c0-0.1-0.1-0.2-0.2-0.2c-0.1,0-0.2,0.1-0.2,0.2C73.8,217,73.9,217.1,74,217.1z
		"/>
	<path class="st3" d="M69.9,210.2c0.1,0,0.2-0.1,0.2-0.2c0-0.1-0.1-0.2-0.2-0.2c-0.1,0-0.2,0.1-0.2,0.2
		C69.7,210.1,69.8,210.2,69.9,210.2z"/>
	<path class="st3" d="M66.1,203.1c0.1,0,0.2-0.1,0.2-0.2c0-0.1-0.1-0.2-0.2-0.2c-0.1,0-0.2,0.1-0.2,0.2
		C65.9,203,66,203.1,66.1,203.1z"/>
	<path class="st3" d="M62.4,195.9c0.1,0,0.2-0.1,0.2-0.2c0-0.1-0.1-0.2-0.2-0.2c-0.1,0-0.2,0.1-0.2,0.2
		C62.3,195.8,62.3,195.9,62.4,195.9z"/>
	<path class="st3" d="M59.1,188.6c0.1,0,0.2-0.1,0.2-0.2c0-0.1-0.1-0.2-0.2-0.2c-0.1,0-0.2,0.1-0.2,0.2
		C58.9,188.5,59,188.6,59.1,188.6z"/>
	<path class="st3" d="M55.9,181.1c0.1,0,0.2-0.1,0.2-0.2c0-0.1-0.1-0.2-0.2-0.2c-0.1,0-0.2,0.1-0.2,0.2
		C55.7,181.1,55.8,181.1,55.9,181.1z"/>
	<path class="st3" d="M53.1,173.6c0.1,0,0.3-0.1,0.3-0.3c0-0.1-0.1-0.3-0.3-0.3c-0.1,0-0.3,0.1-0.3,0.3
		C52.8,173.5,52.9,173.6,53.1,173.6z"/>
	<path class="st3" d="M50.4,165.9c0.1,0,0.3-0.1,0.3-0.3c0-0.1-0.1-0.3-0.3-0.3c-0.1,0-0.3,0.1-0.3,0.3
		C50.2,165.8,50.3,165.9,50.4,165.9z"/>
	<path class="st3" d="M48.1,158.1c0.1,0,0.2-0.1,0.2-0.2c0-0.1-0.1-0.2-0.2-0.2c-0.1,0-0.2,0.1-0.2,0.2
		C47.9,158,48,158.1,48.1,158.1z"/>
	<path class="st3" d="M46,150.1c0.1,0,0.2-0.1,0.2-0.2c0-0.1-0.1-0.2-0.2-0.2c-0.1,0-0.2,0.1-0.2,0.2C45.8,150,45.9,150.1,46,150.1z
		"/>
	<path class="st3" d="M44.2,142.1c0.1,0,0.2-0.1,0.2-0.2c0-0.1-0.1-0.2-0.2-0.2c-0.1,0-0.2,0.1-0.2,0.2C44,142,44,142.1,44.2,142.1z
		"/>
	<path class="st3" d="M42.6,134c0.1,0,0.2-0.1,0.2-0.2c0-0.1-0.1-0.2-0.2-0.2c-0.1,0-0.2,0.1-0.2,0.2C42.4,133.9,42.5,134,42.6,134z
		"/>
	<path class="st3" d="M41.3,125.7c0.1,0,0.2-0.1,0.2-0.2c0-0.1-0.1-0.2-0.2-0.2c-0.1,0-0.2,0.1-0.2,0.2
		C41.1,125.6,41.2,125.7,41.3,125.7z"/>
	<path class="st3" d="M40.3,117.4c0.1,0,0.2-0.1,0.2-0.2c0-0.1-0.1-0.2-0.2-0.2c-0.1,0-0.2,0.1-0.2,0.2
		C40.2,117.3,40.2,117.4,40.3,117.4z"/>
	<path class="st3" d="M39.7,109c0.1,0,0.2-0.1,0.2-0.2c0-0.1-0.1-0.2-0.2-0.2c-0.1,0-0.2,0.1-0.2,0.2C39.5,108.9,39.5,109,39.7,109z
		"/>
	<path class="st3" d="M39.3,100.5c0.1,0,0.2-0.1,0.2-0.2c0-0.1-0.1-0.2-0.2-0.2c-0.1,0-0.2,0.1-0.2,0.2
		C39.1,100.5,39.2,100.5,39.3,100.5z"/>
	<circle class="st3" cx="39.2" cy="91.8" r="0.2"/>
	<path class="st3" d="M39.4,83.4c0.1,0,0.2-0.1,0.2-0.2c0-0.1-0.1-0.2-0.2-0.2c-0.1,0-0.2,0.1-0.2,0.2
		C39.2,83.3,39.3,83.4,39.4,83.4z"/>
	<path class="st3" d="M40,74.8c0.1,0,0.3-0.1,0.3-0.3c0-0.1-0.1-0.3-0.3-0.3c-0.1,0-0.3,0.1-0.3,0.3C39.7,74.7,39.8,74.8,40,74.8z"
		/>
	<path class="st3" d="M40.9,66.1c0.1,0,0.3-0.1,0.3-0.3c0-0.1-0.1-0.3-0.3-0.3c-0.1,0-0.3,0.1-0.3,0.3C40.6,66,40.7,66.1,40.9,66.1z
		"/>
	<path class="st3" d="M42.1,57.4c0.1,0,0.3-0.1,0.3-0.3c0-0.1-0.1-0.3-0.3-0.3c-0.1,0-0.3,0.1-0.3,0.3C41.8,57.3,42,57.4,42.1,57.4z
		"/>
	<path class="st3" d="M43.7,48.6c0.1,0,0.2-0.1,0.2-0.2c0-0.1-0.1-0.2-0.2-0.2c-0.1,0-0.2,0.1-0.2,0.2
		C43.5,48.5,43.6,48.6,43.7,48.6z"/>
	<path class="st3" d="M45.6,39.9c0.1,0,0.2-0.1,0.2-0.2c0-0.1-0.1-0.2-0.2-0.2c-0.1,0-0.2,0.1-0.2,0.2
		C45.4,39.8,45.5,39.9,45.6,39.9z"/>
	<circle class="st3" cx="47.9" cy="31" r="0.1"/>
	<path class="st3" d="M50.6,22.4c0.1,0,0.1-0.1,0.1-0.1c0-0.1-0.1-0.1-0.1-0.1c-0.1,0-0.1,0.1-0.1,0.1
		C50.4,22.3,50.5,22.4,50.6,22.4z"/>
	<path class="st3" d="M63.4,221.9c0.1,0,0.2-0.1,0.2-0.2c0-0.1-0.1-0.2-0.2-0.2c-0.1,0-0.2,0.1-0.2,0.2
		C63.2,221.9,63.3,221.9,63.4,221.9z"/>
	<path class="st3" d="M59.2,214.9c0.1,0,0.3-0.1,0.3-0.3c0-0.1-0.1-0.3-0.3-0.3c-0.1,0-0.3,0.1-0.3,0.3
		C59,214.8,59.1,214.9,59.2,214.9z"/>
	<path class="st3" d="M55.3,207.7c0.2,0,0.3-0.1,0.3-0.3c0-0.2-0.1-0.3-0.3-0.3c-0.2,0-0.3,0.1-0.3,0.3
		C55,207.6,55.1,207.7,55.3,207.7z"/>
	<path class="st3" d="M51.6,200.2c0.1,0,0.2-0.1,0.2-0.2c0-0.1-0.1-0.2-0.2-0.2c-0.1,0-0.2,0.1-0.2,0.2
		C51.5,200.1,51.5,200.2,51.6,200.2z"/>
	<path class="st3" d="M48.2,192.7c0.1,0,0.2-0.1,0.2-0.2c0-0.1-0.1-0.2-0.2-0.2c-0.1,0-0.2,0.1-0.2,0.2
		C48,192.6,48.1,192.7,48.2,192.7z"/>
	<path class="st3" d="M45.1,185.1c0.1,0,0.3-0.1,0.3-0.3c0-0.1-0.1-0.3-0.3-0.3c-0.1,0-0.3,0.1-0.3,0.3
		C44.8,185,44.9,185.1,45.1,185.1z"/>
	<path class="st3" d="M42.2,177.2C42.2,177.2,42.2,177.1,42.2,177.2c0.1-0.1,0-0.1,0-0.1C42.1,177,42.1,177,42.2,177.2
		C42.1,177.1,42.1,177.2,42.2,177.2z"/>
	<path class="st3" d="M39.5,169.3C39.6,169.3,39.6,169.3,39.5,169.3c0.1-0.1,0-0.1,0-0.1C39.5,169.1,39.5,169.2,39.5,169.3
		C39.5,169.3,39.5,169.3,39.5,169.3z"/>
	<path class="st3" d="M30.4,128.5C30.4,128.5,30.4,128.5,30.4,128.5c0.1-0.1,0-0.1,0-0.1C30.3,128.4,30.3,128.4,30.4,128.5
		C30.3,128.5,30.3,128.5,30.4,128.5z"/>
	<path class="st3" d="M29.4,120.3c0.1,0,0.2-0.1,0.2-0.2c0-0.1-0.1-0.2-0.2-0.2c-0.1,0-0.2,0.1-0.2,0.2
		C29.2,120.2,29.3,120.3,29.4,120.3z"/>
	<path class="st3" d="M28.7,111.8c0.1,0,0.2-0.1,0.2-0.2c0-0.1-0.1-0.2-0.2-0.2c-0.1,0-0.2,0.1-0.2,0.2
		C28.5,111.7,28.6,111.8,28.7,111.8z"/>
	<path class="st3" d="M28.3,103.3c0.1,0,0.2-0.1,0.2-0.2c0-0.1-0.1-0.2-0.2-0.2c-0.1,0-0.2,0.1-0.2,0.2
		C28.1,103.2,28.2,103.3,28.3,103.3z"/>
	<path class="st3" d="M28.2,94.7c0.1,0,0.2-0.1,0.2-0.2c0-0.1-0.1-0.2-0.2-0.2c-0.1,0-0.2,0.1-0.2,0.2C28,94.6,28.1,94.7,28.2,94.7z
		"/>
	<path class="st3" d="M28.4,86.1c0.1,0,0.2-0.1,0.2-0.2c0-0.1-0.1-0.2-0.2-0.2c-0.1,0-0.2,0.1-0.2,0.2C28.2,86,28.3,86.1,28.4,86.1z
		"/>
	<path class="st3" d="M28.9,77.4c0.1,0,0.2-0.1,0.2-0.2c0-0.1-0.1-0.2-0.2-0.2c-0.1,0-0.2,0.1-0.2,0.2
		C28.7,77.4,28.8,77.4,28.9,77.4z"/>
	<path class="st3" d="M29.7,68.8c0.1,0,0.2-0.1,0.2-0.2c0-0.1-0.1-0.2-0.2-0.2c-0.1,0-0.2,0.1-0.2,0.2
		C29.5,68.7,29.6,68.8,29.7,68.8z"/>
	<path class="st3" d="M30.8,60.3c0.2,0,0.4-0.2,0.4-0.4c0-0.2-0.2-0.4-0.4-0.4c-0.2,0-0.4,0.2-0.4,0.4
		C30.4,60.1,30.6,60.3,30.8,60.3z"/>
	<path class="st3" d="M32.3,51.5c0.2,0,0.3-0.2,0.3-0.3c0-0.2-0.1-0.3-0.3-0.3c-0.2,0-0.3,0.1-0.3,0.3C32,51.4,32.1,51.5,32.3,51.5z
		"/>
	<path class="st3" d="M34.1,42.7c0.1,0,0.2-0.1,0.2-0.2c0-0.1-0.1-0.2-0.2-0.2c-0.1,0-0.2,0.1-0.2,0.2C33.9,42.6,34,42.7,34.1,42.7z
		"/>
	<path class="st3" d="M36.2,34c0.1,0,0.2-0.1,0.2-0.2c0-0.1-0.1-0.2-0.2-0.2c-0.1,0-0.2,0.1-0.2,0.2C36,33.9,36.1,34,36.2,34z"/>
	<path class="st3" d="M38.7,25.4c0.1,0,0.2-0.1,0.2-0.2c0-0.1-0.1-0.2-0.2-0.2c-0.1,0-0.2,0.1-0.2,0.2
		C38.5,25.3,38.6,25.4,38.7,25.4z"/>
	<path class="st3" d="M58.3,235c0.1,0,0.2-0.1,0.2-0.2c0-0.1-0.1-0.2-0.2-0.2c-0.1,0-0.2,0.1-0.2,0.2C58.1,234.9,58.2,235,58.3,235z
		"/>
	<path class="st3" d="M53.8,227.9c0.1,0,0.2-0.1,0.2-0.2c0-0.1-0.1-0.2-0.2-0.2c-0.1,0-0.2,0.1-0.2,0.2
		C53.6,227.8,53.7,227.9,53.8,227.9z"/>
	<path class="st3" d="M49.5,220.6c0.1,0,0.2-0.1,0.2-0.2c0-0.1-0.1-0.2-0.2-0.2c-0.1,0-0.2,0.1-0.2,0.2
		C49.3,220.6,49.4,220.6,49.5,220.6z"/>
	<path class="st3" d="M45.5,213.4c0.2,0,0.3-0.2,0.3-0.3c0-0.2-0.2-0.3-0.3-0.3c-0.2,0-0.3,0.1-0.3,0.3
		C45.2,213.2,45.3,213.4,45.5,213.4z"/>
	<path class="st3" d="M41.7,205.8c0.2,0,0.3-0.1,0.3-0.3c0-0.2-0.1-0.3-0.3-0.3c-0.2,0-0.3,0.2-0.3,0.3
		C41.4,205.7,41.5,205.8,41.7,205.8z"/>
	<path class="st3" d="M38.2,198c0.1,0,0.2-0.1,0.2-0.2c0-0.1-0.1-0.2-0.2-0.2c-0.1,0-0.2,0.1-0.2,0.2C38,197.9,38.1,198,38.2,198z"
		/>
	<path class="st3" d="M35,190.3c0.1,0,0.3-0.1,0.3-0.3s-0.1-0.3-0.3-0.3c-0.1,0-0.3,0.1-0.3,0.3S34.8,190.3,35,190.3z"/>
	<path class="st3" d="M32,182.2C32,182.2,32.1,182.2,32,182.2c0.1-0.1,0-0.1,0-0.1C31.9,182.1,31.9,182.1,32,182.2
		C31.9,182.2,31.9,182.2,32,182.2z"/>
	<path class="st3" d="M17.3,90C17.3,90,17.4,89.9,17.3,90c0.1-0.1,0-0.1,0-0.1C17.3,89.8,17.2,89.8,17.3,90
		C17.2,89.9,17.3,90,17.3,90z"/>
	<path class="st3" d="M17.7,81.4c0.1,0,0.2-0.1,0.2-0.2c0-0.1-0.1-0.2-0.2-0.2c-0.1,0-0.2,0.1-0.2,0.2
		C17.5,81.3,17.6,81.4,17.7,81.4z"/>
	<path class="st3" d="M18.4,72.7c0.1,0,0.2-0.1,0.2-0.2c0-0.1-0.1-0.2-0.2-0.2c-0.1,0-0.2,0.1-0.2,0.2
		C18.2,72.6,18.3,72.7,18.4,72.7z"/>
	<path class="st3" d="M19.4,64c0.1,0,0.3-0.1,0.3-0.3c0-0.1-0.1-0.3-0.3-0.3c-0.1,0-0.3,0.1-0.3,0.3C19.2,63.9,19.3,64,19.4,64z"/>
	<path class="st3" d="M20.7,55.4c0.2,0,0.3-0.2,0.3-0.3c0-0.2-0.1-0.3-0.3-0.3c-0.2,0-0.3,0.2-0.3,0.3
		C20.4,55.3,20.6,55.4,20.7,55.4z"/>
	<path class="st3" d="M22.4,46.7c0.2,0,0.3-0.2,0.3-0.3c0-0.2-0.1-0.3-0.3-0.3c-0.2,0-0.3,0.1-0.3,0.3C22,46.6,22.2,46.7,22.4,46.7z
		"/>
	<circle class="st3" cx="24.3" cy="37.7" r="0.3"/>
	<path class="st3" d="M26.6,29.4c0.2,0,0.3-0.1,0.3-0.3c0-0.2-0.1-0.3-0.3-0.3c-0.2,0-0.3,0.2-0.3,0.3
		C26.3,29.2,26.4,29.4,26.6,29.4z"/>
	<path class="st3" d="M29.2,20.5C29.2,20.5,29.3,20.5,29.2,20.5c0.1-0.1,0-0.1,0-0.1C29.2,20.4,29.1,20.4,29.2,20.5
		C29.1,20.5,29.2,20.5,29.2,20.5z"/>
	<path class="st3" d="M45.1,234.8C45.1,234.8,45.2,234.8,45.1,234.8c0.1-0.1,0-0.1,0-0.1C45.1,234.7,45,234.7,45.1,234.8
		C45,234.8,45.1,234.8,45.1,234.8z"/>
	<path class="st3" d="M40.7,227.6c0.1,0,0.3-0.1,0.3-0.3c0-0.1-0.1-0.3-0.3-0.3c-0.1,0-0.3,0.1-0.3,0.3
		C40.4,227.5,40.6,227.6,40.7,227.6z"/>
	<path class="st3" d="M36.5,220.2c0.2,0,0.3-0.1,0.3-0.3c0-0.2-0.1-0.3-0.3-0.3c-0.2,0-0.3,0.2-0.3,0.3
		C36.2,220,36.4,220.2,36.5,220.2z"/>
	<path class="st3" d="M32.7,212.6c0.2,0,0.4-0.2,0.4-0.4c0-0.2-0.2-0.4-0.4-0.4c-0.2,0-0.4,0.2-0.4,0.4
		C32.3,212.4,32.4,212.6,32.7,212.6z"/>
	<path class="st3" d="M29,204.7c0.2,0,0.3-0.2,0.3-0.3c0-0.2-0.2-0.3-0.3-0.3c-0.2,0-0.3,0.1-0.3,0.3
		C28.7,204.6,28.8,204.7,29,204.7z"/>
	<path class="st3" d="M25.6,196.9c0.2,0,0.4-0.2,0.4-0.4c0-0.2-0.2-0.4-0.4-0.4c-0.2,0-0.4,0.2-0.4,0.4
		C25.2,196.7,25.4,196.9,25.6,196.9z"/>
	<path class="st3" d="M9.1,60.3c0.1,0,0.1-0.1,0.1-0.1c0-0.1-0.1-0.1-0.1-0.1C9,60.1,9,60.2,9,60.2C9,60.3,9,60.3,9.1,60.3z"/>
	<path class="st3" d="M10.5,51.8c0.2,0,0.3-0.1,0.3-0.3c0-0.2-0.2-0.3-0.3-0.3c-0.2,0-0.3,0.2-0.3,0.3
		C10.2,51.7,10.4,51.8,10.5,51.8z"/>
	<path class="st3" d="M12.3,43.1c0.2,0,0.4-0.2,0.4-0.4c0-0.2-0.2-0.4-0.4-0.4c-0.2,0-0.4,0.2-0.4,0.4C11.9,43,12.1,43.1,12.3,43.1z
		"/>
	<path class="st3" d="M14.3,34.4c0.2,0,0.3-0.2,0.3-0.3c0-0.2-0.1-0.3-0.3-0.3c-0.2,0-0.3,0.1-0.3,0.3C14,34.3,14.1,34.4,14.3,34.4z
		"/>
	<path class="st3" d="M16.7,25.8c0.2,0,0.4-0.2,0.4-0.4c0-0.2-0.2-0.4-0.4-0.4c-0.2,0-0.4,0.2-0.4,0.4
		C16.3,25.7,16.5,25.8,16.7,25.8z"/>
	<path class="st3" d="M19.3,17.2c0.2,0,0.4-0.2,0.4-0.4c0-0.2-0.2-0.4-0.4-0.4c-0.2,0-0.4,0.2-0.4,0.4C19,17.1,19.1,17.2,19.3,17.2z
		"/>
	<path class="st3" d="M32.7,235.4C32.8,235.4,32.8,235.4,32.7,235.4c0.1-0.1,0-0.1,0-0.1C32.7,235.3,32.7,235.3,32.7,235.4
		C32.7,235.4,32.7,235.4,32.7,235.4z"/>
	<path class="st3" d="M24.4,220.4c0.2,0,0.4-0.2,0.4-0.4c0-0.2-0.2-0.4-0.4-0.4c-0.2,0-0.4,0.2-0.4,0.4
		C24,220.2,24.1,220.4,24.4,220.4z"/>
	<path class="st3" d="M20.6,212.5c0.2,0,0.3-0.2,0.3-0.3c0-0.2-0.1-0.3-0.3-0.3c-0.2,0-0.3,0.1-0.3,0.3
		C20.2,212.3,20.4,212.5,20.6,212.5z"/>
	<path class="st3" d="M17,204.5c0.2,0,0.3-0.2,0.3-0.3c0-0.2-0.1-0.3-0.3-0.3c-0.2,0-0.3,0.1-0.3,0.3
		C16.7,204.4,16.8,204.5,17,204.5z"/>
	<path class="st3" d="M13.7,196.3c0.1,0,0.2-0.1,0.2-0.2c0-0.1-0.1-0.2-0.2-0.2c-0.1,0-0.2,0.1-0.2,0.2
		C13.5,196.2,13.6,196.3,13.7,196.3z"/>
	<path class="st3" d="M0.2,49.3c0.1,0,0.2-0.1,0.2-0.2c0-0.1-0.1-0.2-0.2-0.2C0.1,48.9,0,49,0,49.1C0,49.2,0.1,49.3,0.2,49.3z"/>
	<path class="st3" d="M2,40.7c0.2,0,0.4-0.2,0.4-0.4C2.4,40.1,2.2,40,2,40c-0.2,0-0.4,0.2-0.4,0.4C1.6,40.5,1.8,40.7,2,40.7z"/>
	<path class="st3" d="M4.1,32c0.2,0,0.4-0.2,0.4-0.4c0-0.2-0.2-0.4-0.4-0.4c-0.2,0-0.4,0.2-0.4,0.4C3.7,31.8,3.9,32,4.1,32z"/>
	<path class="st3" d="M6.5,23.3c0.2,0,0.3-0.2,0.3-0.3c0-0.2-0.2-0.3-0.3-0.3c-0.2,0-0.3,0.1-0.3,0.3C6.1,23.2,6.3,23.3,6.5,23.3z"
		/>
	<path class="st3" d="M9.1,14.6c0.1,0,0.2-0.1,0.2-0.2c0-0.1-0.1-0.2-0.2-0.2c-0.1,0-0.2,0.1-0.2,0.2C8.9,14.5,9,14.6,9.1,14.6z"/>
	<path class="st3" d="M12.8,221.1c0.1,0,0.2-0.1,0.2-0.2c0-0.1-0.1-0.2-0.2-0.2c-0.1,0-0.2,0.1-0.2,0.2
		C12.6,221,12.7,221.1,12.8,221.1z"/>
	<path class="st3" d="M9.1,213c0.1,0,0.1-0.1,0.1-0.1c0-0.1-0.1-0.1-0.1-0.1c-0.1,0-0.1,0.1-0.1,0.1C9,213,9,213,9.1,213z"/>
	<path class="st3" d="M5.6,204.9c0.1,0,0.1-0.1,0.1-0.1c0-0.1-0.1-0.1-0.1-0.1c-0.1,0-0.1,0.1-0.1,0.1
		C5.5,204.8,5.6,204.9,5.6,204.9z"/>
	<path class="st3" d="M-4.1,21.7C-4,21.7-4,21.7-4.1,21.7c0.1-0.1,0-0.1,0-0.1C-4.1,21.5-4.1,21.6-4.1,21.7
		C-4.1,21.7-4.1,21.7-4.1,21.7z"/>
</g>
</svg>
