<?xml version="1.0" encoding="utf-8"?>
<!-- Generator: Adobe Illustrator 24.3.0, SVG Export Plug-In . SVG Version: 6.00 Build 0)  -->
<svg version="1.1" id="Layer_1" xmlns="http://www.w3.org/2000/svg" xmlns:xlink="http://www.w3.org/1999/xlink" x="0px" y="0px"
	 viewBox="0 0 179.4 179.4" style="enable-background:new 0 0 179.4 179.4;" xml:space="preserve">
<style type="text/css">
	.st0{fill:#E2E5E7;}
	.st1{fill:#B0B7BD;}
	.st2{fill:#CAD1D8;}
	.st3{fill:#D1BE56;}
	.st4{enable-background:new    ;}
	.st5{fill:#FFFFFF;}
</style>
<g>
	<path id="Path_367" class="st0" d="M44.9,0c-6.2,0-11.2,5-11.2,11.2v157c0,6.2,5,11.2,11.2,11.2H157c6.2,0,11.2-5,11.2-11.2V44.9
		L123.4,0H44.9z"/>
	<path id="Path_368" class="st1" d="M134.6,50.5h33.6L123.4,5.6v33.6C123.4,45.4,128.4,50.4,134.6,50.5z"/>
	<path id="Path_369" class="st2" d="M168.2,80.2l-33.6-33.6h33.6V80.2z"/>
	<path id="Path_370" class="st3" d="M145.8,142.1c0,3.1-2.5,5.6-5.6,5.6H16.8c-3.1,0-5.6-2.5-5.6-5.6V86c0-3.1,2.5-5.6,5.6-5.6
		h123.4c3.1,0,5.6,2.5,5.6,5.6V142.1z"/>
	<path id="Path_374" class="st2" d="M140.2,144.4H33.6v5.6h106.5c3.1,0,5.6-2.5,5.6-5.6v-5.6C145.8,141.9,143.3,144.4,140.2,144.4z"
		/>
	<g class="st4">
		<path class="st5" d="M40.1,106.1c1.3-2.2,3-3.8,5.2-5.1c2.2-1.2,4.6-1.8,7.1-1.8c3,0,5.6,0.7,7.9,2.2c2.3,1.5,4,3.5,5,6.2h-5.5
			c-0.7-1.5-1.7-2.6-3-3.3c-1.3-0.7-2.8-1.1-4.4-1.1c-1.8,0-3.5,0.4-4.9,1.2c-1.4,0.8-2.6,2-3.4,3.6c-0.8,1.5-1.2,3.3-1.2,5.4
			c0,2.1,0.4,3.9,1.2,5.4s1.9,2.7,3.4,3.6c1.4,0.8,3.1,1.3,4.9,1.3c1.7,0,3.2-0.4,4.4-1.1c1.3-0.7,2.3-1.8,3-3.3h5.5
			c-1,2.7-2.7,4.7-5,6.2c-2.3,1.4-4.9,2.2-7.9,2.2c-2.6,0-5-0.6-7.2-1.8c-2.2-1.2-3.9-2.9-5.1-5.1c-1.3-2.2-1.9-4.6-1.9-7.3
			S38.8,108.3,40.1,106.1z"/>
		<path class="st5" d="M74.8,126.7c-1.5-0.7-2.7-1.6-3.5-2.8c-0.9-1.2-1.3-2.6-1.3-4.2h4.9c0.1,1.2,0.6,2.2,1.4,3
			c0.8,0.8,2,1.2,3.5,1.2c1.6,0,2.8-0.4,3.7-1.1s1.3-1.7,1.3-2.9c0-0.9-0.3-1.7-0.8-2.3c-0.5-0.6-1.2-1-2-1.4
			c-0.8-0.3-1.9-0.7-3.4-1c-1.8-0.5-3.3-1-4.4-1.5c-1.1-0.5-2.1-1.3-2.9-2.3c-0.8-1-1.2-2.4-1.2-4.2c0-1.6,0.4-3,1.2-4.2
			c0.8-1.2,1.9-2.1,3.4-2.8c1.4-0.6,3.1-1,5-1c2.7,0,4.9,0.7,6.6,2s2.7,3.2,2.9,5.5h-5c-0.1-1-0.6-1.9-1.4-2.6s-2-1.1-3.5-1.1
			c-1.3,0-2.4,0.3-3.2,1c-0.8,0.7-1.2,1.6-1.2,2.9c0,0.9,0.3,1.6,0.8,2.1s1.2,1,2,1.3s1.9,0.7,3.3,1c1.8,0.5,3.3,1,4.5,1.5
			c1.2,0.5,2.1,1.3,3,2.3s1.2,2.5,1.2,4.2c0,1.4-0.4,2.7-1.1,4c-0.8,1.3-1.9,2.3-3.3,3c-1.5,0.8-3.2,1.1-5.1,1.1
			C77.9,127.7,76.2,127.4,74.8,126.7z"/>
		<path class="st5" d="M118.8,99.6l-10.4,27.8H103L92.5,99.6h4.9l8.2,23.1l8.3-23.1H118.8z"/>
	</g>
</g>
</svg>
