<?xml version="1.0" encoding="utf-8"?>
<!-- Generator: Adobe Illustrator 24.3.0, SVG Export Plug-In . SVG Version: 6.00 Build 0)  -->
<svg version="1.1" id="Component_90_1" xmlns="http://www.w3.org/2000/svg" xmlns:xlink="http://www.w3.org/1999/xlink" x="0px"
	 y="0px" viewBox="0 0 26 26" style="enable-background:new 0 0 26 26;" xml:space="preserve">
<style type="text/css">
	.st0{fill:none;}
	.st1{fill:none;stroke:#707070;stroke-width:0.8;}
	.st2{fill:none;stroke:#707070;stroke-width:0.5;}
</style>
<g id="Rectangle_2416">
	<path class="st0" d="M5,3h16c1.1,0,2,0.9,2,2v8c0,1.1-0.9,2-2,2H5c-1.1,0-2-0.9-2-2V5C3,3.9,3.9,3,5,3z"/>
	<path class="st1" d="M5,3.4h16c0.9,0,1.6,0.7,1.6,1.6v8c0,0.9-0.7,1.6-1.6,1.6H5c-0.9,0-1.6-0.7-1.6-1.6V5C3.4,4.1,4.1,3.4,5,3.4z"
		/>
</g>
<g id="Rectangle_2419" transform="translate(20 14) rotate(90)">
	<path class="st0" d="M5-3h2c1.1,0,2,0.9,2,2v16c0,1.1-0.9,2-2,2H5c-1.1,0-2-0.9-2-2V-1C3-2.1,3.9-3,5-3z"/>
	<path class="st1" d="M5-2.6h2c0.9,0,1.6,0.7,1.6,1.6v16c0,0.9-0.7,1.6-1.6,1.6H5c-0.9,0-1.6-0.7-1.6-1.6V-1C3.4-1.9,4.1-2.6,5-2.6z
		"/>
</g>
<g id="Group_668" transform="translate(9167.109 -2843.941)">
	<g id="Rectangle_2420" transform="translate(-9161.109 2845.941)">
		<path class="st0" d="M4,3h10c0.6,0,1,0.4,1,1v1c0,0.6-0.4,1-1,1H4C3.4,6,3,5.6,3,5V4C3,3.4,3.4,3,4,3z"/>
		<path class="st2" d="M4,3.2h10c0.4,0,0.8,0.3,0.8,0.8v1c0,0.4-0.3,0.8-0.8,0.8H4C3.6,5.8,3.2,5.4,3.2,5V4C3.2,3.6,3.6,3.2,4,3.2z"
			/>
	</g>
	<g id="Rectangle_2421" transform="translate(-9165.109 2845.941)">
		<path class="st0" d="M4,3h1c0.6,0,1,0.4,1,1v1c0,0.6-0.4,1-1,1H4C3.4,6,3,5.6,3,5V4C3,3.4,3.4,3,4,3z"/>
		<path class="st2" d="M4,3.2h1c0.4,0,0.8,0.3,0.8,0.8v1c0,0.4-0.3,0.8-0.8,0.8H4C3.6,5.8,3.2,5.4,3.2,5V4C3.2,3.6,3.6,3.2,4,3.2z"
			/>
	</g>
	<g id="Rectangle_2422" transform="translate(-9165.109 2849.941)">
		<path class="st0" d="M4,3h1c0.6,0,1,0.4,1,1v2c0,0.6-0.4,1-1,1H4C3.4,7,3,6.6,3,6V4C3,3.4,3.4,3,4,3z"/>
		<path class="st2" d="M4,3.2h1c0.4,0,0.8,0.3,0.8,0.8v2c0,0.4-0.3,0.8-0.8,0.8H4C3.6,6.8,3.2,6.4,3.2,6V4C3.2,3.6,3.6,3.2,4,3.2z"
			/>
	</g>
	<g id="Rectangle_2423" transform="translate(-9161.109 2849.941)">
		<path class="st0" d="M4,3h10c0.6,0,1,0.4,1,1v2c0,0.6-0.4,1-1,1H4C3.4,7,3,6.6,3,6V4C3,3.4,3.4,3,4,3z"/>
		<path class="st2" d="M4,3.2h10c0.4,0,0.8,0.3,0.8,0.8v2c0,0.4-0.3,0.8-0.8,0.8H4C3.6,6.8,3.2,6.4,3.2,6V4C3.2,3.6,3.6,3.2,4,3.2z"
			/>
	</g>
</g>
</svg>
