<svg width="290" height="110" viewBox="0 0 290 110" fill="none" xmlns="http://www.w3.org/2000/svg">
<path d="M69.9009 45.44C67.2609 44.16 64.5409 45.6 68.2209 46.48C72.6209 47.52 69.7409 53.12 63.8209 57.76C56.9409 63.12 45.0209 68.64 32.7009 68.64C5.18094 68.64 11.4209 41.76 28.1409 37.12C38.3009 34.24 48.2209 37.84 49.1809 34.64C50.3809 28.96 30.2209 32.96 32.3809 20.4C34.2209 10.16 50.8609 2.56 63.3409 3.76C77.9809 5.27999 69.1009 19.52 61.7409 20.32C58.1409 20.72 57.4209 22.8 61.9809 21.76C78.1409 18.16 82.3009 4 63.6609 1.84C50.9409 0.399996 27.5009 8.64 26.3009 22.4C25.9009 27.12 31.4209 30.8 35.9009 32.4C33.3409 32.48 30.5409 32.96 27.8209 33.76C1.66094 41.6 0.140937 70.4 32.3809 70.4C45.5809 70.4 59.1809 66.16 67.1009 59.92C74.1409 54.4 75.7409 48.4 69.9009 45.44ZM88.5753 32.56C88.8953 30.72 87.6153 29.28 85.7753 29.28C84.0153 29.28 82.2553 30.72 81.9353 32.56C81.6953 34.4 82.8953 35.84 84.7353 35.84C86.5753 35.84 88.2553 34.4 88.5753 32.56ZM77.2953 59.2C77.4553 58.64 78.2553 56.88 78.2553 56.88L84.6553 41.92C85.5353 40 85.5353 39.12 82.9753 39.12L78.5753 39.2C78.8953 39.6 80.0153 41.04 79.3753 42.56L74.2553 55.6C72.5753 59.76 72.5753 66 78.5753 66C84.4953 66 89.0553 55.84 91.1353 51.36C91.8553 49.76 90.7353 49.2 90.0953 50.64C87.8553 55.12 85.2153 60.08 82.5753 62.72C81.6953 63.52 80.1753 64.4 78.9753 64.24C76.7353 64.08 76.5753 61.84 77.2953 59.2ZM129.762 16.24C128.562 16.4 127.362 16 126.322 15.92C123.762 15.68 122.402 16.48 120.882 20.08C118.962 24.4 115.442 31.76 111.602 39.04C105.842 35.68 98.8816 38.48 94.4016 43.68C88.5616 50.72 84.1616 63.6 91.6816 65.68C97.2016 67.12 100.962 60.72 103.362 56.8C102.562 60.08 103.202 62.48 104.082 63.84C105.122 65.36 106.402 66 107.682 66C114.082 66 118.722 55.6 120.642 51.12C121.362 49.52 120.082 49.2 119.442 50.64C117.762 54 113.122 63.92 109.122 63.92C105.362 63.92 107.842 57.2 108.642 55.36C113.282 44.32 127.362 18.48 129.762 16.24ZM110.962 40.32C107.202 47.36 103.202 54.24 100.242 58.4C93.4416 68 88.6416 63.04 93.9216 53.12C98.1616 45.28 106.962 36.4 110.962 40.32ZM210.48 14.32C210.48 8.4 205.28 4.16 196.72 4.16C181.12 4.16 167.76 13.84 157.68 25.04C154.8 23.68 152.4 22 150.64 20C148.8 17.92 147.92 16.08 148.96 13.68C149.84 11.76 148.48 10.88 147.52 12.16C145.76 13.44 146 18.64 148.24 21.2C150.24 23.44 153.04 25.2 156.24 26.72C153.52 29.84 151.2 33.28 149.2 36.88C141.2 51.36 141.2 65.52 148.88 68.8C160.24 73.68 175.2 58.4 181.76 50.64C178.16 55.36 176.16 71.12 185.04 71.12C189.52 71.12 194.08 67.92 196.8 64.24C199.76 60.32 202.8 54.64 204.24 51.44C205.12 49.52 203.6 49.6 202.88 51.12C201.12 55.12 198.4 59.28 195.92 62.48C189.6 70.32 181.68 72.32 184.16 58.8C185.6 50.96 190.16 42.4 194.64 37.36C199.28 32.32 195.04 25.84 190.08 35.12C185.84 42.96 177.36 53.36 169.12 60.32C154.4 72.56 141.68 68.96 149.84 48.56C152.72 41.44 158.56 32.48 161.44 28.4C168.96 30.8 176.56 31.04 185.6 30.24C204.24 28.56 210.48 20.16 210.48 14.32ZM207.2 13.36C207.2 21.28 198.88 27.2 185.6 28.32C175.44 29.2 168.96 28.8 162.72 26.8C171.68 16.08 182 6.24 196.96 6.24C202.8 6.24 207.2 8.64 207.2 13.36ZM242.793 16.24C241.593 16.4 240.393 16 239.353 15.92C236.793 15.68 235.433 16.48 233.913 20.08C231.993 24.4 228.473 31.76 224.633 39.04C218.873 35.68 211.913 38.48 207.433 43.68C201.593 50.72 197.193 63.6 204.713 65.68C210.233 67.12 213.993 60.72 216.393 56.8C215.593 60.08 216.233 62.48 217.113 63.84C218.153 65.36 219.433 66 220.713 66C227.113 66 231.753 55.6 233.673 51.12C234.393 49.52 233.113 49.2 232.473 50.64C230.793 54 226.153 63.92 222.153 63.92C218.393 63.92 220.873 57.2 221.673 55.36C226.313 44.32 240.393 18.48 242.793 16.24ZM223.993 40.32C220.233 47.36 216.233 54.24 213.273 58.4C206.473 68 201.673 63.04 206.953 53.12C211.193 45.28 219.993 36.4 223.993 40.32ZM260.168 51.36C260.968 49.68 259.768 49.12 259.048 50.56C257.368 54 251.928 64.88 248.248 64.64C247.208 64.56 246.408 63.68 247.048 60.4C248.088 54.8 256.648 39.76 256.648 39.76C253.928 38.8 245.688 43.84 241.848 47.28C239.688 49.12 237.528 51.6 235.368 54.32C241.928 40.96 252.328 21.36 255.848 17.76C254.728 17.92 253.528 17.52 252.488 17.44C249.928 17.28 248.648 19.12 246.808 22.48C239.048 36.8 231.288 53.12 224.808 66.56C225.608 66.08 226.328 66.16 227.528 66.08C229.208 66.08 229.928 66 230.488 64.88C235.048 56 238.968 51.52 241.688 49.04C247.848 43.28 249.288 45.44 247.368 48.56C245.128 52.16 243.608 54.88 242.968 56.96C240.568 64.4 244.408 66.32 247.208 66.32C253.128 66.32 257.528 56.88 260.168 51.36ZM288.25 51.28C289.05 49.68 287.85 49.2 287.13 50.64C285.45 54.08 280.17 64.24 276.81 64.08C275.77 64.08 275.37 62.56 276.01 59.28C277.05 54.4 281.77 46 283.45 44.32C282.33 44.56 281.13 44.08 280.09 44C277.53 43.84 276.41 45.76 274.65 49.12C272.57 53.04 270.33 56.96 267.53 60.32C263.77 64.8 259.37 65.44 260.17 59.84C260.65 56.8 262.81 52.88 263.45 51.76C266.33 47.04 270.49 42.32 274.09 40.32C277.05 38.72 280.01 39.36 280.89 42.32C282.25 42.56 282.89 41.2 281.77 40C277.21 35.04 268.01 38 263.21 43.68C251.13 58.16 257.21 72.16 266.41 63.36C268.73 61.12 270.89 57.92 272.17 55.84C269.77 64.24 273.53 66.32 276.17 66.16C280.97 65.76 285.85 56.16 288.25 51.28Z" fill="#183055"/>
<path d="M77.6876 104V92.816L73.3196 101.144H71.4716L67.1036 92.816V104H63.7916V86.96H67.3436L72.3836 96.656L77.4716 86.96H80.9996V104H77.6876ZM99.7813 104.12C98.4213 104.12 97.2613 103.896 96.3013 103.448C95.3573 102.984 94.5893 102.352 93.9973 101.552C93.4213 100.752 92.9973 99.848 92.7253 98.84C92.4533 97.816 92.3173 96.752 92.3173 95.648V86.96H95.6293V95.648C95.6293 96.352 95.6933 97.04 95.8213 97.712C95.9653 98.368 96.1973 98.96 96.5173 99.488C96.8373 100.016 97.2613 100.432 97.7893 100.736C98.3173 101.04 98.9733 101.192 99.7573 101.192C100.557 101.192 101.221 101.04 101.749 100.736C102.293 100.416 102.717 99.992 103.021 99.464C103.341 98.936 103.573 98.344 103.717 97.688C103.861 97.016 103.933 96.336 103.933 95.648V86.96H107.221V95.648C107.221 96.816 107.077 97.912 106.789 98.936C106.517 99.96 106.077 100.864 105.469 101.648C104.877 102.416 104.109 103.024 103.165 103.472C102.221 103.904 101.093 104.12 99.7813 104.12ZM132.285 99.608C132.285 100.568 132.037 101.376 131.541 102.032C131.045 102.672 130.373 103.16 129.525 103.496C128.693 103.832 127.781 104 126.789 104H118.557V86.96H127.677C128.477 86.96 129.165 87.176 129.741 87.608C130.333 88.024 130.781 88.568 131.085 89.24C131.405 89.896 131.565 90.584 131.565 91.304C131.565 92.12 131.357 92.896 130.941 93.632C130.525 94.368 129.917 94.912 129.117 95.264C130.093 95.552 130.861 96.072 131.421 96.824C131.997 97.576 132.285 98.504 132.285 99.608ZM128.949 98.984C128.949 98.552 128.861 98.168 128.685 97.832C128.509 97.48 128.269 97.208 127.965 97.016C127.677 96.808 127.341 96.704 126.957 96.704H121.869V101.192H126.789C127.189 101.192 127.549 101.096 127.869 100.904C128.205 100.696 128.469 100.424 128.661 100.088C128.853 99.752 128.949 99.384 128.949 98.984ZM121.869 89.792V94.088H126.285C126.653 94.088 126.989 94 127.293 93.824C127.597 93.648 127.837 93.4 128.013 93.08C128.205 92.76 128.301 92.376 128.301 91.928C128.301 91.496 128.213 91.12 128.037 90.8C127.877 90.48 127.653 90.232 127.365 90.056C127.093 89.88 126.781 89.792 126.429 89.792H121.869ZM147.127 86.96H150.487L156.751 104H153.343L151.759 99.752H145.807L144.247 104H140.839L147.127 86.96ZM151.159 97.424L148.807 90.392L146.359 97.424H151.159ZM166.62 104V86.96H174.156C174.94 86.96 175.66 87.12 176.316 87.44C176.988 87.76 177.564 88.192 178.044 88.736C178.54 89.28 178.916 89.888 179.172 90.56C179.444 91.232 179.58 91.92 179.58 92.624C179.58 93.344 179.452 94.04 179.196 94.712C178.956 95.368 178.604 95.944 178.14 96.44C177.676 96.936 177.132 97.32 176.508 97.592L180.396 104H176.748L173.244 98.288H169.932V104H166.62ZM169.932 95.384H174.084C174.5 95.384 174.868 95.264 175.188 95.024C175.508 94.768 175.764 94.432 175.956 94.016C176.148 93.6 176.244 93.136 176.244 92.624C176.244 92.08 176.132 91.608 175.908 91.208C175.684 90.792 175.396 90.464 175.044 90.224C174.708 89.984 174.34 89.864 173.94 89.864H169.932V95.384ZM195.213 86.96H198.573L204.837 104H201.429L199.845 99.752H193.893L192.333 104H188.925L195.213 86.96ZM199.245 97.424L196.893 90.392L194.445 97.424H199.245ZM214.706 104V86.984H218.018V95.072L225.17 86.96H228.818L222.29 94.52L229.226 104H225.482L220.178 96.656L218.018 98.912V104H214.706Z" fill="#3060AA"/>
</svg>
