<svg width="780" height="269" viewBox="0 0 780 269" fill="none" xmlns="http://www.w3.org/2000/svg">
<path opacity="0.3" d="M2.03442 243.194H738.103L718.2 232.817V224.343H713.471V231.902H706.708V198.024H691.167V219.767H683.286V204.668H680.134V220.005H675.863V202.161H672.931V219.895H656.821L654.677 217.718H649.05V183.383H632.83V215.649H627.424V172.621H617.967L612.78 177.892V214.057H608.052V176.52H600.83L595.644 181.791V195.06H590.915V189.789H583.932V194.602H574.695V214.295H570.407V206.059H567.933V177.069H558.366L552.849 182.669V206.7H547.662V180.034H534.265L529.188 185.176V192.955H525.358V150.878H505.527L498.765 157.742V185.671H495.502V146.87L488.63 139.897V132.338H481.647V128.44H470.833V132.558H460.698V142.166H457.326V192.753H453.716V172.731H451.131L447.631 169.18H443.581V95.0202H438.174V92.2749H427.581V95.0202H421.716C421.716 95.0202 421.038 198.262 421.716 198.262C421.203 198.262 416.877 198.262 416.877 198.262V184.646L415.081 182.815L413.615 181.333H410.683L409.107 182.944H405.844V131.075L396.607 121.686L386.802 131.643V174.451H382.971V172.164H376.997V159.682L371.92 154.539H358.394V159.352H355.92V184.755H348.827V161.292L341.276 153.624V132.796H335.192V110.815H332.259V98.9186H330.683V110.815H328.209V155.216L325.277 158.199V197.567H321.226V170.095H314.463V162.775H308.599V152.708H305.226V137.152H303.54V160.377L298.702 165.3H295.073V178.569H291.242V171.468H286.954V149.945H282.445V146.87H275.792L272.97 149.725H269.598V177.874H260.819V172.603L255.412 167.112V153.605H252.938V146.962H249.107V153.605H246.853V160.706L244.379 164.605V171.706H241.685V180.784H237.854V161.64H235.6V147.328H228.947L226.363 149.963H222.313V169.656H218.702V122.949H216.448L211.939 118.374H200.668L196.617 122.492H184.008V166.215H181.076V161.86H178.821V166.435H176.787V176.044H172.059V168.485H169.126V171.688H165.516V201.905H161.905V176.044H156.279V165.977H152.906V160.706H149.296V163.452H145.355V170.882L144.347 171.907V215.851H141.653V211.037H140.297V214.936H135.788V211.952H130.382V174.872H121.603V178.313H118.671V214.936H115.738V170.077H112.586V177.856H109.653V214.258H107.179V173.738H102.671V214.258H100.197V152.928H93.8918V156.369H90.5196V152.928H87.3672V155.911H84.4349V213.819H77.672V192.991H75.3078V190.813L70.9092 186.348V191.838H68.1967V166.435H58.5014V192.076H56.0272V172.621H53.7729V168.503H49.4843V197.567H45.4339V166.435H43.8578V212.209H40.5955V204.54L37.773 201.685V205.583H34.8406V202.38H31.9082V214.277H29.1958V173.298H22.213V196.652H19.7388V200.55H17.7228V206.041H13.8923V202.838H12.0962V199.397H10.5201V196.871H8.04584V195.041H4.2154V200.148H2.03442V243.194Z" fill="#E1EDFF"/>
<path opacity="0.3" fill-rule="evenodd" clip-rule="evenodd" d="M780 29.2973C757.622 20.2926 733.173 15.3145 707.551 15.3145C600.336 15.3145 513.408 102.121 513.408 209.189C513.408 230.053 516.725 250.167 522.829 269H780V29.2973Z" fill="#D5E5FF"/>
<path opacity="0.3" fill-rule="evenodd" clip-rule="evenodd" d="M780 69.5617C757.127 56.0731 730.461 48.313 701.961 48.313C616.977 48.313 548.102 117.111 548.102 201.959C548.102 225.99 553.655 248.721 563.515 268.981H780.018V69.5617H780Z" fill="#D5E5FF"/>
<path opacity="0.3" fill-rule="evenodd" clip-rule="evenodd" d="M780 115.409C758.978 93.4827 729.416 79.811 696.628 79.811C632.867 79.811 581.183 131.423 581.183 195.096C581.183 223.226 591.282 248.996 608.051 269H780.018V115.409H780Z" fill="#D5E5FF"/>
<path d="M166.003 46.0845L168.514 53.7897H176.615L170.054 58.5482L172.565 66.2534L166.003 61.4948L159.442 66.2534L161.935 58.5482L155.374 53.7897H163.493L166.003 46.0845Z" fill="#E6F0FF"/>
<path d="M245.93 0L248.441 7.70519H256.56L249.998 12.482L252.509 20.1872L245.93 15.4287L239.368 20.1872L241.879 12.482L235.318 7.70519H243.437L245.93 0Z" fill="#E6F0FF"/>
<path d="M189.243 12.0977L191.13 17.8811H197.215L192.285 21.45L194.173 27.2335L189.243 23.6646L184.313 27.2335L186.2 21.45L181.27 17.8811H187.355L189.243 12.0977Z" fill="#E6F0FF"/>
<path d="M380.637 9.68164L382.525 15.4651H388.609L383.679 19.034L385.567 24.8175L380.637 21.2486L375.707 24.8175L377.594 19.034L372.664 15.4651H378.749L380.637 9.68164Z" fill="#E6F0FF"/>
<path d="M279.982 38.2881L281.925 44.2363H288.193L283.116 47.9333L285.059 53.8815L279.982 50.2028L274.906 53.8815L276.848 47.9333L271.771 44.2363H278.039L279.982 38.2881Z" fill="#E6F0FF"/>
<path d="M314.713 2.23291L316.289 7.06467H321.366L317.242 10.0296L318.818 14.8614L314.713 11.8781L310.607 14.8614L312.165 10.0296L308.06 7.06467H313.137L314.713 2.23291Z" fill="#E6F0FF"/>
<path d="M226.026 49.855L227.602 54.6867H232.679L228.574 57.67L230.131 62.4834L226.026 59.5002L221.921 62.4834L223.497 57.67L219.373 54.6867H224.45L226.026 49.855Z" fill="#E6F0FF"/>
<path d="M427.555 31.9736L429.131 36.8054H434.208L430.103 39.7886L431.661 44.6021L427.555 41.6188L423.45 44.6021L425.026 39.7886L420.902 36.8054H425.979L427.555 31.9736Z" fill="#E6F0FF"/>
<path fill-rule="evenodd" clip-rule="evenodd" d="M70.9571 11.7499C72.4049 10.9264 73.8712 10.176 75.3557 9.51709C61.1702 20.6631 57.1015 40.8686 66.5218 56.7914C75.9238 72.7326 95.6075 78.8821 112.194 71.8541C110.948 72.879 109.591 73.7941 108.144 74.636C90.7691 84.9035 68.3363 79.1017 58.0912 61.7696C47.8095 44.3826 53.601 21.9991 70.9571 11.7499Z" fill="#E6F0FF"/>
<path fill-rule="evenodd" clip-rule="evenodd" d="M743.125 253.864C743.253 251.686 743.07 243.469 733.687 235.416C724.083 227.198 718.713 223.629 714.168 218.797C714.938 218.358 715.341 217.882 715.341 217.37C715.341 216.345 713.581 215.43 710.685 214.716C705.884 208.805 702.585 206.315 702.072 198.775C704.692 197.842 706.507 195.975 706.507 193.778C706.507 191.417 704.362 189.423 701.357 188.599C701.265 187.464 701.192 186.329 701.119 185.195C702.328 184.591 703.116 183.621 703.116 182.523C703.116 181.315 702.127 180.253 700.734 179.704C700.642 178.46 700.55 177.233 700.477 175.989C700.44 175.568 700.404 175.11 700.367 174.708C701.284 174.268 701.888 173.536 701.888 172.731C701.888 171.816 701.174 171.029 700.111 170.608C699.854 167.186 699.616 163.781 699.377 160.377C699.158 160.029 698.919 159.718 698.681 159.37C699.048 159.261 699.322 159.041 699.322 158.767C699.322 158.529 699.139 158.309 698.883 158.199C698.993 157.961 699.084 157.723 699.194 157.467C698.974 154.081 698.736 150.677 698.479 147.273C702.2 147.529 706.012 146.339 708.871 143.374C709.311 142.917 709.714 142.459 710.062 141.965C704.784 146.138 697.196 145.735 692.376 140.721C687.575 135.724 687.171 127.854 691.167 122.382C690.709 122.748 690.25 123.169 689.847 123.608C684.587 129.062 684.587 137.902 689.847 143.356C692.175 145.79 695.199 146.962 698.259 147.218C698.021 150.64 697.783 154.045 697.545 157.449C697.673 157.705 697.783 157.943 697.893 158.181C697.618 158.291 697.416 158.492 697.416 158.748C697.416 159.023 697.691 159.279 698.058 159.352C697.838 159.7 697.6 160.048 697.361 160.395C697.123 163.781 696.885 167.185 696.647 170.59C695.584 171.011 694.851 171.798 694.851 172.713C694.851 173.518 695.437 174.25 696.372 174.689C696.353 175.092 696.298 175.531 696.28 175.971C696.188 177.215 696.115 178.441 696.005 179.686C694.594 180.235 693.641 181.296 693.641 182.504C693.641 183.584 694.411 184.572 695.62 185.176C695.547 186.311 695.474 187.446 695.382 188.581C692.376 189.404 690.25 191.417 690.25 193.76C690.25 195.956 692.028 197.805 694.686 198.757C694.154 206.297 690.837 208.786 686.09 214.698C683.176 215.412 681.398 216.327 681.398 217.352C681.398 217.864 681.82 218.34 682.626 218.779C678.063 223.611 672.674 227.18 663.089 235.397C662.887 235.562 662.741 235.745 662.557 235.91L662.374 209.39H665.893C668.349 209.39 670.383 207.322 670.383 204.76C670.383 202.197 668.349 200.093 665.893 200.093H662.301L662.063 163.47H663.107C665.233 163.47 666.974 161.64 666.974 159.425C666.974 157.211 665.233 155.399 663.107 155.399H662.008L661.421 66.7252H663.107C664.995 66.7252 666.553 65.0963 666.553 63.138C666.553 61.2712 665.123 59.807 663.382 59.6423C663.877 58.3063 664.189 56.9153 664.189 55.4877C664.189 54.7922 664.134 54.1334 664.024 53.4745C664.115 52.5228 664.005 48.9173 659.9 45.4033C655.703 41.8161 653.375 40.2055 651.396 38.1007C651.689 37.9177 651.909 37.7347 651.909 37.5151C651.909 37.0758 651.121 36.6732 649.911 36.3803C648.262 34.3305 647.107 32.8297 646.283 31.878L646.099 29.1693C647.199 28.7666 648.06 28.1078 648.06 27.1927C648.06 26.186 647.071 25.5089 645.824 25.1245L645.715 23.3309C646.209 23.0747 646.558 22.7086 646.558 22.2511C646.558 21.7386 646.118 21.3726 645.55 21.1164L645.44 19.396L645.403 18.7737C645.77 18.5907 646.044 18.3161 646.044 17.9684C646.044 17.5841 645.715 17.2912 645.275 17.1082L644.963 12.551L644.615 12.0568C644.743 12.0019 644.908 11.947 644.908 11.8555C644.908 11.764 644.78 11.7274 644.688 11.6725L644.871 11.2698L644.523 6.09033L644.175 11.2698L644.358 11.6725C644.267 11.7274 644.12 11.7457 644.12 11.8555C644.12 11.9653 644.285 12.0202 644.432 12.0568L644.083 12.551L643.772 17.0899C643.332 17.2729 642.984 17.5658 642.984 17.9501C642.984 18.2978 643.277 18.5541 643.644 18.7554L643.607 19.3777L643.479 21.0981C642.91 21.3543 642.452 21.7203 642.452 22.2328C642.452 22.7086 642.819 23.0564 643.314 23.3126L643.185 25.0879C641.939 25.4723 640.949 26.1494 640.949 27.1561C640.949 28.0712 641.811 28.7117 642.91 29.1327L642.727 31.8597C641.902 32.7931 640.766 34.2939 639.117 36.3254C637.889 36.6182 637.101 37.0209 637.101 37.4601C637.101 37.6615 637.302 37.8628 637.614 38.0458C635.616 40.1506 633.27 41.7611 629.091 45.3484C624.986 48.8624 624.913 52.4679 624.949 53.4196C624.839 54.0785 624.785 54.7556 624.785 55.4328C624.785 56.8787 625.114 58.2696 625.609 59.6057C623.85 59.7887 622.42 61.2346 622.42 63.1014C622.42 65.078 623.978 66.6886 625.903 66.6886H627.552L626.965 155.362H625.884C623.74 155.362 621.962 157.174 621.962 159.407C621.962 161.622 623.74 163.452 625.884 163.452H626.91L626.672 200.074H623.08C620.624 200.074 618.59 202.179 618.59 204.741C618.59 207.304 620.624 209.372 623.08 209.372H626.599L626.526 222.714C624.235 219.31 621.192 215.759 617.05 212.209C600.849 198.317 591.74 192.296 584.061 184.133C585.38 183.383 586.077 182.578 586.077 181.736C586.077 179.997 583.089 178.423 578.196 177.252C570.095 167.259 564.524 163.049 563.626 150.311C568.079 148.737 571.103 145.571 571.103 141.91C571.103 137.92 567.493 134.498 562.434 133.144C562.306 131.222 562.178 129.3 562.013 127.36C564.066 126.372 565.385 124.725 565.385 122.876C565.385 120.826 563.791 119.069 561.371 118.099C561.206 116.013 561.078 113.908 560.95 111.858C560.895 111.126 560.84 110.394 560.785 109.68C562.324 108.966 563.332 107.722 563.332 106.331C563.332 104.812 562.123 103.476 560.308 102.762C559.905 96.9969 559.502 91.25 559.117 85.4849C558.714 84.9175 558.329 84.3501 557.926 83.7828C558.549 83.6181 558.97 83.2154 558.97 82.7396C558.97 82.3369 558.677 81.9892 558.201 81.7879C558.384 81.3669 558.586 80.9643 558.751 80.5799C558.402 75.3272 558.036 70.0745 557.669 64.8218C563.039 65.682 568.702 64.291 572.844 59.99C573.431 59.4044 573.944 58.7638 574.421 58.1415C567.493 63.6322 557.504 63.1014 551.181 56.5126C544.822 49.9239 544.308 39.5832 549.605 32.3905C548.964 32.8846 548.395 33.4337 547.809 34.0011C540.9 41.1755 540.9 52.8156 547.809 59.99C550.43 62.6988 553.71 64.0531 557.083 64.712C556.716 70.0013 556.368 75.2906 555.983 80.5799C556.185 80.9643 556.368 81.3669 556.57 81.7879C556.093 81.9709 555.763 82.3369 555.763 82.7396C555.763 83.2154 556.203 83.6181 556.826 83.7828C556.441 84.3684 556.02 84.9541 555.635 85.5398C555.232 91.2867 554.828 97.0335 554.444 102.78C552.647 103.494 551.401 104.812 551.401 106.349C551.401 107.74 552.428 108.966 553.949 109.699C553.875 110.412 553.82 111.144 553.784 111.877C553.637 113.926 553.472 116.031 553.344 118.118C550.943 119.088 549.33 120.845 549.33 122.894C549.33 124.743 550.65 126.39 552.702 127.378C552.574 129.3 552.428 131.24 552.299 133.162C547.223 134.516 543.63 137.939 543.63 141.929C543.63 145.589 546.654 148.755 551.09 150.329C550.21 163.068 544.657 167.295 536.556 177.27C531.644 178.441 528.638 180.015 528.638 181.754C528.638 182.596 529.353 183.401 530.673 184.152C525.083 190.1 518.65 194.986 509.376 202.527C508.606 201.099 507.177 200.093 505.509 200.093H501.917L501.679 163.47H502.723C504.849 163.47 506.609 161.64 506.609 159.425C506.609 157.211 504.849 155.399 502.723 155.399H501.624L501.037 66.7252H502.705C504.629 66.7252 506.169 65.0963 506.169 63.138C506.169 61.2712 504.758 59.8253 502.998 59.6423C503.475 58.2879 503.805 56.9153 503.805 55.4694C503.805 54.7739 503.75 54.1151 503.64 53.4562C503.695 52.5045 503.621 48.899 499.516 45.385C495.319 41.7977 492.973 40.1872 490.994 38.0824C491.305 37.8994 491.507 37.6981 491.507 37.4968C491.507 37.0575 490.719 36.6549 489.491 36.362C487.841 34.3122 486.705 32.8297 485.88 31.878L485.679 29.1876C486.742 28.7666 487.603 28.1261 487.603 27.211C487.603 26.2044 486.613 25.5089 485.386 25.1428L485.276 23.3675C485.77 23.1113 486.137 22.7636 486.137 22.2877C486.137 21.7752 485.679 21.4092 485.111 21.153L484.982 19.4326L484.946 18.8103C485.331 18.609 485.605 18.3527 485.605 18.005C485.605 17.6207 485.276 17.3278 484.836 17.1448L484.524 12.5876L484.194 12.0934C484.341 12.0568 484.506 12.0019 484.506 11.8921C484.506 11.8006 484.359 11.764 484.268 11.7091L484.469 11.3064L484.121 6.12694L483.754 11.3064L483.919 11.7091C483.828 11.764 483.681 11.7823 483.681 11.8921C483.681 11.9836 483.846 12.0568 483.993 12.0934L483.644 12.5876L483.333 17.1265C482.893 17.3095 482.563 17.6024 482.563 17.9867C482.563 18.3344 482.838 18.5907 483.223 18.792L483.186 19.4143L483.058 21.1347C482.49 21.3909 482.032 21.7569 482.032 22.2694C482.032 22.7453 482.398 23.093 482.911 23.3492L482.783 25.1245C481.555 25.5089 480.565 26.2044 480.565 27.1927C480.565 28.1078 481.409 28.7483 482.49 29.1693L482.307 31.878C481.482 32.8114 480.345 34.3122 478.678 36.362C477.45 36.6549 476.662 37.0575 476.662 37.4968C476.662 37.6981 476.882 37.8994 477.175 38.0824C475.177 40.1872 472.85 41.7977 468.653 45.385C464.547 48.899 464.474 52.5045 464.547 53.4562C464.437 54.1151 464.382 54.7922 464.382 55.4694C464.382 56.9153 464.675 58.3063 465.17 59.6423C463.411 59.8253 462 61.2712 462 63.1197C462 65.0963 463.576 66.7069 465.482 66.7069H467.15L466.563 155.381H465.482C463.338 155.381 461.56 157.193 461.56 159.425C461.56 161.64 463.338 163.47 465.482 163.47H466.508L466.252 200.093H462.678C461.688 200.093 460.79 200.495 460.057 201.063C459.141 200.678 458.078 200.312 456.74 199.983C450.655 192.479 446.458 189.313 445.798 179.722C449.115 178.533 451.425 176.154 451.425 173.408C451.425 170.407 448.712 167.844 444.882 166.801C444.79 165.374 444.699 163.909 444.589 162.464C446.146 161.731 447.136 160.469 447.136 159.078C447.136 157.54 445.926 156.204 444.094 155.472C444.002 153.916 443.91 152.342 443.8 150.768C443.764 150.238 443.727 149.707 443.672 149.158C444.827 148.591 445.597 147.675 445.597 146.632C445.597 145.479 444.699 144.491 443.324 143.96C443.031 139.604 442.701 135.285 442.408 130.947C442.114 130.526 441.821 130.087 441.546 129.666C442.004 129.556 442.334 129.264 442.334 128.897C442.334 128.586 442.078 128.33 441.711 128.202C441.858 127.873 442.023 127.58 442.169 127.25C441.876 123.315 441.619 119.362 441.326 115.427C445.853 115.958 450.545 114.658 454.009 111.053C454.504 110.54 454.962 109.991 455.365 109.424C449.299 114.237 440.575 113.78 435.003 107.996C429.45 102.25 428.992 93.1718 433.629 86.8758C433.079 87.3151 432.584 87.7909 432.053 88.3034C425.986 94.581 425.986 104.775 432.053 111.053C434.527 113.615 437.661 114.86 440.886 115.336C440.611 119.307 440.337 123.279 440.062 127.25C440.19 127.58 440.355 127.873 440.502 128.184C440.135 128.33 439.897 128.586 439.897 128.897C439.897 129.245 440.245 129.556 440.74 129.666C440.41 130.124 440.117 130.563 439.805 131.002C439.53 135.34 439.2 139.641 438.925 143.978C437.569 144.491 436.634 145.497 436.634 146.651C436.634 147.694 437.404 148.609 438.559 149.176C438.522 149.725 438.485 150.256 438.449 150.787C438.357 152.361 438.247 153.935 438.137 155.49C436.323 156.204 435.113 157.559 435.113 159.096C435.113 160.487 436.103 161.731 437.624 162.482C437.532 163.928 437.441 165.374 437.331 166.819C433.5 167.881 430.806 170.443 430.806 173.427C430.806 176.172 433.097 178.569 436.414 179.741C435.773 189.331 431.558 192.497 425.473 200.001C421.789 200.898 419.517 202.069 419.517 203.369C419.517 204.009 420.085 204.613 421.056 205.162C415.301 211.312 408.447 215.851 396.241 226.283C395.068 227.271 394.096 228.278 393.143 229.266C387.902 225.02 384.181 222.165 380.974 218.761C381.744 218.322 382.165 217.846 382.165 217.333C382.165 216.308 380.387 215.393 377.51 214.679C372.726 208.768 369.409 206.279 368.896 198.738C371.535 197.805 373.313 195.938 373.313 193.742C373.313 191.381 371.205 189.386 368.181 188.562C368.071 187.428 368.035 186.293 367.943 185.158C369.171 184.554 369.941 183.584 369.941 182.486C369.941 181.278 368.969 180.217 367.558 179.668C367.448 178.423 367.375 177.197 367.32 175.952C367.265 175.531 367.246 175.074 367.228 174.671C368.126 174.232 368.713 173.5 368.713 172.694C368.713 171.779 367.998 170.992 366.935 170.571C366.678 167.149 366.44 163.745 366.202 160.34C365.982 159.993 365.744 159.682 365.542 159.334C365.89 159.224 366.165 159.004 366.165 158.73C366.165 158.492 365.964 158.272 365.707 158.163C365.799 157.925 365.909 157.687 366.019 157.43C365.78 154.045 365.542 150.64 365.322 147.236C369.043 147.492 372.873 146.303 375.714 143.338C376.172 142.88 376.539 142.423 376.923 141.929C371.645 146.101 364.058 145.699 359.237 140.684C354.436 135.688 354.032 127.818 358.064 122.345C357.588 122.711 357.13 123.132 356.69 123.572C351.43 129.026 351.43 137.866 356.69 143.32C359.036 145.754 362.042 146.925 365.121 147.181C364.882 150.604 364.662 154.026 364.406 157.43C364.534 157.687 364.644 157.925 364.754 158.163C364.461 158.272 364.277 158.474 364.277 158.73C364.277 159.004 364.534 159.261 364.919 159.334C364.662 159.682 364.442 160.029 364.204 160.377C363.948 163.763 363.728 167.167 363.489 170.571C362.426 170.992 361.693 171.779 361.693 172.694C361.693 173.5 362.298 174.232 363.178 174.671C363.159 175.074 363.123 175.513 363.104 175.952C363.031 177.197 362.958 178.423 362.848 179.668C361.437 180.217 360.484 181.278 360.484 182.486C360.484 183.566 361.272 184.554 362.481 185.158C362.39 186.293 362.316 187.428 362.243 188.562C359.256 189.386 357.111 191.399 357.111 193.742C357.111 195.938 358.907 197.787 361.528 198.738C361.015 206.279 357.716 208.768 352.951 214.679C350.037 215.393 348.241 216.308 348.241 217.333C348.241 217.846 348.681 218.322 349.451 218.761C344.905 223.593 339.517 227.162 329.932 235.379C320.53 243.432 320.328 251.668 320.493 253.828C320.236 255.328 320.09 256.866 320.09 258.422C320.09 262.082 320.805 265.633 322.106 268.964C343.531 268.964 644.542 268.964 644.542 268.964C644.542 268.964 715.341 268.964 741.586 268.964C742.905 265.633 743.602 262.082 743.602 258.422C743.492 256.902 743.363 255.365 743.125 253.864ZM465.519 209.408H466.16L466.142 209.976C465.94 209.793 465.72 209.591 465.519 209.408Z" fill="#E2EEFF"/>
<path d="M0 180.711C0 180.711 106.208 242.316 323.774 242.316L346.958 269H0V180.711Z" fill="#E2EEFF"/>
<path d="M724.907 269H780V244.988H712.995L724.907 269Z" fill="#E2EEFF"/>
</svg>
