<svg width="279" height="275" viewBox="0 0 279 275" fill="none" xmlns="http://www.w3.org/2000/svg">
<path fill-rule="evenodd" clip-rule="evenodd" d="M115.964 147.49V148.265C115.964 150.329 116.708 151.362 118.194 151.362H118.967C120.053 150.673 120.596 149.899 120.597 149.039V145.769H120.339C119.423 147.433 118.851 148.265 118.623 148.264C118.244 147.932 117.94 147.522 117.733 147.062C117.525 146.602 117.42 146.102 117.422 145.597L118.966 137.769V137.253C116.966 140.286 115.92 143.853 115.964 147.49ZM97.9503 148.264C99.3791 148.264 101.323 149.984 103.783 153.425C108.244 162.946 111.389 170.344 113.219 175.619C113.183 175.966 113.125 176.311 113.047 176.651C108.014 184.91 103.21 189.04 98.6365 189.04H97.607C95.7198 189.04 94.4331 187.491 93.7471 184.394V183.448C93.7471 182.474 94.0047 180.438 94.52 177.34V176.824C94.52 176.595 94.3484 176.452 94.0053 176.394H93.5756C92.2594 180.179 91.6018 183.104 91.6028 185.168C91.6028 186.488 91.6885 187.233 91.8599 187.404C91.8599 192.337 93.7756 195.119 97.607 195.749H99.4084C101.066 195.749 103.182 194.659 105.756 192.48C111.131 186.63 113.818 181.985 113.819 178.544H113.991C115.763 187.204 118.451 191.534 122.054 191.534H123.77C126.399 191.534 129.001 189.268 131.575 184.738C132.033 186.171 132.261 187.059 132.262 187.404C133.405 189.641 135.463 190.759 138.438 190.759H139.81C145.871 190.759 153.934 187.777 164 181.813C165.315 181.813 166.43 179.576 167.345 175.103C167.349 175.079 167.346 175.056 167.339 175.033C167.332 175.011 167.319 174.99 167.302 174.974C167.286 174.957 167.265 174.945 167.243 174.937C167.221 174.93 167.197 174.927 167.174 174.931C162.083 178.487 157.938 180.265 154.736 180.264C149.646 180.264 146.214 177.11 144.441 170.801C146.157 169.081 148.788 167.819 152.333 167.016C155.535 167.016 158.681 168.421 161.769 171.232H162.112C161.368 168.651 160.939 167.246 160.825 167.016C160.825 164.78 157.651 163.174 151.304 162.199C146.271 162.199 143.355 165.525 142.555 172.178V174.672C142.555 177.885 143.928 180.896 146.673 183.705C146.272 184.509 144.556 184.997 141.526 185.168H139.124C135.864 184.193 134.234 181.269 134.235 176.394V175.448H133.977L131.318 178.373C128.115 182.732 125.542 184.911 123.598 184.911H122.825C120.252 184.911 118.279 183.047 116.906 179.319C114.855 170 111.925 160.898 108.157 152.135C106.327 149.21 104.612 147.747 103.011 147.747C101.009 147.919 99.8652 148.005 99.5802 148.005C99.1276 147.895 98.6695 147.809 98.2078 147.747C98.2128 147.782 98.2096 147.818 98.1984 147.851C98.1872 147.885 98.1684 147.915 98.1434 147.94C98.1184 147.966 98.0879 147.984 98.0544 147.996C98.0209 148.007 97.9852 148.01 97.9503 148.005V148.264ZM129.346 196.696C129.346 196.238 128.459 195.148 126.686 193.427C124.684 195.664 123.655 197.012 123.598 197.47L126.944 201.772C127.229 201.772 128.373 200.481 130.375 197.9C132.146 200.023 133.119 201.084 133.291 201.084C135.235 199.077 136.207 197.671 136.207 196.868L132.776 192.997L129.346 196.696ZM158.683 203.492H158.426C156.252 199.479 154.451 197.471 153.022 197.47H152.765C152.079 197.642 151.735 198.359 151.735 199.62C151.705 200.175 151.806 200.728 152.03 201.237C152.253 201.745 152.593 202.193 153.022 202.544H153.279C153.623 202.544 153.88 201.885 154.052 200.566H154.481C154.709 200.566 155.452 201.282 156.712 202.715C158.827 206.673 160.056 208.651 160.401 208.651H160.572L159.368 204.265C160.399 200.022 161.142 197.9 161.599 197.899H162.113L163.314 199.104H163.486C163.556 199.113 163.627 199.107 163.694 199.084C163.76 199.061 163.821 199.024 163.871 198.974C163.921 198.924 163.958 198.863 163.981 198.796C164.003 198.729 164.01 198.657 164 198.587V196.867C164 195.721 163.371 194.832 162.113 194.2C160.569 194.2 159.426 197.297 158.682 203.491L158.683 203.492ZM115.965 203.836V205.729C118.08 219.264 119.853 232.856 121.284 246.505C121.284 247.538 119.94 249.087 117.252 251.15C109.532 256.083 103.585 258.779 99.4101 259.237H98.894C94.1465 259.237 91.2872 256.398 90.3161 250.72V250.376C90.3786 247.922 90.6371 245.476 91.0891 243.064V241.343H90.659C88.9997 246.105 88.1705 249.948 88.1715 252.871V253.387C88.1715 255.279 88.343 256.598 88.6862 257.344C90.0586 262.85 93.2896 265.603 98.3793 265.602H98.6365C103.153 265.602 108.357 263.624 114.248 259.667V261.903C114.242 263.084 114.328 264.263 114.506 265.43C115.82 271.738 118.336 274.893 122.054 274.893H122.827C125.8 274.893 129.117 273.488 132.777 270.678C139.64 264.829 143.072 259.552 143.072 254.849V251.149C140.612 242.49 139.383 237.272 139.383 235.493C139.611 232.855 140.011 231.393 140.584 231.106L140.326 230.675L138.439 232.396C136.265 233.2 135.179 235.379 135.179 238.934C135.179 240.654 137.152 245.873 141.098 254.59V254.848C133.893 263.681 127.86 268.097 122.999 268.097C118.766 268.097 116.279 265.287 115.536 259.667V259.064C120.683 255.051 123.256 250.463 123.256 245.3V241.859C121.312 222.074 120.34 209.6 120.34 204.439C120.34 201.629 121.226 198.934 122.999 196.352C118.31 197.672 115.965 200.167 115.965 203.836ZM138.868 199.363C141.155 201.657 143.128 214.847 144.787 238.933C145.416 255.738 147.846 264.14 152.078 264.139H153.022C155.424 264.139 157.768 262.017 160.056 257.773V258.031C161.485 261.816 163.601 263.708 166.403 263.708H167.69C171.807 263.708 175.925 258.633 180.042 248.482C182.558 250.948 185.074 252.497 187.591 253.127H188.364C190.423 253.127 191.567 251.005 191.795 246.761V243.837C190.821 238.621 189.19 236.012 186.903 236.01H185.96C184.187 236.01 182.214 237.96 180.041 241.859C175.122 252.298 170.833 257.517 167.174 257.516H166.917C163.713 256.827 162.112 254.247 162.113 249.773C162.227 249.773 162.285 249.659 162.285 249.429C162.261 249.433 162.238 249.431 162.215 249.423C162.193 249.416 162.172 249.403 162.156 249.387C162.139 249.37 162.127 249.349 162.119 249.327C162.112 249.304 162.11 249.281 162.113 249.257L161.34 249.773C158.252 255.279 155.736 258.032 153.792 258.032C151.675 257.573 150.617 256.77 150.618 255.623C148.844 255.623 147.215 241.343 145.728 212.783C145.728 204.696 144.985 200.366 143.498 199.793C143.498 198.588 141.296 197.613 136.893 196.868H136.721L138.868 199.363ZM127.631 214.073V215.45C127.631 217.286 128.403 218.433 129.947 218.891C131.205 218.891 131.977 217.858 132.264 215.794V213.557C132.274 213.432 132.235 213.308 132.154 213.211C132.074 213.114 131.959 213.053 131.835 213.041H131.577C131.29 214.647 130.89 215.45 130.376 215.45C129.98 215.192 129.66 214.833 129.449 214.409C129.238 213.986 129.143 213.513 129.175 213.041L130.548 204.955V204.783H130.119C128.459 208.682 127.63 211.779 127.631 214.073ZM184.246 214.245V214.503C184.246 215.593 185.218 216.654 187.162 217.686C184.13 222.275 180.47 225.458 176.182 227.235V227.752C176.455 227.783 176.718 227.871 176.955 228.01L181.759 226.203C184.789 224.77 186.905 222.161 188.106 218.375C188.546 218.436 188.96 218.614 189.307 218.891C189.707 218.891 190.05 218.26 190.337 216.999C190.221 216.598 189.821 216.254 189.136 215.966L189.307 214.676V213.041C189.307 210.748 188.735 209.601 187.592 209.6C185.99 209.6 184.874 211.148 184.246 214.245ZM186.905 212.525H187.419L187.591 213.729V214.675C186.675 214.103 186.218 213.73 186.219 213.557V213.299C186.446 212.782 186.675 212.525 186.905 212.525ZM89.1152 225.085V225.687C89.1152 227.407 89.7728 228.554 91.088 229.128C92.6321 229.128 93.5184 228.239 93.7471 226.461V223.794L93.5756 223.363C92.6026 224.912 92.0307 225.686 91.8599 225.686C91.4016 225.686 91.0012 224.97 90.659 223.537C90.659 223.251 91.1165 220.498 92.0314 215.278V215.019H91.6028C89.9434 218.863 89.1143 222.218 89.1152 225.085ZM163.486 222.074C156.68 224.31 153.277 226.346 153.278 228.181L153.449 228.698C154.764 227.665 158.624 225.887 165.03 223.364C170.805 221.587 173.693 219.694 173.693 217.686V217.428C172.377 218.174 168.975 219.722 163.486 222.074ZM107.643 224.052C104.041 228.125 102.239 231.881 102.239 235.322V236.268C102.239 237.701 103.469 238.417 105.928 238.417L107.644 238.245C107.644 238.991 105.643 241.027 101.639 244.353V244.611H103.354C107.871 242.776 110.13 239.679 110.131 235.32V235.062C110.131 234.087 109.559 233.341 108.415 232.825C107.603 233.072 106.77 233.244 105.927 233.341H105.242C104.955 233.341 104.726 232.911 104.555 232.051C104.973 231.31 105.431 230.592 105.928 229.901C107.129 229.901 108.129 227.952 108.93 224.052C108.701 224.052 108.587 223.966 108.587 223.794C108.256 223.806 107.934 223.894 107.643 224.052ZM185.016 242.118H185.188C186.903 242.118 188.219 243.752 189.134 247.021C187.875 246.792 185.988 245.645 183.472 243.58C184.215 242.605 184.729 242.118 185.016 242.118ZM157.138 268.097L160.827 272.398C162.886 270.276 163.944 268.986 164.001 268.527C162.457 266.291 161.313 264.914 160.57 264.398H160.398C159.883 264.627 158.796 265.859 157.138 268.097Z" fill="#E5F0FF"/>
<path d="M279 108C279 110.209 277.209 112 275 112C272.791 112 271 110.209 271 108C271 105.791 272.791 104 275 104C277.209 104 279 105.791 279 108Z" fill="#E5F0FF"/>
<path d="M8 108C8 110.209 6.20914 112 4 112C1.79086 112 0 110.209 0 108C0 105.791 1.79086 104 4 104C6.20914 104 8 105.791 8 108Z" fill="#E5F0FF"/>
<path d="M144.519 53.3279C141.351 51.7919 138.087 53.5199 142.503 54.5759C147.783 55.8239 144.327 62.5439 137.223 68.1119C128.967 74.5439 114.663 81.1679 99.8786 81.1679C66.8546 81.1679 74.3426 48.9119 94.4066 43.3439C106.599 39.8879 118.503 44.2079 119.655 40.3679C121.095 33.5519 96.9026 38.3519 99.4946 23.2799C101.703 10.9919 121.671 1.87189 136.647 3.31189C154.215 5.13589 143.559 22.2239 134.727 23.1839C130.407 23.6639 129.543 26.1599 135.015 24.9119C154.407 20.5919 159.399 3.59989 137.031 1.00789C121.767 -0.720114 93.6386 9.16789 92.1986 25.6799C91.7186 31.3439 98.3426 35.7599 103.719 37.6799C100.647 37.7759 97.2866 38.3519 94.0226 39.3119C62.6306 48.7199 60.8066 83.2799 99.4946 83.2799C115.335 83.2799 131.655 78.1919 141.159 70.7039C149.607 64.0799 151.527 56.8799 144.519 53.3279Z" fill="#E5F0FF"/>
<path d="M166.928 37.8719C167.312 35.6639 165.776 33.9359 163.568 33.9359C161.456 33.9359 159.344 35.6639 158.96 37.8719C158.672 40.0799 160.112 41.8079 162.32 41.8079C164.528 41.8079 166.544 40.0799 166.928 37.8719ZM153.392 69.8399C153.584 69.1679 154.544 67.0559 154.544 67.0559L162.224 49.1039C163.28 46.7999 163.28 45.7439 160.208 45.7439L154.928 45.8399C155.312 46.3199 156.656 48.0479 155.888 49.8719L149.744 65.5199C147.728 70.5119 147.728 77.9999 154.928 77.9999C162.032 77.9999 167.504 65.8079 170 60.4319C170.864 58.5119 169.52 57.8399 168.752 59.5679C166.064 64.9439 162.896 70.8959 159.728 74.0639C158.672 75.0239 156.848 76.0799 155.408 75.8879C152.72 75.6959 152.528 73.0079 153.392 69.8399Z" fill="#E5F0FF"/>
<path d="M216.351 18.2879C214.911 18.4799 213.471 17.9999 212.223 17.9039C209.151 17.6159 207.519 18.5759 205.695 22.8959C203.391 28.0799 199.167 36.9119 194.559 45.6479C187.647 41.6159 179.295 44.9759 173.919 51.2159C166.911 59.6639 161.631 75.1199 170.655 77.6159C177.279 79.3439 181.791 71.6639 184.671 66.9599C183.711 70.8959 184.479 73.7759 185.535 75.4079C186.783 77.2319 188.319 77.9999 189.855 77.9999C197.535 77.9999 203.103 65.5199 205.407 60.1439C206.271 58.2239 204.735 57.8399 203.967 59.5679C201.951 63.5999 196.383 75.5039 191.583 75.5039C187.071 75.5039 190.047 67.4399 191.007 65.2319C196.575 51.9839 213.471 20.9759 216.351 18.2879ZM193.791 47.1839C189.279 55.6319 184.479 63.8879 180.927 68.8799C172.767 80.3999 167.007 74.4479 173.343 62.5439C178.431 53.1359 188.991 42.4799 193.791 47.1839Z" fill="#E5F0FF"/>
<path d="M235 107H275V109H235V107Z" fill="#E5F0FF"/>
<path d="M4 107H44V109H4V107Z" fill="#E5F0FF"/>
<path d="M72.3105 116V103.856L67.2945 113.072H65.7105L60.6705 103.856V116H57.9825V98.9599H60.8625L66.5025 109.376L72.1425 98.9599H75.0225V116H72.3105Z" fill="#9DBEEA"/>
<path d="M93.9693 116.12C92.6093 116.12 91.4573 115.888 90.5133 115.424C89.5853 114.96 88.8333 114.328 88.2573 113.528C87.6973 112.728 87.2813 111.816 87.0093 110.792C86.7533 109.768 86.6253 108.704 86.6253 107.6V98.9599H89.3133V107.6C89.3133 108.384 89.3933 109.144 89.5533 109.88C89.7133 110.6 89.9693 111.248 90.3213 111.824C90.6733 112.4 91.1453 112.856 91.7373 113.192C92.3453 113.528 93.0893 113.696 93.9693 113.696C94.8653 113.696 95.6093 113.528 96.2013 113.192C96.8093 112.84 97.2813 112.376 97.6173 111.8C97.9693 111.208 98.2253 110.552 98.3853 109.832C98.5453 109.112 98.6253 108.368 98.6253 107.6V98.9599H101.337V107.6C101.337 108.768 101.193 109.872 100.905 110.912C100.633 111.936 100.201 112.84 99.6093 113.624C99.0333 114.392 98.2813 115 97.3533 115.448C96.4253 115.896 95.2973 116.12 93.9693 116.12Z" fill="#9DBEEA"/>
<path d="M126.304 111.608C126.304 112.52 126.064 113.304 125.584 113.96C125.12 114.616 124.488 115.12 123.688 115.472C122.888 115.824 122.008 116 121.048 116H112.912V98.9599H121.696C122.496 98.9599 123.184 99.1759 123.76 99.6079C124.352 100.024 124.8 100.568 125.104 101.24C125.424 101.896 125.584 102.584 125.584 103.304C125.584 104.136 125.368 104.92 124.936 105.656C124.52 106.376 123.92 106.912 123.136 107.264C124.112 107.552 124.88 108.08 125.44 108.848C126.016 109.6 126.304 110.52 126.304 111.608ZM123.544 111.104C123.544 110.624 123.44 110.192 123.232 109.808C123.04 109.408 122.768 109.088 122.416 108.848C122.08 108.592 121.68 108.464 121.216 108.464H115.6V113.672H121.048C121.528 113.672 121.952 113.56 122.32 113.336C122.704 113.096 123 112.784 123.208 112.4C123.432 112 123.544 111.568 123.544 111.104ZM115.6 101.288V106.304H120.544C120.992 106.304 121.392 106.2 121.744 105.992C122.096 105.768 122.376 105.472 122.584 105.104C122.792 104.72 122.896 104.288 122.896 103.808C122.896 103.312 122.8 102.88 122.608 102.512C122.416 102.128 122.152 101.832 121.816 101.624C121.496 101.4 121.12 101.288 120.688 101.288H115.6Z" fill="#9DBEEA"/>
<path d="M141.676 98.9599H144.22L150.844 116H148.012L146.212 111.368H139.636L137.86 116H135.004L141.676 98.9599ZM145.684 109.376L142.948 101.912L140.116 109.376H145.684Z" fill="#9DBEEA"/>
<path d="M160.951 116V98.9599H168.367C169.135 98.9599 169.839 99.1199 170.479 99.4399C171.119 99.7599 171.671 100.184 172.135 100.712C172.615 101.24 172.983 101.832 173.239 102.488C173.511 103.144 173.647 103.816 173.647 104.504C173.647 105.256 173.511 105.976 173.239 106.664C172.967 107.352 172.575 107.944 172.063 108.44C171.567 108.936 170.983 109.296 170.311 109.52L174.319 116H171.295L167.599 110.072H163.639V116H160.951ZM163.639 107.696H168.343C168.839 107.696 169.279 107.552 169.663 107.264C170.047 106.976 170.351 106.592 170.575 106.112C170.799 105.616 170.911 105.08 170.911 104.504C170.911 103.912 170.783 103.384 170.527 102.92C170.271 102.44 169.935 102.056 169.519 101.768C169.119 101.48 168.679 101.336 168.199 101.336H163.639V107.696Z" fill="#9DBEEA"/>
<path d="M189.738 98.9599H192.282L198.906 116H196.074L194.274 111.368H187.698L185.922 116H183.066L189.738 98.9599ZM193.746 109.376L191.01 101.912L188.178 109.376H193.746Z" fill="#9DBEEA"/>
<path d="M209.014 116V98.9839H211.702V107.744L219.718 98.9599H222.694L215.974 106.496L223.078 116H220.03L214.27 108.2L211.702 110.864V116H209.014Z" fill="#9DBEEA"/>
</svg>
