<svg width="220" height="220" viewBox="0 0 220 220" fill="none" xmlns="http://www.w3.org/2000/svg">
<mask id="mask0_3343_3120" style="mask-type:alpha" maskUnits="userSpaceOnUse" x="0" y="0" width="220" height="220">
<rect width="220" height="220" fill="#D9D9D9"/>
</mask>
<g mask="url(#mask0_3343_3120)">
<g opacity="0.4">
<path d="M211.566 4.14277C217.356 -1.648 225.235 -3.16504 225.235 -3.16504C225.235 -3.16504 223.718 4.71368 217.927 10.5045C212.137 16.2952 204.258 17.8122 204.258 17.8122C204.258 17.8122 205.775 9.93354 211.566 4.14277Z" fill="#BFD2ED"/>
<path d="M175.861 8.22063C184.213 4.76248 192.891 6.54049 192.891 6.54049C192.891 6.54049 188.013 13.9298 179.662 17.3879C171.31 20.8461 162.632 19.0681 162.632 19.0681C162.632 19.0681 167.509 11.6788 175.861 8.22063Z" fill="#BFD2ED"/>
<path d="M138.278 23.7982C146.63 20.3401 155.308 22.1182 155.308 22.1182C155.308 22.1182 150.431 29.5075 142.079 32.9657C133.727 36.4238 125.049 34.6458 125.049 34.6458C125.049 34.6458 129.91 27.2564 138.278 23.7982Z" fill="#BFD2ED"/>
<path d="M100.451 38.2182C108.802 34.76 117.481 36.5381 117.481 36.5381C117.481 36.5381 112.603 43.9274 104.251 47.3855C95.8997 50.8437 87.2217 49.0657 87.2217 49.0657C87.2217 49.0657 92.099 41.6763 100.451 38.2182Z" fill="#BFD2ED"/>
<path d="M186.724 27.7464C193.119 21.352 201.813 19.6719 201.813 19.6719C201.813 19.6719 200.133 28.3662 193.739 34.7605C187.344 41.1548 178.65 42.835 178.65 42.835C178.65 42.835 180.33 34.1407 186.724 27.7464Z" fill="#BFD2ED"/>
<path d="M157.966 56.5203C164.36 50.126 173.055 48.4458 173.055 48.4458C173.055 48.4458 171.375 57.1401 164.98 63.5344C158.586 69.9287 149.892 71.6089 149.892 71.6089C149.892 71.6089 151.572 62.9146 157.966 56.5203Z" fill="#BFD2ED"/>
<path d="M128.686 84.0877C135.081 77.6933 143.775 76.0132 143.775 76.0132C143.775 76.0132 142.095 84.7075 135.7 91.1018C129.306 97.4961 120.612 99.1763 120.612 99.1763C120.612 99.1763 122.292 90.482 128.686 84.0877Z" fill="#BFD2ED"/>
<path d="M204.244 41.6114C207.702 33.2596 215.092 28.3823 215.092 28.3823C215.092 28.3823 216.87 37.0602 213.411 45.412C209.953 53.7637 202.564 58.6411 202.564 58.6411C202.564 58.6411 200.786 49.9631 204.244 41.6114Z" fill="#BFD2ED"/>
<path d="M188.665 79.2105C192.124 70.8587 199.513 65.9814 199.513 65.9814C199.513 65.9814 201.291 74.6594 197.833 83.0112C194.375 91.363 186.985 96.2402 186.985 96.2402C186.985 96.2402 185.207 87.5622 188.665 79.2105Z" fill="#BFD2ED"/>
<path d="M172.338 115.652C175.796 107.301 183.185 102.423 183.185 102.423C183.185 102.423 184.963 111.101 181.505 119.453C178.047 127.805 170.658 132.682 170.658 132.682C170.658 132.682 168.88 124.004 172.338 115.652Z" fill="#BFD2ED"/>
<path d="M144.704 1.40198C158.129 -1.40369 170.559 3.6857 170.559 3.6857C170.559 3.6857 161.212 13.3261 147.787 16.1318C134.362 18.9375 121.933 13.8481 121.933 13.8481C121.933 13.8481 131.279 4.20765 144.704 1.40198Z" fill="#BFD2ED"/>
<path d="M84.2843 14.0275C97.7091 11.2218 110.139 16.3112 110.139 16.3112C110.139 16.3112 100.792 25.9516 87.3673 28.7573C73.9425 31.5629 61.5127 26.4736 61.5127 26.4736C61.5127 26.4736 70.8595 16.8331 84.2843 14.0275Z" fill="#BFD2ED"/>
<path d="M23.5548 25.1681C36.9796 22.3624 49.4093 27.4518 49.4093 27.4518C49.4093 27.4518 40.0626 37.0922 26.6378 39.8979C13.213 42.7036 0.783203 37.6142 0.783203 37.6142C0.783203 37.6142 10.1137 27.9738 23.5548 25.1681Z" fill="#BFD2ED"/>
<path d="M155.405 33.5538C166.742 25.8219 180.167 25.7729 180.167 25.7729C180.167 25.7729 175.224 38.2517 163.888 45.9836C152.551 53.7155 139.126 53.7644 139.126 53.7644C139.126 53.7644 144.085 41.2857 155.405 33.5538Z" fill="#BFD2ED"/>
<path d="M104.414 68.3483C115.751 60.6164 129.175 60.5674 129.175 60.5674C129.175 60.5674 124.233 73.0461 112.896 80.778C101.559 88.5099 88.1343 88.5588 88.1343 88.5588C88.1343 88.5588 93.0768 76.0802 104.414 68.3483Z" fill="#BFD2ED"/>
<path d="M52.7213 101.494C64.0582 93.7618 77.483 93.7129 77.483 93.7129C77.483 93.7129 72.5404 106.192 61.2036 113.923C49.8667 121.655 36.4419 121.704 36.4419 121.704C36.4419 121.704 41.3844 109.226 52.7213 101.494Z" fill="#BFD2ED"/>
<path d="M177.605 59.1791C185.125 47.6955 197.505 42.5083 197.505 42.5083C197.505 42.5083 197.718 55.9331 190.198 67.4168C182.678 78.9005 170.297 84.0877 170.297 84.0877C170.297 84.0877 170.085 70.6465 177.605 59.1791Z" fill="#BFD2ED"/>
<path d="M143.806 110.823C151.326 99.3396 163.707 94.1523 163.707 94.1523C163.707 94.1523 163.919 107.577 156.399 119.061C148.879 130.545 136.499 135.732 136.499 135.732C136.499 135.732 136.287 122.307 143.806 110.823Z" fill="#BFD2ED"/>
<path d="M108.882 160.852C116.402 149.368 128.783 144.181 128.783 144.181C128.783 144.181 128.995 157.606 121.475 169.09C113.956 180.573 101.575 185.761 101.575 185.761C101.575 185.761 101.379 172.336 108.882 160.852Z" fill="#BFD2ED"/>
<path d="M207.914 74.3503C210.459 60.8766 219.92 51.334 219.92 51.334C219.92 51.334 225.254 63.6659 222.709 77.1396C220.165 90.6134 210.704 100.156 210.704 100.156C210.704 100.156 205.353 87.8241 207.914 74.3503Z" fill="#BFD2ED"/>
<path d="M196.446 134.999C198.991 121.525 208.452 111.983 208.452 111.983C208.452 111.983 213.786 124.315 211.241 137.788C208.697 151.262 199.236 160.805 199.236 160.805C199.236 160.805 193.902 148.489 196.446 134.999Z" fill="#BFD2ED"/>
<path d="M183.494 194.194C186.039 180.721 195.5 171.178 195.5 171.178C195.5 171.178 200.834 183.51 198.289 196.984C195.745 210.458 186.284 220 186.284 220C186.284 220 180.933 207.668 183.494 194.194Z" fill="#BFD2ED"/>
<path d="M94.3166 121.034C100.711 114.64 109.405 112.959 109.405 112.959C109.405 112.959 107.725 121.654 101.331 128.048C94.9365 134.442 86.2422 136.123 86.2422 136.123C86.2422 136.123 87.9223 127.428 94.3166 121.034Z" fill="#BFD2ED"/>
</g>
</g>
</svg>
