<svg width="742" height="119" viewBox="0 0 742 119" fill="none" xmlns="http://www.w3.org/2000/svg">
<path d="M40.3445 62.3553C36.3124 57.7615 28.065 54.9063 22.0903 50.9531C23.8497 50.8982 25.2793 49.4523 25.2793 47.6587C25.2793 45.9932 24.033 44.6571 22.4385 44.4375C23.7764 44.1813 24.8394 43.1564 24.8394 41.7471C24.8394 40.3012 23.7214 39.2031 22.3102 39.0201H22.9517V38.7822C23.5198 38.471 23.923 37.9037 23.923 37.1899C23.923 36.4761 23.5381 35.8538 22.9517 35.5061V0H20.9906V35.4878C20.4041 35.8355 20.0009 36.4578 20.0009 37.1716C20.0009 37.8854 20.4041 38.4527 20.9906 38.7639V39.0018H21.6321C20.2209 39.1848 19.0846 40.2829 19.0846 41.7288C19.0846 43.1564 20.1659 44.1813 21.5038 44.4192C19.891 44.6571 18.6447 45.9749 18.6447 47.6404C18.6447 49.3059 19.891 50.6236 21.4855 50.8616C15.4924 54.8514 7.15336 57.7248 3.10298 62.337C0.408836 65.4117 0.628765 70.701 1.01364 73.6477L1.10528 118.671H42.3422V113.327L42.4521 73.6477C42.8187 70.7193 43.0386 65.43 40.3445 62.3553ZM13.3664 112.412H7.95977H4.23928V91.9864C4.27594 87.7586 7.35496 85.5807 10.379 84.9218C11.9552 85.965 13.3481 87.9599 13.3664 91.2909V112.412ZM20.2209 112.412H16.3171V91.2726C16.3171 89.2228 16.9036 87.7586 17.6733 86.6056C19.1212 87.8135 20.2025 89.5522 20.2209 91.9864V112.412ZM27.1303 112.412H23.2266V92.0779C23.2449 89.6254 24.3262 87.8501 25.8108 86.6605C26.5622 87.8135 27.1303 89.2594 27.1303 91.2726V112.412ZM39.2082 112.412H35.4877H30.0994V91.2726C30.1177 88.0148 31.419 86.0565 32.9585 84.995C36.0192 85.6356 39.1715 87.8135 39.2082 92.0779V112.412Z" fill="#E6F0FF"/>
<path d="M93.2192 49.013C90.0119 45.3526 83.4324 43.0831 78.6855 39.9168C80.0968 39.8802 81.2331 38.7272 81.2331 37.2996C81.2331 35.9636 80.2434 34.9204 78.9605 34.719C80.0234 34.5177 80.8665 33.7124 80.8665 32.5777C80.8665 31.4246 79.9685 30.5461 78.8505 30.3997C79.5653 30.2533 80.1334 29.7043 80.1334 28.9356C80.1334 28.0754 79.437 27.3799 78.5756 27.3799C77.6959 27.3799 77.0177 28.0754 77.0177 28.9356C77.0177 29.7043 77.5859 30.2533 78.319 30.3997C77.201 30.5645 76.303 31.4246 76.303 32.596C76.303 33.7307 77.1644 34.536 78.2273 34.7373C76.9444 34.9204 75.9547 35.9819 75.9547 37.3179C75.9547 38.6357 76.9444 39.6972 78.2273 39.8802C73.4622 43.0648 66.8093 45.3526 63.5837 49.0313C61.4394 51.4838 61.6043 55.6932 61.9159 58.0359L61.9892 93.8897H94.8504V89.6254L94.9237 58.0176C95.1986 55.6749 95.3819 51.4655 93.2192 49.013ZM71.7394 88.8933H67.4325H64.4634V72.6227C64.4817 69.2551 66.9559 67.5164 69.3568 66.9856C70.6214 67.8092 71.7211 69.4015 71.7394 72.0553V88.8933ZM77.201 88.8933H74.1037V72.0553C74.1037 70.4264 74.5802 69.2551 75.185 68.34C76.3396 69.2917 77.201 70.6827 77.2193 72.6227V88.8933H77.201ZM82.6993 88.8933H79.6019V72.6959C79.6202 70.7376 80.4816 69.3283 81.6546 68.3766C82.2594 69.2917 82.6993 70.4447 82.6993 72.0553V88.8933ZM92.3395 88.8933H89.3705H85.0818V72.0553C85.0818 69.4747 86.1448 67.9008 87.3544 67.0589C89.792 67.5713 92.3212 69.31 92.3395 72.7142V88.8933Z" fill="#E6F0FF"/>
<path d="M79.1255 0H78.0808V27.3983H78.594H79.1255V0Z" fill="#E6F0FF"/>
<path d="M701.961 62.3553C705.993 57.7615 714.241 54.9063 720.216 50.9531C718.456 50.8982 717.027 49.4523 717.027 47.6587C717.027 45.9932 718.273 44.6571 719.867 44.4375C718.53 44.1813 717.467 43.1564 717.467 41.7471C717.467 40.3012 718.584 39.2031 719.996 39.0201H719.354V38.7822C718.786 38.471 718.383 37.9037 718.383 37.1899C718.383 36.4761 718.768 35.8538 719.354 35.5061V0H721.315V35.4878C721.902 35.8355 722.305 36.4578 722.305 37.1716C722.305 37.8854 721.902 38.4527 721.315 38.7639V39.0018H720.674C722.085 39.1848 723.221 40.2829 723.221 41.7288C723.221 43.1564 722.14 44.1813 720.802 44.4192C722.415 44.6571 723.661 45.9749 723.661 47.6404C723.661 49.3059 722.415 50.6236 720.82 50.8616C726.814 54.8514 735.153 57.7248 739.203 62.337C741.897 65.4117 741.677 70.701 741.292 73.6477L741.201 118.671H699.964V113.327L699.854 73.6477C699.487 70.7193 699.267 65.43 701.961 62.3553ZM728.94 112.412H734.346H738.067V91.9864C738.03 87.7586 734.951 85.5807 731.927 84.9218C730.351 85.965 728.958 87.9599 728.94 91.2909V112.412ZM722.085 112.412H725.989V91.2726C725.989 89.2228 725.402 87.7586 724.633 86.6056C723.185 87.8135 722.103 89.5522 722.085 91.9864V112.412ZM715.176 112.412H719.079V92.0779C719.061 89.6254 717.98 87.8501 716.495 86.6605C715.744 87.8135 715.176 89.2594 715.176 91.2726V112.412ZM703.098 112.412H706.818H712.207V91.2726C712.188 88.0148 710.887 86.0565 709.347 84.995C706.287 85.6356 703.134 87.8135 703.098 92.0779V112.412Z" fill="#E6F0FF"/>
<path d="M649.087 49.013C652.294 45.3526 658.874 43.0831 663.62 39.9168C662.209 39.8802 661.073 38.7272 661.073 37.2996C661.073 35.9636 662.063 34.9204 663.345 34.719C662.282 34.5177 661.439 33.7124 661.439 32.5777C661.439 31.4246 662.337 30.5461 663.455 30.3997C662.741 30.2533 662.172 29.7043 662.172 28.9356C662.172 28.0754 662.869 27.3799 663.73 27.3799C664.61 27.3799 665.288 28.0754 665.288 28.9356C665.288 29.7043 664.72 30.2533 663.987 30.3997C665.105 30.5645 666.003 31.4246 666.003 32.596C666.003 33.7307 665.142 34.536 664.079 34.7373C665.361 34.9204 666.351 35.9819 666.351 37.3179C666.351 38.6357 665.361 39.6972 664.079 39.8802C668.844 43.0648 675.497 45.3526 678.722 49.0313C680.867 51.4838 680.702 55.6932 680.39 58.0359L680.317 93.8897H647.456V89.6254L647.382 58.0176C647.107 55.6749 646.924 51.4655 649.087 49.013ZM670.566 88.8933H674.873H677.843V72.6227C677.824 69.2551 675.35 67.5164 672.949 66.9856C671.684 67.8092 670.585 69.4015 670.566 72.0553V88.8933ZM665.105 88.8933H668.202V72.0553C668.202 70.4264 667.726 69.2551 667.121 68.34C665.966 69.2917 665.105 70.6827 665.087 72.6227V88.8933H665.105ZM659.607 88.8933H662.704V72.6959C662.686 70.7376 661.824 69.3283 660.651 68.3766C660.047 69.2917 659.607 70.4447 659.607 72.0553V88.8933ZM649.966 88.8933H652.935H657.224V72.0553C657.224 69.4747 656.161 67.9008 654.951 67.0589C652.514 67.5713 649.985 69.31 649.966 72.7142V88.8933Z" fill="#E6F0FF"/>
<path d="M663.18 0H664.225V27.3983H663.712H663.18V0Z" fill="#E6F0FF"/>
</svg>
