<svg width="220" height="220" viewBox="0 0 220 220" fill="none" xmlns="http://www.w3.org/2000/svg">
<mask id="mask0_3343_3121" style="mask-type:alpha" maskUnits="userSpaceOnUse" x="0" y="0" width="220" height="220">
<rect width="220" height="220" fill="#D9D9D9"/>
</mask>
<g mask="url(#mask0_3343_3121)">
<g opacity="0.4">
<path d="M3.8322 9.96636C-1.95857 4.17559 -3.47559 -3.70312 -3.47559 -3.70312C-3.47559 -3.70312 4.40312 -2.18609 10.1939 3.60468C15.9847 9.39545 17.5017 17.2741 17.5017 17.2741C17.5017 17.2741 9.62297 15.7571 3.8322 9.96636Z" fill="#BFD2ED"/>
<path d="M7.91106 45.167C4.45291 36.8152 6.23092 28.1372 6.23092 28.1372C6.23092 28.1372 13.6203 33.0145 17.0784 41.3662C20.5366 49.718 18.7586 58.396 18.7586 58.396C18.7586 58.396 11.3855 53.5187 7.91106 45.167Z" fill="#BFD2ED"/>
<path d="M23.4887 82.75C20.0305 74.3982 21.8086 65.7202 21.8086 65.7202C21.8086 65.7202 29.1979 70.5976 32.6561 78.9493C36.1142 87.3011 34.3362 95.979 34.3362 95.979C34.3362 95.979 26.9468 91.1017 23.4887 82.75Z" fill="#BFD2ED"/>
<path d="M37.9091 119.583C34.451 111.231 36.229 102.553 36.229 102.553C36.229 102.553 43.6183 107.43 47.0765 115.782C50.5346 124.134 48.7566 132.812 48.7566 132.812C48.7566 132.812 41.3836 127.935 37.9091 119.583Z" fill="#BFD2ED"/>
<path d="M27.4363 34.2869C21.042 27.8926 19.3618 19.1982 19.3618 19.1982C19.3618 19.1982 28.0561 20.8783 34.4504 27.2726C40.8448 33.6669 42.5249 42.3612 42.5249 42.3612C42.5249 42.3612 33.8306 40.6812 27.4363 34.2869Z" fill="#BFD2ED"/>
<path d="M56.2112 63.0618C49.8169 56.6675 48.1367 47.9731 48.1367 47.9731C48.1367 47.9731 56.831 49.6533 63.2253 56.0476C69.6197 62.4419 71.2998 71.1362 71.2998 71.1362C71.2998 71.1362 62.6055 69.4561 56.2112 63.0618Z" fill="#BFD2ED"/>
<path d="M83.7781 91.3464C77.3838 84.9521 75.7036 76.2578 75.7036 76.2578C75.7036 76.2578 84.3979 77.938 90.7922 84.3323C97.1866 90.7266 98.8667 99.4209 98.8667 99.4209C98.8667 99.4209 90.1724 97.7408 83.7781 91.3464Z" fill="#BFD2ED"/>
<path d="M41.3008 16.7835C32.9491 13.3253 28.0718 5.936 28.0718 5.936C28.0718 5.936 36.7498 4.15799 45.1015 7.61614C53.4533 11.0743 58.3306 18.4637 58.3306 18.4637C58.3306 18.4637 49.6689 20.2416 41.3008 16.7835Z" fill="#BFD2ED"/>
<path d="M78.9 32.346C70.5482 28.8879 65.6709 21.4985 65.6709 21.4985C65.6709 21.4985 74.3489 19.7205 82.7007 23.1787C91.0524 26.6368 95.9297 34.0261 95.9297 34.0261C95.9297 34.0261 87.2517 35.8205 78.9 32.346Z" fill="#BFD2ED"/>
<path d="M115.341 47.6956C106.989 44.2375 102.112 36.8481 102.112 36.8481C102.112 36.8481 110.79 35.0701 119.142 38.5283C127.493 41.9864 132.371 49.3758 132.371 49.3758C132.371 49.3758 123.693 51.1538 115.341 47.6956Z" fill="#BFD2ED"/>
<path d="M1.71155 76.7632C-1.09412 63.3384 3.99524 50.9087 3.99524 50.9087C3.99524 50.9087 13.6356 60.2554 16.4413 73.6802C19.247 87.105 14.1576 99.5348 14.1576 99.5348C14.1576 99.5348 4.51722 90.188 1.71155 76.7632Z" fill="#BFD2ED"/>
<path d="M14.3375 137.183C11.5319 123.758 16.6212 111.328 16.6212 111.328C16.6212 111.328 26.2616 120.675 29.0673 134.1C31.873 147.525 26.7836 159.954 26.7836 159.954C26.7836 159.954 17.1269 150.624 14.3375 137.183Z" fill="#BFD2ED"/>
<path d="M25.1681 196.444C22.3624 183.02 27.4518 170.59 27.4518 170.59C27.4518 170.59 37.0922 179.937 39.8979 193.361C42.7035 206.786 37.6142 219.216 37.6142 219.216C37.6142 219.216 27.9738 209.869 25.1681 196.444Z" fill="#BFD2ED"/>
<path d="M33.8629 66.0629C26.131 54.7261 26.082 41.3013 26.082 41.3013C26.082 41.3013 38.5607 46.2438 46.2926 57.5806C54.0245 68.9175 54.0735 82.3423 54.0735 82.3423C54.0735 82.3423 41.5948 77.3998 33.8629 66.0629Z" fill="#BFD2ED"/>
<path d="M68.6568 117.054C60.9249 105.717 60.876 92.2925 60.876 92.2925C60.876 92.2925 73.3547 97.235 81.0866 108.572C88.8185 119.909 88.8674 133.334 88.8674 133.334C88.8674 133.334 76.3724 128.391 68.6568 117.054Z" fill="#BFD2ED"/>
<path d="M101.493 167.279C93.7609 155.942 93.7119 142.518 93.7119 142.518C93.7119 142.518 106.191 147.46 113.923 158.797C121.654 170.134 121.703 183.559 121.703 183.559C121.703 183.559 109.225 178.616 101.493 167.279Z" fill="#BFD2ED"/>
<path d="M59.4727 43.8627C47.989 36.3429 42.8018 23.962 42.8018 23.962C42.8018 23.962 56.2266 23.7499 67.7102 31.2698C79.1939 38.7896 84.3811 51.1705 84.3811 51.1705C84.3811 51.1705 70.9563 51.3826 59.4727 43.8627Z" fill="#BFD2ED"/>
<path d="M111.133 77.6772C99.6491 70.1573 94.4619 57.7765 94.4619 57.7765C94.4619 57.7765 107.887 57.5645 119.37 65.0843C130.854 72.6042 136.041 84.9849 136.041 84.9849C136.041 84.9849 122.616 85.1807 111.133 77.6772Z" fill="#BFD2ED"/>
<path d="M160.852 111.117C149.368 103.597 144.181 91.2164 144.181 91.2164C144.181 91.2164 157.605 91.0044 169.089 98.5243C180.573 106.044 185.76 118.425 185.76 118.425C185.76 118.425 172.335 118.621 160.852 111.117Z" fill="#BFD2ED"/>
<path d="M74.6423 13.5709C61.1685 11.0262 51.626 1.56517 51.626 1.56517C51.626 1.56517 63.9579 -3.76885 77.4316 -1.22417C90.9053 1.3205 100.448 10.7815 100.448 10.7815C100.448 10.7815 88.1323 16.1155 74.6423 13.5709Z" fill="#BFD2ED"/>
<path d="M135.307 25.0381C121.833 22.4935 112.291 13.0325 112.291 13.0325C112.291 13.0325 124.622 7.69843 138.096 10.2431C151.57 12.7878 161.112 22.2488 161.112 22.2488C161.112 22.2488 148.781 27.5828 135.307 25.0381Z" fill="#BFD2ED"/>
<path d="M194.194 36.5064C180.72 33.9617 171.178 24.5008 171.178 24.5008C171.178 24.5008 183.51 19.1667 196.983 21.7114C210.457 24.256 220 33.717 220 33.717C220 33.717 207.668 39.0674 194.194 36.5064Z" fill="#BFD2ED"/>
<path d="M120.724 127.217C114.33 120.822 112.65 112.128 112.65 112.128C112.65 112.128 121.344 113.808 127.739 120.202C134.133 126.597 135.813 135.291 135.813 135.291C135.813 135.291 127.119 133.627 120.724 127.217Z" fill="#BFD2ED"/>
</g>
</g>
</svg>
