<svg width="100%" height="100%" viewBox="0 0 24 24" fill="none" xmlns="http://www.w3.org/2000/svg">
	<path d="M10 16.7482C9.73333 16.7482 9.47917 16.6982 9.2375 16.5982C8.99583 16.4982 8.775 16.3565 8.575 16.1732L3.825 11.4232C3.64167 11.2232 3.5 11.0023 3.4 10.7607C3.3 10.519 3.25 10.2648 3.25 9.99816C3.25 9.73149 3.3 9.47316 3.4 9.22316C3.5 8.97316 3.64167 8.75649 3.825 8.57316L8.575 3.79816L6.875 2.09816C6.69167 1.91482 6.6 1.68566 6.6 1.41066C6.6 1.13566 6.7 0.898156 6.9 0.698156C7.1 0.514823 7.33333 0.41899 7.6 0.410656C7.86667 0.402323 8.1 0.498156 8.3 0.698156L16.175 8.57316C16.375 8.75649 16.5208 8.97316 16.6125 9.22316C16.7042 9.47316 16.75 9.73149 16.75 9.99816C16.75 10.2648 16.7042 10.519 16.6125 10.7607C16.5208 11.0023 16.375 11.2232 16.175 11.4232L11.425 16.1732C11.2417 16.3565 11.025 16.4982 10.775 16.5982C10.525 16.6982 10.2667 16.7482 10 16.7482ZM10 5.22316L5.225 9.99816H14.775L10 5.22316ZM19 16.9982C18.45 16.9982 17.9792 16.8023 17.5875 16.4107C17.1958 16.019 17 15.5482 17 14.9982C17 14.6482 17.1042 14.2732 17.3125 13.8732C17.5208 13.4732 17.75 13.0982 18 12.7482C18.15 12.5482 18.3083 12.3398 18.475 12.1232C18.6417 11.9065 18.8167 11.6982 19 11.4982C19.1833 11.6982 19.3583 11.9065 19.525 12.1232C19.6917 12.3398 19.85 12.5482 20 12.7482C20.25 13.0982 20.4792 13.4732 20.6875 13.8732C20.8958 14.2732 21 14.6482 21 14.9982C21 15.5482 20.8042 16.019 20.4125 16.4107C20.0208 16.8023 19.55 16.9982 19 16.9982ZM4 23.9982C3.45 23.9982 2.97917 23.8023 2.5875 23.4107C2.19583 23.019 2 22.5482 2 21.9982C2 21.4482 2.19583 20.9773 2.5875 20.5857C2.97917 20.194 3.45 19.9982 4 19.9982H20C20.55 19.9982 21.0208 20.194 21.4125 20.5857C21.8042 20.9773 22 21.4482 22 21.9982C22 22.5482 21.8042 23.019 21.4125 23.4107C21.0208 23.8023 20.55 23.9982 20 23.9982H4Z" fill="#3060AA" />
</svg>
