<?xml version="1.0" encoding="utf-8"?>
<!-- Generator: Adobe Illustrator 24.3.0, SVG Export Plug-In . SVG Version: 6.00 Build 0) -->
<svg version="1.1" id="Layer_1" xmlns="http://www.w3.org/2000/svg" xmlns:xlink="http://www.w3.org/1999/xlink" x="0px" y="0px" viewBox="0 0 24 24" style="enable-background:new 0 0 24 24;" xml:space="preserve">
	<style type="text/css">
		.st0{fill:#333;}
	</style>
	<path class="st0" d="M19.4,7.4l-4.8-4.8C14.2,2.2,13.7,2,13.2,2H6C4.9,2,4,2.9,4,4l0,16c0,1.1,0.9,2,2,2h12c1.1,0,2-0.9,2-2V8.8
	C20,8.3,19.8,7.8,19.4,7.4z M14.8,15H13v3c0,0.5-0.4,1-1,1s-1-0.5-1-1v-3H9.2c-0.4,0-0.7-0.5-0.4-0.9l2.8-2.8c0.2-0.2,0.5-0.2,0.7,0
	l2.8,2.8C15.5,14.5,15.2,15,14.8,15z M14,9c-0.6,0-1-0.4-1-1V3.5L18.5,9H14z" />
</svg>
