<?xml version="1.0" encoding="utf-8"?>
<!-- Generator: Adobe Illustrator 25.2.0, SVG Export Plug-In . SVG Version: 6.00 Build 0)  -->
<svg version="1.1" id="Layer_1" xmlns="http://www.w3.org/2000/svg" xmlns:xlink="http://www.w3.org/1999/xlink" x="0px" y="0px"
	 viewBox="0 0 24 24" style="enable-background:new 0 0 24 24;" xml:space="preserve">
<style type="text/css">
	.st0{fill:#4F5666;stroke:#4F5666;stroke-width:0.3;stroke-miterlimit:10;}
</style>
<path class="st0" d="M12,7c2.2,0,4.1,1.6,4.5,3.7l0.2,1.2L18,12c1.3,0.1,2.3,1.2,2.3,2.5c0,1.4-1.1,2.5-2.5,2.5H7
	c-1.8,0-3.3-1.5-3.3-3.3c0-1.7,1.3-3.1,3-3.3l0.9-0.1l0.4-0.8C8.7,7.9,10.3,7,12,7 M12,5.3c-2.4,0-4.5,1.4-5.5,3.4
	C3.9,9,2,11.1,2,13.7c0,2.8,2.2,5,5,5h10.8c2.3,0,4.2-1.9,4.2-4.2c0-2.2-1.7-4-3.9-4.1C17.6,7.5,15,5.3,12,5.3z"/>
</svg>
