<?xml version="1.0" encoding="UTF-8" standalone="no"?>
<!DOCTYPE svg PUBLIC "-//W3C//DTD SVG 1.1//EN" "http://www.w3.org/Graphics/SVG/1.1/DTD/svg11.dtd">
<svg width="100%" height="100%" viewBox="0 0 12 12" version="1.1" xmlns="http://www.w3.org/2000/svg" xmlns:xlink="http://www.w3.org/1999/xlink" xml:space="preserve" xmlns:serif="http://www.serif.com/" style="fill-rule:evenodd;clip-rule:evenodd;stroke-linecap:round;stroke-linejoin:round;">
    <g>
        <g transform="matrix(0.944444,0,0,0.944444,0.333333,0.333333)">
            <path d="M9.75,1.5L2.25,1.5C1.839,1.5 1.5,1.839 1.5,2.25L1.5,9.75C1.5,10.161 1.839,10.5 2.25,10.5L9.75,10.5C10.161,10.5 10.5,10.161 10.5,9.75L10.5,2.25C10.5,1.839 10.161,1.5 9.75,1.5Z" style="fill:none;stroke:rgb(51,51,51);stroke-width:1px;"/>
        </g>
        <g transform="matrix(0.944444,0,0,0.944444,0.333333,0.333333)">
            <path d="M5.25,7.75L6.5,8.75L8.5,6.25" style="fill:none;stroke:rgb(51,51,51);stroke-width:1px;"/>
        </g>
        <g transform="matrix(0.944444,0,0,0.944444,0.333333,0.333333)">
            <path d="M3.5,3.75L8.5,3.75" style="fill:none;stroke:rgb(51,51,51);stroke-width:1px;"/>
        </g>
        <g transform="matrix(0.944444,0,0,0.944444,0.333333,0.333333)">
            <path d="M3.5,5.75L5.5,5.75" style="fill:none;stroke:rgb(51,51,51);stroke-width:1px;"/>
        </g>
    </g>
</svg>
