<?xml version="1.0" encoding="utf-8"?>
<!-- Generator: Adobe Illustrator 24.3.0, SVG Export Plug-In . SVG Version: 6.00 Build 0) -->
<svg version="1.1" id="Layer_1" xmlns="http://www.w3.org/2000/svg" xmlns:xlink="http://www.w3.org/1999/xlink" x="0px" y="0px" viewBox="0 0 24 24" style="enable-background:new 0 0 24 24;" xml:space="preserve">
	<style type="text/css">
		.st0{fill:#333;stroke:#333;stroke-width:0.2;}
	</style>
	<path class="st0" d="M22.5,20.9h-1.1V12v-0.1h-0.1h-6h-0.1V12v8.9h-2.8V9V8.9h-0.1h-6H6.2V9v11.9H3.1V1.5V1.4H3H1.5H1.4v0.1V21
	c0,0.4,0.2,0.8,0.5,1.1c0.3,0.3,0.7,0.5,1.1,0.5h19.5h0.1v-0.1V21v-0.1H22.5z" />
	<path class="st0" d="M17.6,8.9l2.6-3.6l0.1-0.1l0.1,0.1l1.2,0.9l0.1,0.1l-0.1,0.1L18.9,10l0,0c-0.1,0.2-0.3,0.4-0.6,0.5
	c-0.2,0.1-0.5,0.2-0.7,0.2l0,0l0,0l0,0 M17.6,8.9l-0.9,1.5c0.3,0.2,0.6,0.3,0.9,0.3 M17.6,8.9L9.8,3.2l0,0l0,0
	C9.5,2.9,9.1,2.9,8.7,2.9C8.3,3,7.9,3.2,7.6,3.5l0,0l-2.2,3L5.3,6.6l0.1,0.1l1.2,0.9l0.1,0.1l0.1-0.1L9,4.7l7.7,5.7L17.6,8.9z" />
</svg>
