<?xml version="1.0" encoding="utf-8"?>
<!-- Generator: Adobe Illustrator 24.3.0, SVG Export Plug-In . SVG Version: 6.00 Build 0) -->
<svg version="1.1" id="Layer_1" xmlns="http://www.w3.org/2000/svg" xmlns:xlink="http://www.w3.org/1999/xlink" x="0px" y="0px" viewBox="0 0 25 24" style="enable-background:new 0 0 25 24;" xml:space="preserve">
	<style type="text/css">
		.st0{fill:#333;}
	</style>
	<path class="st0" d="M20.2,8.3l-5.4-6c-0.1-0.1-0.2-0.2-0.3-0.2C14.3,2,14.2,2,14.1,2h-7c-0.3,0-0.7,0.1-1,0.2
	C5.8,2.3,5.5,2.5,5.3,2.7S4.8,3.2,4.7,3.5c-0.1,0.3-0.2,0.6-0.2,1v15c0,0.3,0.1,0.7,0.2,1C4.8,20.8,5,21,5.3,21.3
	c0.2,0.2,0.5,0.4,0.8,0.5s0.6,0.2,1,0.2H18c0.3,0,0.7-0.1,1-0.2s0.6-0.3,0.8-0.5c0.2-0.2,0.4-0.5,0.6-0.8c0.1-0.3,0.2-0.6,0.2-1V9
	C20.5,8.8,20.4,8.5,20.2,8.3z M14.5,5l2.7,3h-2c-0.1,0-0.2,0-0.3-0.1c-0.1,0-0.2-0.1-0.2-0.2c-0.1-0.1-0.1-0.2-0.2-0.3
	c0-0.1,0-0.2,0-0.3C14.5,7.1,14.5,5,14.5,5z M17.9,20H7.1C7,20,7,20,6.9,20s-0.1-0.1-0.2-0.1s-0.1-0.1-0.1-0.2s0-0.1-0.1-0.2v-15
	c0-0.1,0-0.1,0.1-0.2c0-0.1,0.1-0.1,0.1-0.2C6.8,4.1,6.8,4,6.9,4c0,0,0.1,0,0.2,0h5.4v3.2c0,0.7,0.3,1.4,0.8,2
	c0.5,0.5,1.2,0.8,1.9,0.9h3.3v9.5c0,0.1,0,0.1-0.1,0.2c0,0.1-0.1,0.1-0.1,0.2c-0.1,0-0.1,0.1-0.2,0.1C18.1,20,18,20,17.9,20z" />
	<path class="st0" d="M14.5,13h-1v-1c0-0.3-0.1-0.5-0.3-0.7S12.8,11,12.5,11s-0.5,0.1-0.7,0.3s-0.3,0.4-0.3,0.7v1h-1
	c-0.3,0-0.5,0.1-0.7,0.3S9.5,13.7,9.5,14s0.1,0.5,0.3,0.7s0.4,0.3,0.7,0.3h1v1c0,0.3,0.1,0.5,0.3,0.7s0.4,0.3,0.7,0.3
	s0.5-0.1,0.7-0.3s0.3-0.4,0.3-0.7v-1h1c0.3,0,0.5-0.1,0.7-0.3s0.3-0.4,0.3-0.7s-0.1-0.5-0.3-0.7S14.8,13,14.5,13z" />
</svg>
