<?xml version="1.0" encoding="utf-8"?>
<!-- Generator: Adobe Illustrator 25.2.0, SVG Export Plug-In . SVG Version: 6.00 Build 0)  -->
<svg version="1.1" id="Layer_1" xmlns:serif="http://www.serif.com/"
	 xmlns="http://www.w3.org/2000/svg" xmlns:xlink="http://www.w3.org/1999/xlink" x="0px" y="0px" viewBox="0 0 595.3 595.3"
	 style="enable-background:new 0 0 595.3 595.3;" xml:space="preserve">
<style type="text/css">
	.st0{fill:#333333;}
</style>
<path class="st0" d="M491.9,64.5H103.3c-21.3,0-38.9,17.6-38.9,38.9v388.6c0,21.3,17.6,38.9,38.9,38.9h388.6
	c21.3,0,38.9-17.6,38.9-38.9V103.3C530.8,82.1,513.2,64.5,491.9,64.5z M164.8,153.1h234.2c12.9,0,23.4,10.5,23.4,23.4
	S412,200,399.1,200H164.8c-12.9,0-23.4-10.5-23.4-23.4S151.9,153.1,164.8,153.1z M141.4,270.2c0-12.9,10.5-23.4,23.4-23.4h93.7
	c12.9,0,23.4,10.5,23.4,23.4s-10.5,23.4-23.4,23.4h-93.7C151.9,293.7,141.4,283.2,141.4,270.2z M440.6,331.6l-93.7,117.1
	c-4.6,5.8-11.4,8.8-18.3,8.8c-5.1,0-10.3-1.7-14.6-5.1l-58.6-46.9c-10.1-8.1-11.8-22.8-3.7-32.9c8.1-10.1,22.8-11.7,32.9-3.7
	l40.3,32.2l79.1-98.8c8.1-10.1,22.8-11.7,32.9-3.7C447.1,306.7,448.7,321.5,440.6,331.6z"/>
</svg>
