<?xml version="1.0" encoding="utf-8"?>
<!-- Generator: Adobe Illustrator 24.3.0, SVG Export Plug-In . SVG Version: 6.00 Build 0)  -->
<svg version="1.1" id="Layer_1" xmlns="http://www.w3.org/2000/svg" xmlns:xlink="http://www.w3.org/1999/xlink" x="0px" y="0px"
	 viewBox="0 0 25 24" style="enable-background:new 0 0 25 24;" xml:space="preserve">
<style type="text/css">
	.st0{fill:#4F5666;}
</style>
<path class="st0" d="M16.3,2.5L21,7.2v13.3c0,0.1,0,0.2-0.1,0.4c0,0.1-0.1,0.2-0.2,0.3c-0.1,0.1-0.2,0.2-0.3,0.2
	c-0.1,0-0.2,0.1-0.4,0.1H4.9c-0.2,0-0.5-0.1-0.7-0.3S4,20.8,3.9,20.6V3.4c0-0.5,0.4-0.9,0.9-0.9H16.3z M15.4,4.4H5.8v15.2h13.3V8.2
	h-3.8V4.4z M13.4,9.1v3.8h2.8v1.9h-4.7V9.1H13.4z"/>
</svg>
