<svg width="100%" height="100%" viewBox="0 0 32 32" fill="none" xmlns="http://www.w3.org/2000/svg">
	<path d="M20 5.33341V14.6667H6.89329L6.10663 15.4534L5.33329 16.2267V5.33341H20ZM21.3333 2.66675H3.99996C3.26663 2.66675 2.66663 3.26675 2.66663 4.00008V22.6667L7.99996 17.3334H21.3333C22.0666 17.3334 22.6666 16.7334 22.6666 16.0001V4.00008C22.6666 3.26675 22.0666 2.66675 21.3333 2.66675ZM28 8.00008H25.3333V20.0001H7.99996V22.6667C7.99996 23.4001 8.59996 24.0001 9.33329 24.0001H24L29.3333 29.3334V9.33341C29.3333 8.60008 28.7333 8.00008 28 8.00008Z" fill="#006C32" />
</svg>
