<?xml version="1.0" encoding="utf-8"?>
<!-- Generator: Adobe Illustrator 24.3.0, SVG Export Plug-In . SVG Version: 6.00 Build 0)  -->
<svg version="1.1" id="Layer_1" xmlns="http://www.w3.org/2000/svg" xmlns:xlink="http://www.w3.org/1999/xlink" x="0px" y="0px"
	 viewBox="0 0 24 24" style="enable-background:new 0 0 24 24;" xml:space="preserve">
<style type="text/css">
	.st0{fill:#4F5666;}
</style>
<path class="st0" d="M19.7,7.3l-4.4-5c-0.1-0.1-0.2-0.2-0.3-0.2C14.8,2,14.7,2,14.6,2h-8c-0.3,0-0.7,0.1-1,0.2
	C5.3,2.3,5,2.5,4.8,2.7S4.3,3.2,4.2,3.5C4.1,3.8,4,4.2,4,4.5v15c0,0.3,0.1,0.7,0.2,1c0.1,0.3,0.3,0.6,0.6,0.8
	c0.2,0.2,0.5,0.4,0.8,0.5c0.3,0.1,0.6,0.2,1,0.2h10.9c0.3,0,0.7-0.1,1-0.2c0.3-0.1,0.6-0.3,0.8-0.5c0.2-0.2,0.4-0.5,0.6-0.8
	c0.1-0.3,0.2-0.6,0.2-1V8C20,7.8,19.9,7.5,19.7,7.3z M14,15h-1v1c0,0.3-0.1,0.5-0.3,0.7C12.5,16.9,12.3,17,12,17s-0.5-0.1-0.7-0.3
	C11.1,16.5,11,16.3,11,16v-1h-1c-0.3,0-0.5-0.1-0.7-0.3C9.1,14.5,9,14.3,9,14c0-0.3,0.1-0.5,0.3-0.7C9.5,13.1,9.7,13,10,13h1v-1
	c0-0.3,0.1-0.5,0.3-0.7c0.2-0.2,0.4-0.3,0.7-0.3s0.5,0.1,0.7,0.3c0.2,0.2,0.3,0.4,0.3,0.7v1h1c0.3,0,0.5,0.1,0.7,0.3
	c0.2,0.2,0.3,0.4,0.3,0.7c0,0.3-0.1,0.5-0.3,0.7C14.5,14.9,14.3,15,14,15z M14.7,8c-0.2,0-0.4-0.1-0.5-0.3C14,7.6,14,7.4,14,7.2V4
	l3.7,4H14.7z"/>
</svg>
