<?xml version="1.0" encoding="utf-8"?>
<!-- Generator: Adobe Illustrator 24.3.0, SVG Export Plug-In . SVG Version: 6.00 Build 0)  -->
<svg version="1.1" id="Layer_1" xmlns="http://www.w3.org/2000/svg" xmlns:xlink="http://www.w3.org/1999/xlink" x="0px" y="0px"
	 viewBox="0 0 512 512" style="enable-background:new 0 0 512 512;" xml:space="preserve">
<style type="text/css">
	.st0{fill:#3060AA;}
</style>
<path class="st0" d="M389.1,506c-7.7,0-14-6.3-14-14V221.9c0-7.7,6.3-14,14-14H492c7.7,0,14,6.3,14,14V492c0,7.7-6.3,14-14,14H389.1
	z M403.1,478H478V235.9h-74.9V478z M204.6,506c-7.7,0-14-6.3-14-14V297.9c0-7.7,6.3-14,14-14h102.9c7.7,0,14,6.3,14,14V492
	c0,7.7-6.3,14-14,14H204.6z M218.6,478h74.9V311.9h-74.9V478z M20,506c-7.7,0-14-6.3-14-14V374c0-7.7,6.3-14,14-14h102.9
	c7.7,0,14,6.3,14,14v118c0,7.7-6.3,14-14,14H20z M34,478h74.9v-90H34V478z M71.4,227.6c-3.7,0-7.3-1.5-9.9-4.1
	c-2.6-2.6-4.1-6.2-4.1-9.9c0-3.7,1.5-7.3,4.1-9.9L178.6,86.6c2.6-2.6,6.2-4.1,9.9-4.1c3.7,0,7.3,1.5,9.9,4.1l77.9,77.9L406.8,34
	h-65.9c-7.7,0-14-6.3-14-14s6.3-14,14-14h99.7c7.7,0,14,6.3,14,14v99.7c0,7.7-6.3,14-14,14s-14-6.3-14-14V53.8L286.2,194.1
	c-2.6,2.6-6.2,4.1-9.9,4.1s-7.3-1.5-9.9-4.1l-77.9-77.9L81.3,223.5C78.7,226.1,75.2,227.6,71.4,227.6z"/>
</svg>
