<?xml version="1.0" encoding="utf-8"?>
<!-- Generator: Adobe Illustrator 24.3.0, SVG Export Plug-In . SVG Version: 6.00 Build 0)  -->
<svg version="1.1" id="note" xmlns="http://www.w3.org/2000/svg" xmlns:xlink="http://www.w3.org/1999/xlink" x="0px" y="0px"
	 viewBox="0 0 512 512" style="enable-background:new 0 0 512 512;" xml:space="preserve">
<style type="text/css">
	.st0{fill:#E4EFF9;}
	.st1{fill:#3060AA;}
	.st2{fill:#FFFFFF;}
</style>
<g>
	<circle class="st0" cx="201.5" cy="262.8" r="146.8"/>
	<g>
		<path class="st0" d="M235.6,136.5h-140v-22.4c0-17.8,14.4-32.2,32.2-32.2h107.7v54.6H235.6z"/>
		<path class="st1" d="M235.6,143.4h-140c-3.8,0-6.8-3.1-6.8-6.8v-22.4c0-21.5,17.5-39.1,39.1-39.1h107.7c3.8,0,6.8,3.1,6.8,6.8
			v54.6C242.4,140.3,239.4,143.4,235.6,143.4z M102.5,129.7h126.3v-41H127.9c-14,0-25.4,11.4-25.4,25.4
			C102.5,114.1,102.5,129.7,102.5,129.7z"/>
	</g>
	<g>
		<path class="st2" d="M127.9,82c18.2,0.8,29.2,15.4,29.2,34.1v268.3c0,25.2,15.7,45.7,41,45.7h163.8l27.3-20.4V120.6
			c0-21.3-17.3-38.6-38.6-38.6H129.8H127.9z"/>
		<path class="st1" d="M361.9,436.9H198c-27.7,0-47.8-22.1-47.8-52.5V116.1c0-16-8.9-26.7-22.7-27.3c-3.7-0.2-6.6-3.2-6.5-6.9
			c0-3.7,3-6.7,6.7-6.7h1.9h220.9c25.1,0,45.5,20.4,45.5,45.5v289.1c0,2.2-1,4.2-2.7,5.5L366,435.5
			C364.8,436.4,363.4,436.9,361.9,436.9z M155.2,88.7c5.5,7.1,8.7,16.5,8.7,27.3v268.3c0,22.9,14,38.9,34.1,38.9h161.6l22.7-17
			V120.6c0-17.5-14.3-31.8-31.8-31.8H155.2V88.7z"/>
	</g>
	<g>
		<path class="st0" d="M198,430.1h185.8c18,0,32.6-14.6,32.6-32.6v-15.2H232.2v10.2c0,19.9-15.5,36.2-35,37.5L198,430.1z"/>
		<path class="st1" d="M383.9,436.9H198c-0.2,0-0.4,0-0.6,0l-0.9-0.1c-3.6-0.3-6.3-3.3-6.2-6.9c0-3.6,2.8-6.5,6.4-6.7
			c16.1-1.1,28.7-14.5,28.7-30.7v-10.2c0-3.8,3.1-6.8,6.8-6.8h184.3c3.8,0,6.8,3.1,6.8,6.8v15.2
			C423.3,419.2,405.6,436.9,383.9,436.9z M226.6,423.3h157.3c14.2,0,25.8-11.6,25.8-25.8v-8.3H239v3.4
			C239,404.4,234.3,415.2,226.6,423.3L226.6,423.3z"/>
	</g>
	<g>
		<path class="st1" d="M84.8,344.2c-1.7,0-3.5-0.7-4.8-2l-19.3-19.3c-2.7-2.7-2.7-7,0-9.7s7-2.7,9.7,0l19.3,19.3
			c2.7,2.7,2.7,7,0,9.7C88.3,343.5,86.6,344.2,84.8,344.2z"/>
		<path class="st1" d="M65.5,344.2c-1.7,0-3.5-0.7-4.8-2c-2.7-2.7-2.7-7,0-9.7L80,313.2c2.7-2.7,7-2.7,9.7,0s2.7,7,0,9.7l-19.3,19.3
			C69,343.5,67.3,344.2,65.5,344.2z"/>
		<circle class="st1" cx="122.9" cy="307.2" r="6.8"/>
		<circle class="st1" cx="102.5" cy="232.1" r="6.8"/>
	</g>
</g>
</svg>
