<?xml version="1.0" encoding="utf-8"?>
<!-- Generator: Adobe Illustrator 24.3.0, SVG Export Plug-In . SVG Version: 6.00 Build 0) -->
<svg version="1.1" id="Layer_1" xmlns="http://www.w3.org/2000/svg" xmlns:xlink="http://www.w3.org/1999/xlink" x="0px" y="0px" viewBox="0 0 25 24" style="enable-background:new 0 0 25 24;" xml:space="preserve">
	<style type="text/css">
		.st0{fill:#333;}
	</style>
	<path class="st0" d="M22.2,12.3C22,12.1,21.8,12,21.5,12h-3V3c0-0.2,0-0.3-0.1-0.5c-0.1-0.2-0.2-0.3-0.4-0.4C17.8,2,17.7,2,17.5,2
	S17.2,2,17,2.1l-3,1.7l-3-1.7C10.8,2,10.7,2,10.5,2S10.2,2,10,2.1L7,3.8L4,2.1C3.8,2,3.7,2,3.5,2S3.2,2,3,2.1
	C2.8,2.2,2.7,2.3,2.6,2.5C2.5,2.7,2.5,2.8,2.5,3v16c0,0.8,0.3,1.6,0.9,2.1C3.9,21.7,4.7,22,5.5,22h14c0.8,0,1.6-0.3,2.1-0.9
	c0.6-0.6,0.9-1.3,0.9-2.1v-6C22.5,12.7,22.4,12.5,22.2,12.3z M9.6,11.4c0.1,0,0.3,0.1,0.4,0.1h1c0.6,0,1.2,0.2,1.7,0.6
	c0.4,0.4,0.7,1,0.8,1.6c0,0.6-0.1,1.2-0.5,1.7s-0.9,0.9-1.5,1V17c0,0.3-0.1,0.5-0.3,0.7S10.8,18,10.5,18s-0.5-0.1-0.7-0.3
	S9.5,17.3,9.5,17v-0.6h-1c-0.3,0-0.5-0.1-0.7-0.3c-0.2-0.2-0.3-0.4-0.3-0.7c0-0.3,0.1-0.5,0.3-0.7s0.4-0.3,0.7-0.3H11
	c0.2,0,0.3,0,0.4-0.1c0-0.1,0.1-0.3,0.1-0.4c0-0.2,0-0.3-0.1-0.4c-0.1,0-0.3-0.1-0.4-0.1h-1c-0.6,0-1.2-0.2-1.7-0.6
	c-0.4-0.4-0.7-1-0.8-1.6c0-0.6,0.1-1.2,0.5-1.7s0.9-0.8,1.5-1V8c0-0.3,0.1-0.5,0.3-0.7S10.2,7,10.5,7s0.5,0.1,0.7,0.3
	s0.3,0.4,0.3,0.7v0.5h1c0.3,0,0.5,0.1,0.7,0.3s0.3,0.4,0.3,0.7s-0.1,0.5-0.3,0.7s-0.4,0.3-0.7,0.3H10c-0.1,0-0.3,0.1-0.4,0.1
	c0,0.1-0.1,0.3-0.1,0.4C9.5,11.2,9.5,11.3,9.6,11.4z M20.5,19c0,0.3-0.1,0.5-0.3,0.7S19.8,20,19.5,20s-0.5-0.1-0.7-0.3
	s-0.3-0.4-0.3-0.7v-5h2V19z" />
</svg>
