<?xml version="1.0" encoding="utf-8"?>
<!-- Generator: Adobe Illustrator 24.3.0, SVG Export Plug-In . SVG Version: 6.00 Build 0)  -->
<svg version="1.1" id="Layer_1" xmlns="http://www.w3.org/2000/svg" xmlns:xlink="http://www.w3.org/1999/xlink" x="0px" y="0px"
	 viewBox="0 0 25 24" style="enable-background:new 0 0 25 24;" xml:space="preserve">
<style type="text/css">
	.st0{fill:#4F5666;}
</style>
<path class="st0" d="M10,10.5h2.5c0.3,0,0.5-0.1,0.7-0.3c0.2-0.2,0.3-0.4,0.3-0.7c0-0.3-0.1-0.5-0.3-0.7s-0.4-0.3-0.7-0.3h-1V8
	c0-0.3-0.1-0.5-0.3-0.7S10.8,7,10.5,7S10,7.1,9.8,7.3C9.6,7.5,9.5,7.7,9.5,8v0.5C8.9,8.7,8.4,9,8,9.5c-0.4,0.5-0.5,1.1-0.5,1.7
	c0.1,0.6,0.4,1.2,0.8,1.6c0.5,0.4,1.1,0.6,1.7,0.6h1c0.1,0,0.3,0.1,0.4,0.1c0.1,0.1,0.1,0.2,0.1,0.4c0,0.1-0.1,0.3-0.1,0.4
	c-0.1,0.1-0.2,0.1-0.4,0.1H8.5c-0.3,0-0.5,0.1-0.7,0.3c-0.2,0.2-0.3,0.4-0.3,0.7c0,0.3,0.1,0.5,0.3,0.7c0.2,0.2,0.4,0.3,0.7,0.3h1
	V17c0,0.3,0.1,0.5,0.3,0.7c0.2,0.2,0.4,0.3,0.7,0.3s0.5-0.1,0.7-0.3c0.2-0.2,0.3-0.4,0.3-0.7v-0.6c0.6-0.1,1.1-0.5,1.5-1
	c0.4-0.5,0.5-1.1,0.5-1.7c-0.1-0.6-0.4-1.2-0.8-1.6c-0.5-0.4-1.1-0.6-1.7-0.6h-1c-0.1,0-0.3-0.1-0.4-0.1c-0.1-0.1-0.1-0.2-0.1-0.4
	c0-0.1,0.1-0.3,0.1-0.4C9.7,10.6,9.9,10.5,10,10.5z M21.5,12h-3V3c0-0.2,0-0.3-0.1-0.5c-0.1-0.2-0.2-0.3-0.4-0.4
	C17.8,2,17.7,2,17.5,2S17.2,2,17,2.1l-3,1.7l-3-1.7C10.8,2,10.7,2,10.5,2S10.2,2,10,2.1L7,3.8L4,2.1C3.8,2,3.7,2,3.5,2S3.2,2,3,2.1
	C2.8,2.2,2.7,2.3,2.6,2.5C2.5,2.7,2.5,2.8,2.5,3v16c0,0.8,0.3,1.6,0.9,2.1C3.9,21.7,4.7,22,5.5,22h14c0.8,0,1.6-0.3,2.1-0.9
	c0.6-0.6,0.9-1.3,0.9-2.1v-6c0-0.3-0.1-0.5-0.3-0.7C22,12.1,21.8,12,21.5,12z M5.5,20c-0.3,0-0.5-0.1-0.7-0.3
	c-0.2-0.2-0.3-0.4-0.3-0.7V4.7l2,1.1C6.7,6,6.8,6,7,6s0.3,0,0.5-0.1l3-1.7l3,1.7C13.7,6,13.8,6,14,6s0.3,0,0.5-0.1l2-1.1V19
	c0,0.3,0.1,0.7,0.2,1H5.5z M20.5,19c0,0.3-0.1,0.5-0.3,0.7C20,19.9,19.8,20,19.5,20s-0.5-0.1-0.7-0.3c-0.2-0.2-0.3-0.4-0.3-0.7v-5h2
	V19z"/>
</svg>
