<svg width="100%" height="100%" viewBox="0 0 80 80" fill="none" xmlns="http://www.w3.org/2000/svg">
	<path opacity="0.64" d="M72.9688 2.5H7.03125C3.15422 2.5 0 5.65422 0 9.53125V56.4063C0 60.2833 3.15422 63.4375 7.03125 63.4375H14.2188V75.1563C14.2188 76.1042 14.7898 76.9589 15.6656 77.3216C16.5416 77.6842 17.5495 77.4838 18.2198 76.8134L31.5958 63.4375H72.9688C76.8458 63.4375 80 60.2833 80 56.4063V9.53125C80 5.65422 76.8458 2.5 72.9688 2.5ZM75.3125 56.4063C75.3125 57.6986 74.2611 58.75 72.9688 58.75H30.625C30.0034 58.75 29.4073 58.997 28.9678 59.4366L18.9062 69.4978V61.0938C18.9062 59.7994 17.8569 58.75 16.5625 58.75H7.03125C5.73891 58.75 4.6875 57.6986 4.6875 56.4063V9.53125C4.6875 8.23891 5.73891 7.1875 7.03125 7.1875H72.9688C74.2611 7.1875 75.3125 8.23891 75.3125 9.53125V56.4063Z" fill="#3060AA" />
	<path d="M58.6385 27.4861C58.3644 26.63 57.6252 26.0063 56.7355 25.88L46.6099 24.4434L42.0917 15.5052C41.6928 14.7161 40.8841 14.2188 40 14.2188C39.116 14.2188 38.3072 14.7163 37.9083 15.5052L33.3902 24.4434L23.2646 25.88C22.3749 26.0063 21.6356 26.63 21.3616 27.4858C21.0875 28.3416 21.3271 29.2788 21.978 29.8981L29.2711 36.8391L27.5521 46.6255C27.3981 47.5017 27.7536 48.3897 28.4699 48.9175C29.186 49.4453 30.1392 49.5223 30.9308 49.1161L40 44.4611L49.0692 49.1164C49.8608 49.5227 50.8141 49.4458 51.5302 48.9178C52.2463 48.3898 52.6017 47.502 52.448 46.6258L50.7289 36.8394L58.0221 29.8984C58.673 29.2789 58.9125 28.3419 58.6385 27.4861ZM46.5874 34.3097C46.0189 34.8506 45.7589 35.6402 45.8947 36.413L47.0155 42.7931L41.0703 39.7414C40.7344 39.5689 40.3672 39.4828 40 39.4828C39.6328 39.4828 39.2656 39.5691 38.9297 39.7414L32.9846 42.7931L34.1053 36.413C34.2411 35.6402 33.9811 34.8506 33.4127 34.3097L28.7171 29.8408L35.2594 28.9125C36.018 28.805 36.6763 28.3331 37.0219 27.6494L40 21.7578L42.9781 27.6494C43.3238 28.3333 43.9819 28.805 44.7406 28.9125L51.283 29.8408L46.5874 34.3097Z" fill="#3060AA" />
</svg>
