<?xml version="1.0" encoding="utf-8"?>
<!-- Generator: Adobe Illustrator 24.3.0, SVG Export Plug-In . SVG Version: 6.00 Build 0)  -->
<svg version="1.1" id="Capa_1" xmlns="http://www.w3.org/2000/svg" xmlns:xlink="http://www.w3.org/1999/xlink" x="0px" y="0px"
	 viewBox="0 0 20 20" style="enable-background:new 0 0 20 20;" xml:space="preserve">
<style type="text/css">
	.st0{fill:#CC2F2F;}
</style>
<path class="st0" d="M15.7,5.7C15.7,2.6,13.1,0,10,0S4.3,2.6,4.3,5.7c0,2.8,2,5.1,4.6,5.6v4H6.5v2.3h2.4V20h2.3v-2.4h2.4v-2.3h-2.4
	v-4C13.7,10.8,15.7,8.5,15.7,5.7L15.7,5.7z M6.5,5.7c0-2,1.6-3.5,3.5-3.5s3.5,1.6,3.5,3.5S12,9.2,10,9.2S6.5,7.7,6.5,5.7L6.5,5.7z"
	/>
</svg>
