<?xml version="1.0" encoding="utf-8"?>
<!-- Generator: Adobe Illustrator 24.3.0, SVG Export Plug-In . SVG Version: 6.00 Build 0)  -->
<svg version="1.1" id="Layer_1" xmlns="http://www.w3.org/2000/svg" xmlns:xlink="http://www.w3.org/1999/xlink" x="0px" y="0px"
	 viewBox="0 0 20 20" style="enable-background:new 0 0 20 20;" xml:space="preserve">
<style type="text/css">
	.st0{fill:#CC2F2F;}
</style>
<path id="Icon_ionic-md-male" class="st0" d="M17.1,0H13v1.5h3L12.6,5c-2-1.5-4.9-1-6.4,1.1s-1,4.9,1.1,6.4s4.9,1,6.4-1.1
	c1.2-1.6,1.2-3.8,0-5.3l3.4-3.4v3h1.6V0H17.1z M10,11.8c-1.7,0-3.1-1.3-3.1-3.1S8.2,5.6,10,5.6c1.7,0,3.1,1.3,3.1,3.1
	C13,10.4,11.7,11.8,10,11.8z"/>
<path class="st0" d="M10.5,8.8c0-2.5-2.1-4.6-4.6-4.6S1.3,6.3,1.3,8.8c0,2.2,1.6,4.1,3.7,4.5l0,3H3.1v1.8H5V20h1.8v-1.9h1.9v-1.8
	H6.8l0-3C8.9,12.9,10.5,11,10.5,8.8L10.5,8.8z M3.1,8.8C3.1,7.2,4.4,6,5.9,6s2.8,1.3,2.8,2.8s-1.2,2.8-2.8,2.8S3.1,10.4,3.1,8.8
	L3.1,8.8z"/>
</svg>
