<?xml version="1.0" encoding="utf-8"?>
<!-- Generator: Adobe Illustrator 24.3.0, SVG Export Plug-In . SVG Version: 6.00 Build 0)  -->
<svg version="1.1" id="Layer_1" xmlns="http://www.w3.org/2000/svg" xmlns:xlink="http://www.w3.org/1999/xlink" x="0px" y="0px"
	 viewBox="0 0 20 20" style="enable-background:new 0 0 20 20;" xml:space="preserve">
<style type="text/css">
	.st0{fill:#CC2F2F;}
</style>
<path id="Icon_ionic-md-male" class="st0" d="M16.1,2h-4.9v1.8h3.6L10.7,8C8.3,6.2,4.8,6.8,3,9.3s-1.2,5.9,1.3,7.7
	c2.5,1.8,5.9,1.2,7.7-1.3c1.4-1.9,1.4-4.5,0-6.4l4.1-4.1v3.6H18V2H16.1z M7.6,16.1c-2,0-3.7-1.6-3.7-3.7s1.6-3.7,3.7-3.7
	c2,0,3.7,1.6,3.7,3.7C11.2,14.5,9.6,16.1,7.6,16.1z"/>
</svg>
