<svg width="100%" height="100%" viewBox="0 0 32 32" fill="none" xmlns="http://www.w3.org/2000/svg">
	<path d="M29.3334 11.9734V24.0001C29.3334 25.4667 28.1334 26.6667 26.6667 26.6667H5.33335C3.86669 26.6667 2.66669 25.4667 2.66669 24.0001L2.68002 8.00008C2.68002 6.53341 3.86669 5.33341 5.33335 5.33341H18.8C18.72 5.76008 18.6667 6.21341 18.6667 6.66675C18.6667 7.12008 18.72 7.57341 18.8 8.00008H5.33335L16 14.6667L20.8934 11.6134C21.52 12.1867 22.2534 12.6267 23.0667 12.9201L16 17.3334L5.33335 10.6667V24.0001H26.6667V13.2001C27.6534 13.0001 28.56 12.5601 29.3334 11.9734ZM21.3334 6.66675C21.3334 8.88008 23.12 10.6667 25.3334 10.6667C27.5467 10.6667 29.3334 8.88008 29.3334 6.66675C29.3334 4.45341 27.5467 2.66675 25.3334 2.66675C23.12 2.66675 21.3334 4.45341 21.3334 6.66675Z" fill="#3060AA" />
</svg>
