<?xml version="1.0" encoding="utf-8"?>
<!-- Generator: Adobe Illustrator 24.3.0, SVG Export Plug-In . SVG Version: 6.00 Build 0)  -->
<svg version="1.1" id="Layer_1" xmlns="http://www.w3.org/2000/svg" xmlns:xlink="http://www.w3.org/1999/xlink" x="0px" y="0px"
	 viewBox="0 0 24 24" style="enable-background:new 0 0 24 24;" xml:space="preserve">
<style type="text/css">
	.st0{fill:#4F5666;}
</style>
<path class="st0" d="M21,19v1H3v-1l2-2v-6c0-3.1,2-5.8,5-6.7V4c0-0.5,0.2-1,0.6-1.4C11,2.2,11.5,2,12,2s1,0.2,1.4,0.6
	C13.8,3,14,3.5,14,4v0.3c3,0.9,5,3.6,5,6.7v6L21,19z M14,21c0,0.5-0.2,1-0.6,1.4C13,22.8,12.5,23,12,23s-1-0.2-1.4-0.6
	C10.2,22,10,21.5,10,21"/>
</svg>
