<?xml version="1.0" encoding="utf-8"?>
<!-- Generator: Adobe Illustrator 24.3.0, SVG Export Plug-In . SVG Version: 6.00 Build 0)  -->
<svg version="1.1" id="Layer_1" xmlns="http://www.w3.org/2000/svg" xmlns:xlink="http://www.w3.org/1999/xlink" x="0px" y="0px"
	 viewBox="0 0 25 24" style="enable-background:new 0 0 25 24;" xml:space="preserve">
<style type="text/css">
	.st0{fill:#4F5666;}
</style>
<path class="st0" d="M16.5,17h-9v-6.5C7.5,8,9.5,6,12,6s4.5,2,4.5,4.5V17z M18.5,16v-5.5c0-3.1-2.1-5.6-5-6.3V3.5
	c0-0.4-0.2-0.8-0.4-1.1C12.8,2.2,12.4,2,12,2s-0.8,0.2-1.1,0.4c-0.3,0.3-0.4,0.7-0.4,1.1v0.7c-2.9,0.7-5,3.2-5,6.3V16l-2,2v1h17v-1
	L18.5,16z M12,22c0.5,0,1-0.2,1.4-0.6C13.8,21,14,20.5,14,20h-4c0,0.5,0.2,1,0.6,1.4C11,21.8,11.5,22,12,22z"/>
</svg>
