<?xml version="1.0" encoding="utf-8"?>
<!-- Generator: Adobe Illustrator 24.3.0, SVG Export Plug-In . SVG Version: 6.00 Build 0)  -->
<svg version="1.1" id="Layer_1" xmlns="http://www.w3.org/2000/svg" xmlns:xlink="http://www.w3.org/1999/xlink" x="0px" y="0px"
	 viewBox="0 0 24 24" style="enable-background:new 0 0 24 24;" xml:space="preserve">
<style type="text/css">
	.st0{fill:#3060AA;}
</style>
<path class="st0" d="M16.6,15.5c0.5,0.5,0.5,1.3,0,1.8s-1.3,0.5-1.8,0l-4.4-4.4c-0.5-0.5-0.5-1.3,0-1.8l4.4-4.4
	c0.5-0.5,1.3-0.5,1.8,0s0.5,1.3,0,1.8L13.1,12L16.6,15.5z"/>
<path id="Rectangle_2641" class="st0" d="M8.3,6.5L8.3,6.5c0.7,0,1.3,0.6,1.3,1.3v8.4c0,0.7-0.6,1.3-1.3,1.3l0,0
	c-0.7,0-1.3-0.6-1.3-1.3V7.8C7,7,7.6,6.5,8.3,6.5z"/>
</svg>
