<?xml version="1.0" encoding="utf-8"?>
<!-- Generator: Adobe Illustrator 24.3.0, SVG Export Plug-In . SVG Version: 6.00 Build 0)  -->
<svg version="1.1" id="Layer_1" xmlns="http://www.w3.org/2000/svg" xmlns:xlink="http://www.w3.org/1999/xlink" x="0px" y="0px"
	 viewBox="0 0 24 24" style="enable-background:new 0 0 24 24;" xml:space="preserve">
<style type="text/css">
	.st0{fill:#3060AA;}
</style>
<path class="st0" d="M7.4,8.5C6.9,8,6.9,7.2,7.4,6.7s1.3-0.5,1.8,0l4.4,4.4c0.5,0.5,0.5,1.3,0,1.8l-4.4,4.4c-0.5,0.5-1.3,0.5-1.8,0
	s-0.5-1.3,0-1.8l3.5-3.5L7.4,8.5z"/>
<path id="Rectangle_2641" class="st0" d="M15.7,17.5L15.7,17.5c-0.7,0-1.3-0.6-1.3-1.3V7.8c0-0.7,0.6-1.3,1.3-1.3l0,0
	c0.7,0,1.3,0.6,1.3,1.3v8.4C17,17,16.4,17.5,15.7,17.5z"/>
</svg>
