<?xml version="1.0" encoding="utf-8"?>
<!-- Generator: Adobe Illustrator 24.3.0, SVG Export Plug-In . SVG Version: 6.00 Build 0)  -->
<svg version="1.1" id="Capa_1" xmlns="http://www.w3.org/2000/svg" xmlns:xlink="http://www.w3.org/1999/xlink" x="0px" y="0px"
	 viewBox="0 0 60 60" style="enable-background:new 0 0 60 60;" xml:space="preserve">
<style type="text/css">
	.st0{fill:#FFFFFF;}
	.st1{fill:#CC2F2F;}
</style>
<rect class="st0" width="60" height="60"/>
<g>
	<path class="st1" d="M21.8,35.7c0-0.6-0.5-1.1-1.3-1.1c-0.4,0-0.5,0-0.6,0.1v2.1c0.2,0,0.3,0,0.5,0C21.2,36.9,21.8,36.5,21.8,35.7z
		"/>
	<path class="st1" d="M26.8,34.7c-0.4,0-0.6,0-0.7,0.1v4.7c0.2,0,0.4,0,0.5,0c1.5,0,2.5-0.8,2.5-2.5C29,35.5,28.1,34.7,26.8,34.7z"
		/>
	<path class="st1" d="M36.1,10H20c-2.4,0-4.3,1.9-4.3,4.3V30h-0.4c-0.9,0-1.7,0.7-1.7,1.7v10.4c0,0.9,0.7,1.7,1.7,1.7h0.5v1.9
		c0,2.4,1.9,4.3,4.3,4.3H42c2.4,0,4.3-1.9,4.3-4.3V20.1L36.1,10z M18.1,33.6c0.5-0.1,1.2-0.2,2.2-0.2s1.7,0.2,2.2,0.5
		c0.5,0.4,0.7,1,0.7,1.6s-0.3,1.3-0.6,1.7c-0.5,0.5-1.4,0.7-2.4,0.7c-0.2,0-0.4,0-0.5,0v2.5h-1.5V33.6z M42,47.4H20
		c-0.9,0-1.6-0.7-1.6-1.6v-1.9h20.5c0.9,0,1.7-0.7,1.7-1.7V31.7c0-0.9-0.7-1.7-1.7-1.7H18.4V14.3c0-0.9,0.7-1.6,1.6-1.6h15.1v5.5
		c0,1.6,1.4,2.9,2.9,2.9h5.5l0.1,24.6C43.6,46.6,42.9,47.4,42,47.4z M24.4,40.6v-7c0.6-0.1,1.4-0.2,2.2-0.2c1.4,0,2.3,0.3,2.9,0.7
		c0.7,0.5,1.2,1.5,1.2,2.7c0,1.4-0.5,2.4-1.2,2.9c-0.7,0.6-1.9,0.9-3.4,0.9C25.4,40.8,24.8,40.7,24.4,40.6z M36,36.5v1.4h-2.5v2.9
		h-1.6v-7.2h4.5v1.4h-2.7v1.6L36,36.5L36,36.5z"/>
</g>
</svg>
