<?xml version="1.0" encoding="utf-8"?>
<!-- Generator: Adobe Illustrator 24.3.0, SVG Export Plug-In . SVG Version: 6.00 Build 0) -->
<svg version="1.1" id="Layer_1" xmlns="http://www.w3.org/2000/svg" xmlns:xlink="http://www.w3.org/1999/xlink" x="0px" y="0px" viewBox="0 0 24 24" style="enable-background:new 0 0 24 24;" xml:space="preserve">
	<style type="text/css">
		.st0{fill:#333;}
		.st1{fill:#2B2F38;}
	</style>
	<path class="st0" d="M19.1,4.9C18.5,4.3,17.8,4,17,4h-2c-0.5,0-1,0.5-1,1h-4c0-0.5-0.5-1-1-1H7C6.2,4,5.5,4.3,4.9,4.9S4,6.2,4,7v12
	c0,0.8,0.3,1.5,0.9,2.1S6.2,22,7,22h10c0.8,0,1.5-0.3,2.1-0.9S20,19.8,20,19V7C20,6.2,19.7,5.5,19.1,4.9z M11.2,12.8
	c0.1,0.1,0.2,0.2,0.3,0.2h1c0.7,0,1.3,0.3,1.8,0.7c0.5,0.5,0.7,1.1,0.7,1.8s-0.3,1.3-0.7,1.8c-0.4,0.3-0.8,0.6-1.3,0.7v0
	c0,0.5-0.5,1-1,1s-1-0.5-1-1h-1c-0.5,0-1-0.5-1-1s0.5-1,1-1h2.5c0.1,0,0.3,0,0.3-0.2c0.1-0.1,0.2-0.2,0.2-0.3s0-0.3-0.2-0.3
	C12.8,15,12.6,15,12.5,15h-1c-0.7,0-1.3-0.3-1.8-0.7C9.3,13.8,9,13.2,9,12.5s0.3-1.3,0.7-1.8c0.4-0.3,0.8-0.6,1.3-0.7v0
	c0-0.5,0.5-1,1-1s1,0.5,1,1h1c0.5,0,1,0.5,1,1s-0.5,1-1,1h-2.5c-0.1,0-0.3,0-0.3,0.2C11,12.2,11,12.4,11,12.5S11,12.8,11.2,12.8z" />
	<path class="st1" d="M13,3h-2C9.9,3,9,3.9,9,5s0.9,2,2,2h2c1.1,0,2-0.9,2-2S14.1,3,13,3z" />
</svg>
