<?xml version="1.0" encoding="utf-8"?>
<!-- Generator: Adobe Illustrator 24.3.0, SVG Export Plug-In . SVG Version: 6.00 Build 0) -->
<svg version="1.1" id="Layer_1" xmlns="http://www.w3.org/2000/svg" xmlns:xlink="http://www.w3.org/1999/xlink" x="0px" y="0px" viewBox="0 0 24 24" style="enable-background:new 0 0 24 24;" xml:space="preserve">
	<style type="text/css">
		.st0{fill:#333;}
		.st1{fill:#2B2F38;}
	</style>
	<path class="st0" d="M19.1,4.9C18.5,4.3,17.8,4,17,4h-2c-0.1,0-0.2,0-0.2,0C14.3,4.1,14,4.5,14,5h-4c0-0.5-0.3-0.9-0.8-1
	C9.2,4,9.1,4,9,4H7C6.2,4,5.5,4.3,4.9,4.9S4,6.2,4,7v12c0,0.8,0.3,1.5,0.9,2.1S6.2,22,7,22h10c0.8,0,1.5-0.3,2.1-0.9S20,19.8,20,19
	V7C20,6.2,19.7,5.5,19.1,4.9z M14.7,15c0.4,0.4,0.4,1,0,1.4c-0.2,0.2-0.5,0.3-0.7,0.3s-0.5-0.1-0.7-0.3L12,15.1l-1.3,1.3
	c-0.2,0.2-0.5,0.3-0.7,0.3s-0.5-0.1-0.7-0.3c-0.4-0.4-0.4-1,0-1.4l1.3-1.3l-1.3-1.3c-0.4-0.4-0.4-1,0-1.4c0.4-0.4,1-0.4,1.4,0
	l1.3,1.3l1.3-1.3c0.4-0.4,1-0.4,1.4,0c0.4,0.4,0.4,1,0,1.4l-1.3,1.3L14.7,15z" />
	<path class="st1" d="M13,3h-2C9.9,3,9,3.9,9,5s0.9,2,2,2h2c1.1,0,2-0.9,2-2S14.1,3,13,3z" />
</svg>
