<?xml version="1.0" encoding="utf-8"?>
<!-- Generator: Adobe Illustrator 24.3.0, SVG Export Plug-In . SVG Version: 6.00 Build 0)  -->
<svg version="1.1" id="Layer_1" xmlns="http://www.w3.org/2000/svg" xmlns:xlink="http://www.w3.org/1999/xlink" x="0px" y="0px"
	 viewBox="0 0 24 24" style="enable-background:new 0 0 24 24;" xml:space="preserve">
<style type="text/css">
	.st0{fill:#4F5666;}
	.st1{fill:#2B2F38;}
</style>
<path class="st0" d="M19.1,4.9C18.5,4.3,17.8,4,17,4h-2c-0.5,0-1,0.5-1,1h-4c0-0.5-0.5-1-1-1H7C6.2,4,5.5,4.3,4.9,4.9S4,6.2,4,7v12
	c0,0.8,0.3,1.5,0.9,2.1S6.2,22,7,22h10c0.8,0,1.5-0.3,2.1-0.9S20,19.8,20,19V7C20,6.2,19.7,5.5,19.1,4.9z M15.4,12l-3.7,4
	c-0.2,0.2-0.5,0.3-0.7,0.3s-0.5-0.1-0.7-0.3l-1.7-1.8c-0.4-0.4-0.3-1,0.1-1.4c0.4-0.4,1-0.3,1.4,0.1l0.9,1l2.9-3.2
	c0.4-0.4,1-0.4,1.4-0.1C15.8,11,15.8,11.6,15.4,12z"/>
<path class="st1" d="M13,3h-2C9.9,3,9,3.9,9,5s0.9,2,2,2h2c1.1,0,2-0.9,2-2S14.1,3,13,3z"/>
</svg>
