<?xml version="1.0" encoding="utf-8"?>
<!-- Generator: Adobe Illustrator 24.3.0, SVG Export Plug-In . SVG Version: 6.00 Build 0)  -->
<svg version="1.1" id="Layer_1" xmlns="http://www.w3.org/2000/svg" xmlns:xlink="http://www.w3.org/1999/xlink" x="0px" y="0px"
	 viewBox="0 0 25 24" style="enable-background:new 0 0 25 24;" xml:space="preserve">
<style type="text/css">
	.st0{fill:none;stroke:#4F5666;stroke-width:2;stroke-linecap:round;stroke-linejoin:round;}
</style>
<path class="st0" d="M9.5,5h-2C7,5,6.5,5.2,6.1,5.6C5.7,6,5.5,6.5,5.5,7v12c0,0.5,0.2,1,0.6,1.4C6.5,20.8,7,21,7.5,21h10
	c0.5,0,1-0.2,1.4-0.6c0.4-0.4,0.6-0.9,0.6-1.4V7c0-0.5-0.2-1-0.6-1.4C18.5,5.2,18,5,17.5,5h-2"/>
<path class="st0" d="M15.2,11.4l-3.7,4l-1.7-1.8"/>
<path class="st0" d="M13.5,3h-2c-1.1,0-2,0.9-2,2s0.9,2,2,2h2c1.1,0,2-0.9,2-2S14.6,3,13.5,3z"/>
</svg>
