<?xml version="1.0" encoding="utf-8"?>
<!-- Generator: Adobe Illustrator 24.3.0, SVG Export Plug-In . SVG Version: 6.00 Build 0)  -->
<svg version="1.1" id="Layer_1" xmlns="http://www.w3.org/2000/svg" xmlns:xlink="http://www.w3.org/1999/xlink" x="0px" y="0px"
	 viewBox="0 0 25 24" style="enable-background:new 0 0 25 24;" xml:space="preserve">
<style type="text/css">
	.st0{fill:#4F5666;}
	.st1{fill:#2B2F38;}
</style>
<path class="st0" d="M18.6,4.9C18,4.3,17.3,4,16.5,4h-2c-0.5,0-1,0.5-1,1h-4c0-0.5-0.5-1-1-1h-2C5.7,4,5,4.3,4.4,4.9
	C3.8,5.5,3.5,6.2,3.5,7v12c0,0.8,0.3,1.5,0.9,2.1C5,21.7,5.7,22,6.5,22h5.9c0.5,0,1-0.5,1-1v-3.9c0-2.8,2.3-5.1,5.1-5.1
	c0.5,0,1-0.5,1-1V7C19.5,6.2,19.2,5.5,18.6,4.9z M10.2,16h-3c-0.5,0-1-0.5-1-1s0.5-1,1-1h3c0.5,0,1,0.5,1,1S10.8,16,10.2,16z
	 M11.2,12h-4c-0.5,0-1-0.5-1-1s0.5-1,1-1h4c0.5,0,1,0.5,1,1S11.8,12,11.2,12z"/>
<path class="st0" d="M23.3,18c0,2.2-1.8,4-4,4s-4-1.8-4-4s1.8-4,4-4v4H23.3z"/>
<path class="st1" d="M12.5,3h-2c-1.1,0-2,0.9-2,2s0.9,2,2,2h2c1.1,0,2-0.9,2-2S13.6,3,12.5,3z"/>
</svg>
