<?xml version="1.0" encoding="utf-8"?>
<!-- Generator: Adobe Illustrator 24.3.0, SVG Export Plug-In . SVG Version: 6.00 Build 0)  -->
<svg version="1.1" id="Layer_1" xmlns="http://www.w3.org/2000/svg" xmlns:xlink="http://www.w3.org/1999/xlink" x="0px" y="0px"
	 viewBox="0 0 25 24" style="enable-background:new 0 0 25 24;" xml:space="preserve">
<style type="text/css">
	.st0{fill:none;stroke:#4F5666;stroke-width:2;stroke-linecap:round;stroke-linejoin:round;}
</style>
<path class="st0" d="M8.5,5h-2C6,5,5.5,5.2,5.1,5.6C4.7,6,4.5,6.5,4.5,7v12c0,0.5,0.2,1,0.6,1.4C5.5,20.8,6,21,6.5,21h5.7"/>
<path class="st0" d="M18.5,14v4h4"/>
<path class="st0" d="M18.5,11V7c0-0.5-0.2-1-0.6-1.4C17.5,5.2,17,5,16.5,5h-2"/>
<path class="st0" d="M12.5,3h-2c-1.1,0-2,0.9-2,2s0.9,2,2,2h2c1.1,0,2-0.9,2-2S13.6,3,12.5,3z"/>
<path class="st0" d="M18.5,22c2.2,0,4-1.8,4-4s-1.8-4-4-4s-4,1.8-4,4S16.3,22,18.5,22z"/>
<path class="st0" d="M8.5,11h4"/>
<path class="st0" d="M8.5,15h3"/>
</svg>
