<?xml version="1.0" encoding="utf-8"?>
<!-- Generator: Adobe Illustrator 24.3.0, SVG Export Plug-In . SVG Version: 6.00 Build 0)  -->
<svg version="1.1" id="Layer_1" xmlns="http://www.w3.org/2000/svg" xmlns:xlink="http://www.w3.org/1999/xlink" x="0px" y="0px"
	 viewBox="0 0 25 24" style="enable-background:new 0 0 25 24;" xml:space="preserve">
<style type="text/css">
	.st0{fill:#4F5666;}
</style>
<path class="st0" d="M13.5,19v-4h3l-4-5l-4,5h3v4H13.5z"/>
<path class="st0" d="M7.5,19h2v-2h-2c-1.7,0-3-1.3-3-3c0-1.4,1.2-2.8,2.7-3l0.6-0.1l0.2-0.6C8.6,8.3,10.4,7,12.5,7c2.8,0,5,2.2,5,5
	v1h1c1.1,0,2,0.9,2,2s-0.9,2-2,2h-3v2h3c2.2,0,4-1.8,4-4c0-0.9-0.3-1.8-0.9-2.5c-0.6-0.7-1.3-1.2-2.2-1.4C19,7.7,16.1,5,12.5,5
	C9.7,5,7.3,6.6,6.3,9.1C4.1,9.8,2.5,11.8,2.5,14C2.5,16.8,4.7,19,7.5,19z"/>
</svg>
