<svg width="100%" height="100%" viewBox="0 0 72 72" fill="none" xmlns="http://www.w3.org/2000/svg">
	<path fill-rule="evenodd" clip-rule="evenodd" d="M62.25 26.484C62.25 24.297 61.38 22.2 59.835 20.652C56.946 17.766 51.234 12.054 48.348 9.165C46.8 7.62 44.703 6.75 42.516 6.75C38.601 6.75 30.756 6.75 24 6.75C20.22 6.75 16.596 8.25 13.923 10.923C11.25 13.596 9.75 17.22 9.75 21V51C9.75 58.869 16.131 65.25 24 65.25H48C55.869 65.25 62.25 58.869 62.25 51C62.25 42.333 62.25 31.332 62.25 26.484ZM42.75 11.256C42.672 11.253 42.594 11.25 42.516 11.25C38.601 11.25 30.756 11.25 24 11.25C21.414 11.25 18.933 12.276 17.106 14.106C15.276 15.933 14.25 18.414 14.25 21V51C14.25 56.385 18.615 60.75 24 60.75H48C53.385 60.75 57.75 56.385 57.75 51C57.75 42.333 57.75 31.332 57.75 26.484C57.75 26.406 57.747 26.328 57.744 26.25H51C48.813 26.25 46.713 25.38 45.165 23.835C43.62 22.287 42.75 20.187 42.75 18V11.256ZM54.567 21.75L47.25 14.433V18C47.25 18.996 47.646 19.947 48.348 20.652C49.053 21.354 50.004 21.75 51 21.75H54.567Z" fill="#3060AA" />
	<path fill-rule="evenodd" clip-rule="evenodd" d="M36 27.75H36.054C36.261 27.756 36.462 27.789 36.651 27.846L36.657 27.849C36.999 27.951 37.32 28.14 37.59 28.41L43.59 34.41C44.469 35.286 44.469 36.714 43.59 37.59C42.714 38.469 41.286 38.469 40.41 37.59L38.25 35.433V45C38.25 46.242 37.242 47.25 36 47.25C34.758 47.25 33.75 46.242 33.75 45V35.433L31.59 37.59C30.714 38.469 29.286 38.469 28.41 37.59C27.531 36.714 27.531 35.286 28.41 34.41L34.41 28.41C34.68 28.14 35.001 27.951 35.343 27.849L35.349 27.846C35.538 27.789 35.739 27.756 35.946 27.75H36Z" fill="#3060AA" />
</svg>
