<?xml version="1.0" encoding="utf-8"?>
<!-- Generator: Adobe Illustrator 24.3.0, SVG Export Plug-In . SVG Version: 6.00 Build 0)  -->
<svg version="1.1" id="Layer_1" xmlns="http://www.w3.org/2000/svg" xmlns:xlink="http://www.w3.org/1999/xlink" x="0px" y="0px"
	 viewBox="0 0 24 24" style="enable-background:new 0 0 24 24;" xml:space="preserve">
<style type="text/css">
	.st0{fill:#3060aa;}
</style>
<path class="st0" d="M19.4,10c-0.7-3.4-3.7-6-7.4-6C9.1,4,6.6,5.6,5.3,8C2.3,8.4,0,10.9,0,14c0,1.6,0.6,3.1,1.8,4.2
	C2.9,19.4,4.4,20,6,20h13c0.7,0,1.3-0.1,1.9-0.4s1.2-0.6,1.6-1.1s0.8-1,1.1-1.6S24,15.7,24,15C24,12.4,22,10.2,19.4,10z M19,18H6
	c-1.1,0-2.1-0.4-2.8-1.2C2.4,16.1,2,15.1,2,14c0-2.1,1.5-3.8,3.6-4l1.1-0.1L7.1,9C8.1,7.1,9.9,6,12,6c2.6,0,4.9,1.9,5.4,4.4l0.3,1.5
	l1.5,0.1c1.6,0.1,2.8,1.4,2.8,3c0,0.8-0.3,1.6-0.9,2.1C20.6,17.7,19.8,18,19,18z M8,13h2.6v3h2.9v-3H16l-4-4L8,13z"/>
</svg>
