<svg width="100%" height="100%" viewBox="0 0 32 32" fill="none" xmlns="http://www.w3.org/2000/svg">
	<path d="M1.33331 30.6666L3.39836 23.1364C2.13052 20.9272 1.45818 18.43 1.45818 15.8655C1.45818 7.85497 7.97989 1.33325 15.9904 1.33325C19.8803 1.33325 23.5302 2.85082 26.2772 5.59782C29.0242 8.34482 30.5322 11.9947 30.5322 15.8847C30.5322 23.8951 24.0104 30.4169 16 30.4169H15.9904C13.5603 30.4169 11.1687 29.8021 9.04604 28.6496L1.33331 30.6666ZM9.40142 26.0178L9.84324 26.2772C11.697 27.3817 13.8293 27.958 15.9904 27.958H16C22.6562 27.958 28.0829 22.5408 28.0829 15.8751C28.0829 12.6478 26.8247 9.61267 24.5483 7.3267C22.272 5.04074 19.2368 3.7825 16.0096 3.7825C9.33418 3.7921 3.91703 9.20926 3.91703 15.8655C3.91703 18.1514 4.55095 20.3701 5.76117 22.2911L6.04931 22.7522L4.82949 27.2088L9.40142 26.0178Z" fill="#3060AA" />
	<path fill-rule="evenodd" clip-rule="evenodd" d="M23.3189 19.3328C23.2324 19.1791 22.9827 19.0927 22.6273 18.9102C22.2623 18.7277 20.4758 17.8536 20.1493 17.7288C19.8131 17.6039 19.573 17.5463 19.3328 17.9113C19.0927 18.2763 18.3916 19.0927 18.1803 19.3328C17.9689 19.5729 17.7576 19.6017 17.3927 19.4192C17.0277 19.2368 15.8559 18.8526 14.4728 17.6135C13.397 16.653 12.667 15.462 12.4557 15.097C12.2444 14.7321 12.4365 14.54 12.619 14.3575C12.7823 14.1942 12.984 13.9348 13.1665 13.7235C13.349 13.5122 13.4066 13.3586 13.5315 13.1184C13.6564 12.8783 13.5891 12.667 13.5027 12.4845C13.4162 12.302 12.6863 10.5155 12.3789 9.78553C12.0811 9.07477 11.7834 9.17082 11.5625 9.16122C11.3512 9.15161 11.1111 9.15161 10.8709 9.15161C10.6308 9.15161 10.237 9.23806 9.90084 9.60304C9.56467 9.96803 8.633 10.8421 8.633 12.6286C8.633 14.4151 9.92966 16.144 10.1121 16.3841C10.2946 16.6242 12.6767 20.2933 16.3169 21.8685C17.1813 22.2431 17.8633 22.464 18.3916 22.6369C19.2656 22.9154 20.0532 22.877 20.6775 22.781C21.3787 22.6753 22.829 21.9069 23.1268 21.0521C23.4053 20.2165 23.4053 19.4865 23.3189 19.3328Z" fill="#3060AA" />
</svg>
