<svg width="100%" height="100%" viewBox="0 0 736 162" fill="none" xmlns="http://www.w3.org/2000/svg">
	<circle opacity="0.72" cx="614" cy="122" r="40" fill="#3060AA" />
	<rect opacity="0.66" y="82" width="80" height="80" fill="#3060AA" />
	<rect opacity="0.66" x="656" y="82" width="80" height="80" fill="#3060AA" />
	<rect opacity="0.53" x="164" y="82" width="80" height="80" fill="#3060AA" />
	<rect opacity="0.78" x="246" y="82" width="80" height="80" fill="#3060AA" />
	<path opacity="0.41" d="M328 82H368C390.091 82 408 99.9086 408 122C408 144.091 390.091 162 368 162H328V82Z" fill="#3060AA" />
	<path opacity="0.45" d="M162 80L122 80C99.9086 80 82 62.0914 82 40C82 17.9086 99.9086 -5.4282e-06 122 -3.49691e-06L162 0L162 80Z" fill="#3060AA" />
	<path opacity="0.97" d="M490 162L450 162C427.909 162 410 144.091 410 122C410 99.9086 427.909 82 450 82L490 82L490 162Z" fill="#3060AA" />
	<path opacity="0.57" d="M572 162L532 162C509.909 162 492 144.091 492 122C492 99.9086 509.909 82 532 82L572 82L572 162Z" fill="#3060AA" />
	<path opacity="0.97" d="M492 0H572C572 44.1828 536.183 80 492 80V0Z" fill="#3060AA" />
	<path opacity="0.8" d="M162 82L162 162C117.817 162 82 126.183 82 82L162 82Z" fill="#3060AA" />
	<path opacity="0.94" d="M326 80L246 80C246 35.8172 281.817 -3.86258e-06 326 0L326 80Z" fill="#3060AA" />
	<path opacity="0.74" d="M490 80L410 80C410 35.8172 445.817 -3.86258e-06 490 0L490 80Z" fill="#3060AA" />
	<path opacity="0.88" d="M0 80L1.11257e-05 0C44.1828 6.14454e-06 80 35.8172 80 80L0 80Z" fill="#3060AA" />
	<path opacity="0.88" d="M656 80L656 0C700.183 6.14454e-06 736 35.8172 736 80L656 80Z" fill="#3060AA" />
	<path opacity="0.4" d="M164 80L164 0C208.183 6.14454e-06 244 35.8172 244 80L164 80Z" fill="#3060AA" />
	<path opacity="0.75" d="M328 80L328 0C372.183 6.14454e-06 408 35.8172 408 80L328 80Z" fill="#3060AA" />
	<path opacity="0.76" d="M574 80L574 0C618.183 6.14454e-06 654 35.8172 654 80L574 80Z" fill="#3060AA" />
</svg>
