<svg width="744" height="132" viewBox="0 0 744 132" fill="none" xmlns="http://www.w3.org/2000/svg">
<circle opacity="0.49" cx="32" cy="100" r="32" fill="#73AF71"/>
<circle opacity="0.78" cx="100" cy="32" r="32" fill="#EE9639"/>
<circle opacity="0.43" cx="304" cy="32" r="32" fill="#E27D79"/>
<rect opacity="0.81" x="204" width="64" height="64" fill="#8AB7AD"/>
<rect opacity="0.83" x="408" width="64" height="64" fill="#EE9639"/>
<path opacity="0.85" d="M204 68H236C253.673 68 268 82.3269 268 100V100C268 117.673 253.673 132 236 132H204V68Z" fill="#EE9639"/>
<path opacity="0.9" d="M408 68H440C457.673 68 472 82.3269 472 100V100C472 117.673 457.673 132 440 132H408V68Z" fill="#9EC39D"/>
<path opacity="0.71" d="M132 132L100 132C82.3269 132 68 117.673 68 100V100C68 82.3269 82.3269 68 100 68L132 68L132 132Z" fill="#8AB7AD"/>
<path opacity="0.42" d="M404 132L372 132C354.327 132 340 117.673 340 100V100C340 82.3269 354.327 68 372 68L404 68L404 132Z" fill="#8AB7AD"/>
<path opacity="0.51" d="M608 132L576 132C558.327 132 544 117.673 544 100V100C544 82.3269 558.327 68 576 68L608 68L608 132Z" fill="#8AB7AD"/>
<path opacity="0.75" d="M676 64L644 64C626.327 64 612 49.6731 612 32V32C612 14.3269 626.327 -5.29624e-06 644 -3.7512e-06L676 -9.53674e-07L676 64Z" fill="#8AB7AD"/>
<path opacity="0.64" d="M744 132L712 132C694.327 132 680 117.673 680 100V100C680 82.3269 694.327 68 712 68L744 68L744 132Z" fill="#EE9639"/>
<path opacity="0.62" d="M136 0H200V0C200 35.3462 171.346 64 136 64V64V0Z" fill="#73AF71"/>
<path opacity="0.67" d="M680 0H744V0C744 35.3462 715.346 64 680 64V64V0Z" fill="#E0342E"/>
<path opacity="0.79" d="M200 68L200 132V132C164.654 132 136 103.346 136 68V68L200 68Z" fill="#E0342E"/>
<path opacity="0.76" d="M540 0L540 64V64C504.654 64 476 35.3462 476 -2.79753e-06V-2.79753e-06L540 0Z" fill="#73AF71"/>
<path opacity="0.63" d="M676 68L676 132V132C640.654 132 612 103.346 612 68V68L676 68Z" fill="#73AF71"/>
<path opacity="0.72" d="M64 64L-9.53674e-07 64V64C2.13639e-06 28.6538 28.6538 -4.04374e-06 64 -9.53674e-07V-9.53674e-07L64 64Z" fill="#E0342E"/>
<path opacity="0.42" d="M336 132L272 132V132C272 96.6538 300.654 68 336 68V68L336 132Z" fill="#73AF71"/>
<path opacity="0.59" d="M404 64L340 64V64C340 28.6538 368.654 -4.04374e-06 404 -9.53674e-07V-9.53674e-07L404 64Z" fill="#E0342E"/>
<path opacity="0.53" d="M540 132L476 132V132C476 96.6538 504.654 68 540 68V68L540 132Z" fill="#E0342E"/>
<path opacity="0.51" d="M608 64L544 64V64C544 28.6538 572.654 -4.04374e-06 608 -9.53674e-07V-9.53674e-07L608 64Z" fill="#ECA252"/>
</svg>
