<svg width="100%" height="100%" viewBox="0 0 736 162" fill="none" xmlns="http://www.w3.org/2000/svg">
	<circle opacity="0.56" cx="40" cy="40" r="40" fill="#3060AA" />
	<circle opacity="0.56" cx="696" cy="40" r="40" fill="#3060AA" />
	<path opacity="0.75" d="M574 0H614C636.091 0 654 17.9086 654 40C654 62.0914 636.091 80 614 80H574V0Z" fill="#3060AA" />
	<path opacity="0.45" d="M162 162L122 162C99.9086 162 82 144.091 82 122C82 99.9086 99.9086 82 122 82L162 82L162 162Z" fill="#3060AA" />
	<path opacity="0.63" d="M408 80L368 80C345.909 80 328 62.0914 328 40C328 17.9086 345.909 -5.4282e-06 368 -3.49691e-06L408 0L408 80Z" fill="#3060AA" />
	<path opacity="0.66" d="M82 0H162C162 44.1828 126.183 80 82 80V0Z" fill="#3060AA" />
	<path opacity="0.97" d="M492 82H572C572 126.183 536.183 162 492 162V82Z" fill="#3060AA" />
	<path opacity="0.46" d="M244 0L244 80C199.817 80 164 44.1828 164 -3.49691e-06L244 0Z" fill="#3060AA" />
	<path opacity="0.94" d="M326 162L246 162C246 117.817 281.817 82 326 82L326 162Z" fill="#3060AA" />
	<path opacity="0.74" d="M490 162L410 162C410 117.817 445.817 82 490 82L490 162Z" fill="#3060AA" />
	<path opacity="0.7" d="M572 80L492 80C492 35.8172 527.817 -3.86258e-06 572 0L572 80Z" fill="#3060AA" />
	<path opacity="0.88" d="M0 162L1.11257e-05 82C44.1828 82 80 117.817 80 162L0 162Z" fill="#3060AA" />
	<path opacity="0.88" d="M656 162L656 82C700.183 82 736 117.817 736 162L656 162Z" fill="#3060AA" />
	<path opacity="0.4" d="M164 162L164 82C208.183 82 244 117.817 244 162L164 162Z" fill="#3060AA" />
	<path opacity="0.62" d="M246 80L246 0C290.183 6.14454e-06 326 35.8172 326 80L246 80Z" fill="#3060AA" />
	<path opacity="0.75" d="M328 162L328 82C372.183 82 408 117.817 408 162L328 162Z" fill="#3060AA" />
	<path opacity="0.9" d="M410 80L410 0C454.183 6.14454e-06 490 35.8172 490 80L410 80Z" fill="#3060AA" />
	<path opacity="0.76" d="M574 162L574 82C618.183 82 654 117.817 654 162L574 162Z" fill="#3060AA" />
</svg>
