<svg width="744" height="132" viewBox="0 0 744 132" fill="none" xmlns="http://www.w3.org/2000/svg">
<circle opacity="0.7" cx="236" cy="32" r="32" fill="#3060AA"/>
<circle opacity="0.47" cx="372" cy="100" r="32" fill="#3060AA"/>
<circle opacity="0.64" cx="644" cy="32" r="32" fill="#3060AA"/>
<circle opacity="0.73" cx="712" cy="100" r="32" fill="#3060AA"/>
<rect opacity="0.62" y="68" width="64" height="64" fill="#3060AA"/>
<rect opacity="0.81" x="68" y="68" width="64" height="64" fill="#3060AA"/>
<rect opacity="0.85" x="272" width="64" height="64" fill="#3060AA"/>
<path opacity="0.72" d="M136 68H168C185.673 68 200 82.3269 200 100C200 117.673 185.673 132 168 132H136V68Z" fill="#3060AA"/>
<path opacity="0.7" d="M272 68H304C321.673 68 336 82.3269 336 100C336 117.673 321.673 132 304 132H272V68Z" fill="#3060AA"/>
<path opacity="0.76" d="M340 0H372C389.673 0 404 14.3269 404 32C404 49.6731 389.673 64 372 64H340V0Z" fill="#3060AA"/>
<path opacity="0.59" d="M64 64L32 64C14.3269 64 1.2525e-06 49.6731 2.79753e-06 32C4.34256e-06 14.3269 14.3269 -4.34256e-06 32 -2.79753e-06L64 0L64 64Z" fill="#3060AA"/>
<path opacity="0.81" d="M200 64L168 64C150.327 64 136 49.6731 136 32C136 14.3269 150.327 -4.34256e-06 168 -2.79753e-06L200 0L200 64Z" fill="#3060AA"/>
<path opacity="0.74" d="M268 132L236 132C218.327 132 204 117.673 204 100C204 82.3269 218.327 68 236 68L268 68L268 132Z" fill="#3060AA"/>
<path opacity="0.89" d="M540 132L508 132C490.327 132 476 117.673 476 100C476 82.3269 490.327 68 508 68L540 68L540 132Z" fill="#3060AA"/>
<path opacity="0.6" d="M408 0H472C472 35.3462 443.346 64 408 64V0Z" fill="#3060AA"/>
<path opacity="0.8" d="M476 0H540C540 35.3462 511.346 64 476 64V0Z" fill="#3060AA"/>
<path opacity="0.84" d="M544 0H608C608 35.3462 579.346 64 544 64V0Z" fill="#3060AA"/>
<path opacity="0.5" d="M132 0L132 64C96.6538 64 68 35.3462 68 -2.79753e-06L132 0Z" fill="#3060AA"/>
<path opacity="0.45" d="M472 68L472 132C436.654 132 408 103.346 408 68L472 68Z" fill="#3060AA"/>
<path opacity="0.77" d="M608 68L608 132C572.654 132 544 103.346 544 68L608 68Z" fill="#3060AA"/>
<path opacity="0.58" d="M744 0L744 64C708.654 64 680 35.3462 680 -2.79753e-06L744 0Z" fill="#3060AA"/>
<path opacity="0.6" d="M676 132L612 132C612 96.6538 640.654 68 676 68L676 132Z" fill="#3060AA"/>
</svg>
