<svg width="123" height="40" viewBox="0 0 123 40" fill="none" xmlns="http://www.w3.org/2000/svg">
	<path d="M58.3182 35.4502L55.4508 27.4252H53.3449L50.5036 35.4477L47.203 26.4422L47.172 26.3555H44.7405L49.4773 39.8465H51.5584L54.3985 31.8537L57.2373 39.8465H59.3445L64.0552 26.3555H61.6497L58.3182 35.4502Z" fill="#E5F0FF" />
	<path d="M76.406 36.2599V30.6404C76.406 29.468 75.9405 28.3661 75.0936 27.5366C74.206 26.6663 72.9815 26.1797 71.7039 26.2082L65.4765 26.3357V28.5357H67.6617L71.7868 28.4367C72.9382 28.4156 73.9336 29.2451 74.0636 30.3358L74.0487 30.3977C73.7553 31.1703 73.0855 31.7162 72.2659 31.8549L68.3426 32.204C65.9866 32.4925 64.9318 34.3632 64.9318 36.089C64.9318 38.0328 66.2701 40 68.8316 40L71.1926 39.901C72.4269 39.8552 73.5746 39.4082 74.5254 38.606C74.6133 38.8585 74.7247 39.147 74.8485 39.4714L74.9376 39.7029H77.4274L77.0758 38.8239C76.4951 37.3704 76.406 37.1475 76.406 36.2599ZM74.0933 34.5935C74.0933 36.219 72.7414 37.5994 71.0799 37.67L68.9529 37.769C68.4627 37.7889 68.0405 37.6428 67.7335 37.3469C67.4079 37.0336 67.2209 36.5657 67.2209 36.0605C67.2209 35.4056 67.5799 34.5786 68.5803 34.4016L72.5816 34.0524C73.1029 33.9868 73.603 33.8271 74.071 33.5758C74.0735 33.7157 74.0784 33.8556 74.0822 33.9955C74.0871 34.1985 74.0933 34.3991 74.0933 34.5935Z" fill="#E5F0FF" />
	<path d="M86.3958 32.0035L82.5021 31.2074C81.5401 31.018 81.1316 30.3396 81.1551 29.7453C81.1551 28.9789 81.8435 28.1866 82.9961 28.1866H84.8903C86.0627 28.1866 87.016 29.0978 87.016 30.2182V30.4002H89.3287V30.2182C89.3287 27.8697 87.3367 25.9594 84.8891 25.9594H82.9948C80.3132 25.9594 78.8672 27.9229 78.8672 29.7713C78.8672 31.0861 79.6633 32.7884 81.9041 33.2564L85.7705 34.0525C86.6632 34.2357 87.1968 34.8473 87.1968 35.6891C87.1968 36.6462 86.3945 37.6713 85.201 37.6713H83.3848C81.9982 37.6713 80.8691 36.5929 80.8691 35.267V35.1357H78.5552V35.267C78.5552 37.8211 80.7218 39.8985 83.3836 39.8985H85.1998C87.8467 39.8985 89.4562 37.7852 89.4834 35.7411C89.5094 34.3112 88.7146 32.4752 86.3958 32.0035Z" fill="#E5F0FF" />
	<path d="M96.7768 26.0089H96.6988C93.5207 26.0089 90.9357 28.4664 90.9357 31.486V34.3199C90.9357 37.5227 93.4898 39.8465 97.0095 39.8465C98.5781 39.8465 100.306 39.3897 101.414 38.6815L102.385 38.0613L101.093 36.2042L100.128 36.8207C99.29 37.3729 97.9579 37.6193 97.0083 37.6193C94.7588 37.6193 93.2471 36.2933 93.2471 34.3199V33.8296H102.537V31.6841C102.539 28.5023 100.008 26.0089 96.7768 26.0089ZM96.6988 28.2361H96.7768C98.6784 28.2361 100.226 29.6945 100.226 31.486V31.6036H93.2496V31.486C93.2496 29.6933 94.7959 28.2361 96.6988 28.2361Z" fill="#E5F0FF" />
	<path d="M109.831 26.0089H109.753C106.575 26.0089 103.99 28.4664 103.99 31.486V34.3199C103.99 37.5227 106.544 39.8465 110.063 39.8465C111.632 39.8465 113.36 39.3897 114.468 38.6815L115.439 38.0613L114.147 36.2042L113.182 36.8207C112.344 37.3729 111.012 37.6193 110.062 37.6193C107.813 37.6193 106.301 36.2933 106.301 34.3199V33.8296H115.591V31.6841C115.593 28.5023 113.061 26.0089 109.831 26.0089ZM109.751 28.2361H109.829C111.731 28.2361 113.279 29.6945 113.279 31.486V31.6036H106.302V31.486C106.302 29.6933 107.85 28.2361 109.751 28.2361Z" fill="#E5F0FF" />
	<path d="M121.816 37.67C121.045 37.67 120.142 37.0597 120.142 36.3094V22.3455L117.83 22.3517V36.3106C117.83 38.289 119.495 39.8985 121.543 39.8985H122.687L121.816 37.67Z" fill="#E5F0FF" />
	<path d="M17.3326 5.43749V10.6497H22.5423V5.45235L26.639 11.7255L30.9908 8.88297L26.6366 2.2161C25.734 0.833204 24.1939 0 22.5411 0H22.5312H17.3314C15.6737 0 14.1273 0.836918 13.2211 2.22477L8.87308 8.88297L13.2248 11.7255L17.3326 5.43749Z" fill="#E5F0FF" />
	<path d="M37.6403 13.2211L30.9821 8.87308L28.1395 13.2248L34.4288 17.3314H29.2166V22.5411H34.4127L28.1395 26.6378L30.9821 30.9895L37.649 26.6353C39.0318 25.7328 39.8651 24.1926 39.8651 22.5399V22.53V17.3302C39.8651 15.6737 39.0281 14.1286 37.6403 13.2211Z" fill="#E5F0FF" />
	<path d="M22.5423 34.4176V29.2216H17.3326V34.4337L13.226 28.1445L8.8743 30.987L13.2223 37.6452C14.1286 39.0331 15.6749 39.87 17.3326 39.87H22.5324H22.5423C24.1939 39.87 25.734 39.0368 26.6378 37.6539L30.992 30.987L26.6402 28.1445L22.5423 34.4176Z" fill="#E5F0FF" />
	<path d="M5.45235 22.5423H10.6484V17.3326H5.43626L11.7255 13.226L8.88297 8.8743L2.22477 13.2223C0.836919 14.1286 0 15.6749 0 17.3326V22.5324V22.5423C0 24.1939 0.833204 25.734 2.2161 26.6378L8.88297 30.992L11.7255 26.6402L5.45235 22.5423Z" fill="#E5F0FF" />
	<path d="M58.4852 17.7635L57.1655 16.4177L55.6872 17.8687L57.1655 19.2949L58.4852 17.9752L59.805 19.2949L61.2832 17.8687L59.805 16.4177L58.4852 17.7635Z" fill="#E5F0FF" />
	<path d="M106.744 4.96208C105.187 4.96208 102.917 5.6752 101.465 6.36108V5.27902L99.1426 5.85967V12.4324H95.9757H93.3374H90.6992H89.8152H87.1769H84.5374H81.8979H79.2596H76.6214H73.9831H71.3448H68.7065H66.0683H63.43C62.5856 12.4324 61.8465 12.3272 61.8465 11.6401V5.27902L59.524 5.85967V11.4284C59.524 12.326 59.233 12.4312 57.9405 12.4312H56.3583H56.357H54.7748V0L52.4522 0.580643V15.5994C51.9248 15.8111 51.0805 16.0475 49.9452 16.0475C48.0448 16.0475 47.1472 15.2824 47.1472 13.6457V9.13182L44.8246 9.71246V13.6977C44.8246 16.6269 46.3289 18.2909 49.6023 18.2909C52.5055 18.2909 54.0629 17.4725 54.7761 17.0764V14.6213H56.3583H56.3595H57.9417C59.42 14.6213 60.476 14.5161 61.1087 13.9614C61.7153 14.4368 62.5596 14.6213 63.4312 14.6213H66.0707H68.709H71.3473H73.9856H76.6238H79.2621H81.9004H84.5399H87.1794H89.8177H90.7017H93.3399H95.9782H107.327C109.967 14.6213 111.233 14.2524 111.233 11.6921V9.26429C111.232 6.51955 109.833 4.96208 106.744 4.96208ZM108.882 11.4284C108.882 12.326 108.619 12.4312 107.325 12.4312H101.465V8.49918C102.943 7.76007 105.213 7.23266 106.427 7.23266C108.116 7.20666 108.882 7.97177 108.882 9.502V11.4284Z" fill="#E5F0FF" />
	<path d="M117.988 4.9361C114.768 4.9361 113.237 6.51956 113.237 9.42277V10.2139C113.237 13.0379 114.715 14.6213 117.882 14.6213H120.257V14.833C120.257 16.5217 119.677 17.4985 117.83 17.4985H115.375V19.7159H117.83C121.182 19.7159 122.58 18.0532 122.58 15.0447V5.99215C121.419 5.4375 119.835 4.9361 117.988 4.9361ZM120.257 12.4325H118.014C116.298 12.4325 115.533 11.5881 115.533 10.0566V9.60848C115.533 7.99778 116.351 7.20667 118.119 7.20667C119.201 7.20667 119.994 7.47037 120.257 7.62884V12.4325Z" fill="#E5F0FF" />
</svg>
