<svg width="350" height="93" viewBox="0 0 350 93" fill="none" xmlns="http://www.w3.org/2000/svg">
<path d="M40.6437 12.9602V25.0452H52.763V12.9955L62.2935 27.5425L72.4165 20.9527L62.2871 5.49098C60.1878 2.28436 56.6042 0.352051 52.763 0.352051H52.7404H40.6437C36.7864 0.352051 33.1899 2.29399 31.0809 5.51345L20.9644 20.9527L31.0874 27.5425L40.6437 12.9602Z" fill="white"/>
<path d="M87.8799 31.0127L72.3895 20.9307L65.7793 31.0223L80.4068 40.5459H68.2843V52.6277H80.3714L65.7793 62.1287L72.3895 72.2204L87.8992 62.1223C91.1158 60.0295 93.0541 56.457 93.0541 52.6277V52.6052V40.5459C93.0541 36.7005 91.1094 33.1152 87.8799 31.0127Z" fill="white"/>
<path d="M52.7617 80.1607V68.111H40.6424V80.196L31.0893 65.6138L20.9663 72.2035L31.0797 87.646C33.1886 90.8654 36.7851 92.8074 40.6424 92.8074H52.7392H52.7617C56.6029 92.8074 60.1865 90.8751 62.2858 87.6685L72.4153 72.2067L62.2923 65.617L52.7617 80.1607Z" fill="white"/>
<path d="M13.0043 52.6277H25.0914V40.5459H12.9689L27.5964 31.0223L20.9862 20.9307L5.49578 31.0127C2.26633 33.1152 0.318359 36.7005 0.318359 40.5459V52.6052V52.6277C0.318359 56.457 2.25667 60.0295 5.47324 62.1223L20.9829 72.2204L27.5932 62.1287L13.0043 52.6277Z" fill="white"/>
<path d="M177.278 19.3635L161.707 72.5214H148.628L138.277 37.5247L128.312 72.5246H115.777L99.897 19.9862L110.796 18.667L122.551 59.4863L133.293 19.3635H143.802L155.091 59.4863L166.302 19.3635H177.278Z" fill="white"/>
<path d="M218.567 73.6726L205.028 53.5253H195.74V72.888H184.171V19.3672H207.86C221.239 19.3672 227.929 25.0347 227.929 36.3665C227.929 40.2501 226.917 43.5152 224.898 46.165C222.877 48.8149 220.084 50.69 216.516 51.7935L230.527 72.3346L218.567 73.6726ZM195.74 44.1598H206.76C212.951 44.1598 216.047 41.562 216.047 36.3665C216.047 31.2784 212.951 28.7328 206.76 28.7328H195.74V44.1598Z" fill="white"/>
<path d="M281.293 69.5056C275.889 72.2857 269.932 73.6757 263.428 73.6757C254.98 73.6757 248.17 71.1691 243.003 66.1591C237.834 61.1492 235.252 54.4725 235.252 46.1291C235.252 37.7336 237.863 31.0439 243.085 26.06C248.3 21.0761 255.266 18.5825 263.978 18.5825C270.693 18.5825 276.651 19.9725 281.843 22.7526L280.033 32.8278C274.942 29.5758 269.723 27.9481 264.372 27.9481C259.072 27.9481 254.859 29.5367 251.741 32.7106C248.619 35.8846 247.056 40.3574 247.056 46.1291C247.056 51.8487 248.59 56.3085 251.659 59.5085C254.729 62.7085 258.808 64.3101 263.9 64.3101C270.511 64.3101 276.309 62.6304 281.293 59.2741V69.5056Z" fill="white"/>
<path d="M322.69 61.3154H316.157L301.439 39.0424V72.8848H290.97V19.3672H302.305L320.171 46.5199L337.958 19.3672H349.212V72.1784L337.72 73.5944V39.0424L322.69 61.3154Z" fill="white"/>
</svg>
