<svg width="100%" height="100%" viewBox="0 0 113 80" fill="none" xmlns="http://www.w3.org/2000/svg">
	<g clip-path="url(#clip0_2792_2834)">
		<path d="M75.8829 15.1648C76.2532 13.6987 76.8307 12.2325 76.9344 10.7516C77.2009 7.13813 76.0162 5.05002 72.7137 3.50985C69.7222 2.10296 66.7604 2.41396 63.6948 3.2729C59.0743 4.56131 54.8092 6.605 50.7367 9.06335C49.1965 9.98153 47.7008 10.9738 46.205 11.966C46.131 12.0104 46.131 12.3658 46.1902 12.3954C46.7233 12.6472 47.2713 12.8545 47.8044 13.0915C49.0632 13.6542 50.3812 14.1133 51.5364 14.8242C53.506 16.0385 55.4312 17.327 57.2528 18.7486C59.5186 20.511 61.3105 22.7472 62.9099 25.1315C63.5319 26.0497 63.4579 26.2866 62.3176 26.3903C61.4882 26.4643 60.6441 26.3014 59.8148 26.2718C59.0003 26.2422 58.9114 26.3458 59.2817 27.0863C60.0517 28.6265 60.1554 30.2999 60.3035 31.9734C60.5404 34.7427 60.422 37.5269 60.185 40.2962C59.9036 43.4358 59.6519 46.5606 59.2965 49.6853C59.0743 51.5809 58.6893 53.4765 58.3783 55.3573C58.3487 55.4906 58.3042 55.6387 58.2746 55.772C58.171 55.6387 58.0377 55.535 57.9784 55.3869C57.5934 54.3503 57.1639 53.3284 56.8381 52.277C55.9496 49.3299 55.0906 46.3829 54.2317 43.421C53.4616 40.7553 52.7507 38.0896 51.9066 35.4388C51.4623 34.0467 50.87 32.699 50.2628 31.3662C50.1147 31.0256 49.7 30.6998 49.3446 30.5665C48.0858 30.0926 46.827 29.9889 45.6126 30.7886C44.6204 31.4402 43.5986 32.0326 42.6063 32.6546C42.1324 32.9508 41.9103 33.2618 42.4138 33.7505C43.258 34.5798 42.7841 35.5869 42.6656 36.4902C42.3546 38.9338 41.9547 41.3625 41.5549 43.7764C41.3031 45.3314 40.9477 46.8568 40.6663 48.4117C40.3553 50.1 40.0888 51.8031 39.763 53.4913C39.5556 54.5576 39.3039 55.6091 39.0669 56.6605C39.0373 56.7642 38.9484 56.8531 38.8892 56.9419C38.83 56.8382 38.7411 56.7494 38.7115 56.6457C37.8377 53.7283 37.038 50.7812 36.105 47.8786C35.024 44.4873 33.8688 41.1107 32.6545 37.7638C32.1213 36.2829 31.3364 34.876 30.1221 33.8246C28.4782 32.4029 26.8492 32.1659 25.0425 33.3655C23.7689 34.2096 22.6878 35.3647 21.5327 36.3866C21.2069 36.6679 21.2957 36.9049 21.6215 37.1566C23.7689 38.8597 25.1758 41.0811 26.1532 43.6135C27.3972 46.8419 28.7152 50.0556 29.9296 53.2988C30.7737 55.5202 31.4697 57.8009 32.2842 60.0371C32.9803 61.9771 33.5282 63.9467 34.5501 65.7831C36.0606 68.4932 39.2446 68.9967 41.4956 67.3084C41.9251 66.9826 42.3102 66.5976 42.7248 66.257C43.3764 65.7238 43.7319 65.1611 43.258 64.2873C43.0802 63.9615 43.1247 63.458 43.2135 63.0582C43.7615 60.4369 44.3835 57.8305 44.9314 55.2092C45.5238 52.3954 46.0865 49.5669 46.6789 46.7531C46.7678 46.3384 46.9603 45.9386 47.1084 45.5387C47.2565 45.8942 47.4194 46.2496 47.5527 46.605C48.7522 49.8779 49.937 53.1655 51.1661 56.4236C51.9066 58.408 52.6915 60.3777 53.5653 62.3029C53.9059 63.0582 54.4686 63.7542 55.0758 64.3466C55.7274 64.9686 56.6012 65.1167 57.5045 64.8649C58.6004 64.5539 59.6815 64.2577 60.7774 63.9467C60.8959 63.9171 61.044 63.9467 61.1772 63.9467C61.118 64.0504 61.0588 64.1541 60.9847 64.2429C58.6152 66.7309 56.1569 69.1152 53.1802 70.8627C49.3446 73.0989 45.272 74.6243 40.8144 75.2759C37.1121 75.809 33.4986 75.5721 29.8555 75.0389C29.0558 74.9204 28.2857 74.6391 27.486 74.491C27.1898 74.4317 26.7752 74.491 26.5382 74.6539C23.6356 76.7124 20.4516 78.1933 17.0306 79.1411C14.3205 79.8816 11.5364 80.2222 8.75221 79.8816C5.27202 79.4521 2.62115 77.675 1.25869 74.3133C-0.0741535 71.0256 -0.296293 67.6491 0.473792 64.1837C0.799597 62.7472 0.9625 61.2662 1.33273 59.8594C1.82144 57.9786 2.32496 56.083 3.06542 54.291C4.16132 51.6106 5.36087 48.9597 6.6789 46.3977C8.53007 42.7842 10.7515 39.378 13.3283 36.2237C15.6089 33.4395 17.934 30.6998 20.4072 28.0933C22.4508 25.946 24.7463 24.006 26.9529 22.0215C28.3153 20.8071 29.737 19.6816 31.1143 18.4821C31.2772 18.334 31.3216 18.0378 31.4105 17.8009C31.1735 17.786 30.8922 17.6972 30.6996 17.786C28.7744 18.6746 26.79 19.4595 24.9832 20.5258C22.3176 22.0956 19.6667 23.7246 17.1935 25.5758C14.1576 27.8564 11.329 30.4036 8.95954 33.3951C7.50822 35.2166 6.16058 37.127 4.75369 39.0078C4.66483 39.1263 4.48712 39.1855 4.35384 39.2744C4.35384 39.1559 4.32422 39.0374 4.35384 38.919C4.96102 36.2533 5.50897 33.5876 6.63447 31.0848C9.07801 25.5906 12.5878 20.9256 17.4453 17.3121C19.6519 15.6683 21.9918 14.2762 24.539 13.2692C29.9444 11.1218 35.5127 10.3814 41.2735 11.5365C41.5697 11.5957 41.9844 11.4625 42.2657 11.2847C44.3983 9.87786 46.4716 8.36731 48.6337 7.01966C50.2332 6.02743 51.9214 5.12406 53.6689 4.39841C56.3938 3.25809 59.178 2.26586 61.9621 1.28845C63.2061 0.844168 64.5242 0.533172 65.8274 0.311032C67.8563 -0.0888195 69.8999 -0.148057 71.9436 0.473935C73.3357 0.903406 74.6685 1.3773 75.72 2.38434C78.0155 4.59093 78.8892 7.30104 78.1339 10.3814C77.7785 11.8179 77.0677 13.1655 76.4753 14.5428C76.3716 14.7946 76.0754 14.9575 75.8829 15.1648C75.8829 15.1648 75.8681 15.15 75.8829 15.1648ZM4.81293 69.2337C4.7685 70.448 4.88697 71.618 5.49416 72.7287C6.26424 74.1504 7.43418 75.187 8.88549 75.6313C10.3664 76.0904 11.9955 76.3125 13.5504 76.2681C15.7274 76.2089 17.934 75.9719 20.0517 75.5276C21.5919 75.2018 23.0432 74.4317 24.5241 73.8394C24.6871 73.7801 24.7907 73.5728 24.9092 73.4395C24.7759 73.3507 24.6426 73.247 24.4945 73.1729C23.5467 72.7139 22.5841 72.2696 21.6363 71.8105C18.6448 70.3888 16.0828 68.3599 13.6837 66.1237C11.566 64.1393 9.8481 61.8438 8.38198 59.341C8.29312 59.1781 8.13022 59.0596 7.99693 58.9116C7.87846 59.0596 7.74517 59.1929 7.67113 59.3558C7.47861 59.6964 7.30089 60.0519 7.13799 60.4073C5.89401 63.2211 4.79812 66.0793 4.81293 69.2337Z" fill="#E5F0FF" />
		<path d="M67.5009 34.8613C70.7146 34.4319 73.4691 33.3063 75.8238 31.2627C77.0085 30.226 77.053 28.8932 76.8456 27.4715C76.4162 24.6577 76.0311 21.8291 75.5868 19.0153C75.3795 17.6973 75.8238 16.6458 76.7271 15.7425C76.8456 15.624 76.9937 15.55 77.127 15.4463C77.2159 15.6092 77.3491 15.7721 77.3788 15.9498C77.5417 17.49 77.7194 19.0301 77.823 20.5703C77.9563 22.3919 78.0896 24.2134 78.7856 25.9313C78.9189 26.2423 79.067 26.5681 79.2595 26.8347C80.3851 28.4045 80.7553 28.5229 82.6361 28.0342C82.9471 27.9602 83.2581 27.8565 83.5691 27.7973C84.9463 27.5455 85.9978 26.8791 86.5902 25.5759C86.6494 25.4426 86.8123 25.3537 86.9308 25.2353C86.9308 25.3982 86.9604 25.5611 86.916 25.7092C86.5606 27.0272 86.5605 27.0716 87.8934 26.731C89.0781 26.4348 90.2481 26.0498 91.418 25.6647C92.5435 25.2797 93.1951 24.3911 93.6986 23.3693C93.7727 23.2212 93.906 23.1175 94.0096 22.999C93.9948 23.1768 94.0096 23.3693 93.9504 23.5174C93.7727 23.9468 93.5654 24.3615 93.3432 24.791C93.1507 25.176 93.2544 25.413 93.6838 25.3093C94.4243 25.1316 95.1648 24.9243 95.8608 24.6281C96.0829 24.5392 96.2162 24.169 96.3347 23.9172C97.1936 22.0216 98.1563 20.1853 99.7261 18.7932C100.304 18.2749 101.089 17.8898 101.844 17.6973C102.851 17.4307 103.488 17.9935 103.31 19.0005C103.147 19.9483 102.806 20.8961 102.392 21.7551C101.503 23.6358 100.022 24.8946 98.0674 25.6499C96.7198 26.1682 95.6831 26.9828 95.535 28.6118C95.4758 29.2042 95.2092 29.7965 94.9871 30.3741C94.9278 30.537 94.6909 30.6259 94.5428 30.7591C94.4835 30.5814 94.3503 30.4037 94.3799 30.2408C94.5428 29.5003 94.7501 28.7599 94.913 28.0194C95.0907 27.2493 94.9722 27.1605 94.1874 27.2938C93.2396 27.4567 92.277 27.5307 91.3588 27.738C90.4998 27.9454 89.6853 28.3156 88.8412 28.5674C87.7009 28.8932 86.5605 29.4115 85.4202 29.4263C83.6283 29.4559 82.1622 30.5222 80.4591 30.6259C80.0148 30.6555 79.5261 30.6259 79.1263 30.4778C78.4895 30.2408 78.1192 30.2112 77.749 30.9517C76.7716 32.8621 75.1129 34.1505 73.2321 35.0687C71.5883 35.8832 69.8408 36.52 68.1081 37.1271C66.953 37.527 65.7682 37.3937 64.6872 36.7273C63.8578 36.209 63.3987 35.4537 63.6357 34.4763C64.1096 32.5363 64.5835 30.5222 66.405 29.3374C67.4861 28.6414 68.7449 28.2267 69.9149 27.664C70.8627 27.2049 71.7956 26.7162 72.7286 26.2423C72.8323 26.1831 72.9508 26.1534 73.0544 26.1238C73.084 26.2867 73.1729 26.5089 73.1137 26.5977C72.5805 27.3826 72.1659 28.3452 71.4402 28.8635C70.5072 29.53 69.3077 29.8261 68.2414 30.3C67.3825 30.6851 66.5235 31.0553 65.709 31.4996C65.013 31.8846 64.7316 32.5214 64.8797 33.3212C65.013 34.032 65.4869 34.417 66.1829 34.5651C66.6124 34.6688 67.1159 34.7725 67.5009 34.8613ZM101.281 20.126C100.896 20.2149 100.585 20.2297 100.333 20.363C98.9412 21.0442 98.1414 22.2882 97.401 23.5618C97.3417 23.6655 97.3862 23.8284 97.3862 23.9617C97.5343 23.9617 97.712 24.0209 97.8008 23.9468C99.1041 23.0435 100.407 22.1401 101.681 21.1923C101.844 21.0738 101.918 20.674 101.844 20.4667C101.785 20.3037 101.444 20.2297 101.281 20.126Z" fill="#E5F0FF" />
		<path d="M65.7236 51.6697C65.8569 48.9004 66.3456 46.6938 67.7525 44.7982C68.7151 43.495 70.122 43.0951 71.6918 43.2728C72.1657 43.3321 72.4915 43.1395 72.8914 42.9618C73.6022 42.6656 74.4315 42.6508 75.2313 42.562C75.3053 42.5472 75.5126 42.9026 75.483 43.0655C75.0387 45.8348 75.6311 48.5598 75.9421 51.2847C76.0161 51.9659 76.3864 52.6323 76.6974 53.2691C76.9491 53.7726 76.8455 54.0688 76.4012 54.365C74.787 55.4757 73.5874 55.0166 73.1283 53.1062C73.0247 52.6767 72.995 52.2325 72.9062 51.803C72.8618 51.6105 72.7581 51.4328 72.684 51.2551C72.61 51.418 72.5063 51.5809 72.4471 51.7438C71.988 53.0914 71.4845 54.4094 70.5811 55.5498C69.9295 56.3643 69.1594 56.7493 68.1376 56.5864C67.0713 56.4235 66.627 55.5498 66.3456 54.7056C65.9902 53.5801 65.8569 52.3954 65.7236 51.6697ZM72.4767 46.4124C72.4323 46.2643 72.4027 45.9977 72.2546 45.82C71.3216 44.7389 69.6777 44.9907 69.2186 46.3384C68.9965 47.0048 68.8484 47.7304 68.8632 48.4265C68.8928 49.863 69.0261 51.2995 69.2038 52.736C69.2335 53.0322 69.6333 53.2691 69.8555 53.5357C70.0924 53.3135 70.3738 53.1358 70.5515 52.8841C70.744 52.6027 70.8773 52.2769 70.981 51.9511C71.4104 50.5442 71.8251 49.1373 72.2101 47.7304C72.3434 47.3306 72.3879 46.9159 72.4767 46.4124Z" fill="#E5F0FF" />
		<path d="M90.2925 51.0775C88.619 51.0775 87.6416 50.3371 87.0937 48.6636C85.9978 45.3019 87.1529 41.1849 89.8778 38.9339C90.8701 38.1045 92.04 37.6899 93.358 37.7195C94.1873 37.7491 94.7649 38.1045 95.0463 38.9042C95.535 40.3259 95.4017 41.6736 94.5428 42.9028C93.595 44.2652 92.3362 45.213 90.722 45.6425C90.2629 45.761 90.0555 46.0423 90.1444 46.5162C90.2036 46.8569 90.2332 47.1975 90.3369 47.5381C90.6775 48.6932 91.5957 49.1819 92.7508 48.8413C93.8912 48.5007 94.676 47.6714 95.4461 46.8272C95.5646 46.694 95.8312 46.4866 95.8756 46.5162C96.0533 46.6495 96.2458 46.8569 96.3051 47.0642C96.4976 47.8047 96.0977 48.3822 95.609 48.8265C94.0837 50.189 92.3658 51.0627 90.2925 51.0775ZM89.8186 42.7991C89.8038 44.2356 89.8778 44.3541 90.4998 44.1764C92.0844 43.7321 92.9137 42.3104 92.4695 40.7406C92.3362 40.2815 92.2917 39.7188 91.6105 39.704C90.9293 39.6891 90.4702 40.0742 90.2925 40.6962C90.0555 41.5255 89.9074 42.3696 89.8186 42.7991Z" fill="#E5F0FF" />
		<path d="M96.9714 43.7616C97.2084 40.9034 97.9489 38.6672 99.6667 36.8161C100.629 35.7794 101.873 35.2611 103.236 35.0241C104.332 34.8316 105.22 35.4684 105.502 36.5495C106.079 38.7709 105.117 40.9627 103.073 42.0586C102.362 42.4436 101.651 42.799 100.94 43.1989C100.763 43.3026 100.526 43.4506 100.466 43.6135C100.037 44.8723 101.488 46.4717 102.806 46.2792C104.05 46.0867 104.835 45.2278 105.65 44.4133C105.872 44.2059 106.138 44.043 106.39 43.8505C106.479 44.1911 106.716 44.5762 106.627 44.8723C106.479 45.361 106.198 45.8646 105.842 46.22C104.228 47.8342 102.288 48.6783 99.9777 48.4414C98.793 48.3229 97.9785 47.6417 97.6527 46.4717C97.3713 45.4647 97.1491 44.4429 96.9714 43.7616ZM100.126 41.0367C100.244 41.1848 100.511 41.6735 100.644 41.6439C102.347 41.2589 103.71 39.4966 102.777 37.7342C102.347 36.9345 101.548 36.8309 101 37.5565C100.748 37.8971 100.555 38.3266 100.452 38.7561C100.304 39.4373 100.244 40.1185 100.126 41.0367Z" fill="#E5F0FF" />
		<path d="M82.6805 50.3962C82.7693 49.7298 82.4287 49.2707 81.8808 48.9449C81.244 48.5598 80.6072 48.2044 79.9408 47.8786C77.6305 46.7531 77.0826 44.1466 78.7708 42.177C80.0148 40.7257 81.6883 40.2074 83.5098 40.1333C84.5909 40.0889 84.9907 40.9034 84.4428 41.8364C84.3835 41.9401 84.2799 42.0289 84.2355 42.1474C84.0281 42.7398 83.7912 42.8286 83.2729 42.3695C82.4139 41.6143 80.933 41.8068 80.5183 42.6657C80.1481 43.4506 80.5331 44.3836 81.4069 44.7983C82.2362 45.1833 83.0655 45.5387 83.8948 45.9238C85.0944 46.4865 85.7312 48.7227 85.2721 50.0408C84.2206 52.973 81.0367 54.0393 78.8153 53.7875C78.1933 53.7135 77.8378 53.3728 77.7786 52.736C77.7194 51.9808 78.134 50.8701 78.5931 50.8108C78.8301 50.7812 79.1559 51.033 79.3632 51.2255C80.1629 51.9808 81.0811 52.1733 81.9252 51.7142C82.4287 51.4328 82.7545 51.033 82.6805 50.3962Z" fill="#E5F0FF" />
		<path d="M110.966 34.0172C111.129 36.979 111.263 39.9557 111.499 42.9176C111.544 43.4655 111.899 44.0135 112.181 44.517C112.418 44.9317 112.329 45.1982 111.959 45.45C111.914 45.4796 111.87 45.5092 111.84 45.524C111.129 45.8943 110.418 46.4718 109.574 46.0127C108.7 45.5388 108.626 44.6651 108.582 43.7765C108.389 40.2667 108.182 36.7569 107.96 33.2471C107.93 32.8176 107.856 32.3437 107.649 31.9735C107.412 31.5292 107.501 31.2775 107.916 31.0997C108.434 30.8628 108.937 30.611 109.471 30.4333C110.226 30.1964 110.744 30.5074 110.848 31.2923C110.966 32.1956 110.981 33.099 111.04 34.0024C111.011 34.0172 110.981 34.0172 110.966 34.0172Z" fill="#E5F0FF" />
		<path d="M105.931 18.8227C106.39 17.6527 106.923 16.2755 108.301 15.4906C108.523 15.3573 108.952 15.3721 109.189 15.5054C110.078 15.9793 111.159 17.786 110.537 19.2225C109.752 21.0145 108.849 22.7027 107.234 23.8578C106.361 24.4798 105.368 24.9537 104.376 25.3832C102.421 26.2125 100.585 27.1899 99.2669 28.893C99.1928 28.9967 99.0299 29.0411 98.9115 29.1152C98.867 28.9671 98.793 28.8042 98.793 28.6561C98.8374 27.2196 99.6519 26.1681 100.763 25.4424C102.021 24.5983 103.413 23.9319 104.746 23.2062C105.976 22.5398 107.219 21.9178 108.434 21.207C108.937 20.9108 109.263 20.4073 109.13 19.7705C109.085 19.5483 108.952 19.2966 108.789 19.1781C108.7 19.1189 108.419 19.3262 108.241 19.4447C107.96 19.6372 107.723 19.9037 107.412 20.0518C106.583 20.4221 105.916 19.963 105.931 18.8227Z" fill="#E5F0FF" />
		<path d="M84.6055 30.5368C85.3015 30.5516 85.4645 30.833 85.1386 31.4698C84.9906 31.7512 84.9313 32.1066 84.724 32.3288C84.4426 32.6249 84.0428 33.0396 83.7021 33.0248C82.5174 32.9952 81.5844 33.5727 80.6366 34.1207C80.4885 34.2095 80.296 34.2244 80.1183 34.2688C80.1035 34.0911 80.0146 33.8837 80.0738 33.7208C80.6662 32.0178 82.8432 30.4924 84.6055 30.5368Z" fill="#E5F0FF" />
		<path d="M75.8681 15.1499C75.8681 15.2239 75.8829 15.298 75.8533 15.372C75.8088 15.4757 75.7348 15.5646 75.6755 15.6534C75.6903 15.5498 75.7052 15.4313 75.7348 15.3276C75.7644 15.2684 75.8385 15.2239 75.8681 15.1499C75.8681 15.1499 75.8829 15.1647 75.8681 15.1499Z" fill="#E5F0FF" />
	</g>
	<defs>
		<clipPath id="clip0_2792_2834">
			<rect width="112.299" height="80" fill="white" />
		</clipPath>
	</defs>
</svg>
