<?xml version="1.0" encoding="utf-8"?>
<!-- Generator: Adobe Illustrator 25.2.0, SVG Export Plug-In . SVG Version: 6.00 Build 0) -->
<svg version="1.1" id="Layer_1" xmlns="http://www.w3.org/2000/svg" xmlns:xlink="http://www.w3.org/1999/xlink" x="0px" y="0px" viewBox="0 0 758.3 540.2" style="enable-background:new 0 0 758.3 540.2;" xml:space="preserve">
	<style type="text/css">
		.st0{fill:#fff;}
	</style>
	<g>
		<path class="st0" d="M512.4,102.4c2.5-9.9,6.4-19.8,7.1-29.8c1.8-24.4-6.2-38.5-28.5-48.9c-20.2-9.5-40.2-7.4-60.9-1.6
		c-31.2,8.7-60,22.5-87.5,39.1c-10.4,6.2-20.5,12.9-30.6,19.6c-0.5,0.3-0.5,2.7-0.1,2.9c3.6,1.7,7.3,3.1,10.9,4.7
		c8.5,3.8,17.4,6.9,25.2,11.7c13.3,8.2,26.3,16.9,38.6,26.5c15.3,11.9,27.4,27,38.2,43.1c4.2,6.2,3.7,7.8-4,8.5
		c-5.6,0.5-11.3-0.6-16.9-0.8c-5.5-0.2-6.1,0.5-3.6,5.5c5.2,10.4,5.9,21.7,6.9,33c1.6,18.7,0.8,37.5-0.8,56.2
		c-1.9,21.2-3.6,42.3-6,63.4c-1.5,12.8-4.1,25.6-6.2,38.3c-0.2,0.9-0.5,1.9-0.7,2.8c-0.7-0.9-1.6-1.6-2-2.6c-2.6-7-5.5-13.9-7.7-21
		c-6-19.9-11.8-39.8-17.6-59.8c-5.2-18-10-36-15.7-53.9c-3-9.4-7-18.5-11.1-27.5c-1-2.3-3.8-4.5-6.2-5.4c-8.5-3.2-17-3.9-25.2,1.5
		c-6.7,4.4-13.6,8.4-20.3,12.6c-3.2,2-4.7,4.1-1.3,7.4c5.7,5.6,2.5,12.4,1.7,18.5c-2.1,16.5-4.8,32.9-7.5,49.2
		c-1.7,10.5-4.1,20.8-6,31.3c-2.1,11.4-3.9,22.9-6.1,34.3c-1.4,7.2-3.1,14.3-4.7,21.4c-0.2,0.7-0.8,1.3-1.2,1.9
		c-0.4-0.7-1-1.3-1.2-2c-5.9-19.7-11.3-39.6-17.6-59.2c-7.3-22.9-15.1-45.7-23.3-68.3c-3.6-10-8.9-19.5-17.1-26.6
		c-11.1-9.6-22.1-11.2-34.3-3.1c-8.6,5.7-15.9,13.5-23.7,20.4c-2.2,1.9-1.6,3.5,0.6,5.2c14.5,11.5,24,26.5,30.6,43.6
		c8.4,21.8,17.3,43.5,25.5,65.4c5.7,15,10.4,30.4,15.9,45.5c4.7,13.1,8.4,26.4,15.3,38.8c10.2,18.3,31.7,21.7,46.9,10.3
		c2.9-2.2,5.5-4.8,8.3-7.1c4.4-3.6,6.8-7.4,3.6-13.3c-1.2-2.2-0.9-5.6-0.3-8.3c3.7-17.7,7.9-35.3,11.6-53c4-19,7.8-38.1,11.8-57.1
		c0.6-2.8,1.9-5.5,2.9-8.2c1,2.4,2.1,4.8,3,7.2c8.1,22.1,16.1,44.3,24.4,66.3c5,13.4,10.3,26.7,16.2,39.7c2.3,5.1,6.1,9.8,10.2,13.8
		c4.4,4.2,10.3,5.2,16.4,3.5c7.4-2.1,14.7-4.1,22.1-6.2c0.8-0.2,1.8,0,2.7,0c-0.4,0.7-0.8,1.4-1.3,2c-16,16.8-32.6,32.9-52.7,44.7
		c-25.9,15.1-53.4,25.4-83.5,29.8c-25,3.6-49.4,2-74-1.6c-5.4-0.8-10.6-2.7-16-3.7c-2-0.4-4.8,0-6.4,1.1
		c-19.6,13.9-41.1,23.9-64.2,30.3c-18.3,5-37.1,7.3-55.9,5c-23.5-2.9-41.4-14.9-50.6-37.6c-9-22.2-10.5-45-5.3-68.4
		c2.2-9.7,3.3-19.7,5.8-29.2c3.3-12.7,6.7-25.5,11.7-37.6c7.4-18.1,15.5-36,24.4-53.3c12.5-24.4,27.5-47.4,44.9-68.7
		c15.4-18.8,31.1-37.3,47.8-54.9c13.8-14.5,29.3-27.6,44.2-41c9.2-8.2,18.8-15.8,28.1-23.9c1.1-1,1.4-3,2-4.6
		c-1.6-0.1-3.5-0.7-4.8-0.1c-13,6-26.4,11.3-38.6,18.5c-18,10.6-35.9,21.6-52.6,34.1c-20.5,15.4-39.6,32.6-55.6,52.8
		c-9.8,12.3-18.9,25.2-28.4,37.9c-0.6,0.8-1.8,1.2-2.7,1.8c0-0.8-0.2-1.6,0-2.4c4.1-18,7.8-36,15.4-52.9c16.5-37.1,40.2-68.6,73-93
		c14.9-11.1,30.7-20.5,47.9-27.3c36.5-14.5,74.1-19.5,113-11.7c2,0.4,4.8-0.5,6.7-1.7c14.4-9.5,28.4-19.7,43-28.8
		c10.8-6.7,22.2-12.8,34-17.7c18.4-7.7,37.2-14.4,56-21c8.4-3,17.3-5.1,26.1-6.6C458.2-0.6,472-1,485.8,3.2
		c9.4,2.9,18.4,6.1,25.5,12.9c15.5,14.9,21.4,33.2,16.3,54c-2.4,9.7-7.2,18.8-11.2,28.1C515.7,99.9,513.7,101,512.4,102.4
		C512.3,102.3,512.4,102.4,512.4,102.4z M32.5,467.5c-0.3,8.2,0.5,16.1,4.6,23.6c5.2,9.6,13.1,16.6,22.9,19.6
		c10,3.1,21,4.6,31.5,4.3c14.7-0.4,29.6-2,43.9-5c10.4-2.2,20.2-7.4,30.2-11.4c1.1-0.4,1.8-1.8,2.6-2.7c-0.9-0.6-1.8-1.3-2.8-1.8
		c-6.4-3.1-12.9-6.1-19.3-9.2c-20.2-9.6-37.5-23.3-53.7-38.4c-14.3-13.4-25.9-28.9-35.8-45.8c-0.6-1.1-1.7-1.9-2.6-2.9
		c-0.8,1-1.7,1.9-2.2,3c-1.3,2.3-2.5,4.7-3.6,7.1C39.8,426.9,32.4,446.2,32.5,467.5z" />
		<path class="st0" d="M455.8,235.4c21.7-2.9,40.3-10.5,56.2-24.3c8-7,8.3-16,6.9-25.6c-2.9-19-5.5-38.1-8.5-57.1
		c-1.4-8.9,1.6-16,7.7-22.1c0.8-0.8,1.8-1.3,2.7-2c0.6,1.1,1.5,2.2,1.7,3.4c1.1,10.4,2.3,20.8,3,31.2c0.9,12.3,1.8,24.6,6.5,36.2
		c0.9,2.1,1.9,4.3,3.2,6.1c7.6,10.6,10.1,11.4,22.8,8.1c2.1-0.5,4.2-1.2,6.3-1.6c9.3-1.7,16.4-6.2,20.4-15c0.4-0.9,1.5-1.5,2.3-2.3
		c0,1.1,0.2,2.2-0.1,3.2c-2.4,8.9-2.4,9.2,6.6,6.9c8-2,15.9-4.6,23.8-7.2c7.6-2.6,12-8.6,15.4-15.5c0.5-1,1.4-1.7,2.1-2.5
		c-0.1,1.2,0,2.5-0.4,3.5c-1.2,2.9-2.6,5.7-4.1,8.6c-1.3,2.6-0.6,4.2,2.3,3.5c5-1.2,10-2.6,14.7-4.6c1.5-0.6,2.4-3.1,3.2-4.8
		c5.8-12.8,12.3-25.2,22.9-34.6c3.9-3.5,9.2-6.1,14.3-7.4c6.8-1.8,11.1,2,9.9,8.8c-1.1,6.4-3.4,12.8-6.2,18.6
		c-6,12.7-16,21.2-29.2,26.3c-9.1,3.5-16.1,9-17.1,20c-0.4,4-2.2,8-3.7,11.9c-0.4,1.1-2,1.7-3,2.6c-0.4-1.2-1.3-2.4-1.1-3.5
		c1.1-5,2.5-10,3.6-15c1.2-5.2,0.4-5.8-4.9-4.9c-6.4,1.1-12.9,1.6-19.1,3c-5.8,1.4-11.3,3.9-17,5.6c-7.7,2.2-15.4,5.7-23.1,5.8
		c-12.1,0.2-22,7.4-33.5,8.1c-3,0.2-6.3,0-9-1c-4.3-1.6-6.8-1.8-9.3,3.2c-6.6,12.9-17.8,21.6-30.5,27.8
		c-11.1,5.5-22.9,9.8-34.6,13.9c-7.8,2.7-15.8,1.8-23.1-2.7c-5.6-3.5-8.7-8.6-7.1-15.2c3.2-13.1,6.4-26.7,18.7-34.7
		c7.3-4.7,15.8-7.5,23.7-11.3c6.4-3.1,12.7-6.4,19-9.6c0.7-0.4,1.5-0.6,2.2-0.8c0.2,1.1,0.8,2.6,0.4,3.2
		c-3.6,5.3-6.4,11.8-11.3,15.3c-6.3,4.5-14.4,6.5-21.6,9.7c-5.8,2.6-11.6,5.1-17.1,8.1c-4.7,2.6-6.6,6.9-5.6,12.3
		c0.9,4.8,4.1,7.4,8.8,8.4C449.8,234.1,453.2,234.8,455.8,235.4z M683.9,135.9c-2.6,0.6-4.7,0.7-6.4,1.6c-9.4,4.6-14.8,13-19.8,21.6
		c-0.4,0.7-0.1,1.8-0.1,2.7c1,0,2.2,0.4,2.8-0.1c8.8-6.1,17.6-12.2,26.2-18.6c1.1-0.8,1.6-3.5,1.1-4.9
		C687.3,137.1,685,136.6,683.9,135.9z" />
		<path class="st0" d="M443.8,348.9c0.9-18.7,4.2-33.6,13.7-46.4c6.5-8.8,16-11.5,26.6-10.3c3.2,0.4,5.4-0.9,8.1-2.1
		c4.8-2,10.4-2.1,15.8-2.7c0.5-0.1,1.9,2.3,1.7,3.4c-3,18.7,1,37.1,3.1,55.5c0.5,4.6,3,9.1,5.1,13.4c1.7,3.4,1,5.4-2,7.4
		c-10.9,7.5-19,4.4-22.1-8.5c-0.7-2.9-0.9-5.9-1.5-8.8c-0.3-1.3-1-2.5-1.5-3.7c-0.5,1.1-1.2,2.2-1.6,3.3c-3.1,9.1-6.5,18-12.6,25.7
		c-4.4,5.5-9.6,8.1-16.5,7c-7.2-1.1-10.2-7-12.1-12.7C445.6,361.8,444.7,353.8,443.8,348.9z M489.4,313.4c-0.3-1-0.5-2.8-1.5-4
		c-6.3-7.3-17.4-5.6-20.5,3.5c-1.5,4.5-2.5,9.4-2.4,14.1c0.2,9.7,1.1,19.4,2.3,29.1c0.2,2,2.9,3.6,4.4,5.4c1.6-1.5,3.5-2.7,4.7-4.4
		c1.3-1.9,2.2-4.1,2.9-6.3c2.9-9.5,5.7-19,8.3-28.5C488.5,319.6,488.8,316.8,489.4,313.4z" />
		<path class="st0" d="M609.7,344.9c-11.3,0-17.9-5-21.6-16.3c-7.4-22.7,0.4-50.5,18.8-65.7c6.7-5.6,14.6-8.4,23.5-8.2
		c5.6,0.2,9.5,2.6,11.4,8c3.3,9.6,2.4,18.7-3.4,27c-6.4,9.2-14.9,15.6-25.8,18.5c-3.1,0.8-4.5,2.7-3.9,5.9c0.4,2.3,0.6,4.6,1.3,6.9
		c2.3,7.8,8.5,11.1,16.3,8.8c7.7-2.3,13-7.9,18.2-13.6c0.8-0.9,2.6-2.3,2.9-2.1c1.2,0.9,2.5,2.3,2.9,3.7c1.3,5-1.4,8.9-4.7,11.9
		C635.3,338.9,623.7,344.8,609.7,344.9z M606.5,289c-0.1,9.7,0.4,10.5,4.6,9.3c10.7-3,16.3-12.6,13.3-23.2c-0.9-3.1-1.2-6.9-5.8-7
		c-4.6-0.1-7.7,2.5-8.9,6.7C608.1,280.4,607.1,286.1,606.5,289z" />
		<path class="st0" d="M654.8,295.5c1.6-19.3,6.6-34.4,18.2-46.9c6.5-7,14.9-10.5,24.1-12.1c7.4-1.3,13.4,3,15.3,10.3
		c3.9,15-2.6,29.8-16.4,37.2c-4.8,2.6-9.6,5-14.4,7.7c-1.2,0.7-2.8,1.7-3.2,2.8c-2.9,8.5,6.9,19.3,15.8,18
		c8.4-1.3,13.7-7.1,19.2-12.6c1.5-1.4,3.3-2.5,5-3.8c0.6,2.3,2.2,4.9,1.6,6.9c-1,3.3-2.9,6.7-5.3,9.1c-10.9,10.9-24,16.6-39.6,15
		c-8-0.8-13.5-5.4-15.7-13.3C657.5,307,656,300.1,654.8,295.5z M676.1,277.1c0.8,1,2.6,4.3,3.5,4.1c11.5-2.6,20.7-14.5,14.4-26.4
		c-2.9-5.4-8.3-6.1-12-1.2c-1.7,2.3-3,5.2-3.7,8.1C677.3,266.3,676.9,270.9,676.1,277.1z" />
		<path class="st0" d="M558.3,340.3c0.6-4.5-1.7-7.6-5.4-9.8c-4.3-2.6-8.6-5-13.1-7.2c-15.6-7.6-19.3-25.2-7.9-38.5
		c8.4-9.8,19.7-13.3,32-13.8c7.3-0.3,10,5.2,6.3,11.5c-0.4,0.7-1.1,1.3-1.4,2.1c-1.4,4-3,4.6-6.5,1.5c-5.8-5.1-15.8-3.8-18.6,2
		c-2.5,5.3,0.1,11.6,6,14.4c5.6,2.6,11.2,5,16.8,7.6c8.1,3.8,12.4,18.9,9.3,27.8c-7.1,19.8-28.6,27-43.6,25.3
		c-4.2-0.5-6.6-2.8-7-7.1c-0.4-5.1,2.4-12.6,5.5-13c1.6-0.2,3.8,1.5,5.2,2.8c5.4,5.1,11.6,6.4,17.3,3.3
		C556.6,347.3,558.8,344.6,558.3,340.3z" />
		<path class="st0" d="M749.3,229.7c1.1,20,2,40.1,3.6,60.1c0.3,3.7,2.7,7.4,4.6,10.8c1.6,2.8,1,4.6-1.5,6.3
		c-0.3,0.2-0.6,0.4-0.8,0.5c-4.8,2.5-9.6,6.4-15.3,3.3c-5.9-3.2-6.4-9.1-6.7-15.1c-1.3-23.7-2.7-47.4-4.2-71.1
		c-0.2-2.9-0.7-6.1-2.1-8.6c-1.6-3-1-4.7,1.8-5.9c3.5-1.6,6.9-3.3,10.5-4.5c5.1-1.6,8.6,0.5,9.3,5.8c0.8,6.1,0.9,12.2,1.3,18.3
		C749.6,229.7,749.4,229.7,749.3,229.7z" />
		<path class="st0" d="M715.3,127.1c3.1-7.9,6.7-17.2,16-22.5c1.5-0.9,4.4-0.8,6,0.1c6,3.2,13.3,15.4,9.1,25.1
		c-5.3,12.1-11.4,23.5-22.3,31.3c-5.9,4.2-12.6,7.4-19.3,10.3c-13.2,5.6-25.6,12.2-34.5,23.7c-0.5,0.7-1.6,1-2.4,1.5
		c-0.3-1-0.8-2.1-0.8-3.1c0.3-9.7,5.8-16.8,13.3-21.7c8.5-5.7,17.9-10.2,26.9-15.1c8.3-4.5,16.7-8.7,24.9-13.5
		c3.4-2,5.6-5.4,4.7-9.7c-0.3-1.5-1.2-3.2-2.3-4c-0.6-0.4-2.5,1-3.7,1.8c-1.9,1.3-3.5,3.1-5.6,4.1
		C719.7,137.9,715.2,134.8,715.3,127.1z" />
		<path class="st0" d="M571.3,206.2c4.7,0.1,5.8,2,3.6,6.3c-1,1.9-1.4,4.3-2.8,5.8c-1.9,2-4.6,4.8-6.9,4.7c-8-0.2-14.3,3.7-20.7,7.4
		c-1,0.6-2.3,0.7-3.5,1c-0.1-1.2-0.7-2.6-0.3-3.7C544.7,216.2,559.4,205.9,571.3,206.2z" />
		<path class="st0" d="M512.3,102.3c0,0.5,0.1,1-0.1,1.5c-0.3,0.7-0.8,1.3-1.2,1.9c0.1-0.7,0.2-1.5,0.4-2.2
		C511.6,103.1,512.1,102.8,512.3,102.3C512.4,102.4,512.3,102.3,512.3,102.3z" />
	</g>
</svg>
