<svg width="759" height="541" viewBox="0 0 759 541" fill="none" xmlns="http://www.w3.org/2000/svg">
<g clip-path="url(#clip0_3598_11618)">
<path d="M512.4 102.4C514.9 92.5 518.8 82.6 519.5 72.6C521.3 48.2 513.3 34.1 491 23.7C470.8 14.2 450.8 16.3 430.1 22.1C398.9 30.8 370.1 44.6 342.6 61.2C332.2 67.4 322.1 74.1 312 80.8C311.5 81.1 311.5 83.5 311.9 83.7C315.5 85.4 319.2 86.8 322.8 88.4C331.3 92.2 340.2 95.3 348 100.1C361.3 108.3 374.3 117 386.6 126.6C401.9 138.5 414 153.6 424.8 169.7C429 175.9 428.5 177.5 420.8 178.2C415.2 178.7 409.5 177.6 403.9 177.4C398.4 177.2 397.8 177.9 400.3 182.9C405.5 193.3 406.2 204.6 407.2 215.9C408.8 234.6 408 253.4 406.4 272.1C404.5 293.3 402.8 314.4 400.4 335.5C398.9 348.3 396.3 361.1 394.2 373.8C394 374.7 393.7 375.7 393.5 376.6C392.8 375.7 391.9 375 391.5 374C388.9 367 386 360.1 383.8 353C377.8 333.1 372 313.2 366.2 293.2C361 275.2 356.2 257.2 350.5 239.3C347.5 229.9 343.5 220.8 339.4 211.8C338.4 209.5 335.6 207.3 333.2 206.4C324.7 203.2 316.2 202.5 308 207.9C301.3 212.3 294.4 216.3 287.7 220.5C284.5 222.5 283 224.6 286.4 227.9C292.1 233.5 288.9 240.3 288.1 246.4C286 262.9 283.3 279.3 280.6 295.6C278.9 306.1 276.5 316.4 274.6 326.9C272.5 338.3 270.7 349.8 268.5 361.2C267.1 368.4 265.4 375.5 263.8 382.6C263.6 383.3 263 383.9 262.6 384.5C262.2 383.8 261.6 383.2 261.4 382.5C255.5 362.8 250.1 342.9 243.8 323.3C236.5 300.4 228.7 277.6 220.5 255C216.9 245 211.6 235.5 203.4 228.4C192.3 218.8 181.3 217.2 169.1 225.3C160.5 231 153.2 238.8 145.4 245.7C143.2 247.6 143.8 249.2 146 250.9C160.5 262.4 170 277.4 176.6 294.5C185 316.3 193.9 338 202.1 359.9C207.8 374.9 212.5 390.3 218 405.4C222.7 418.5 226.4 431.8 233.3 444.2C243.5 462.5 265 465.9 280.2 454.5C283.1 452.3 285.7 449.7 288.5 447.4C292.9 443.8 295.3 440 292.1 434.1C290.9 431.9 291.2 428.5 291.8 425.8C295.5 408.1 299.7 390.5 303.4 372.8C307.4 353.8 311.2 334.7 315.2 315.7C315.8 312.9 317.1 310.2 318.1 307.5C319.1 309.9 320.2 312.3 321.1 314.7C329.2 336.8 337.2 359 345.5 381C350.5 394.4 355.8 407.7 361.7 420.7C364 425.8 367.8 430.5 371.9 434.5C376.3 438.7 382.2 439.7 388.3 438C395.7 435.9 403 433.9 410.4 431.8C411.2 431.6 412.2 431.8 413.1 431.8C412.7 432.5 412.3 433.2 411.8 433.8C395.8 450.6 379.2 466.7 359.1 478.5C333.2 493.6 305.7 503.9 275.6 508.3C250.6 511.9 226.2 510.3 201.6 506.7C196.2 505.9 191 504 185.6 503C183.6 502.6 180.8 503 179.2 504.1C159.6 518 138.1 528 115 534.4C96.6999 539.4 77.8999 541.7 59.0999 539.4C35.5999 536.5 17.6999 524.5 8.49993 501.8C-0.50007 479.6 -2.00007 456.8 3.19993 433.4C5.39993 423.7 6.49993 413.7 8.99993 404.2C12.2999 391.5 15.6999 378.7 20.6999 366.6C28.0999 348.5 36.1999 330.6 45.0999 313.3C57.5999 288.9 72.5999 265.9 89.9999 244.6C105.4 225.8 121.1 207.3 137.8 189.7C151.6 175.2 167.1 162.1 182 148.7C191.2 140.5 200.8 132.9 210.1 124.8C211.2 123.8 211.5 121.8 212.1 120.2C210.5 120.1 208.6 119.5 207.3 120.1C194.3 126.1 180.9 131.4 168.7 138.6C150.7 149.2 132.8 160.2 116.1 172.7C95.5999 188.1 76.4999 205.3 60.4999 225.5C50.6999 237.8 41.5999 250.7 32.0999 263.4C31.4999 264.2 30.2999 264.6 29.3999 265.2C29.3999 264.4 29.1999 263.6 29.3999 262.8C33.4999 244.8 37.1999 226.8 44.7999 209.9C61.2999 172.8 84.9999 141.3 117.8 116.9C132.7 105.8 148.5 96.4 165.7 89.6C202.2 75.1 239.8 70.1 278.7 77.9C280.7 78.3 283.5 77.4 285.4 76.2C299.8 66.7 313.8 56.5 328.4 47.4C339.2 40.7 350.6 34.6 362.4 29.7C380.8 22 399.6 15.3 418.4 8.69998C426.8 5.69998 435.7 3.59998 444.5 2.09998C458.2 -0.600019 472 -1.00002 485.8 3.19998C495.2 6.09998 504.2 9.29998 511.3 16.1C526.8 31 532.7 49.3 527.6 70.1C525.2 79.8 520.4 88.9 516.4 98.2C515.7 99.9 513.7 101 512.4 102.4C512.4 102.4 512.3 102.3 512.4 102.4ZM32.4999 467.5C32.1999 475.7 32.9999 483.6 37.0999 491.1C42.2999 500.7 50.1999 507.7 59.9999 510.7C69.9999 513.8 80.9999 515.3 91.4999 515C106.2 514.6 121.1 513 135.4 510C145.8 507.8 155.6 502.6 165.6 498.6C166.7 498.2 167.4 496.8 168.2 495.9C167.3 495.3 166.4 494.6 165.4 494.1C159 491 152.5 488 146.1 484.9C125.9 475.3 108.6 461.6 92.3999 446.5C78.0999 433.1 66.4999 417.6 56.5999 400.7C55.9999 399.6 54.8999 398.8 53.9999 397.8C53.1999 398.8 52.2999 399.7 51.7999 400.8C50.4999 403.1 49.2999 405.5 48.1999 407.9C39.7999 426.9 32.3999 446.2 32.4999 467.5Z" fill="url(#paint0_radial_3598_11618)"/>
<path d="M455.8 235.4C477.5 232.5 496.1 224.9 512 211.1C520 204.1 520.3 195.1 518.9 185.5C516 166.5 513.4 147.4 510.4 128.4C509 119.5 512 112.4 518.1 106.3C518.9 105.5 519.9 105 520.8 104.3C521.4 105.4 522.3 106.5 522.5 107.7C523.6 118.1 524.8 128.5 525.5 138.9C526.4 151.2 527.3 163.5 532 175.1C532.9 177.2 533.9 179.4 535.2 181.2C542.8 191.8 545.3 192.6 558 189.3C560.1 188.8 562.2 188.1 564.3 187.7C573.6 186 580.7 181.5 584.7 172.7C585.1 171.8 586.2 171.2 587 170.4C587 171.5 587.2 172.6 586.9 173.6C584.5 182.5 584.5 182.8 593.5 180.5C601.5 178.5 609.4 175.9 617.3 173.3C624.9 170.7 629.3 164.7 632.7 157.8C633.2 156.8 634.1 156.1 634.8 155.3C634.7 156.5 634.8 157.8 634.4 158.8C633.2 161.7 631.8 164.5 630.3 167.4C629 170 629.7 171.6 632.6 170.9C637.6 169.7 642.6 168.3 647.3 166.3C648.8 165.7 649.7 163.2 650.5 161.5C656.3 148.7 662.8 136.3 673.4 126.9C677.3 123.4 682.6 120.8 687.7 119.5C694.5 117.7 698.8 121.5 697.6 128.3C696.5 134.7 694.2 141.1 691.4 146.9C685.4 159.6 675.4 168.1 662.2 173.2C653.1 176.7 646.1 182.2 645.1 193.2C644.7 197.2 642.9 201.2 641.4 205.1C641 206.2 639.4 206.8 638.4 207.7C638 206.5 637.1 205.3 637.3 204.2C638.4 199.2 639.8 194.2 640.9 189.2C642.1 184 641.3 183.4 636 184.3C629.6 185.4 623.1 185.9 616.9 187.3C611.1 188.7 605.6 191.2 599.9 192.9C592.2 195.1 584.5 198.6 576.8 198.7C564.7 198.9 554.8 206.1 543.3 206.8C540.3 207 537 206.8 534.3 205.8C530 204.2 527.5 204 525 209C518.4 221.9 507.2 230.6 494.5 236.8C483.4 242.3 471.6 246.6 459.9 250.7C452.1 253.4 444.1 252.5 436.8 248C431.2 244.5 428.1 239.4 429.7 232.8C432.9 219.7 436.1 206.1 448.4 198.1C455.7 193.4 464.2 190.6 472.1 186.8C478.5 183.7 484.8 180.4 491.1 177.2C491.8 176.8 492.6 176.6 493.3 176.4C493.5 177.5 494.1 179 493.7 179.6C490.1 184.9 487.3 191.4 482.4 194.9C476.1 199.4 468 201.4 460.8 204.6C455 207.2 449.2 209.7 443.7 212.7C439 215.3 437.1 219.6 438.1 225C439 229.8 442.2 232.4 446.9 233.4C449.8 234.1 453.2 234.8 455.8 235.4ZM683.9 135.9C681.3 136.5 679.2 136.6 677.5 137.5C668.1 142.1 662.7 150.5 657.7 159.1C657.3 159.8 657.6 160.9 657.6 161.8C658.6 161.8 659.8 162.2 660.4 161.7C669.2 155.6 678 149.5 686.6 143.1C687.7 142.3 688.2 139.6 687.7 138.2C687.3 137.1 685 136.6 683.9 135.9Z" fill="#112F91"/>
<path d="M443.8 348.9C444.7 330.2 448 315.3 457.5 302.5C464 293.7 473.5 291 484.1 292.2C487.3 292.6 489.5 291.3 492.2 290.1C497 288.1 502.6 288 508 287.4C508.5 287.3 509.9 289.7 509.7 290.8C506.7 309.5 510.7 327.9 512.8 346.3C513.3 350.9 515.8 355.4 517.9 359.7C519.6 363.1 518.9 365.1 515.9 367.1C505 374.6 496.9 371.5 493.8 358.6C493.1 355.7 492.9 352.7 492.3 349.8C492 348.5 491.3 347.3 490.8 346.1C490.3 347.2 489.6 348.3 489.2 349.4C486.1 358.5 482.7 367.4 476.6 375.1C472.2 380.6 467 383.2 460.1 382.1C452.9 381 449.9 375.1 448 369.4C445.6 361.8 444.7 353.8 443.8 348.9ZM489.4 313.4C489.1 312.4 488.9 310.6 487.9 309.4C481.6 302.1 470.5 303.8 467.4 312.9C465.9 317.4 464.9 322.3 465 327C465.2 336.7 466.1 346.4 467.3 356.1C467.5 358.1 470.2 359.7 471.7 361.5C473.3 360 475.2 358.8 476.4 357.1C477.7 355.2 478.6 353 479.3 350.8C482.2 341.3 485 331.8 487.6 322.3C488.5 319.6 488.8 316.8 489.4 313.4Z" fill="#112F91"/>
<path d="M609.7 344.9C598.4 344.9 591.8 339.9 588.1 328.6C580.7 305.9 588.5 278.1 606.9 262.9C613.6 257.3 621.5 254.5 630.4 254.7C636 254.9 639.9 257.3 641.8 262.7C645.1 272.3 644.2 281.4 638.4 289.7C632 298.9 623.5 305.3 612.6 308.2C609.5 309 608.1 310.9 608.7 314.1C609.1 316.4 609.3 318.7 610 321C612.3 328.8 618.5 332.1 626.3 329.8C634 327.5 639.3 321.9 644.5 316.2C645.3 315.3 647.1 313.9 647.4 314.1C648.6 315 649.9 316.4 650.3 317.8C651.6 322.8 648.9 326.7 645.6 329.7C635.3 338.9 623.7 344.8 609.7 344.9ZM606.5 289C606.4 298.7 606.9 299.5 611.1 298.3C621.8 295.3 627.4 285.7 624.4 275.1C623.5 272 623.2 268.2 618.6 268.1C614 268 610.9 270.6 609.7 274.8C608.1 280.4 607.1 286.1 606.5 289Z" fill="#112F91"/>
<path d="M654.8 295.5C656.4 276.2 661.4 261.1 673 248.6C679.5 241.6 687.9 238.1 697.1 236.5C704.5 235.2 710.5 239.5 712.4 246.8C716.3 261.8 709.8 276.6 696 284C691.2 286.6 686.4 289 681.6 291.7C680.4 292.4 678.8 293.4 678.4 294.5C675.5 303 685.3 313.8 694.2 312.5C702.6 311.2 707.9 305.4 713.4 299.9C714.9 298.5 716.7 297.4 718.4 296.1C719 298.4 720.6 301 720 303C719 306.3 717.1 309.7 714.7 312.1C703.8 323 690.7 328.7 675.1 327.1C667.1 326.3 661.6 321.7 659.4 313.8C657.5 307 656 300.1 654.8 295.5ZM676.1 277.1C676.9 278.1 678.7 281.4 679.6 281.2C691.1 278.6 700.3 266.7 694 254.8C691.1 249.4 685.7 248.7 682 253.6C680.3 255.9 679 258.8 678.3 261.7C677.3 266.3 676.9 270.9 676.1 277.1Z" fill="#112F91"/>
<path d="M558.3 340.3C558.9 335.8 556.6 332.7 552.9 330.5C548.6 327.9 544.3 325.5 539.8 323.3C524.2 315.7 520.5 298.1 531.9 284.8C540.3 275 551.6 271.5 563.9 271C571.2 270.7 573.9 276.2 570.2 282.5C569.8 283.2 569.1 283.8 568.8 284.6C567.4 288.6 565.8 289.2 562.3 286.1C556.5 281 546.5 282.3 543.7 288.1C541.2 293.4 543.8 299.7 549.7 302.5C555.3 305.1 560.9 307.5 566.5 310.1C574.6 313.9 578.9 329 575.8 337.9C568.7 357.7 547.2 364.9 532.2 363.2C528 362.7 525.6 360.4 525.2 356.1C524.8 351 527.6 343.5 530.7 343.1C532.3 342.9 534.5 344.6 535.9 345.9C541.3 351 547.5 352.3 553.2 349.2C556.6 347.3 558.8 344.6 558.3 340.3Z" fill="#112F91"/>
<path d="M749.3 229.7C750.4 249.7 751.3 269.8 752.9 289.8C753.2 293.5 755.6 297.2 757.5 300.6C759.1 303.4 758.5 305.2 756 306.9C755.7 307.1 755.4 307.3 755.2 307.4C750.4 309.9 745.6 313.8 739.9 310.7C734 307.5 733.5 301.6 733.2 295.6C731.9 271.9 730.5 248.2 729 224.5C728.8 221.6 728.3 218.4 726.9 215.9C725.3 212.9 725.9 211.2 728.7 210C732.2 208.4 735.6 206.7 739.2 205.5C744.3 203.9 747.8 206 748.5 211.3C749.3 217.4 749.4 223.5 749.8 229.6C749.6 229.7 749.4 229.7 749.3 229.7Z" fill="#112F91"/>
<path d="M715.3 127.1C718.4 119.2 722 109.9 731.3 104.6C732.8 103.7 735.7 103.8 737.3 104.7C743.3 107.9 750.6 120.1 746.4 129.8C741.1 141.9 735 153.3 724.1 161.1C718.2 165.3 711.5 168.5 704.8 171.4C691.6 177 679.2 183.6 670.3 195.1C669.8 195.8 668.7 196.1 667.9 196.6C667.6 195.6 667.1 194.5 667.1 193.5C667.4 183.8 672.9 176.7 680.4 171.8C688.9 166.1 698.3 161.6 707.3 156.7C715.6 152.2 724 148 732.2 143.2C735.6 141.2 737.8 137.8 736.9 133.5C736.6 132 735.7 130.3 734.6 129.5C734 129.1 732.1 130.5 730.9 131.3C729 132.6 727.4 134.4 725.3 135.4C719.7 137.9 715.2 134.8 715.3 127.1Z" fill="#112F91"/>
<path d="M571.3 206.2C576 206.3 577.1 208.2 574.9 212.5C573.9 214.4 573.5 216.8 572.1 218.3C570.2 220.3 567.5 223.1 565.2 223C557.2 222.8 550.9 226.7 544.5 230.4C543.5 231 542.2 231.1 541 231.4C540.9 230.2 540.3 228.8 540.7 227.7C544.7 216.2 559.4 205.9 571.3 206.2Z" fill="#112F91"/>
<path d="M512.3 102.3C512.3 102.8 512.4 103.3 512.2 103.8C511.9 104.5 511.4 105.1 511 105.7C511.1 105 511.2 104.2 511.4 103.5C511.6 103.1 512.1 102.8 512.3 102.3C512.3 102.3 512.4 102.4 512.3 102.3Z" fill="#3060AA"/>
</g>
<defs>
<radialGradient id="paint0_radial_3598_11618" cx="0" cy="0" r="1" gradientUnits="userSpaceOnUse" gradientTransform="translate(346 181.5) rotate(133.911) scale(446.265 437.124)">
<stop stop-color="#FBFFFF"/>
<stop offset="0.145833" stop-color="#9FDCEA"/>
<stop offset="0.46875" stop-color="#18A8CB"/>
<stop offset="0.875" stop-color="#0C258A"/>
</radialGradient>
<clipPath id="clip0_3598_11618">
<rect width="758.3" height="540.2" fill="white"/>
</clipPath>
</defs>
</svg>
