<svg width="349" height="93" viewBox="0 0 349 93" fill="none" xmlns="http://www.w3.org/2000/svg">
<path d="M40.3253 12.6082V24.6932H52.4446V12.6435L61.9752 27.1904L72.0982 20.6006L61.9687 5.13893C59.8694 1.93231 56.2858 0 52.4446 0H52.4221H40.3253C36.468 0 32.8715 1.94194 30.7626 5.16139L20.646 20.6006L30.769 27.1904L40.3253 12.6082Z" fill="#3060aa"/>
<path d="M87.5616 30.6607L72.0712 20.5786L65.4609 30.6703L80.0884 40.1938H67.9659V52.2756H80.053L65.4609 61.7767L72.0712 71.8684L87.5809 61.7703C90.7974 59.6775 92.7357 56.1049 92.7357 52.2756V52.2531V40.1938C92.7357 36.3485 90.791 32.7631 87.5616 30.6607Z" fill="#3060aa"/>
<path d="M52.4433 79.8086V67.759H40.3241V79.8439L30.771 65.2617L20.6479 71.8515L30.7613 87.2939C32.8703 90.5134 36.4668 92.4553 40.3241 92.4553H52.4208H52.4433C56.2845 92.4553 59.8682 90.523 61.9675 87.3164L72.0969 71.8547L61.9739 65.2649L52.4433 79.8086Z" fill="#3060aa"/>
<path d="M12.686 52.2756H24.773V40.1938H12.6505L27.278 30.6703L20.6678 20.5786L5.17742 30.6607C1.94797 32.7631 0 36.3485 0 40.1938V52.2531V52.2756C0 56.1049 1.93831 59.6775 5.15488 61.7703L20.6646 71.8684L27.2748 61.7767L12.686 52.2756Z" fill="#3060aa"/>
<path d="M176.96 19.0115L161.389 72.1693H148.31L137.958 37.1726L127.993 72.1726H115.459L99.5786 19.6342L110.478 18.3149L122.233 59.1343L132.974 19.0115H143.484L154.772 59.1343L165.983 19.0115H176.96Z" fill="#3060aa"/>
<path d="M218.248 73.3205L204.709 53.1733H195.422V72.536H183.852V19.0151H207.541C220.921 19.0151 227.611 24.6827 227.611 36.0145C227.611 39.8981 226.598 43.1632 224.58 45.813C222.558 48.4628 219.765 50.3379 216.197 51.4415L230.208 71.9826L218.248 73.3205ZM195.422 43.8077H206.441C212.633 43.8077 215.728 41.21 215.728 36.0145C215.728 30.9264 212.633 28.3807 206.441 28.3807H195.422V43.8077Z" fill="#3060aa"/>
<path d="M280.975 69.1536C275.571 71.9336 269.613 73.3236 263.109 73.3236C254.662 73.3236 247.851 70.817 242.685 65.8071C237.516 60.7971 234.934 54.1205 234.934 45.7771C234.934 37.3816 237.545 30.6919 242.766 25.708C247.982 20.7241 254.948 18.2305 263.659 18.2305C270.375 18.2305 276.332 19.6205 281.525 22.4005L279.715 32.4758C274.623 29.2237 269.405 27.596 264.053 27.596C258.753 27.596 254.541 29.1846 251.422 32.3586C248.301 35.5325 246.738 40.0054 246.738 45.7771C246.738 51.4967 248.271 55.9565 251.341 59.1565C254.411 62.3564 258.49 63.9581 263.581 63.9581C270.193 63.9581 275.991 62.2783 280.975 58.9221V69.1536Z" fill="#3060aa"/>
<path d="M322.372 60.9633H315.839L301.121 38.6903V72.5327H290.652V19.0151H301.987L319.852 46.1678L337.64 19.0151H348.893V71.8263L337.402 73.2424V38.6903L322.372 60.9633Z" fill="#3060aa"/>
</svg>
