<svg width="123" height="40" viewBox="0 0 123 40" fill="none" xmlns="http://www.w3.org/2000/svg">
	<path d="M17.3889 5.44444V10.6806H22.6111V5.47222L26.7222 11.7639L31.0833 8.91667L26.7083 2.22222C25.8056 0.833333 24.2639 0 22.5972 0H22.5833H17.3889C15.7222 0 14.1805 0.847222 13.2639 2.23611L8.90277 8.91667L13.2639 11.7639L17.3889 5.44444Z" fill="#A3DFDF" />
	<path d="M37.7639 13.25L31.0834 8.88889L28.2361 13.25L34.5417 17.375H29.3195V22.5972H34.5278L28.2361 26.7083L31.0834 31.0694L37.7778 26.6944C39.1667 25.7917 40 24.25 40 22.5833V22.5694V17.3472C40 15.7222 39.1667 14.1667 37.7639 13.25Z" fill="#A3DFDF" />
	<path d="M22.625 34.5278V29.3195H17.3889V34.5417L13.2639 28.2361L8.90277 31.0834L13.2639 37.7639C14.1805 39.1528 15.7222 40 17.3889 40H22.6111H22.625C24.2778 40 25.8333 39.1667 26.7361 37.7778L31.1111 31.0834L26.75 28.2361L22.625 34.5278Z" fill="#A3DFDF" />
	<path d="M5.47222 22.6111H10.6806V17.3889H5.45833L11.7639 13.2639L8.91667 8.88889L2.23611 13.25C0.847223 14.1667 0 15.7083 0 17.375V22.5972V22.6111C0 24.2639 0.833333 25.8194 2.22222 26.7222L8.91667 31.0972L11.7639 26.7361L5.47222 22.6111Z" fill="#A3DFDF" />
	<path d="M80.5 8.56944L73.7778 31.5694H68.1389L63.6666 16.4306L59.3611 31.5694H53.9583L47.1111 8.83333L51.8194 8.26389L56.8889 25.9306L61.5278 8.56944H66.0555L70.9305 25.9306L75.7639 8.56944H80.5Z" fill="#A3DFDF" />
	<path d="M102.056 29.9583C99.75 31.1389 97.2083 31.7361 94.4305 31.7361C90.8194 31.7361 87.9166 30.6667 85.7222 28.5278C83.5138 26.3889 82.4166 23.5417 82.4166 19.9861C82.4166 16.4028 83.5277 13.5556 85.7638 11.4167C88 9.27778 90.9583 8.22223 94.6805 8.22223C97.5416 8.22223 100.083 8.81945 102.306 10L101.528 14.2917C99.3611 12.9028 97.125 12.2083 94.8472 12.2083C92.5833 12.2083 90.7916 12.8889 89.4583 14.2361C88.125 15.5972 87.4583 17.5 87.4583 19.9583C87.4583 22.4028 88.1111 24.3056 89.4166 25.6667C90.7222 27.0278 92.4722 27.7222 94.6388 27.7222C97.4583 27.7222 99.9305 27 102.056 25.5695V29.9583Z" fill="#A3DFDF" />
	<path d="M105.083 25.5972C106.208 26.2917 107.486 26.8194 108.931 27.1944C110.375 27.5694 111.708 27.75 112.944 27.75C115.917 27.75 117.417 26.9028 117.417 25.1944C117.417 24.6528 117.194 24.1806 116.75 23.7639C116.306 23.3472 115.722 23.0139 115.014 22.7361C114.306 22.4583 113.514 22.1944 112.653 21.9306C111.778 21.6667 110.917 21.3333 110.056 20.9583C109.194 20.5833 108.417 20.1389 107.708 19.6528C107 19.1667 106.431 18.5 105.972 17.6528C105.528 16.8194 105.306 15.8472 105.306 14.75C105.306 12.5556 106.083 10.9167 107.639 9.84723C109.194 8.77778 111.153 8.23611 113.528 8.23611C116.208 8.23611 119.014 8.83334 121.917 10.0139L121.375 14.3472C118.806 12.9306 116.403 12.2361 114.194 12.2361C112.958 12.2361 112 12.3889 111.319 12.7083C110.639 13.0278 110.292 13.625 110.292 14.5278C110.292 15.2222 110.708 15.8056 111.556 16.2778C112.389 16.75 113.403 17.1528 114.597 17.5C115.792 17.8472 116.972 18.2639 118.153 18.7361C119.333 19.2222 120.347 19.9583 121.194 20.9722C122.028 21.9722 122.458 23.2361 122.458 24.7361C122.458 27.125 121.611 28.9028 119.903 30.0417C118.194 31.1806 116.097 31.75 113.611 31.75C110.431 31.75 107.583 31.1528 105.083 29.9722V25.5972Z" fill="#A3DFDF" />
</svg>
