<svg xmlns="http://www.w3.org/2000/svg" width="176.124" height="75.925" viewBox="0 0 176.124 75.925">
  <g id="Group_60" data-name="Group 60" transform="translate(-801.092 -958.5)">
    <g id="Group_57" data-name="Group 57" transform="translate(801.092 998.218)">
      <g id="Group_56" data-name="Group 56">
        <g id="Group_55" data-name="Group 55">
          <g id="Group_54" data-name="Group 54">
            <g id="Group_31" data-name="Group 31">
              <g id="Group_30" data-name="Group 30">
                <g id="Group_29" data-name="Group 29">
                  <g id="Group_28" data-name="Group 28">
                    <g id="Group_1" data-name="Group 1" transform="translate(74.083 0.569)">
                      <rect id="Rectangle_4" data-name="Rectangle 4" width="1.345" height="8.61" fill="#1b7f69"/>
                    </g>
                    <g id="Group_2" data-name="Group 2" transform="translate(70.847 0.569)">
                      <rect id="Rectangle_5" data-name="Rectangle 5" width="1.345" height="8.61" fill="#1b7f69"/>
                    </g>
                    <g id="Group_3" data-name="Group 3" transform="translate(40.76 0.569)">
                      <rect id="Rectangle_6" data-name="Rectangle 6" width="1.345" height="8.61" fill="#1b7f69"/>
                    </g>
                    <g id="Group_4" data-name="Group 4" transform="translate(37.524 0.569)">
                      <rect id="Rectangle_7" data-name="Rectangle 7" width="1.345" height="8.61" fill="#1b7f69"/>
                    </g>
                    <g id="Group_5" data-name="Group 5" transform="translate(24.869 2.45)">
                      <rect id="Rectangle_8" data-name="Rectangle 8" width="1.345" height="6.728" fill="#1b7f69"/>
                    </g>
                    <g id="Group_6" data-name="Group 6" transform="translate(17.545 0.569)">
                      <rect id="Rectangle_9" data-name="Rectangle 9" width="1.345" height="8.61" fill="#1b7f69"/>
                    </g>
                    <g id="Group_7" data-name="Group 7" transform="translate(61.95 7.833)">
                      <rect id="Rectangle_10" data-name="Rectangle 10" width="1.345" height="10.242" transform="translate(10.242) rotate(90)" fill="#1b7f69"/>
                    </g>
                    <g id="Group_8" data-name="Group 8" transform="translate(9.122 7.833)">
                      <rect id="Rectangle_11" data-name="Rectangle 11" width="1.345" height="17.092" transform="translate(17.092) rotate(90)" fill="#1b7f69"/>
                    </g>
                    <g id="Group_9" data-name="Group 9" transform="translate(67.044 2.569)">
                      <rect id="Rectangle_12" data-name="Rectangle 12" width="1.345" height="6.609" fill="#1b7f69"/>
                    </g>
                    <g id="Group_10" data-name="Group 10" transform="translate(12.997 2.569)">
                      <rect id="Rectangle_13" data-name="Rectangle 13" width="1.345" height="6.609" fill="#1b7f69"/>
                    </g>
                    <g id="Group_11" data-name="Group 11" transform="translate(9.122 2.569)">
                      <rect id="Rectangle_14" data-name="Rectangle 14" width="1.345" height="6.609" fill="#1b7f69"/>
                    </g>
                    <g id="Group_12" data-name="Group 12" transform="translate(60.605 5.567)">
                      <rect id="Rectangle_15" data-name="Rectangle 15" width="1.345" height="6.244" fill="#1b7f69"/>
                    </g>
                    <g id="Group_13" data-name="Group 13" transform="translate(45.834 7.833)">
                      <rect id="Rectangle_16" data-name="Rectangle 16" width="1.345" height="3.977" fill="#1b7f69"/>
                    </g>
                    <g id="Group_14" data-name="Group 14" transform="translate(45.834 7.833)">
                      <rect id="Rectangle_17" data-name="Rectangle 17" width="1.345" height="4.968" transform="translate(0 1.345) rotate(-90)" fill="#1b7f69"/>
                    </g>
                    <g id="Group_15" data-name="Group 15" transform="translate(17.545 2.45)">
                      <rect id="Rectangle_18" data-name="Rectangle 18" width="1.345" height="8.669" transform="translate(0 1.345) rotate(-90)" fill="#1b7f69"/>
                    </g>
                    <g id="Group_16" data-name="Group 16" transform="translate(5.706 2.45)">
                      <rect id="Rectangle_19" data-name="Rectangle 19" width="1.345" height="4.762" transform="translate(0 1.345) rotate(-90)" fill="#1b7f69"/>
                    </g>
                    <g id="Group_17" data-name="Group 17" transform="translate(34.743 7.833)">
                      <rect id="Rectangle_20" data-name="Rectangle 20" width="1.345" height="4.126" transform="translate(0 1.345) rotate(-90)" fill="#1b7f69"/>
                    </g>
                    <g id="Group_18" data-name="Group 18" transform="translate(47.18 2.128)">
                      <path id="Path_1" data-name="Path 1" d="M867.435,1014.215a3.526,3.526,0,1,0,3.525,3.525A3.525,3.525,0,0,0,867.435,1014.215Zm0,5.706a2.18,2.18,0,1,1,2.18-2.18A2.18,2.18,0,0,1,867.435,1019.921Z" transform="translate(-863.909 -1014.215)" fill="#1b7f69"/>
                    </g>
                    <g id="Group_19" data-name="Group 19" transform="translate(54.899 2.128)">
                      <path id="Path_2" data-name="Path 2" d="M881.237,1017.74a3.526,3.526,0,1,0-3.525,3.526h3.525Zm-1.345,2.18h-2.18a2.18,2.18,0,1,1,2.18-2.18Z" transform="translate(-874.186 -1014.215)" fill="#1b7f69"/>
                    </g>
                    <g id="Group_20" data-name="Group 20" transform="translate(33.725 5.567)">
                      <rect id="Rectangle_21" data-name="Rectangle 21" width="1.345" height="6.244" fill="#1b7f69"/>
                    </g>
                    <g id="Group_21" data-name="Group 21" transform="translate(28.019 2.128)">
                      <path id="Path_3" data-name="Path 3" d="M845.449,1017.74a3.526,3.526,0,1,0-3.526,3.526h3.526Zm-1.346,2.18h-2.18a2.18,2.18,0,1,1,2.18-2.18Z" transform="translate(-838.398 -1014.215)" fill="#1b7f69"/>
                    </g>
                    <g id="Group_22" data-name="Group 22" transform="translate(12.836)">
                      <circle id="Ellipse_1" data-name="Ellipse 1" cx="0.834" cy="0.834" r="0.834" fill="#1b7f69"/>
                    </g>
                    <g id="Group_23" data-name="Group 23" transform="translate(3.89 12.571)">
                      <circle id="Ellipse_2" data-name="Ellipse 2" cx="0.834" cy="0.834" r="0.834" fill="#1b7f69"/>
                    </g>
                    <g id="Group_24" data-name="Group 24" transform="translate(1.701 12.571)">
                      <circle id="Ellipse_3" data-name="Ellipse 3" cx="0.834" cy="0.834" r="0.834" fill="#1b7f69"/>
                    </g>
                    <g id="Group_25" data-name="Group 25" transform="translate(65.368 10.016)">
                      <circle id="Ellipse_4" data-name="Ellipse 4" cx="0.834" cy="0.834" r="0.834" fill="#1b7f69"/>
                    </g>
                    <g id="Group_26" data-name="Group 26" transform="translate(63.178 10.016)">
                      <circle id="Ellipse_5" data-name="Ellipse 5" cx="0.834" cy="0.834" r="0.834" fill="#1b7f69"/>
                    </g>
                    <g id="Group_27" data-name="Group 27" transform="translate(0 2.741)">
                      <path id="Path_4" data-name="Path 4" d="M806.8,1020.606a2.18,2.18,0,1,1-4.361,0v-3.227h-1.345v3.227a3.526,3.526,0,0,0,7.051,0v-5.574H806.8v5.574Z" transform="translate(-801.092 -1015.032)" fill="#1b7f69"/>
                    </g>
                  </g>
                </g>
              </g>
            </g>
            <g id="Group_53" data-name="Group 53" transform="translate(0 16.191)">
              <g id="Group_32" data-name="Group 32" transform="translate(15.976 12.002)">
                <circle id="Ellipse_6" data-name="Ellipse 6" cx="0.834" cy="0.834" r="0.834" fill="#1b7f69"/>
              </g>
              <g id="Group_33" data-name="Group 33" transform="translate(13.786 12.002)">
                <circle id="Ellipse_7" data-name="Ellipse 7" cx="0.834" cy="0.834" r="0.834" fill="#1b7f69"/>
              </g>
              <g id="Group_34" data-name="Group 34" transform="translate(74.083 0)">
                <rect id="Rectangle_22" data-name="Rectangle 22" width="1.345" height="8.61" fill="#1b7f69"/>
              </g>
              <g id="Group_35" data-name="Group 35" transform="translate(70.847 0)">
                <rect id="Rectangle_23" data-name="Rectangle 23" width="1.345" height="8.61" fill="#1b7f69"/>
              </g>
              <g id="Group_36" data-name="Group 36" transform="translate(66.201 2)">
                <rect id="Rectangle_24" data-name="Rectangle 24" width="1.345" height="6.611" fill="#1b7f69"/>
              </g>
              <g id="Group_37" data-name="Group 37" transform="translate(61.788 2)">
                <rect id="Rectangle_25" data-name="Rectangle 25" width="1.345" height="6.611" fill="#1b7f69"/>
              </g>
              <g id="Group_38" data-name="Group 38" transform="translate(57.376 2)">
                <rect id="Rectangle_26" data-name="Rectangle 26" width="1.345" height="6.611" fill="#1b7f69"/>
              </g>
              <g id="Group_39" data-name="Group 39" transform="translate(37.006 7.265)">
                <rect id="Rectangle_27" data-name="Rectangle 27" width="1.345" height="35.186" transform="translate(35.186) rotate(90)" fill="#1b7f69"/>
              </g>
              <g id="Group_40" data-name="Group 40" transform="translate(24.069 2.173)">
                <rect id="Rectangle_28" data-name="Rectangle 28" width="1.345" height="5.099" transform="translate(0 1.345) rotate(-90)" fill="#1b7f69"/>
              </g>
              <g id="Group_41" data-name="Group 41" transform="translate(18.267 2.173)">
                <rect id="Rectangle_29" data-name="Rectangle 29" width="1.345" height="4.332" transform="translate(0 1.345) rotate(-90)" fill="#1b7f69"/>
              </g>
              <g id="Group_42" data-name="Group 42" transform="translate(24.069 7.265)">
                <rect id="Rectangle_30" data-name="Rectangle 30" width="1.345" height="5.099" transform="translate(0 1.345) rotate(-90)" fill="#1b7f69"/>
              </g>
              <g id="Group_43" data-name="Group 43" transform="translate(27.823 2.173)">
                <rect id="Rectangle_31" data-name="Rectangle 31" width="1.345" height="6.437" transform="translate(1.345 6.437) rotate(180)" fill="#1b7f69"/>
              </g>
              <g id="Group_44" data-name="Group 44" transform="translate(21.253 2.173)">
                <rect id="Rectangle_32" data-name="Rectangle 32" width="1.345" height="6.437" transform="translate(1.345 6.437) rotate(180)" fill="#1b7f69"/>
              </g>
              <g id="Group_45" data-name="Group 45" transform="translate(47.562 1.866)">
                <path id="Path_5" data-name="Path 5" d="M867.943,1035.424a3.525,3.525,0,0,0-3.526,3.526v2.064h1.345v-2.064a2.181,2.181,0,0,1,2.18-2.18h1.579v-1.345Z" transform="translate(-864.418 -1035.424)" fill="#1b7f69"/>
              </g>
              <g id="Group_46" data-name="Group 46" transform="translate(12.189 2.174)">
                <path id="Path_6" data-name="Path 6" d="M823.027,1041.406a2.18,2.18,0,0,1-4.361,0v-3.226h-1.345v3.226a3.526,3.526,0,0,0,7.051,0v-5.573h-1.346v5.573Z" transform="translate(-817.321 -1035.833)" fill="#1b7f69"/>
              </g>
              <g id="Group_47" data-name="Group 47" transform="translate(36.037 5.028)">
                <rect id="Rectangle_33" data-name="Rectangle 33" width="1.345" height="6.244" fill="#1b7f69"/>
              </g>
              <g id="Group_48" data-name="Group 48" transform="translate(30.331 1.589)">
                <path id="Path_7" data-name="Path 7" d="M848.527,1038.581a3.526,3.526,0,1,0-3.526,3.526h3.526Zm-1.345,2.18H845a2.18,2.18,0,1,1,2.18-2.18Z" transform="translate(-841.476 -1035.055)" fill="#1b7f69"/>
              </g>
              <g id="Group_52" data-name="Group 52">
                <g id="Group_49" data-name="Group 49" transform="translate(7.35 0)">
                  <rect id="Rectangle_34" data-name="Rectangle 34" width="1.345" height="8.61" fill="#4d9e4b"/>
                </g>
                <g id="Group_50" data-name="Group 50" transform="translate(4.004 2.888)">
                  <rect id="Rectangle_35" data-name="Rectangle 35" width="1.345" height="5.723" fill="#4d9e4b"/>
                </g>
                <g id="Group_51" data-name="Group 51">
                  <path id="Path_8" data-name="Path 8" d="M806.441,1035.614a2.675,2.675,0,1,0-2.674,2.675h2.674Zm-1.345,1.329h-1.329a1.329,1.329,0,1,1,1.329-1.329Z" transform="translate(-801.092 -1032.939)" fill="#4d9e4b"/>
                </g>
              </g>
            </g>
          </g>
        </g>
      </g>
    </g>
    <g id="Group_59" data-name="Group 59" transform="translate(876.171 958.5)">
      <g id="Group_58" data-name="Group 58">
        <path id="Path_9" data-name="Path 9" d="M953.779,975.612l0,0c.666.4,1.3.775,1.894,1.12.2.11.592.346.592.346.763.448,1.421.846,1.918,1.207,1.79,1.287,2.751,2.816,2.2,5.994-.014.112-.028.225-.041.336-.234,1.428-.613,2.246-2.406,3.538a88.364,88.364,0,0,1-12.7,7.276,4.928,4.928,0,0,1-4.989-.765,6.987,6.987,0,0,1-1.638-4.97c.034-1.246.08-2.218.131-2.928a46.666,46.666,0,0,1-6.311,4.186l-.677.394c.24,1.863.458,3.577.644,5.045.825,6.514,1.656,10.568,2.711,12.135a10.473,10.473,0,0,0,5.647,4.108c2.815.905,9.745.445,12.556-.207a28.064,28.064,0,0,0,8.02-2.939,4.479,4.479,0,0,1,1.265-.647q.362,0,.288.651a3.779,3.779,0,0,0,.533,2.961,3.4,3.4,0,0,0,2.7,1.127,5.563,5.563,0,0,0,3.034-.859,2.649,2.649,0,0,0,1.45-2.451q-.313-4.584-2.162-15.417c-.522-2.855-2.292-14.869-3.382-22.324a52.814,52.814,0,0,0-5.547.641,13.69,13.69,0,0,1-6.124-.158,15.807,15.807,0,0,1-4.754-2.2c.75.935,1.541,1.911,1.77,2.144A21.826,21.826,0,0,0,953.779,975.612Zm3.211,31.931-3.754-2.2,1.8-3.249,3.754,2.2Zm6.621-14.336c.142.762-.167,1.117-.859,1.35q-10.716,3.625-21.415,7.3c-.651.223-1.261.566-1.907.861.336.877,1.685,1,1.163,2.129h-.632c-.238-.268-.493-.525-.711-.808a1.614,1.614,0,0,1,.463-2.548,6.921,6.921,0,0,1,1.284-.6q11.041-3.789,22.088-7.557C963.249,993.286,963.422,993.255,963.611,993.207Z" transform="translate(-908.696 -961.563)" fill="#1b7f69"/>
        <path id="Path_10" data-name="Path 10" d="M921.353,986.914c-1.266-10.01-2.9-22.866-3.494-27.549-2.789,1.038-5.418,2.6-8.226,3.965,1.726,1.6,3.254,3.013,4.726,4.372-1.2,2.173-2.113,4.19-4.586,4.716a1.7,1.7,0,0,0-1,.959c-1.156,3-3.333,3.984-6.381,3.411a5.953,5.953,0,0,0-1.142.04c-.072,1.888-.143,3.683-.2,5.074,1.239.588,2.414.809,3.071,1.515,1.357,1.459,2.67,2.96,3.965,4.479.291.341,1.613,1.826,3.037,3.516,2.625-1.014,4.826-1.927,6.586-2.735C918.948,988.118,920.157,987.524,921.353,986.914Zm-5.276-8.313c-.068.167-.164.324-.243.476-.092-.012-.165,0-.208-.03-1.287-.921-1.633-.789-1.929.82-.278,1.513-.8,5.508-1.009,5.964-.7-1.927-1.6-3.888-2.228-5.61a1.757,1.757,0,0,1-2.252-.544c-.436-.753.1-1.29.449-1.841.323-.511,1.217.065,1.457.243a5.887,5.887,0,0,1,1.126,1.442,22.383,22.383,0,0,1,1.435,3.294c.225-1.318.413-2.541.652-3.754a7.837,7.837,0,0,1,.488-1.58c.23-.531.579-.991,1.281-.689A1.582,1.582,0,0,1,916.078,978.6Z" transform="translate(-901.055 -958.715)" fill="#f27c00"/>
        <path id="Path_11" data-name="Path 11" d="M950.415,985.532a15.046,15.046,0,0,1-.348,3.126c-.161.811-.377,1.625-.575,2.284l.116-.047a76.564,76.564,0,0,0,12.442-7.034c.905-.614,1.4-1.007,1.415-1.194a.247.247,0,0,0-.007-.084,4.53,4.53,0,0,0-1.955-2.29,44.533,44.533,0,0,0-3.831-2.377s-.639-.364-.938-.56c-.482-.294-1.356-.972-1.356-.972a19.689,19.689,0,0,1-4.744-5.318c-.012-.076.212-1.512.356-2.472-1.072-.756-2.13-1.531-3.217-2.223q.709,4.211,1.578,9.539A79.926,79.926,0,0,1,950.415,985.532Z" transform="translate(-912.685 -960.459)" fill="#273a7b"/>
        <path id="Path_12" data-name="Path 12" d="M925.514,999.932a36.64,36.64,0,0,1-5.709,2.639c-.04.013-1.219.212-3.522.592a20.929,20.929,0,0,1,2.6,3.705,7.293,7.293,0,0,0,4.232,4.241,10.576,10.576,0,0,1,5,4.8,35.485,35.485,0,0,1-1.394-6.39C926.55,1008.161,926.093,1004.526,925.514,999.932Z" transform="translate(-904.846 -968.813)" fill="#ffc713"/>
        <path id="Path_13" data-name="Path 13" d="M934.182,983.06q4.553-2.822,4.553-3.551,0-.152-2-4.158a39.818,39.818,0,0,1-1.851-4.31,12.763,12.763,0,0,1,.242-1.639q.274-1.457.456-1.457a32.106,32.106,0,0,1,1.73,3.4c-.093-.316.527,1.295,1.4,2.913a8.022,8.022,0,0,1,1.153,3.551,8.4,8.4,0,0,1-2.032,5.514c.029.552.047,1.313.048,2.293,0,1.568.273,2.874,1.074,3.522a3.551,3.551,0,0,0,2.827.561l.388-.066a9.965,9.965,0,0,0,1.46-.416c-.106-1.405-.285-3.569-.284-3.711q-.63-6.392-3.207-21.457c-.066-.373-.134-.774-.206-1.2a38.819,38.819,0,0,0-5.9-2.834c-2.192-.808-4.953-1.712-7.425-1.482.486,3.716,2.185,16.715,3.5,26.9C931.486,984.675,932.85,983.889,934.182,983.06Z" transform="translate(-907.415 -958.5)" fill="#e02e28"/>
        <path id="Path_14" data-name="Path 14" d="M1013.6,1013.669c1.056-.127,1.258-.617.622-1.471-1.216-1.634-3.041-2.494-4.551-3.639-.457,1.419-.891,2.771-1.36,4.241A13.372,13.372,0,0,0,1013.6,1013.669Z" transform="translate(-927.755 -970.961)" fill="#a8ba43"/>
        <path id="Path_15" data-name="Path 15" d="M955.139,1024.827a64.474,64.474,0,0,0,16.834-2.433,41.425,41.425,0,0,0,11.226-4.422,11.311,11.311,0,0,0,2.932-2.575c-1.156-.734-8.7-2.611-9.366-2.838-.439-.146-.638-.366-.489-.935.275-1.046.365-1.523.528-2.289.188-.888.888-1.263,1.612-1.587,1.507-.669,2.471-1.3,3.986-1.952.3-.133.606-.276.879-.4-1.324-3.93.025-7.137,2.35-10.093a3.973,3.973,0,0,1-.065-2.27h0c-.034-.036-2.886-4.231-4.327-6.3a.464.464,0,0,1-.067-.38c.9-2.059-.578-2.862-1.9-3.9a33.553,33.553,0,0,1-5.75-5.078c-1.157-1.447-2.019-2.236-3.88-1.694a1.968,1.968,0,0,1-1.213-.206,1.341,1.341,0,0,1-.4-.279c1.039,6.425,2.94,18.977,3.658,23.1a72.345,72.345,0,0,1,1.272,10.29,11.724,11.724,0,0,1-1.787,6.636,6.207,6.207,0,0,1-5.494,3.054h0q-3.284-.009-3.668-4.775a27.194,27.194,0,0,1-7.7,3.12c-.51.144-1.01.276-1.5.4-3.26.819-10.637,1.217-13.834-.087a11.431,11.431,0,0,1-4.178-2.628,9.987,9.987,0,0,1-1.3-1.922c.239.739.44,1.506.614,2.294.7,3.209,1.667,6.414,5,7.848.19.083.391.157.6.228.071.024.141.05.215.073a11.291,11.291,0,0,1,2.608,1.17q1.316.2,2.645.333C948.481,1024.659,951.816,1024.794,955.139,1024.827ZM974.3,982.878a8.436,8.436,0,0,1,2.188,7.9c-.259,1.383-.759,2.721-1.012,4.1a6.321,6.321,0,0,0,.046,2.445c.088.4.687.68,1.055,1.014a11.282,11.282,0,0,0,.763-1.058,5.573,5.573,0,0,0,.306-1.08,4.31,4.31,0,0,1-.377,3.567c-.6.977-1.864.718-2.387-.431a6.3,6.3,0,0,1-.081-4.051c.313-1.485.693-2.956,1.014-4.439a6.049,6.049,0,0,0-1.455-5.245C973.4,984.4,973.386,984.413,974.3,982.878Z" transform="translate(-909.131 -962.657)" fill="#4d9e4b"/>
        <path id="Path_16" data-name="Path 16" d="M1019.393,1009.678c-1.9.126-3.837-.059-5.7.255a10.106,10.106,0,0,1-4.956-.294,6.271,6.271,0,0,1-1.165,6.8,3.568,3.568,0,0,1-3.653.818c-1.579-.337-3.1-.923-4.654-1.382a1.307,1.307,0,0,0-.805-.069c-1.982.876-3.948,1.794-6.083,2.776,1.015.249,1.894.434,2.754.68,1.006.285,2.018.572,2.992.949a2.671,2.671,0,0,1,1.72,3.08c-.39,3.127-2.391,5.03-4.907,6.531a45.248,45.248,0,0,1-12.362,4.854l3.39,2.273,1.641-2.565,3.335,2.229c.133-.241.209-.412.177-.444a15.206,15.206,0,0,1,8.368-4.473c7.192-1.6,13.581-5.008,19.96-8.46a4.044,4.044,0,0,0,2.033-2.215,54.225,54.225,0,0,0,.91-8.379C1022.442,1010.878,1021.563,1009.53,1019.393,1009.678Z" transform="translate(-921.348 -971.23)" fill="#a8ba43"/>
        <path id="Path_17" data-name="Path 17" d="M1003.846,1011.017a.773.773,0,0,0,.216-.091c2.345-1.023,2.756-3.055.957-4.875a2.376,2.376,0,0,0-1.248-.719c-1.148-.143-3.111,1.8-3.125,3.039.005.044.011.146.031.249A4.5,4.5,0,0,0,1003.846,1011.017Z" transform="translate(-925.846 -970.156)" fill="#a8ba43"/>
        <path id="Path_18" data-name="Path 18" d="M975.886,1048.383l-3.551-2.373,1.892-2.979q-.893.222-1.794.424a69.652,69.652,0,0,1-22.771,1.141c2.135,4.6,4.631,6.3,7.447,10.871.414-.626,3.085-.008,3.107-.248l4.9-4.337c3.846-.314,7.688-.647,11.536-.932a1.9,1.9,0,0,1,1.157.347c1.326.97,2.127.446,2.509-.909a13.6,13.6,0,0,1,.478-1.38l-3.267-2.189Z" transform="translate(-913.155 -979.542)" fill="#a8ba43"/>
      </g>
    </g>
  </g>
</svg>
