<svg width="100%" height="100%" viewBox="0 0 384 166" fill="none" xmlns="http://www.w3.org/2000/svg">
	<path d="M164.454 88.0684H161.522V106.841H164.454V88.0684Z" fill="#1B7F69" />
	<path d="M157.399 88.0684H154.466V106.841H157.399V88.0684Z" fill="#1B7F69" />
	<path d="M91.8006 88.0684H88.8682V106.841H91.8006V88.0684Z" fill="#1B7F69" />
	<path d="M84.7453 88.0684H81.8129V106.841H84.7453V88.0684Z" fill="#1B7F69" />
	<path d="M57.1538 92.1694H54.2213V106.838H57.1538V92.1694Z" fill="#1B7F69" />
	<path d="M41.1854 88.0684H38.2529V106.841H41.1854V88.0684Z" fill="#1B7F69" />
	<path d="M157.399 106.838V103.906H135.068V106.838H157.399Z" fill="#1B7F69" />
	<path d="M57.1538 106.838V103.906H19.8884V106.838H57.1538Z" fill="#1B7F69" />
	<path d="M149.107 92.4287H146.175V106.838H149.107V92.4287Z" fill="#1B7F69" />
	<path d="M31.2695 92.4287H28.337V106.838H31.2695V92.4287Z" fill="#1B7F69" />
	<path d="M22.8209 92.4287H19.8884V106.838H22.8209V92.4287Z" fill="#1B7F69" />
	<path d="M135.068 98.9653H132.136V112.579H135.068V98.9653Z" fill="#1B7F69" />
	<path d="M102.863 103.906H99.9309V112.577H102.863V103.906Z" fill="#1B7F69" />
	<path d="M99.9309 103.906V106.838H110.763V103.906H99.9309Z" fill="#1B7F69" />
	<path d="M38.2529 92.1696V95.1021H57.1538V92.1696H38.2529Z" fill="#1B7F69" />
	<path d="M12.4407 92.1696V95.1021H22.8232V92.1696H12.4407Z" fill="#1B7F69" />
	<path d="M75.7495 103.906V106.838H84.7454V103.906H75.7495Z" fill="#1B7F69" />
	<path d="M110.553 91.4673C109.033 91.4669 107.546 91.9174 106.282 92.762C105.017 93.6065 104.031 94.8071 103.449 96.2119C102.867 97.6167 102.715 99.1627 103.011 100.654C103.308 102.146 104.04 103.516 105.115 104.591C106.19 105.666 107.56 106.398 109.052 106.695C110.543 106.991 112.089 106.839 113.494 106.257C114.899 105.675 116.1 104.689 116.944 103.425C117.789 102.16 118.239 100.673 118.239 99.1527C118.239 97.1144 117.429 95.1595 115.988 93.7182C114.547 92.2769 112.592 91.4673 110.553 91.4673V91.4673ZM110.553 103.908C109.613 103.908 108.694 103.629 107.913 103.107C107.131 102.585 106.522 101.842 106.162 100.974C105.802 100.105 105.708 99.1496 105.892 98.2276C106.075 97.3056 106.528 96.4588 107.192 95.794C107.857 95.1293 108.704 94.6766 109.626 94.4933C110.548 94.3099 111.504 94.4039 112.372 94.7637C113.241 95.1234 113.983 95.7326 114.505 96.5142C115.028 97.2959 115.306 98.2149 115.306 99.155C115.306 100.416 114.806 101.624 113.914 102.516C113.023 103.407 111.814 103.908 110.553 103.908V103.908Z" fill="#1B7F69" />
	<path d="M135.068 99.1525C135.068 97.632 134.617 96.1456 133.773 94.8813C132.928 93.617 131.727 92.6317 130.322 92.0499C128.917 91.4681 127.371 91.3159 125.88 91.6127C124.389 91.9095 123.019 92.6419 121.944 93.7173C120.869 94.7926 120.137 96.1627 119.84 97.6541C119.544 99.1455 119.697 100.691 120.279 102.096C120.861 103.501 121.847 104.701 123.111 105.546C124.376 106.39 125.862 106.841 127.383 106.84H135.068V99.1525ZM132.136 103.906H127.383C126.443 103.906 125.524 103.627 124.742 103.105C123.961 102.582 123.351 101.84 122.992 100.972C122.632 100.103 122.538 99.1473 122.721 98.2253C122.905 97.3033 123.357 96.4564 124.022 95.7916C124.687 95.1269 125.534 94.6742 126.456 94.4908C127.378 94.3074 128.333 94.4016 129.202 94.7614C130.07 95.1211 130.813 95.7303 131.335 96.512C131.857 97.2936 132.136 98.2125 132.136 99.1525V103.906Z" fill="#1B7F69" />
	<path d="M76.4624 98.9653H73.5299V112.579H76.4624V98.9653Z" fill="#1B7F69" />
	<path d="M76.4624 99.1525C76.4624 97.632 76.0115 96.1457 75.1668 94.8815C74.322 93.6173 73.1214 92.632 71.7167 92.0501C70.312 91.4682 68.7662 91.3159 67.275 91.6125C65.7837 91.9092 64.4139 92.6414 63.3388 93.7166C62.2636 94.7917 61.5314 96.1615 61.2347 97.6528C60.9381 99.144 61.0904 100.69 61.6723 102.095C62.2541 103.499 63.2395 104.7 64.5037 105.545C65.7679 106.389 67.2542 106.84 68.7747 106.84H76.4624V99.1525ZM73.5278 103.906H68.7747C67.8346 103.906 66.9157 103.627 66.1341 103.105C65.3525 102.582 64.7433 101.84 64.3835 100.971C64.0238 100.103 63.9297 99.1472 64.1131 98.2253C64.2965 97.3033 64.7492 96.4563 65.4139 95.7916C66.0786 95.1269 66.9254 94.6742 67.8474 94.4908C68.7694 94.3074 69.7252 94.4016 70.5937 94.7613C71.4622 95.1211 72.2045 95.7303 72.7267 96.5119C73.249 97.2936 73.5278 98.2125 73.5278 99.1525V103.906Z" fill="#1B7F69" />
	<path d="M29.8044 90.4643C30.8087 90.4643 31.6228 89.6502 31.6228 88.646C31.6228 87.6417 30.8087 86.8276 29.8044 86.8276C28.8002 86.8276 27.9861 87.6417 27.9861 88.646C27.9861 89.6502 28.8002 90.4643 29.8044 90.4643Z" fill="#1B7F69" />
	<path d="M10.2996 117.873C11.3038 117.873 12.1179 117.058 12.1179 116.054C12.1179 115.05 11.3038 114.236 10.2996 114.236C9.29531 114.236 8.4812 115.05 8.4812 116.054C8.4812 117.058 9.29531 117.873 10.2996 117.873Z" fill="#1B7F69" />
	<path d="M5.52697 117.873C6.53122 117.873 7.34533 117.058 7.34533 116.054C7.34533 115.05 6.53122 114.236 5.52697 114.236C4.52272 114.236 3.70862 115.05 3.70862 116.054C3.70862 117.058 4.52272 117.873 5.52697 117.873Z" fill="#1B7F69" />
	<path d="M144.339 112.302C145.343 112.302 146.157 111.488 146.157 110.484C146.157 109.48 145.343 108.666 144.339 108.666C143.335 108.666 142.521 109.48 142.521 110.484C142.521 111.488 143.335 112.302 144.339 112.302Z" fill="#1B7F69" />
	<path d="M139.564 112.302C140.568 112.302 141.383 111.488 141.383 110.484C141.383 109.48 140.568 108.666 139.564 108.666C138.56 108.666 137.746 109.48 137.746 110.484C137.746 111.488 138.56 112.302 139.564 112.302Z" fill="#1B7F69" />
	<path d="M12.4449 104.957C12.4449 106.218 11.944 107.427 11.0525 108.318C10.1609 109.21 8.95175 109.711 7.69088 109.711C6.43002 109.711 5.22074 109.21 4.32917 108.318C3.43761 107.427 2.93682 106.218 2.93682 104.957V97.9209H0.00427246V104.957C0.03823 106.973 0.863042 108.895 2.30086 110.309C3.73868 111.723 5.67441 112.515 7.69088 112.515C9.70736 112.515 11.6431 111.723 13.0809 110.309C14.5187 108.895 15.3435 106.973 15.3775 104.957V92.8037H12.4449V104.957Z" fill="#1B7F69" />
	<path d="M36.6505 151.933C37.6548 151.933 38.4689 151.119 38.4689 150.115C38.4689 149.11 37.6548 148.296 36.6505 148.296C35.6463 148.296 34.8322 149.11 34.8322 150.115C34.8322 151.119 35.6463 151.933 36.6505 151.933Z" fill="#1B7F69" />
	<path d="M31.8757 151.933C32.88 151.933 33.6941 151.119 33.6941 150.115C33.6941 149.11 32.88 148.296 31.8757 148.296C30.8715 148.296 30.0574 149.11 30.0574 150.115C30.0574 151.119 30.8715 151.933 31.8757 151.933Z" fill="#1B7F69" />
	<path d="M164.454 122.128H161.522V140.901H164.454V122.128Z" fill="#1B7F69" />
	<path d="M157.399 122.128H154.466V140.901H157.399V122.128Z" fill="#1B7F69" />
	<path d="M147.269 126.489H144.337V140.903H147.269V126.489Z" fill="#1B7F69" />
	<path d="M137.648 126.489H134.715V140.903H137.648V126.489Z" fill="#1B7F69" />
	<path d="M128.028 126.489H125.096V140.903H128.028V126.489Z" fill="#1B7F69" />
	<path d="M157.399 140.901V137.968H80.6835V140.901H157.399Z" fill="#1B7F69" />
	<path d="M52.4772 126.866V129.799H63.5944V126.866H52.4772Z" fill="#1B7F69" />
	<path d="M39.8271 126.866V129.799H49.2721V126.866H39.8271Z" fill="#1B7F69" />
	<path d="M52.4772 137.968V140.901H63.5944V137.968H52.4772Z" fill="#1B7F69" />
	<path d="M60.662 140.901H63.5945V126.866H60.662V140.901Z" fill="#1B7F69" />
	<path d="M46.3375 140.901H49.27V126.866H46.3375V140.901Z" fill="#1B7F69" />
	<path d="M111.384 126.197C110.374 126.196 109.375 126.395 108.442 126.782C107.509 127.168 106.661 127.734 105.947 128.448C105.234 129.162 104.667 130.009 104.281 130.942C103.895 131.875 103.696 132.875 103.696 133.884V138.385H106.629V133.884C106.63 132.624 107.13 131.416 108.022 130.524C108.913 129.633 110.122 129.132 111.382 129.132H114.825V126.199L111.384 126.197Z" fill="#1B7F69" />
	<path d="M39.0099 139.022C39.0099 140.283 38.5091 141.492 37.6175 142.384C36.726 143.276 35.5167 143.776 34.2558 143.776C32.995 143.776 31.7857 143.276 30.8941 142.384C30.0025 141.492 29.5018 140.283 29.5018 139.022V131.989H26.5692V139.022C26.6032 141.038 27.428 142.961 28.8658 144.375C30.3036 145.788 32.2394 146.581 34.2558 146.581C36.2723 146.581 38.208 145.788 39.6458 144.375C41.0837 142.961 41.9085 141.038 41.9424 139.022V126.872H39.0078V139.022H39.0099Z" fill="#1B7F69" />
	<path d="M81.5033 133.091H78.5708V146.705H81.5033V133.091Z" fill="#1B7F69" />
	<path d="M81.5033 133.281C81.5033 131.76 81.0524 130.274 80.2077 129.009C79.3629 127.745 78.1623 126.76 76.7576 126.178C75.3529 125.596 73.8071 125.444 72.3159 125.741C70.8246 126.037 69.4548 126.769 68.3797 127.844C67.3045 128.92 66.5723 130.289 66.2756 131.78C65.979 133.272 66.1313 134.817 66.7132 136.222C67.295 137.627 68.2804 138.828 69.5446 139.673C70.8088 140.517 72.2951 140.968 73.8156 140.968H81.5033V133.281ZM78.5709 138.033H73.8135C72.8734 138.033 71.9545 137.755 71.1729 137.232C70.3913 136.71 69.782 135.968 69.4223 135.099C69.0626 134.231 68.9684 133.275 69.1518 132.353C69.3352 131.431 69.7878 130.584 70.4526 129.92C71.1173 129.255 71.9642 128.802 72.8862 128.619C73.8082 128.435 74.7638 128.529 75.6323 128.889C76.5008 129.249 77.2432 129.858 77.7655 130.64C78.2878 131.421 78.5665 132.34 78.5665 133.281L78.5709 138.033Z" fill="#1B7F69" />
	<path d="M15 141V125.282C15 124.373 15.319 123.619 15.957 123.02C16.595 122.401 17.349 122.092 18.219 122.092H23.207V125.485H18.364V141H15Z" fill="#4D9E4B" />
	<path d="M11.6623 128.425H8.72986V140.903H11.6623V128.425Z" fill="#4D9E4B" />
	<path d="M11.6623 127.961C11.6623 126.807 11.3202 125.679 10.6793 124.72C10.0383 123.761 9.12726 123.014 8.06142 122.572C6.99559 122.131 5.82287 122.015 4.69146 122.241C3.56006 122.466 2.52085 123.022 1.70528 123.838C0.889715 124.653 0.334388 125.693 0.109595 126.824C-0.115197 127.956 0.00064904 129.129 0.442413 130.194C0.884177 131.26 1.63203 132.17 2.59142 132.811C3.55082 133.452 4.6787 133.793 5.8323 133.793H11.6623V127.961ZM8.72985 130.858H5.8323C5.25921 130.858 4.69888 130.688 4.22238 130.37C3.74587 130.051 3.37457 129.599 3.15526 129.069C2.93594 128.54 2.87857 127.957 2.99038 127.395C3.10218 126.833 3.37813 126.317 3.78337 125.912C4.1886 125.506 4.70493 125.231 5.26701 125.119C5.82908 125.007 6.41161 125.064 6.94107 125.283C7.47054 125.503 7.92308 125.874 8.24147 126.351C8.55986 126.827 8.72985 127.388 8.72985 127.961V130.858Z" fill="#4D9E4B" />
	<path d="M261.987 30.8618C263.439 31.7339 264.821 32.5515 266.116 33.3037C266.553 33.5435 267.407 34.0581 267.407 34.0581C269.071 35.0349 270.505 35.9026 271.589 36.6896C275.492 39.4957 277.587 42.8294 276.386 49.7583C276.355 50.0025 276.325 50.2489 276.296 50.4909C275.786 53.6043 274.96 55.3878 271.05 58.2048C262.275 64.2493 253.014 69.5554 243.361 74.0685C241.566 74.7969 239.607 75.0264 237.692 74.7328C235.778 74.4392 233.978 73.6333 232.484 72.4006C229.934 69.3875 228.654 65.5027 228.912 61.5645C228.986 58.8478 229.087 56.7287 229.198 55.1807C224.866 58.5906 220.264 61.643 215.438 64.3074L213.962 65.1664C214.485 69.2283 214.961 72.9652 215.366 76.1659C217.165 90.3682 218.977 99.2071 221.277 102.624C224.235 106.93 228.581 110.091 233.589 111.58C239.726 113.553 254.836 112.55 260.965 111.129C267.086 109.898 272.983 107.737 278.45 104.721C279.289 104.107 280.22 103.631 281.208 103.31C281.735 103.31 281.944 103.784 281.836 104.73C281.578 105.828 281.547 106.968 281.747 108.078C281.947 109.189 282.373 110.246 282.998 111.186C283.735 112.008 284.646 112.655 285.664 113.08C286.682 113.505 287.783 113.697 288.885 113.643C291.225 113.67 293.522 113.019 295.5 111.77C296.481 111.273 297.3 110.506 297.86 109.559C298.42 108.612 298.698 107.525 298.662 106.426C298.207 99.7631 296.635 88.5587 293.948 72.8127C292.81 66.588 288.951 40.394 286.574 24.14C282.521 24.3923 278.484 24.8587 274.48 25.5375C270.06 26.4328 265.496 26.3151 261.128 25.1931C257.43 24.1819 253.927 22.5607 250.763 20.3965C252.398 22.435 254.123 24.563 254.622 25.071C256.881 27.2388 259.348 29.1785 261.987 30.8618V30.8618ZM268.988 100.48L260.803 95.6838L264.728 88.6L272.912 93.3967L268.988 100.48ZM283.424 69.2238C283.733 70.8852 283.06 71.6593 281.551 72.1673C265.975 77.4363 250.411 82.7416 234.86 88.0833C233.441 88.5695 232.111 89.3174 230.702 89.9606C231.435 91.8727 234.376 92.1408 233.238 94.6023H231.86C231.341 94.018 230.785 93.4577 230.31 92.8407C229.935 92.4398 229.66 91.957 229.505 91.4306C229.35 90.9043 229.321 90.3491 229.419 89.8094C229.517 89.2697 229.74 88.7604 230.07 88.3222C230.4 87.8839 230.828 87.5289 231.319 87.2854C232.205 86.7547 233.143 86.3163 234.119 85.9771C250.167 80.4698 266.22 74.9776 282.277 69.5007C282.634 69.3961 283.012 69.3285 283.424 69.2238Z" fill="#1B7F69" />
	<path d="M207.949 61.7126C205.189 39.8879 201.626 11.8582 200.331 1.64795C194.25 3.91108 188.518 7.31674 182.396 10.2928C186.159 13.7813 189.491 16.862 192.7 19.825C190.084 24.5628 188.093 28.9604 182.701 30.1073C182.211 30.2832 181.764 30.5602 181.388 30.9205C181.013 31.2807 180.717 31.716 180.521 32.1981C178 38.739 173.254 40.8844 166.609 39.6351C165.778 39.5842 164.944 39.6134 164.119 39.7222C163.962 43.8386 163.807 47.7522 163.682 50.7849C166.384 52.0669 168.946 52.5488 170.378 54.0881C173.337 57.2691 176.2 60.5417 179.023 63.8536C179.657 64.5971 182.54 67.8348 185.644 71.5194C191.368 69.3086 196.167 67.3181 200.004 65.5564C202.705 64.3376 205.341 63.0425 207.949 61.7126ZM196.446 43.5879C196.297 43.952 196.088 44.2943 195.916 44.6257C195.715 44.5996 195.556 44.6257 195.462 44.5603C192.656 42.5522 191.902 42.84 191.257 46.3481C190.65 49.6469 189.512 58.3571 189.057 59.3513C187.53 55.1499 185.568 50.8744 184.199 47.1199C183.376 47.5514 182.424 47.669 181.521 47.4508C180.617 47.2326 179.824 46.6935 179.289 45.9339C178.338 44.2921 179.507 43.1213 180.268 41.92C180.972 40.8058 182.921 42.0616 183.445 42.4497C184.422 43.3634 185.25 44.4242 185.9 45.5937C187.133 47.9 188.18 50.3017 189.028 52.7756C189.519 49.902 189.929 47.2354 190.45 44.5907C190.682 43.4082 191.039 42.2535 191.514 41.146C192.015 39.9883 192.776 38.9853 194.307 39.6437C195.075 39.9376 195.713 40.4962 196.106 41.2191C196.498 41.9419 196.62 42.7812 196.448 43.5856L196.446 43.5879Z" fill="#F27C00" />
	<path d="M245.955 54.897C245.941 57.1891 245.687 59.4736 245.197 61.7127C244.846 63.4809 244.375 65.2556 243.943 66.6924L244.196 66.5899C253.697 62.3349 262.779 57.2005 271.323 51.2539C273.296 49.9152 274.376 49.0582 274.408 48.6505C274.414 48.5891 274.408 48.5271 274.393 48.4674C273.583 46.3658 272.079 44.6042 270.13 43.4746C267.435 41.6072 264.648 39.8774 261.778 38.2921C261.778 38.2921 260.385 37.4984 259.733 37.0711C258.682 36.4301 256.776 34.9518 256.776 34.9518C252.652 31.7482 249.147 27.8189 246.433 23.357C246.407 23.1913 246.895 20.0605 247.209 17.9674C244.872 16.3191 242.565 14.6294 240.195 13.1206C241.226 19.2414 242.373 26.174 243.636 33.9183C244.832 40.8579 245.607 47.8637 245.955 54.897V54.897Z" fill="#273A7B" />
	<path d="M208.755 68.0791C204.779 70.3502 200.615 72.2752 196.308 73.8328C196.221 73.8612 193.651 74.2951 188.629 75.1236C190.805 77.6034 192.706 80.3118 194.298 83.2015C195.094 85.3082 196.328 87.2219 197.918 88.816C199.509 90.41 201.42 91.6481 203.525 92.4481C208.231 94.613 212.071 98.2995 214.426 102.913C212.987 98.3729 211.969 93.7091 211.387 88.9814C211.014 86.0206 210.018 78.0953 208.755 68.0791Z" fill="#FFC713" />
	<path d="M222.053 53.7787C228.671 49.6769 231.98 47.0961 231.98 46.0365C231.98 45.8155 230.526 42.7937 227.619 36.9709C226.091 33.9206 224.743 30.7829 223.584 27.5739C223.682 26.3726 223.858 25.1788 224.111 24.0004C224.509 21.8826 224.841 20.8238 225.105 20.8238C226.509 23.2178 227.768 25.6931 228.877 28.2366C228.675 27.5477 230.026 31.0602 231.93 34.5879C233.365 36.935 234.226 39.5876 234.444 42.3301C234.462 46.7402 232.889 51.0089 230.013 54.3521C230.077 55.5556 230.116 57.2149 230.118 59.3516C230.118 62.7702 230.713 65.6176 232.46 67.0305C233.344 67.6539 234.35 68.0848 235.412 68.2955C236.473 68.5061 237.567 68.4918 238.623 68.2535L239.469 68.1097C240.552 67.8887 241.616 67.5855 242.652 67.2027C242.421 64.1394 242.031 59.4212 242.033 59.1116C241.117 49.8207 238.787 34.2267 235.041 12.3294C234.897 11.5161 234.749 10.6418 234.592 9.71302C230.486 7.29492 226.182 5.22797 221.728 3.53414C216.949 1.77247 210.929 -0.198494 205.54 0.302971C206.599 8.4049 210.303 36.7463 213.171 58.9525C216.175 57.2998 219.149 55.5862 222.053 53.7787Z" fill="#E02E28" />
	<path d="M350.86 93.3463C353.162 93.0694 353.602 92.001 352.216 90.1391C349.565 86.5765 345.586 84.7015 342.293 82.2051C341.297 85.2989 340.351 88.2466 339.328 91.4516C343.005 92.8549 346.927 93.4995 350.86 93.3463V93.3463Z" fill="#A8BA43" />
	<path d="M264.004 135.779C276.419 135.639 288.76 133.856 300.707 130.474C309.292 128.472 317.538 125.224 325.182 120.833C327.623 119.346 329.786 117.446 331.575 115.219C329.055 113.618 312.607 109.526 311.155 109.031C310.197 108.713 309.764 108.233 310.088 106.993C310.688 104.712 310.884 103.672 311.24 102.002C311.65 100.066 313.176 99.2483 314.754 98.5419C318.04 97.0833 320.142 95.7076 323.445 94.286C324.099 93.9961 324.766 93.6842 325.361 93.4139C322.475 84.8454 325.416 77.8532 330.485 71.4083C329.957 69.8074 329.908 68.0875 330.343 66.4591V66.4591C330.269 66.3806 324.051 57.2342 320.909 52.7232C320.827 52.6037 320.771 52.4679 320.746 52.3249C320.721 52.182 320.727 52.0353 320.763 51.8948C322.725 47.4056 319.503 45.6548 316.621 43.3917C312.032 40.1926 307.826 36.4778 304.084 32.3202C301.561 29.1653 299.682 27.4452 295.625 28.6269C294.718 28.7637 293.791 28.6061 292.98 28.1776C292.654 28.0299 292.359 27.8237 292.108 27.5693C294.373 41.5776 298.518 68.9446 300.083 77.9339C301.543 85.3363 302.47 92.8339 302.856 100.369C303.032 105.473 301.675 110.512 298.96 114.837C297.737 116.913 295.982 118.624 293.876 119.795C291.77 120.966 289.39 121.553 286.982 121.496V121.496C282.208 121.483 279.543 118.012 278.985 111.085C273.77 114.199 268.108 116.493 262.196 117.887C261.084 118.201 259.994 118.489 258.926 118.76C251.818 120.545 235.734 121.413 228.764 118.57C225.347 117.346 222.238 115.391 219.655 112.84C218.55 111.558 217.599 110.152 216.82 108.65C217.341 110.261 217.78 111.933 218.159 113.651C219.685 120.648 221.794 127.636 229.06 130.762C229.475 130.943 229.913 131.104 230.369 131.259C230.523 131.312 230.676 131.368 230.837 131.418C232.833 132.024 234.744 132.882 236.523 133.969C238.436 134.26 240.359 134.502 242.29 134.695C249.487 135.413 256.759 135.707 264.004 135.779ZM305.78 44.3183C307.974 46.5469 309.564 49.2982 310.398 52.312C311.233 55.3259 311.285 58.5028 310.551 61.5426C309.986 64.5579 308.896 67.4751 308.344 70.4817C308.03 72.2482 308.064 74.059 308.444 75.8125C308.636 76.6846 309.942 77.295 310.745 78.0232C311.343 77.287 311.899 76.5169 312.408 75.7165C312.709 74.9561 312.933 74.1671 313.075 73.3618C313.505 74.6411 313.654 75.9979 313.512 77.3399C313.37 78.6819 312.941 79.9776 312.253 81.1389C310.945 83.269 308.189 82.7044 307.049 80.1992C306.019 77.3549 305.957 74.2501 306.873 71.3669C307.555 68.1291 308.383 64.9219 309.083 61.6885C309.485 59.6671 309.407 57.5798 308.856 55.5939C308.305 53.608 307.296 51.7787 305.911 50.253C303.818 47.6366 303.787 47.665 305.78 44.3183Z" fill="#4D9E4B" />
	<path d="M377.459 84.0582C373.317 84.3329 369.093 83.9296 365.032 84.6142C361.432 85.3023 357.719 85.082 354.226 83.9731C355.299 86.4221 355.63 89.1318 355.178 91.7669C354.727 94.402 353.513 96.8469 351.686 98.7992C350.654 99.805 349.363 100.504 347.956 100.819C346.55 101.134 345.084 101.052 343.722 100.583C340.279 99.8479 336.963 98.5702 333.575 97.5694C333.02 97.3352 332.406 97.2826 331.819 97.4191C327.498 99.329 323.212 101.33 318.557 103.471C320.77 104.014 322.686 104.418 324.561 104.954C326.755 105.575 328.961 106.201 331.085 107.023C332.419 107.495 333.536 108.438 334.226 109.674C334.916 110.909 335.133 112.355 334.835 113.738C333.984 120.556 329.622 124.705 324.136 127.978C315.721 132.812 306.639 136.378 297.183 138.561L304.575 143.517L308.152 137.924L315.424 142.784C315.714 142.259 315.879 141.886 315.81 141.816C320.695 136.702 327.088 133.285 334.054 132.064C349.735 128.575 363.665 121.145 377.573 113.619C379.616 112.638 381.203 110.909 382.005 108.789C383.139 102.76 383.803 96.6524 383.989 90.5206C384.107 86.6746 382.19 83.7355 377.459 84.0582Z" fill="#A8BA43" />
	<path d="M333.755 89.3195C333.922 89.2777 334.08 89.2108 334.226 89.1211C339.339 86.8907 340.235 82.4603 336.313 78.4922C335.59 77.7007 334.639 77.1529 333.592 76.9245C331.089 76.6127 326.809 80.849 326.779 83.5504C326.789 83.6463 326.803 83.8687 326.846 84.0933C327.521 85.4352 328.495 86.6042 329.693 87.5102C330.891 88.4163 332.281 89.0354 333.755 89.3195Z" fill="#A8BA43" />
	<path d="M300.465 150.324L292.723 145.15L296.848 138.655C295.55 138.977 294.246 139.286 292.936 139.579C276.636 143.13 259.862 143.97 243.289 142.067C247.944 152.096 253.386 155.803 259.526 165.769C260.428 164.404 266.252 165.751 266.3 165.228L276.983 155.772C285.368 155.087 293.745 154.361 302.135 153.74C303.036 153.711 303.921 153.977 304.657 154.497C307.548 156.612 309.295 155.469 310.128 152.515C310.421 151.494 310.769 150.49 311.17 149.506L304.047 144.733L300.465 150.324Z" fill="#A8BA43" />
</svg>
