<svg width="528" height="159" viewBox="0 0 528 159" fill="none" xmlns="http://www.w3.org/2000/svg">
<g clip-path="url(#clip0_7281_3075)">
<g filter="url(#filter0_d_7281_3075)">
<path d="M155 81C321 18.001 528 35 528 35V155H24C24 155 104 99 155 81Z" fill="white"/>
</g>
<path d="M427.589 122.54L424.148 112.91H421.621L418.212 122.537L414.251 111.731L414.214 111.627H411.296L416.98 127.816H419.477L422.885 118.224L426.292 127.816H428.821L434.473 111.627H431.587L427.589 122.54Z" fill="#1F2993"/>
<path d="M449.294 123.512V116.768C449.294 115.362 448.736 114.039 447.72 113.044C446.654 111.999 445.185 111.416 443.652 111.45L436.179 111.603V114.243H438.801L443.751 114.124C445.133 114.099 446.327 115.094 446.483 116.403L446.466 116.477C446.114 117.404 445.31 118.059 444.326 118.226L439.618 118.645C436.791 118.991 435.525 121.236 435.525 123.307C435.525 125.639 437.131 128 440.205 128L443.038 127.881C444.519 127.826 445.897 127.29 447.038 126.327C447.143 126.63 447.277 126.976 447.425 127.366L447.532 127.643H450.52L450.098 126.589C449.401 124.844 449.294 124.577 449.294 123.512ZM446.519 121.512C446.519 123.463 444.897 125.119 442.903 125.204L440.351 125.323C439.762 125.347 439.256 125.171 438.887 124.816C438.497 124.44 438.272 123.879 438.272 123.273C438.272 122.487 438.703 121.494 439.904 121.282L444.705 120.863C445.331 120.784 445.931 120.592 446.492 120.291C446.495 120.459 446.501 120.627 446.506 120.795C446.512 121.038 446.519 121.279 446.519 121.512Z" fill="#1F2993"/>
<path d="M461.282 118.404L456.61 117.449C455.455 117.222 454.965 116.407 454.993 115.694C454.993 114.775 455.819 113.824 457.203 113.824H459.476C460.882 113.824 462.026 114.917 462.026 116.262V116.48H464.802V116.262C464.802 113.444 462.411 111.151 459.474 111.151H457.201C453.983 111.151 452.248 113.507 452.248 115.726C452.248 117.303 453.203 119.346 455.892 119.908L460.532 120.863C461.603 121.083 462.243 121.817 462.243 122.827C462.243 123.975 461.281 125.205 459.848 125.205H457.669C456.005 125.205 454.65 123.911 454.65 122.32V122.163H451.873V122.32C451.873 125.385 454.473 127.878 457.668 127.878H459.847C463.023 127.878 464.955 125.342 464.987 122.889C465.019 121.173 464.065 118.97 461.282 118.404Z" fill="#1F2993"/>
<path d="M473.739 111.211H473.646C469.832 111.211 466.73 114.16 466.73 117.783V121.184C466.73 125.027 469.795 127.816 474.019 127.816C475.901 127.816 477.975 127.268 479.305 126.418L480.469 125.673L478.918 123.445L477.761 124.185C476.755 124.847 475.157 125.143 474.017 125.143C471.318 125.143 469.504 123.552 469.504 121.184V120.596H480.652V118.021C480.654 114.203 477.617 111.211 473.739 111.211ZM473.646 113.883H473.739C476.021 113.883 477.878 115.633 477.878 117.783V117.924H469.507V117.783C469.507 115.632 471.362 113.883 473.646 113.883Z" fill="#1F2993"/>
<path d="M489.404 111.211H489.31C485.497 111.211 482.395 114.16 482.395 117.783V121.184C482.395 125.027 485.46 127.816 489.683 127.816C491.566 127.816 493.64 127.268 494.969 126.418L496.134 125.673L494.583 123.445L493.426 124.185C492.42 124.847 490.821 125.143 489.682 125.143C486.982 125.143 485.168 123.552 485.168 121.184V120.596H496.317V118.021C496.318 114.203 493.28 111.211 489.404 111.211ZM489.309 113.883H489.403C491.685 113.883 493.542 115.633 493.542 117.783V117.924H485.17V117.783C485.17 115.632 487.027 113.883 489.309 113.883Z" fill="#1F2993"/>
<path d="M503.787 125.204C502.861 125.204 501.778 124.472 501.778 123.571V106.815L499.003 106.822V123.573C499.003 125.947 501.001 127.878 503.458 127.878H504.831L503.787 125.204Z" fill="#1F2993"/>
<path d="M378.406 86.525V92.7796H384.658V86.5428L389.574 94.0706L394.796 90.6596L389.571 82.6593C388.488 80.9998 386.64 80 384.656 80H384.645H378.405C376.416 80 374.56 81.0043 373.472 82.6697L368.255 90.6596L373.477 94.0706L378.406 86.525Z" fill="#1F2993"/>
<path d="M402.776 95.8653L394.786 90.6477L391.375 95.8698L398.922 100.798H392.667V107.049H398.902L391.375 111.965L394.786 117.187L402.786 111.962C404.445 110.879 405.445 109.031 405.445 107.048V107.036V100.796C405.445 98.8084 404.441 96.9543 402.776 95.8653Z" fill="#1F2993"/>
<path d="M384.658 121.301V115.066H378.406V121.32L373.478 113.773L368.256 117.184L373.474 125.174C374.561 126.84 376.417 127.844 378.406 127.844H384.646H384.658C386.64 127.844 388.488 126.844 389.573 125.185L394.798 117.184L389.575 113.773L384.658 121.301Z" fill="#1F2993"/>
<path d="M364.15 107.051H370.385V100.799H364.131L371.678 95.8712L368.267 90.6492L360.277 95.8668C358.612 96.9543 357.607 98.8099 357.607 100.799V107.039V107.051C357.607 109.033 358.607 110.881 360.267 111.965L368.267 117.19L371.678 111.968L364.15 107.051Z" fill="#1F2993"/>
<path d="M427.789 101.316L426.206 99.7012L424.432 101.442L426.206 103.154L427.789 101.57L429.373 103.154L431.147 101.442L429.373 99.7012L427.789 101.316Z" fill="#1F2993"/>
<path d="M485.7 85.9545C483.831 85.9545 481.108 86.8102 479.365 87.6333V86.3348L476.578 87.0316V94.9189H472.778H469.612H466.446H465.385H462.219H459.052H455.885H452.719H449.553H446.387H443.221H440.055H436.889H433.723C432.71 94.9189 431.823 94.7927 431.823 93.9681V86.3348L429.036 87.0316V93.7141C429.036 94.7912 428.687 94.9174 427.136 94.9174H425.237H425.236H423.337V80L420.55 80.6968V98.7192C419.917 98.9733 418.904 99.257 417.541 99.257C415.261 99.257 414.184 98.3389 414.184 96.3749V90.9582L411.397 91.655V96.4373C411.397 99.9523 413.202 101.949 417.13 101.949C420.614 101.949 422.483 100.967 423.338 100.492V97.5456H425.237H425.239H427.137C428.911 97.5456 430.178 97.4193 430.938 96.7537C431.666 97.3242 432.679 97.5456 433.725 97.5456H436.892H440.058H443.224H446.39H449.556H452.722H455.888H459.055H462.222H465.388H466.449H469.615H472.781H486.4C489.567 97.5456 491.087 97.1028 491.087 94.0305V91.1171C491.086 87.8235 489.407 85.9545 485.7 85.9545ZM488.266 93.7141C488.266 94.7912 487.95 94.9174 486.397 94.9174H479.365V90.199C481.139 89.3121 483.862 88.6792 485.32 88.6792C487.346 88.648 488.266 89.5661 488.266 91.4024V93.7141Z" fill="#1F2993"/>
<path d="M499.193 85.9233C495.329 85.9233 493.491 87.8235 493.491 91.3073V92.2567C493.491 95.6455 495.265 97.5456 499.065 97.5456H501.916V97.7997C501.916 99.8261 501.219 100.998 499.003 100.998H496.057V103.659H499.003C503.026 103.659 504.703 101.664 504.703 98.0537V87.1906C503.31 86.525 501.41 85.9233 499.193 85.9233ZM501.916 94.919H499.224C497.165 94.919 496.247 93.9058 496.247 92.068V91.5302C496.247 89.5974 497.229 88.648 499.35 88.648C500.649 88.648 501.6 88.9645 501.916 89.1546V94.919Z" fill="#1F2993"/>
<g style="mix-blend-mode:multiply">
<path d="M277.148 81.3157H277.152C277.715 81.6963 278.257 82.046 278.758 82.3741C278.929 82.4793 279.259 82.7021 279.259 82.7021C279.906 83.126 280.464 83.5066 280.886 83.847C282.405 85.0694 283.221 86.5176 282.75 89.5317C282.739 89.6369 282.726 89.7452 282.717 89.8504C282.518 91.2026 282.197 91.9793 280.675 93.2048C278.132 95.21 273.725 98.1622 269.903 100.105C268.478 100.827 266.523 100.331 265.673 99.3814C264.425 97.9301 264.289 95.9774 264.285 94.6684C264.313 93.4864 264.354 92.5642 264.394 91.8927C263.588 92.7097 261.804 94.031 259.044 95.863C258.848 95.9898 258.658 96.1136 258.468 96.2374C258.671 98.0043 258.857 99.6289 259.016 101.021C259.717 107.198 260.42 111.044 261.316 112.53C262.477 114.461 264.145 115.723 266.106 116.426C268.493 117.283 274.37 116.847 276.754 116.228C279.633 115.482 281.898 114.554 283.554 113.44C284.148 113.031 284.504 112.827 284.627 112.827C284.833 112.827 284.914 113.034 284.87 113.443C284.725 114.721 284.874 115.655 285.322 116.252C285.873 116.961 286.635 117.317 287.615 117.32C288.555 117.32 289.411 117.051 290.189 116.506C291.067 115.869 291.478 115.095 291.419 114.182C291.241 111.283 290.631 106.409 289.586 99.5609C289.144 96.8532 287.641 85.4624 286.716 78.3915C286.162 78.4317 283.339 78.6762 282.013 79.001C280.32 79.4158 278.496 79.3136 276.818 78.8495C275.356 78.444 274.042 77.6673 272.788 76.7607C273.423 77.6488 274.095 78.574 274.289 78.7968C275.125 79.7036 276.078 80.5452 277.148 81.3188M279.872 111.599L276.688 109.513L278.22 106.43L281.403 108.519L279.872 111.599ZM285.486 98.0043C285.608 98.7285 285.346 99.0626 284.758 99.2855C278.701 101.576 272.648 103.89 266.601 106.214C266.05 106.424 265.531 106.75 264.982 107.031C265.266 107.863 266.411 107.974 265.969 109.052H265.433C265.231 108.798 265.017 108.554 264.83 108.284C264.226 107.412 264.379 106.428 265.222 105.868C265.564 105.638 265.935 105.447 266.312 105.301C272.552 102.906 278.798 100.52 285.042 98.1343C285.182 98.0817 285.328 98.0508 285.49 98.0043" fill="#00917B"/>
<path d="M256.13 94.7364C255.058 85.2425 253.669 73.0533 253.168 68.6096C250.802 69.5936 248.574 71.079 246.19 72.3695C247.652 73.8857 248.951 75.2256 250.198 76.5161C249.181 78.577 248.406 80.4894 246.308 80.9876C245.978 81.0681 245.593 81.5198 245.462 81.8973C244.482 84.7412 242.636 85.6757 240.049 85.1311C239.779 85.0754 239.486 85.1496 239.082 85.1683C239.019 86.9599 238.96 88.6619 238.913 89.9802C239.965 90.5372 240.961 90.7476 241.518 91.416C242.67 92.7993 243.781 94.2227 244.88 95.6648C245.125 95.9866 246.249 97.3977 247.457 99.0007C249.682 98.0382 251.55 97.1748 253.041 96.4074C254.086 95.8752 255.113 95.312 256.125 94.7333M251.652 86.8485C251.596 87.0064 251.512 87.1549 251.447 87.3004C251.369 87.288 251.307 87.3004 251.269 87.2725C250.18 86.3999 249.885 86.5236 249.636 88.0492C249.399 89.4851 248.957 93.2728 248.78 93.7059C248.182 91.8771 247.422 90.0173 246.89 88.3865C246.078 88.7609 245.3 88.4855 244.983 87.8697C244.612 87.1549 245.069 86.6474 245.362 86.1245C245.636 85.6417 246.396 86.1863 246.598 86.3565C246.956 86.6567 247.31 87.2973 247.553 87.7243C248.07 88.6372 248.343 89.7202 248.77 90.8497C248.96 89.5996 249.119 88.4391 249.321 87.2911C249.411 86.7805 249.551 86.2699 249.735 85.7933C249.931 85.2889 250.227 84.8526 250.821 85.1404C251.46 85.4468 251.858 86.2822 251.652 86.8547" fill="#FF8B00"/>
<path d="M270.914 91.7721C270.914 92.7376 270.815 93.7278 270.619 94.7367C270.482 95.5072 270.298 96.2777 270.131 96.9028C270.162 96.8873 270.195 96.8718 270.23 96.8564C273.83 95.142 278.235 92.2022 280.781 90.1846C281.549 89.6029 281.967 89.2284 281.982 89.052C281.982 89.0242 281.982 88.9995 281.976 88.9716C281.789 88.1701 281.16 87.4677 280.317 86.7993C279.287 85.9607 278.172 85.2644 277.068 84.5434C277.068 84.5434 276.526 84.2 276.271 84.0143C275.86 83.7358 275.123 83.0921 275.123 83.0921C273.94 82.1266 271.655 79.4623 271.102 78.0481C271.092 77.9769 271.282 76.6153 271.404 75.7056C270.494 74.9876 269.598 74.2542 268.677 73.5981C269.079 76.2594 269.523 79.2735 270.015 82.6434C270.619 87.1799 270.921 90.2218 270.918 91.7691" fill="#3B5495"/>
<path d="M256.445 97.5062C254.404 98.7471 252.788 99.5826 251.606 100.01C251.571 100.022 250.572 100.211 248.618 100.57C249.657 102.012 250.569 103.383 250.818 104.085C251.562 106.17 252.661 107.204 254.406 108.108C256.392 109.138 257.722 110.729 258.643 112.66C258.142 110.977 257.746 108.962 257.46 106.601C257.32 105.314 256.934 101.867 256.442 97.5093" fill="#FFCE00"/>
<path d="M261.618 91.2861C264.192 89.5007 265.477 88.3804 265.477 87.9193C265.477 87.8234 264.91 86.5082 263.778 83.977C263.158 82.6154 262.209 80.0625 262.209 79.8891C262.209 79.6787 262.278 79.1588 262.414 78.3357C262.57 77.4135 262.698 76.9555 262.801 76.9555C262.854 76.9555 264.142 79.7004 264.267 80.18C264.189 79.883 264.711 81.4085 265.45 82.9434C266.1 84.305 266.426 85.4283 266.426 86.3102C266.426 88.2505 265.851 89.9927 264.702 91.5399C264.727 92.0629 264.743 92.7839 264.743 93.7153C264.743 95.2006 264.973 96.4384 265.655 97.0543C266.262 97.6237 267.13 97.732 268.051 97.5865L268.381 97.5247C268.795 97.4349 269.212 97.2925 269.62 97.1286C269.53 95.7949 269.377 93.7432 269.38 93.6101C269.025 89.5688 268.117 82.7856 266.66 73.2639C266.604 72.9111 266.544 72.5305 266.485 72.1282C264.88 71.0946 263.227 70.157 261.487 69.4391C259.629 68.6717 257.289 67.8176 255.191 68.0342C255.602 71.5588 257.042 83.8841 258.157 93.542C259.33 92.8211 260.489 92.0753 261.615 91.2893" fill="#FF4237"/>
<path d="M311.717 108.494C312.614 108.374 312.785 107.91 312.247 107.099C311.216 105.548 309.667 104.732 308.388 103.649C308.001 104.995 307.634 106.276 307.233 107.672C308.664 108.12 310.133 108.711 311.717 108.494Z" fill="#98C555"/>
<path d="M277.933 126.953C282.788 127.009 287.529 126 292.206 124.644C295.527 123.679 298.77 122.456 301.723 120.451C302.624 119.842 303.289 119.21 304.21 118.01C303.23 117.314 296.834 115.534 296.268 115.318C295.894 115.179 295.726 114.971 295.854 114.433C296.087 113.439 296.165 112.987 296.302 112.261C296.461 111.419 297.055 111.063 297.668 110.753C298.947 110.119 299.763 109.522 301.049 108.903C301.307 108.776 301.562 108.64 301.795 108.523C300.671 104.796 301.817 101.755 303.788 98.951C303.526 98.2207 303.619 97.5152 303.731 96.7972C303.703 96.7632 301.285 92.7837 300.062 90.8248C300.002 90.732 299.969 90.5588 300.006 90.4628C300.771 88.5102 299.514 87.7489 298.396 86.768C296.685 85.2702 294.855 83.8189 293.52 81.9529C292.539 80.579 291.808 79.8332 290.23 80.347C289.971 80.4336 289.529 80.3315 289.2 80.152C289.056 80.0777 288.938 79.9849 288.857 79.8859C289.738 85.9789 291.35 97.8834 291.957 101.789C292.661 106.309 293.022 109.562 293.037 111.549C293.053 113.99 292.545 116.089 291.521 117.843C290.395 119.78 288.842 120.742 286.862 120.74C285.005 120.733 283.968 119.223 283.75 116.212C282.38 117.258 280.205 118.246 277.223 119.17C276.791 119.307 276.367 119.433 275.947 119.551C273.183 120.328 266.927 120.705 264.217 119.468C262.885 118.861 261.5 118.032 260.671 116.976C260.273 116.469 259.906 115.86 259.57 115.154C259.772 115.853 259.943 116.583 260.089 117.329C260.688 120.371 261.503 123.413 264.326 124.771C264.488 124.849 264.659 124.92 264.833 124.988C264.895 125.01 264.954 125.034 265.017 125.056C265.807 125.332 266.557 125.697 267.229 126.164C267.974 126.291 268.72 126.396 269.473 126.48C272.277 126.789 275.103 126.919 277.923 126.95M294.17 87.1672C296.025 89.3023 296.495 91.8491 296.025 94.659C295.807 95.971 295.38 97.2398 295.166 98.5518C295.045 99.3037 295.057 100.127 295.207 100.87C295.281 101.248 295.789 101.513 296.103 101.832C296.321 101.501 296.567 101.185 296.751 100.829C296.865 100.603 296.887 100.316 297.009 99.805C297.329 101.16 297.217 102.231 296.688 103.187C296.174 104.115 295.107 103.868 294.665 102.779C294.148 101.51 294.354 100.217 294.597 98.9355C294.861 97.5276 295.185 96.1319 295.459 94.727C295.826 92.8332 295.266 91.2085 294.223 89.7511C293.407 88.6123 293.398 88.6216 294.173 87.1672" fill="#00B464"/>
<path d="M322.059 104.456C320.451 104.577 318.808 104.401 317.229 104.697C315.661 104.997 314.276 104.88 313.028 104.419C313.843 106.505 313.557 109.061 312.038 110.871C311.142 111.939 310.022 111.908 308.941 111.648C307.603 111.329 306.312 110.772 304.995 110.336C304.777 110.261 304.497 110.178 304.313 110.27C302.633 111.103 300.964 111.972 299.156 112.904C300.019 113.139 300.762 113.315 301.491 113.548C302.343 113.817 303.202 114.089 304.027 114.448C305.169 114.938 305.639 116.021 305.487 117.37C305.157 120.337 303.46 122.141 301.325 123.565C298.051 125.753 294.507 127.142 290.843 128.169L293.719 130.323L295.11 127.891L297.939 130.004C298.051 129.775 298.116 129.614 298.088 129.583C299.853 127.343 302.337 126.053 305.185 125.341C311.282 123.818 316.7 120.591 322.109 117.317C322.831 116.877 323.697 116.021 323.834 115.216C324.273 112.601 324.537 109.927 324.605 107.269C324.649 105.592 323.905 104.314 322.063 104.456" fill="#98C555"/>
<path d="M305.06 106.743C305.122 106.737 305.181 106.688 305.244 106.657C307.233 105.688 307.581 103.76 306.056 102.033C305.776 101.718 305.374 101.405 304.998 101.352C304.024 101.217 302.362 103.058 302.349 104.234C302.353 104.276 302.359 104.373 302.375 104.468C302.53 105.332 304.291 106.827 305.06 106.743Z" fill="#98C555"/>
<path d="M292.116 133.279L289.106 131.029L290.709 128.204C290.205 128.343 289.697 128.479 289.187 128.606C283 130.16 276.19 130.506 269.878 129.689C271.689 134.052 273.806 135.665 276.193 140C276.545 139.405 278.811 139.991 278.83 139.765L282.984 135.652C286.243 135.355 289.505 135.039 292.766 134.767C293.087 134.739 293.485 134.882 293.746 135.098C294.87 136.017 295.552 135.522 295.872 134.235C295.988 133.773 296.128 133.343 296.277 132.926L293.507 130.849L292.116 133.281V133.279Z" fill="#98C555"/>
<path d="M239.165 106.341H238.027V114.501H239.165V106.341Z" fill="#00917B"/>
<path d="M236.424 106.341H235.284V114.501H236.424V106.341Z" fill="#00917B"/>
<path d="M210.93 106.341H209.791V114.501H210.93V106.341Z" fill="#00917B"/>
<path d="M208.188 106.341H207.049V114.501H208.188V106.341Z" fill="#00917B"/>
<path d="M197.466 108.123H196.327V114.498H197.466V108.123Z" fill="#00917B"/>
<path d="M191.26 106.341H190.121V114.501H191.26V106.341Z" fill="#00917B"/>
<path d="M236.424 113.225H227.746V114.501H236.424V113.225Z" fill="#00917B"/>
<path d="M197.466 113.225H182.985V114.501H197.466V113.225Z" fill="#00917B"/>
<path d="M233.202 108.238H232.063V114.501H233.202V108.238Z" fill="#00917B"/>
<path d="M187.407 108.238H186.268V114.501H187.407V108.238Z" fill="#00917B"/>
<path d="M184.124 108.238H182.985V114.501H184.124V108.238Z" fill="#00917B"/>
<path d="M227.746 111.075H226.607V116.992H227.746V111.075Z" fill="#00917B"/>
<path d="M215.228 113.225H214.089V116.995H215.228V113.225Z" fill="#00917B"/>
<path d="M218.3 113.225H214.093V114.501H218.3V113.225Z" fill="#00917B"/>
<path d="M197.466 108.123H190.121V109.398H197.466V108.123Z" fill="#00917B"/>
<path d="M184.124 108.123H180.089V109.398H184.124V108.123Z" fill="#00917B"/>
<path d="M208.188 113.225H204.693V114.501H208.188V113.225Z" fill="#00917B"/>
<path d="M218.219 107.817C216.57 107.817 215.231 109.312 215.231 111.156C215.231 113 216.57 114.498 218.219 114.498C219.868 114.498 221.207 113.004 221.207 111.156C221.207 109.308 219.868 107.817 218.219 107.817ZM218.219 113.223C217.199 113.223 216.371 112.298 216.371 111.156C216.371 110.014 217.199 109.088 218.219 109.088C219.24 109.088 220.068 110.014 220.068 111.156C220.068 112.298 219.24 113.223 218.219 113.223Z" fill="#00917B"/>
<path d="M227.746 111.159C227.746 109.315 226.408 107.82 224.759 107.82C223.109 107.82 221.771 109.315 221.771 111.159C221.771 113.004 223.109 114.501 224.759 114.501H227.746V111.159ZM226.607 113.226H224.759C223.737 113.226 222.913 112.301 222.913 111.159C222.913 110.017 223.74 109.092 224.759 109.092C225.776 109.092 226.607 110.017 226.607 111.159V113.226Z" fill="#00917B"/>
<path d="M204.97 111.075H203.831V116.992H204.97V111.075Z" fill="#00917B"/>
<path d="M204.97 111.159C204.97 109.315 203.632 107.82 201.982 107.82C200.333 107.82 198.994 109.315 198.994 111.159C198.994 113.004 200.333 114.501 201.982 114.501H204.97V111.159ZM203.831 113.226H201.982C200.961 113.226 200.136 112.301 200.136 111.159C200.136 110.017 200.965 109.092 201.982 109.092C203 109.092 203.831 110.017 203.831 111.159V113.226Z" fill="#00917B"/>
<path d="M187.544 106.591C187.544 107.028 187.226 107.381 186.837 107.381C186.448 107.381 186.131 107.028 186.131 106.591C186.131 106.155 186.448 105.802 186.837 105.802C187.226 105.802 187.544 106.155 187.544 106.591Z" fill="#00917B"/>
<path d="M179.966 118.506C179.966 118.942 179.648 119.295 179.259 119.295C178.87 119.295 178.553 118.942 178.553 118.506C178.553 118.069 178.87 117.716 179.259 117.716C179.648 117.716 179.966 118.069 179.966 118.506Z" fill="#00917B"/>
<path d="M178.107 118.506C178.107 118.942 177.79 119.295 177.401 119.295C177.012 119.295 176.694 118.942 176.694 118.506C176.694 118.069 177.012 117.716 177.401 117.716C177.79 117.716 178.107 118.069 178.107 118.506Z" fill="#00917B"/>
<path d="M232.054 116.082C232.054 116.519 231.736 116.872 231.347 116.872C230.958 116.872 230.641 116.519 230.641 116.082C230.641 115.646 230.958 115.293 231.347 115.293C231.736 115.293 232.054 115.646 232.054 116.082Z" fill="#00917B"/>
<path d="M230.199 116.082C230.199 116.519 229.881 116.872 229.492 116.872C229.103 116.872 228.786 116.519 228.786 116.082C228.786 115.646 229.103 115.293 229.492 115.293C229.881 115.293 230.199 115.646 230.199 116.082Z" fill="#00917B"/>
<path d="M180.089 113.681C180.089 114.823 179.262 115.749 178.241 115.749C177.221 115.749 176.395 114.823 176.395 113.681V110.624H175.253V113.681C175.253 115.526 176.591 117.02 178.241 117.02C179.89 117.02 181.229 115.526 181.229 113.681V108.399H180.089V113.681Z" fill="#00917B"/>
<path d="M190.205 133.306C190.205 133.742 189.888 134.095 189.499 134.095C189.109 134.095 188.792 133.742 188.792 133.306C188.792 132.869 189.109 132.517 189.499 132.517C189.888 132.517 190.205 132.869 190.205 133.306Z" fill="#00917B"/>
<path d="M188.35 133.306C188.35 133.742 188.033 134.095 187.644 134.095C187.255 134.095 186.937 133.742 186.937 133.306C186.937 132.869 187.255 132.517 187.644 132.517C188.033 132.517 188.35 132.869 188.35 133.306Z" fill="#00917B"/>
<path d="M239.165 121.144H238.027V129.305H239.165V121.144Z" fill="#00917B"/>
<path d="M236.424 121.144H235.284V129.305H236.424V121.144Z" fill="#00917B"/>
<path d="M232.487 123.038H231.347V129.302H232.487V123.038Z" fill="#00917B"/>
<path d="M228.749 123.038H227.609V129.302H228.749V123.038Z" fill="#00917B"/>
<path d="M225.01 123.038H223.871V129.302H225.01V123.038Z" fill="#00917B"/>
<path d="M236.424 128.03H206.61V129.305H236.424V128.03Z" fill="#00917B"/>
<path d="M199.968 123.203H195.648V124.478H199.968V123.203Z" fill="#00917B"/>
<path d="M194.401 123.203H190.731V124.478H194.401V123.203Z" fill="#00917B"/>
<path d="M199.968 128.03H195.648V129.305H199.968V128.03Z" fill="#00917B"/>
<path d="M199.968 123.203H198.83V129.301H199.968V123.203Z" fill="#00917B"/>
<path d="M194.401 123.203H193.261V129.301H194.401V123.203Z" fill="#00917B"/>
<path d="M218.543 122.912C216.893 122.912 215.555 124.407 215.555 126.251V128.207H216.694V126.251C216.694 125.109 217.523 124.184 218.543 124.184H219.881V122.908H218.543V122.912Z" fill="#00917B"/>
<path d="M190.417 128.485C190.417 129.627 189.589 130.552 188.568 130.552C187.547 130.552 186.723 129.627 186.723 128.485V125.428H185.583V128.485C185.583 130.329 186.922 131.824 188.571 131.824C190.221 131.824 191.559 130.329 191.559 128.485V123.203H190.42V128.485H190.417Z" fill="#00917B"/>
<path d="M206.928 125.907H205.788V131.824H206.928V125.907Z" fill="#00917B"/>
<path d="M206.93 125.991C206.93 124.147 205.593 122.652 203.943 122.652C202.293 122.652 200.956 124.147 200.956 125.991C200.956 127.836 202.293 129.333 203.943 129.333H206.93V125.991ZM205.792 128.058H203.943C202.922 128.058 202.098 127.133 202.098 125.991C202.098 124.849 202.925 123.924 203.943 123.924C204.961 123.924 205.792 124.849 205.792 125.991V128.058Z" fill="#00917B"/>
<path d="M179.785 123.88H178.646V129.302H179.785V123.88Z" fill="#00BA70"/>
<path d="M179.788 123.679C179.788 122.28 178.774 121.144 177.523 121.144C176.271 121.144 175.257 122.28 175.257 123.679C175.257 125.078 176.271 126.214 177.523 126.214H179.788V123.679ZM178.649 124.939H177.523C176.9 124.939 176.395 124.375 176.395 123.679C176.395 122.983 176.9 122.42 177.523 122.42C178.144 122.42 178.649 122.983 178.649 123.679V124.939Z" fill="#00BA70"/>
<path d="M181.858 123.679H180.719V129.305H181.858V123.679Z" fill="#00BA70"/>
<path d="M184.291 121.144H182.985C181.733 121.144 180.719 122.28 180.719 123.679H181.858C181.858 122.983 182.362 122.42 182.985 122.42H184.291" fill="#00BA70"/>
</g>
<path d="M341.607 72H340.607V136H341.607V72Z" fill="#BEBEBE"/>
</g>
<defs>
<filter id="filter0_d_7281_3075" x="0" y="0.911621" width="552" height="170.088" filterUnits="userSpaceOnUse" color-interpolation-filters="sRGB">
<feFlood flood-opacity="0" result="BackgroundImageFix"/>
<feColorMatrix in="SourceAlpha" type="matrix" values="0 0 0 0 0 0 0 0 0 0 0 0 0 0 0 0 0 0 127 0" result="hardAlpha"/>
<feOffset dy="-8"/>
<feGaussianBlur stdDeviation="12"/>
<feComposite in2="hardAlpha" operator="out"/>
<feColorMatrix type="matrix" values="0 0 0 0 0 0 0 0 0 0 0 0 0 0 0 0 0 0 0.08 0"/>
<feBlend mode="normal" in2="BackgroundImageFix" result="effect1_dropShadow_7281_3075"/>
<feBlend mode="normal" in="SourceGraphic" in2="effect1_dropShadow_7281_3075" result="shape"/>
</filter>
<clipPath id="clip0_7281_3075">
<rect width="528" height="159" fill="white"/>
</clipPath>
</defs>
</svg>
