<svg width="528" height="159" viewBox="0 0 528 159" fill="none" xmlns="http://www.w3.org/2000/svg">
<g filter="url(#filter0_bd_3545_9596)">
<path d="M155 81C321 18.001 528 35 528 35V155L24 155C24 155 104 99 155 81Z" fill="white"/>
</g>
<g clip-path="url(#clip0_3545_9596)">
<path d="M475.295 80.6482C475.628 79.3287 476.148 78.0091 476.241 76.6763C476.481 73.4242 475.415 71.5449 472.442 70.1587C469.75 68.8925 467.084 69.1724 464.325 69.9455C460.167 71.105 456.328 72.9444 452.663 75.1569C451.277 75.9832 449.931 76.8762 448.585 77.7692C448.518 77.8092 448.518 78.1291 448.571 78.1558C449.051 78.3823 449.544 78.5689 450.024 78.7822C451.157 79.2887 452.343 79.7018 453.383 80.3416C455.155 81.4345 456.888 82.5941 458.528 83.8736C460.567 85.4597 462.18 87.4723 463.619 89.6182C464.179 90.4445 464.112 90.6578 463.086 90.7511C462.339 90.8177 461.58 90.6711 460.833 90.6445C460.1 90.6178 460.02 90.7111 460.354 91.3775C461.047 92.7637 461.14 94.2698 461.273 95.7759C461.486 98.2683 461.38 100.774 461.167 103.266C460.913 106.092 460.687 108.904 460.367 111.717C460.167 113.423 459.82 115.129 459.541 116.821C459.514 116.941 459.474 117.075 459.447 117.195C459.354 117.075 459.234 116.981 459.181 116.848C458.834 115.915 458.448 114.995 458.154 114.049C457.355 111.397 456.582 108.744 455.809 106.079C455.115 103.68 454.476 101.281 453.716 98.8947C453.316 97.6419 452.783 96.429 452.237 95.2294C452.103 94.9229 451.73 94.6297 451.41 94.5097C450.277 94.0832 449.144 93.9899 448.051 94.7096C447.158 95.2961 446.239 95.8292 445.346 96.389C444.919 96.6556 444.719 96.9355 445.172 97.3753C445.932 98.1217 445.506 99.028 445.399 99.8411C445.119 102.04 444.759 104.226 444.399 106.399C444.173 107.798 443.853 109.171 443.6 110.57C443.32 112.09 443.08 113.623 442.787 115.142C442.6 116.102 442.374 117.048 442.16 117.994C442.134 118.088 442.054 118.168 442 118.248C441.947 118.154 441.867 118.074 441.84 117.981C441.054 115.355 440.334 112.703 439.495 110.091C438.522 107.038 437.482 104 436.389 100.987C435.909 99.6545 435.203 98.3883 434.11 97.4419C432.63 96.1624 431.164 95.9492 429.538 97.0288C428.392 97.7885 427.419 98.8281 426.379 99.7478C426.086 100.001 426.166 100.214 426.459 100.441C428.392 101.974 429.658 103.973 430.538 106.252C431.657 109.158 432.844 112.05 433.937 114.969C434.696 116.968 435.323 119.021 436.056 121.033C436.682 122.779 437.175 124.552 438.095 126.205C439.455 128.644 442.32 129.097 444.346 127.577C444.733 127.284 445.079 126.938 445.452 126.631C446.039 126.151 446.359 125.645 445.932 124.858C445.772 124.565 445.812 124.112 445.892 123.752C446.385 121.393 446.945 119.047 447.438 116.688C447.971 114.156 448.478 111.61 449.011 109.078C449.091 108.704 449.264 108.345 449.398 107.985C449.531 108.305 449.677 108.624 449.797 108.944C450.877 111.89 451.943 114.849 453.05 117.781C453.716 119.567 454.422 121.34 455.209 123.072C455.515 123.752 456.022 124.379 456.568 124.912C457.155 125.472 457.941 125.605 458.754 125.378C459.74 125.098 460.713 124.832 461.7 124.552C461.806 124.525 461.94 124.552 462.06 124.552C462.006 124.645 461.953 124.739 461.886 124.818C459.754 127.058 457.541 129.204 454.862 130.776C451.41 132.789 447.745 134.162 443.733 134.748C440.401 135.228 437.149 135.015 433.87 134.535C433.15 134.428 432.457 134.175 431.737 134.042C431.471 133.988 431.098 134.042 430.884 134.188C428.272 136.041 425.406 137.374 422.328 138.227C419.889 138.893 417.383 139.2 414.877 138.893C411.745 138.507 409.359 136.907 408.133 133.882C406.933 130.923 406.733 127.884 407.426 124.765C407.72 123.472 407.866 122.139 408.2 120.873C408.639 119.181 409.093 117.475 409.759 115.862C410.745 113.449 411.825 111.064 413.011 108.758C414.677 105.506 416.676 102.44 418.996 99.6011C421.048 97.0954 423.141 94.6297 425.366 92.2839C427.206 90.3512 429.272 88.6052 431.258 86.8192C432.484 85.7263 433.763 84.7133 435.003 83.6337C435.15 83.5004 435.19 83.2339 435.269 83.0206C435.056 83.0073 434.803 82.9273 434.63 83.0073C432.897 83.807 431.111 84.5134 429.485 85.473C427.086 86.8859 424.7 88.352 422.474 90.018C419.742 92.0706 417.196 94.3631 415.064 97.0554C413.757 98.6948 412.545 100.414 411.278 102.107C411.198 102.214 411.038 102.267 410.919 102.347C410.919 102.24 410.892 102.134 410.919 102.027C411.465 99.6278 411.958 97.2287 412.971 94.9762C415.17 90.0314 418.329 85.8329 422.701 82.5808C424.687 81.1013 426.793 79.8485 429.085 78.9421C433.95 77.0095 438.961 76.3431 444.146 77.3827C444.413 77.436 444.786 77.3161 445.039 77.1561C446.958 75.8899 448.824 74.5304 450.77 73.3175C452.21 72.4245 453.729 71.6115 455.302 70.9584C457.755 69.9321 460.26 69.0391 462.766 68.1595C463.886 67.7596 465.072 67.4797 466.245 67.2798C468.071 66.9199 469.91 66.8666 471.749 67.4264C473.002 67.8129 474.202 68.2394 475.148 69.1458C477.214 71.1317 478 73.5708 477.321 76.3431C477.001 77.6359 476.361 78.8488 475.828 80.0884C475.735 80.315 475.468 80.4616 475.295 80.6482C475.295 80.6482 475.281 80.6348 475.295 80.6482ZM411.332 129.31C411.292 130.403 411.398 131.456 411.945 132.456C412.638 133.735 413.691 134.668 414.997 135.068C416.33 135.481 417.796 135.681 419.195 135.641C421.155 135.588 423.141 135.375 425.047 134.975C426.433 134.681 427.739 133.988 429.072 133.455C429.218 133.402 429.312 133.215 429.418 133.095C429.298 133.015 429.178 132.922 429.045 132.855C428.192 132.442 427.326 132.042 426.473 131.629C423.78 130.35 421.475 128.524 419.315 126.511C417.409 124.725 415.863 122.659 414.544 120.407C414.464 120.26 414.317 120.154 414.197 120.02C414.091 120.154 413.971 120.273 413.904 120.42C413.731 120.727 413.571 121.047 413.424 121.366C412.305 123.899 411.318 126.471 411.332 129.31Z" fill="#3060AA"/>
<path d="M467.751 98.3749C470.643 97.9884 473.122 96.9754 475.241 95.1361C476.308 94.2031 476.348 93.0036 476.161 91.724C475.774 89.1916 475.428 86.6459 475.028 84.1135C474.841 82.9273 475.241 81.981 476.054 81.1679C476.161 81.0613 476.294 80.9947 476.414 80.9014C476.494 81.048 476.614 81.1946 476.641 81.3545C476.787 82.7407 476.947 84.1268 477.041 85.513C477.161 87.1524 477.281 88.7918 477.907 90.3379C478.027 90.6178 478.16 90.911 478.334 91.1509C479.346 92.5637 479.68 92.6703 481.372 92.2305C481.652 92.1639 481.932 92.0706 482.212 92.0172C483.452 91.7907 484.398 91.1909 484.931 90.018C484.984 89.898 485.131 89.8181 485.238 89.7114C485.238 89.858 485.264 90.0047 485.224 90.1379C484.904 91.3242 484.904 91.3642 486.104 91.0576C487.17 90.791 488.223 90.4445 489.276 90.098C490.289 89.7514 490.876 88.9517 491.329 88.0321C491.395 87.8988 491.515 87.8055 491.609 87.6988C491.595 87.8588 491.609 88.0321 491.555 88.1653C491.395 88.5519 491.209 88.9251 491.009 89.3116C490.836 89.6581 490.929 89.8714 491.315 89.7781C491.982 89.6181 492.648 89.4315 493.275 89.165C493.475 89.085 493.595 88.7518 493.701 88.5252C494.474 86.8192 495.341 85.1665 496.753 83.9136C497.273 83.4471 497.98 83.1006 498.659 82.9273C499.566 82.6874 500.139 83.1939 499.979 84.1002C499.832 84.9532 499.526 85.8062 499.152 86.5793C498.353 88.272 497.02 89.4049 495.261 90.0846C494.048 90.5511 493.115 91.2842 492.981 92.7503C492.928 93.2834 492.688 93.8166 492.488 94.3364C492.435 94.483 492.222 94.563 492.088 94.6829C492.035 94.523 491.915 94.363 491.942 94.2164C492.088 93.55 492.275 92.8836 492.422 92.2172C492.582 91.5241 492.475 91.4441 491.769 91.5641C490.916 91.7107 490.049 91.7773 489.223 91.9639C488.45 92.1505 487.717 92.4837 486.957 92.7103C485.931 93.0036 484.904 93.47 483.878 93.4834C482.265 93.51 480.946 94.4697 479.413 94.563C479.013 94.5896 478.573 94.563 478.214 94.4297C477.64 94.2164 477.307 94.1898 476.974 94.8562C476.094 96.5756 474.602 97.7351 472.909 98.5615C471.429 99.2946 469.857 99.8677 468.297 100.414C467.258 100.774 466.191 100.654 465.218 100.054C464.472 99.5878 464.059 98.908 464.272 98.0284C464.699 96.2823 465.125 94.4697 466.764 93.4034C467.737 92.777 468.87 92.4038 469.923 91.8973C470.776 91.4841 471.616 91.0443 472.456 90.6178C472.549 90.5645 472.656 90.5378 472.749 90.5111C472.776 90.6578 472.856 90.8577 472.802 90.9377C472.322 91.6441 471.949 92.5104 471.296 92.9769C470.456 93.5767 469.377 93.8432 468.417 94.2698C467.644 94.6163 466.871 94.9495 466.138 95.3493C465.512 95.6959 465.258 96.269 465.392 96.9887C465.512 97.6285 465.938 97.975 466.565 98.1083C466.951 98.2016 467.404 98.2949 467.751 98.3749ZM498.153 85.1131C497.806 85.1931 497.526 85.2064 497.3 85.3264C496.047 85.9395 495.327 87.0591 494.661 88.2053C494.607 88.2986 494.647 88.4452 494.647 88.5652C494.781 88.5652 494.941 88.6185 495.021 88.5519C496.194 87.7388 497.366 86.9258 498.513 86.0728C498.659 85.9662 498.726 85.6063 498.659 85.4197C498.606 85.2731 498.299 85.2064 498.153 85.1131Z" fill="#3060AA"/>
<path d="M466.151 113.503C466.271 111.01 466.711 109.024 467.977 107.318C468.844 106.145 470.11 105.785 471.523 105.945C471.949 105.999 472.242 105.825 472.602 105.665C473.242 105.399 473.988 105.386 474.708 105.306C474.775 105.292 474.961 105.612 474.935 105.759C474.535 108.251 475.068 110.704 475.348 113.156C475.415 113.769 475.748 114.369 476.028 114.942C476.254 115.395 476.161 115.662 475.761 115.928C474.308 116.928 473.229 116.515 472.816 114.795C472.722 114.409 472.696 114.009 472.616 113.622C472.576 113.449 472.482 113.289 472.416 113.129C472.349 113.276 472.256 113.423 472.202 113.569C471.789 114.782 471.336 115.968 470.523 116.995C469.937 117.728 469.244 118.074 468.324 117.928C467.364 117.781 466.964 116.995 466.711 116.235C466.391 115.222 466.271 114.156 466.151 113.503ZM472.229 108.771C472.189 108.638 472.162 108.398 472.029 108.238C471.19 107.265 469.71 107.491 469.297 108.704C469.097 109.304 468.964 109.957 468.977 110.584C469.004 111.876 469.124 113.169 469.284 114.462C469.31 114.729 469.67 114.942 469.87 115.182C470.083 114.982 470.336 114.822 470.496 114.595C470.67 114.342 470.79 114.049 470.883 113.756C471.269 112.49 471.643 111.223 471.989 109.957C472.109 109.597 472.149 109.224 472.229 108.771Z" fill="#3060AA"/>
<path d="M488.263 112.969C486.757 112.969 485.877 112.303 485.384 110.797C484.398 107.771 485.438 104.066 487.89 102.04C488.783 101.294 489.836 100.92 491.022 100.947C491.769 100.974 492.288 101.294 492.542 102.013C492.981 103.293 492.862 104.506 492.088 105.612C491.235 106.838 490.103 107.691 488.65 108.078C488.237 108.184 488.05 108.438 488.13 108.864C488.183 109.171 488.21 109.477 488.303 109.784C488.61 110.823 489.436 111.263 490.476 110.957C491.502 110.65 492.208 109.904 492.901 109.144C493.008 109.024 493.248 108.838 493.288 108.864C493.448 108.984 493.621 109.171 493.675 109.357C493.848 110.024 493.488 110.544 493.048 110.943C491.675 112.17 490.129 112.956 488.263 112.969ZM487.837 105.519C487.823 106.812 487.89 106.918 488.45 106.758C489.876 106.358 490.622 105.079 490.222 103.666C490.103 103.253 490.063 102.746 489.449 102.733C488.836 102.72 488.423 103.066 488.263 103.626C488.05 104.373 487.917 105.132 487.837 105.519Z" fill="#3060AA"/>
<path d="M494.274 106.385C494.488 103.813 495.154 101.8 496.7 100.134C497.566 99.2012 498.686 98.7347 499.912 98.5215C500.898 98.3482 501.698 98.9213 501.951 99.8943C502.471 101.894 501.605 103.866 499.766 104.852C499.126 105.199 498.486 105.519 497.846 105.879C497.686 105.972 497.473 106.105 497.42 106.252C497.033 107.385 498.339 108.824 499.526 108.651C500.645 108.478 501.352 107.705 502.085 106.972C502.285 106.785 502.525 106.638 502.751 106.465C502.831 106.772 503.044 107.118 502.964 107.385C502.831 107.825 502.578 108.278 502.258 108.598C500.805 110.051 499.059 110.81 496.98 110.597C495.914 110.49 495.181 109.877 494.887 108.824C494.634 107.918 494.434 106.998 494.274 106.385ZM497.113 103.933C497.22 104.066 497.46 104.506 497.58 104.479C499.112 104.133 500.339 102.547 499.499 100.961C499.112 100.241 498.393 100.148 497.9 100.801C497.673 101.107 497.5 101.494 497.406 101.88C497.273 102.493 497.22 103.106 497.113 103.933Z" fill="#3060AA"/>
<path d="M481.412 112.356C481.492 111.757 481.186 111.343 480.693 111.05C480.12 110.704 479.546 110.384 478.947 110.09C476.867 109.078 476.374 106.732 477.894 104.959C479.013 103.653 480.519 103.186 482.159 103.12C483.132 103.08 483.492 103.813 482.998 104.652C482.945 104.746 482.852 104.826 482.812 104.932C482.625 105.466 482.412 105.545 481.946 105.132C481.172 104.453 479.84 104.626 479.466 105.399C479.133 106.105 479.48 106.945 480.266 107.318C481.013 107.665 481.759 107.985 482.505 108.331C483.585 108.838 484.158 110.85 483.745 112.036C482.799 114.675 479.933 115.635 477.934 115.408C477.374 115.342 477.054 115.035 477.001 114.462C476.947 113.782 477.321 112.783 477.734 112.729C477.947 112.703 478.24 112.929 478.427 113.103C479.147 113.782 479.973 113.956 480.733 113.543C481.186 113.289 481.479 112.929 481.412 112.356Z" fill="#3060AA"/>
<path d="M506.87 97.6151C507.016 100.281 507.136 102.96 507.349 105.626C507.389 106.119 507.709 106.612 507.963 107.065C508.176 107.438 508.096 107.678 507.763 107.905C507.723 107.931 507.683 107.958 507.656 107.971C507.016 108.305 506.376 108.824 505.617 108.411C504.83 107.985 504.764 107.198 504.724 106.399C504.55 103.24 504.364 100.081 504.164 96.9221C504.137 96.5355 504.071 96.109 503.884 95.7758C503.671 95.376 503.751 95.1494 504.124 94.9895C504.59 94.7762 505.044 94.5496 505.523 94.3897C506.203 94.1764 506.67 94.4563 506.763 95.1627C506.87 95.9758 506.883 96.7888 506.936 97.6018C506.91 97.6151 506.883 97.6151 506.87 97.6151Z" fill="#3060AA"/>
<path d="M502.338 83.9404C502.751 82.8874 503.231 81.6479 504.471 80.9415C504.67 80.8215 505.057 80.8349 505.27 80.9548C506.07 81.3813 507.043 83.0074 506.483 84.3002C505.777 85.913 504.964 87.4324 503.511 88.472C502.725 89.0318 501.832 89.4583 500.939 89.8449C499.179 90.5912 497.526 91.4709 496.34 93.0037C496.274 93.097 496.127 93.137 496.02 93.2036C495.98 93.0703 495.914 92.9237 495.914 92.7904C495.954 91.4976 496.687 90.5513 497.686 89.8982C498.819 89.1385 500.072 88.5387 501.272 87.8856C502.378 87.2858 503.498 86.726 504.59 86.0862C505.044 85.8197 505.337 85.3665 505.217 84.7934C505.177 84.5935 505.057 84.3669 504.91 84.2603C504.83 84.2069 504.577 84.3935 504.417 84.5002C504.164 84.6734 503.951 84.9134 503.671 85.0466C502.924 85.3798 502.325 84.9667 502.338 83.9404Z" fill="#3060AA"/>
<path d="M483.145 94.4833C483.772 94.4966 483.918 94.7498 483.625 95.323C483.492 95.5762 483.438 95.8961 483.252 96.096C482.998 96.3626 482.639 96.7358 482.332 96.7224C481.266 96.6958 480.426 97.2156 479.573 97.7087C479.44 97.7887 479.267 97.802 479.107 97.842C479.093 97.6821 479.013 97.4955 479.067 97.3489C479.6 95.8161 481.559 94.4433 483.145 94.4833Z" fill="#3060AA"/>
<path d="M475.281 80.6348C475.281 80.7014 475.295 80.768 475.268 80.8347C475.228 80.928 475.161 81.008 475.108 81.0879C475.121 80.9946 475.135 80.888 475.161 80.7947C475.188 80.7414 475.255 80.7014 475.281 80.6348C475.281 80.6348 475.295 80.6481 475.281 80.6348Z" fill="#3060AA"/>
</g>
<g clip-path="url(#clip1_3545_9596)">
<g style="mix-blend-mode:multiply">
<path d="M307.315 78.4065H307.319C307.938 78.8251 308.534 79.2097 309.085 79.5705C309.273 79.6862 309.636 79.9312 309.636 79.9312C310.348 80.3974 310.961 80.816 311.426 81.1904C313.096 82.5347 313.993 84.1274 313.476 87.4422C313.463 87.5579 313.449 87.677 313.439 87.7927C313.22 89.2799 312.867 90.1341 311.193 91.4818C308.397 93.6871 303.55 96.9338 299.347 99.071C297.779 99.864 295.629 99.3195 294.695 98.2747C293.322 96.6786 293.172 94.5311 293.168 93.0915C293.199 91.7915 293.244 90.7773 293.288 90.0388C292.402 90.9373 290.44 92.3905 287.404 94.4052C287.189 94.5447 286.98 94.6808 286.771 94.817C286.994 96.7602 287.199 98.5469 287.373 100.078C288.144 106.871 288.917 111.101 289.903 112.735C291.18 114.859 293.014 116.247 295.171 117.02C297.796 117.962 304.259 117.483 306.881 116.802C310.047 115.982 312.539 114.961 314.36 113.736C315.013 113.286 315.404 113.062 315.54 113.062C315.766 113.062 315.855 113.29 315.807 113.739C315.647 115.145 315.811 116.172 316.304 116.829C316.91 117.608 317.748 118 318.826 118.003C319.86 118.003 320.801 117.707 321.657 117.108C322.622 116.407 323.074 115.556 323.009 114.552C322.814 111.364 322.143 106.003 320.993 98.4721C320.507 95.4942 318.854 82.9669 317.837 75.1905C317.228 75.2347 314.123 75.5036 312.665 75.8609C310.803 76.317 308.797 76.2046 306.952 75.6942C305.344 75.2483 303.899 74.3941 302.52 73.397C303.218 74.3737 303.957 75.3913 304.17 75.6363C305.09 76.6335 306.138 77.5591 307.315 78.4099M310.31 111.711L306.809 109.417L308.493 106.027L311.994 108.324L310.31 111.711V111.711ZM316.485 96.7602C316.619 97.5566 316.331 97.9241 315.684 98.1692C309.023 100.688 302.366 103.233 295.715 105.789C295.109 106.02 294.538 106.378 293.935 106.687C294.247 107.603 295.506 107.725 295.02 108.91H294.431C294.209 108.631 293.973 108.362 293.767 108.066C293.103 107.106 293.271 106.024 294.199 105.408C294.575 105.156 294.983 104.945 295.397 104.785C302.26 102.151 309.129 99.5271 315.996 96.9032C316.15 96.8453 316.311 96.8113 316.489 96.7602" fill="#00917B"/>
<path d="M284.2 93.1662C283.02 82.725 281.493 69.3197 280.942 64.4326C278.34 65.5148 275.89 67.1484 273.268 68.5676C274.876 70.2351 276.304 71.7087 277.676 73.1279C276.557 75.3945 275.705 77.4977 273.398 78.0456C273.035 78.1341 272.611 78.6309 272.467 79.0461C271.389 82.1737 269.359 83.2015 266.514 82.6025C266.217 82.5413 265.895 82.6229 265.45 82.6434C265.381 84.6138 265.316 86.4856 265.265 87.9354C266.422 88.548 267.517 88.7794 268.13 89.5145C269.396 91.0358 270.618 92.6012 271.827 94.1872C272.097 94.5411 273.333 96.093 274.661 97.8559C277.108 96.7974 279.162 95.8479 280.802 95.0039C281.952 94.4186 283.081 93.7992 284.194 93.1628M279.275 84.4913C279.213 84.6649 279.121 84.8282 279.049 84.9882C278.963 84.9746 278.895 84.9882 278.854 84.9576C277.656 83.9979 277.331 84.134 277.057 85.8118C276.797 87.3909 276.311 91.5565 276.116 92.0329C275.458 90.0216 274.623 87.9762 274.038 86.1827C273.145 86.5945 272.289 86.2916 271.94 85.6144C271.532 84.8282 272.035 84.2701 272.357 83.695C272.658 83.1641 273.494 83.763 273.716 83.9502C274.11 84.2803 274.5 84.9848 274.767 85.4544C275.335 86.4584 275.636 87.6495 276.105 88.8917C276.314 87.5168 276.489 86.2406 276.711 84.978C276.81 84.4165 276.964 83.8549 277.166 83.3308C277.382 82.7761 277.707 82.2962 278.361 82.6127C279.063 82.9497 279.501 83.8685 279.275 84.4981" fill="#FF8B00"/>
<path d="M300.459 89.9062C300.459 90.968 300.35 92.057 300.134 93.1665C299.983 94.0139 299.781 94.8613 299.597 95.5488C299.631 95.5317 299.668 95.5147 299.706 95.4977C303.666 93.6123 308.51 90.3792 311.31 88.1603C312.155 87.5205 312.614 87.1087 312.631 86.9147C312.631 86.8841 312.631 86.8569 312.624 86.8262C312.419 85.9448 311.727 85.1723 310.8 84.4372C309.667 83.5149 308.441 82.7492 307.226 81.9562C307.226 81.9562 306.631 81.5785 306.35 81.3743C305.898 81.068 305.087 80.3601 305.087 80.3601C303.786 79.2983 301.274 76.3681 300.665 74.8128C300.654 74.7345 300.863 73.2371 300.997 72.2366C299.997 71.447 299.011 70.6404 297.998 69.9189C298.44 72.8457 298.929 76.1605 299.47 79.8666C300.134 84.8558 300.466 88.2012 300.463 89.9028" fill="#3B5495"/>
<path d="M284.546 96.2124C282.301 97.5771 280.524 98.496 279.224 98.9656C279.186 98.9792 278.087 99.1868 275.938 99.5816C277.081 101.168 278.084 102.675 278.358 103.448C279.176 105.741 280.384 106.878 282.304 107.872C284.488 109.005 285.95 110.754 286.963 112.878C286.412 111.027 285.977 108.811 285.662 106.215C285.508 104.799 285.084 101.008 284.543 96.2158" fill="#FFCE00"/>
<path d="M290.235 89.3717C293.066 87.4081 294.479 86.1761 294.479 85.669C294.479 85.5635 293.856 84.1171 292.611 81.3333C291.929 79.8359 290.885 77.0282 290.885 76.8376C290.885 76.6062 290.961 76.0344 291.111 75.1292C291.282 74.115 291.423 73.6113 291.536 73.6113C291.594 73.6113 293.011 76.63 293.148 77.1575C293.062 76.8308 293.637 78.5086 294.449 80.1966C295.164 81.694 295.523 82.9294 295.523 83.8993C295.523 86.0332 294.89 87.9492 293.627 89.6508C293.654 90.226 293.672 91.0189 293.672 92.0433C293.672 93.6768 293.925 95.0381 294.675 95.7154C295.342 96.3416 296.297 96.4607 297.31 96.3007L297.673 96.2327C298.128 96.134 298.587 95.9774 299.035 95.7971C298.936 94.3303 298.768 92.0739 298.772 91.9276C298.381 87.483 297.382 80.023 295.78 69.5513C295.718 69.1633 295.653 68.7447 295.588 68.3023C293.822 67.1656 292.005 66.1344 290.091 65.3449C288.048 64.5009 285.474 63.5616 283.167 63.7998C283.619 67.6761 285.203 81.2312 286.429 91.8527C287.719 91.0598 288.993 90.2396 290.232 89.3752" fill="#FF4237"/>
<path d="M345.333 108.297C346.319 108.165 346.507 107.654 345.915 106.762C344.782 105.057 343.078 104.159 341.671 102.968C341.246 104.448 340.842 105.857 340.401 107.392C341.975 107.885 343.591 108.535 345.333 108.297" fill="#98C555"/>
<path d="M308.178 128.597C313.517 128.659 318.731 127.549 323.875 126.058C327.527 124.997 331.094 123.652 334.342 121.447C335.332 120.777 336.064 120.082 337.077 118.762C335.999 117.996 328.965 116.039 328.342 115.801C327.931 115.648 327.746 115.42 327.887 114.828C328.143 113.735 328.229 113.238 328.38 112.439C328.554 111.513 329.208 111.122 329.882 110.781C331.289 110.084 332.186 109.427 333.6 108.746C333.884 108.607 334.164 108.457 334.421 108.328C333.185 104.23 334.445 100.885 336.612 97.8014C336.324 96.9982 336.427 96.2223 336.55 95.4327C336.519 95.3953 333.86 91.0187 332.515 88.8644C332.449 88.7623 332.412 88.5718 332.453 88.4663C333.295 86.3188 331.912 85.4816 330.683 84.4028C328.801 82.7556 326.788 81.1595 325.32 79.1073C324.241 77.5963 323.437 76.7761 321.702 77.3411C321.417 77.4364 320.931 77.3241 320.569 77.1267C320.411 77.045 320.281 76.9429 320.192 76.834C321.161 83.535 322.934 96.6272 323.601 100.922C324.375 105.894 324.772 109.471 324.789 111.656C324.806 114.341 324.248 116.649 323.122 118.578C321.883 120.709 320.175 121.767 317.998 121.764C315.955 121.757 314.815 120.096 314.575 116.785C313.069 117.935 310.676 119.021 307.397 120.038C306.922 120.188 306.456 120.327 305.994 120.457C302.954 121.311 296.074 121.726 293.093 120.365C291.628 119.698 290.105 118.786 289.194 117.625C288.756 117.067 288.352 116.397 287.983 115.621C288.205 116.39 288.393 117.193 288.554 118.013C289.212 121.359 290.108 124.704 293.213 126.198C293.391 126.283 293.579 126.361 293.771 126.436C293.839 126.46 293.904 126.487 293.973 126.511C294.842 126.814 295.667 127.216 296.406 127.729C297.225 127.869 298.046 127.985 298.874 128.077C301.958 128.417 305.066 128.56 308.167 128.594M326.035 84.8418C328.075 87.19 328.592 89.9909 328.075 93.0811C327.835 94.524 327.366 95.9194 327.13 97.3623C326.997 98.1893 327.01 99.0946 327.175 99.9114C327.257 100.327 327.815 100.619 328.161 100.97C328.4 100.606 328.671 100.258 328.873 99.8671C328.999 99.6187 329.023 99.3022 329.157 98.7406C329.509 100.231 329.386 101.409 328.804 102.46C328.239 103.481 327.065 103.209 326.579 102.011C326.011 100.616 326.237 99.1933 326.504 97.7843C326.795 96.2359 327.151 94.701 327.452 93.1559C327.856 91.0731 327.24 89.2864 326.093 87.6835C325.196 86.4311 325.186 86.4413 326.038 84.8418" fill="#00B464"/>
<path d="M356.707 103.856C354.938 103.989 353.131 103.795 351.395 104.121C349.67 104.451 348.147 104.322 346.774 103.815C347.671 106.109 347.356 108.92 345.686 110.911C344.7 112.085 343.468 112.051 342.28 111.765C340.808 111.414 339.388 110.802 337.94 110.322C337.7 110.24 337.392 110.148 337.19 110.25C335.342 111.166 333.507 112.122 331.518 113.147C332.467 113.405 333.285 113.599 334.086 113.855C335.023 114.151 335.968 114.45 336.875 114.845C338.131 115.383 338.648 116.574 338.481 118.058C338.118 121.321 336.252 123.305 333.904 124.871C330.303 127.277 326.405 128.805 322.376 129.935L325.539 132.303L327.069 129.629L330.18 131.953C330.303 131.701 330.375 131.524 330.344 131.49C332.285 129.026 335.017 127.607 338.149 126.824C344.854 125.15 350.813 121.6 356.762 118C357.556 117.516 358.508 116.574 358.659 115.689C359.141 112.813 359.432 109.873 359.507 106.949C359.555 105.105 358.737 103.699 356.711 103.856" fill="#98C555"/>
<path d="M338.012 106.371C338.08 106.364 338.145 106.31 338.214 106.276C340.401 105.21 340.784 103.09 339.107 101.191C338.799 100.844 338.357 100.5 337.943 100.442C336.872 100.293 335.044 102.318 335.03 103.611C335.034 103.658 335.041 103.764 335.058 103.869C335.229 104.819 337.166 106.463 338.012 106.371Z" fill="#98C555"/>
<path d="M323.776 135.554L320.466 133.08L322.229 129.973C321.674 130.126 321.116 130.276 320.555 130.415C313.75 132.124 306.261 132.505 299.319 131.606C301.311 136.405 303.639 138.178 306.264 142.946C306.651 142.292 309.143 142.936 309.164 142.687L313.733 138.164C317.317 137.838 320.904 137.49 324.491 137.191C324.844 137.16 325.282 137.317 325.569 137.555C326.805 138.566 327.555 138.021 327.907 136.606C328.034 136.098 328.188 135.625 328.352 135.166L325.306 132.882L323.776 135.557V135.554Z" fill="#98C555"/>
<path d="M265.542 105.929H264.29V114.903H265.542V105.929Z" fill="#00917B"/>
<path d="M262.527 105.929H261.274V114.903H262.527V105.929Z" fill="#00917B"/>
<path d="M234.49 105.929H233.237V114.903H234.49V105.929Z" fill="#00917B"/>
<path d="M231.474 105.929H230.221V114.903H231.474V105.929Z" fill="#00917B"/>
<path d="M219.682 107.889H218.43V114.899H219.682V107.889Z" fill="#00917B"/>
<path d="M212.857 105.929H211.604V114.903H212.857V105.929Z" fill="#00917B"/>
<path d="M262.527 113.5H252.984V114.903H262.527V113.5Z" fill="#00917B"/>
<path d="M219.682 113.5H203.756V114.903H219.682V113.5Z" fill="#00917B"/>
<path d="M258.984 108.015H257.731V114.903H258.984V108.015Z" fill="#00917B"/>
<path d="M208.62 108.015H207.367V114.903H208.62V108.015Z" fill="#00917B"/>
<path d="M205.009 108.015H203.756V114.903H205.009V108.015Z" fill="#00917B"/>
<path d="M252.984 111.135H251.731V117.642H252.984V111.135Z" fill="#00917B"/>
<path d="M239.217 113.5H237.964V117.646H239.217V113.5Z" fill="#00917B"/>
<path d="M242.595 113.5H237.968V114.903H242.595V113.5Z" fill="#00917B"/>
<path d="M219.682 107.889H211.604V109.291H219.682V107.889Z" fill="#00917B"/>
<path d="M205.009 107.889H200.572V109.291H205.009V107.889Z" fill="#00917B"/>
<path d="M231.474 113.5H227.63V114.903H231.474V113.5Z" fill="#00917B"/>
<path d="M242.506 107.552C240.692 107.552 239.22 109.196 239.22 111.224C239.22 113.252 240.692 114.899 242.506 114.899C244.32 114.899 245.792 113.256 245.792 111.224C245.792 109.192 244.32 107.552 242.506 107.552ZM242.506 113.497C241.384 113.497 240.473 112.48 240.473 111.224C240.473 109.968 241.384 108.95 242.506 108.95C243.629 108.95 244.539 109.968 244.539 111.224C244.539 112.48 243.629 113.497 242.506 113.497Z" fill="#00917B"/>
<path d="M252.984 111.227C252.984 109.199 251.512 107.555 249.698 107.555C247.884 107.555 246.412 109.199 246.412 111.227C246.412 113.256 247.884 114.903 249.698 114.903H252.984V111.227ZM251.731 113.501H249.698C248.575 113.501 247.668 112.483 247.668 111.227C247.668 109.971 248.578 108.954 249.698 108.954C250.817 108.954 251.731 109.971 251.731 111.227V113.501Z" fill="#00917B"/>
<path d="M227.935 111.135H226.682V117.642H227.935V111.135Z" fill="#00917B"/>
<path d="M227.935 111.227C227.935 109.199 226.463 107.555 224.649 107.555C222.835 107.555 221.363 109.199 221.363 111.227C221.363 113.256 222.835 114.903 224.649 114.903H227.935V111.227ZM226.682 113.501H224.649C223.526 113.501 222.619 112.483 222.619 111.227C222.619 109.971 223.53 108.954 224.649 108.954C225.768 108.954 226.682 109.971 226.682 111.227V113.501Z" fill="#00917B"/>
<path d="M208.77 106.204C208.77 106.684 208.421 107.072 207.993 107.072C207.565 107.072 207.216 106.684 207.216 106.204C207.216 105.724 207.565 105.336 207.993 105.336C208.421 105.336 208.77 105.724 208.77 106.204Z" fill="#00917B"/>
<path d="M200.436 119.307C200.436 119.787 200.086 120.175 199.659 120.175C199.231 120.175 198.882 119.787 198.882 119.307C198.882 118.827 199.231 118.439 199.659 118.439C200.086 118.439 200.436 118.827 200.436 119.307Z" fill="#00917B"/>
<path d="M198.392 119.307C198.392 119.787 198.043 120.175 197.615 120.175C197.187 120.175 196.838 119.787 196.838 119.307C196.838 118.827 197.187 118.439 197.615 118.439C198.043 118.439 198.392 118.827 198.392 119.307Z" fill="#00917B"/>
<path d="M257.721 116.642C257.721 117.122 257.372 117.51 256.944 117.51C256.516 117.51 256.167 117.122 256.167 116.642C256.167 116.162 256.516 115.774 256.944 115.774C257.372 115.774 257.721 116.162 257.721 116.642Z" fill="#00917B"/>
<path d="M255.681 116.642C255.681 117.122 255.332 117.51 254.904 117.51C254.476 117.51 254.127 117.122 254.127 116.642C254.127 116.162 254.476 115.774 254.904 115.774C255.332 115.774 255.681 116.162 255.681 116.642Z" fill="#00917B"/>
<path d="M200.572 114.001C200.572 115.257 199.662 116.275 198.539 116.275C197.417 116.275 196.509 115.257 196.509 114.001V110.639H195.253V114.001C195.253 116.03 196.725 117.673 198.539 117.673C200.353 117.673 201.825 116.03 201.825 114.001V108.192H200.572V114.001V114.001Z" fill="#00917B"/>
<path d="M211.697 135.584C211.697 136.064 211.348 136.452 210.92 136.452C210.492 136.452 210.143 136.064 210.143 135.584C210.143 135.104 210.492 134.716 210.92 134.716C211.348 134.716 211.697 135.104 211.697 135.584Z" fill="#00917B"/>
<path d="M209.657 135.584C209.657 136.064 209.308 136.452 208.88 136.452C208.452 136.452 208.103 136.064 208.103 135.584C208.103 135.104 208.452 134.716 208.88 134.716C209.308 134.716 209.657 135.104 209.657 135.584Z" fill="#00917B"/>
<path d="M265.542 122.209H264.29V131.184H265.542V122.209Z" fill="#00917B"/>
<path d="M262.527 122.209H261.274V131.184H262.527V122.209Z" fill="#00917B"/>
<path d="M258.197 124.292H256.944V131.181H258.197V124.292Z" fill="#00917B"/>
<path d="M254.086 124.292H252.833V131.181H254.086V124.292Z" fill="#00917B"/>
<path d="M249.975 124.292H248.722V131.181H249.975V124.292Z" fill="#00917B"/>
<path d="M262.527 129.782H229.739V131.184H262.527V129.782Z" fill="#00917B"/>
<path d="M222.434 124.473H217.683V125.875H222.434V124.473Z" fill="#00917B"/>
<path d="M216.311 124.473H212.275V125.875H216.311V124.473Z" fill="#00917B"/>
<path d="M222.434 129.782H217.683V131.184H222.434V129.782Z" fill="#00917B"/>
<path d="M222.434 124.473H221.182V131.18H222.434V124.473Z" fill="#00917B"/>
<path d="M216.311 124.473H215.058V131.18H216.311V124.473Z" fill="#00917B"/>
<path d="M242.862 124.153C241.048 124.153 239.576 125.797 239.576 127.825V129.976H240.829V127.825C240.829 126.569 241.74 125.552 242.862 125.552H244.334V124.149H242.862V124.153Z" fill="#00917B"/>
<path d="M211.93 130.282C211.93 131.538 211.019 132.555 209.896 132.555C208.774 132.555 207.867 131.538 207.867 130.282V126.92H206.614V130.282C206.614 132.31 208.086 133.954 209.9 133.954C211.714 133.954 213.186 132.31 213.186 130.282V124.473H211.933V130.282H211.93Z" fill="#00917B"/>
<path d="M230.088 127.447H228.835V133.954H230.088V127.447Z" fill="#00917B"/>
<path d="M230.091 127.539C230.091 125.511 228.62 123.867 226.806 123.867C224.991 123.867 223.52 125.511 223.52 127.539C223.52 129.568 224.991 131.215 226.806 131.215H230.091V127.539ZM228.839 129.813H226.806C225.683 129.813 224.776 128.795 224.776 127.539C224.776 126.283 225.686 125.266 226.806 125.266C227.925 125.266 228.839 126.283 228.839 127.539V129.813V129.813Z" fill="#00917B"/>
<path d="M200.237 125.218H198.984V131.181H200.237V125.218Z" fill="#00BA70"/>
<path d="M200.24 124.997C200.24 123.458 199.125 122.209 197.749 122.209C196.373 122.209 195.257 123.458 195.257 124.997C195.257 126.535 196.373 127.784 197.749 127.784H200.24V124.997V124.997ZM198.988 126.382H197.749C197.064 126.382 196.509 125.762 196.509 124.997C196.509 124.231 197.064 123.612 197.749 123.612C198.433 123.612 198.988 124.231 198.988 124.997V126.382V126.382Z" fill="#00BA70"/>
<path d="M202.517 124.997H201.264V131.184H202.517V124.997Z" fill="#00BA70"/>
<path d="M205.193 122.209H203.756C202.38 122.209 201.264 123.458 201.264 124.997H202.517C202.517 124.231 203.071 123.612 203.756 123.612H205.193" fill="#00BA70"/>
</g>
</g>
<rect x="384" y="71" width="1" height="64" fill="#BEBEBE"/>
<defs>
<filter id="filter0_bd_3545_9596" x="0" y="0.911621" width="552" height="170.088" filterUnits="userSpaceOnUse" color-interpolation-filters="sRGB">
<feFlood flood-opacity="0" result="BackgroundImageFix"/>
<feGaussianBlur in="BackgroundImage" stdDeviation="8"/>
<feComposite in2="SourceAlpha" operator="in" result="effect1_backgroundBlur_3545_9596"/>
<feColorMatrix in="SourceAlpha" type="matrix" values="0 0 0 0 0 0 0 0 0 0 0 0 0 0 0 0 0 0 127 0" result="hardAlpha"/>
<feOffset dy="-8"/>
<feGaussianBlur stdDeviation="12"/>
<feComposite in2="hardAlpha" operator="out"/>
<feColorMatrix type="matrix" values="0 0 0 0 0 0 0 0 0 0 0 0 0 0 0 0 0 0 0.08 0"/>
<feBlend mode="normal" in2="effect1_backgroundBlur_3545_9596" result="effect2_dropShadow_3545_9596"/>
<feBlend mode="normal" in="SourceGraphic" in2="effect2_dropShadow_3545_9596" result="shape"/>
</filter>
<clipPath id="clip0_3545_9596">
<rect width="101.069" height="72" fill="white" transform="translate(407 67)"/>
</clipPath>
<clipPath id="clip1_3545_9596">
<rect width="164.651" height="80" fill="white" transform="translate(195 63)"/>
</clipPath>
</defs>
</svg>
