<svg id="Component_86_1" data-name="Component 86 – 1" xmlns="http://www.w3.org/2000/svg" width="18" height="22" viewBox="0 0 18 22">
  <defs>
    <style>
      .cls-1 {
        fill: #707070;
      }

      .cls-2, .cls-4 {
        fill: none;
      }

      .cls-2 {
        stroke: #707070;
      }

      .cls-3 {
        stroke: none;
      }
    </style>
  </defs>
  <g id="Group_605" data-name="Group 605" transform="translate(-12 -230)">
    <path id="Subtraction_1" data-name="Subtraction 1" class="cls-1" d="M3.947,8a1,1,0,0,1-.994-1H.466a.479.479,0,0,1-.448-.35A.54.54,0,0,1,.167,6.1a2.007,2.007,0,0,0,.8-1.6V3A2.985,2.985,0,1,1,6.932,3V4.5a2.007,2.007,0,0,0,.8,1.6.514.514,0,0,1-.3.9H4.943A1,1,0,0,1,3.947,8Zm0-7.111A2.21,2.21,0,0,0,1.812,3.16V4.3a1.551,1.551,0,0,1-.571,1.211.424.424,0,0,0-.106.416.346.346,0,0,0,.32.265H3.238a.772.772,0,0,0,.223.549.688.688,0,0,0,.49.208.737.737,0,0,0,.713-.757H6.446a.348.348,0,0,0,.321-.265.379.379,0,0,0-.107-.416A1.552,1.552,0,0,1,6.09,4.3V3.16A2.21,2.21,0,0,0,3.951.889Z" transform="translate(17 238)"/>
    <circle id="Ellipse_347" data-name="Ellipse 347" class="cls-1" cx="2" cy="2" r="2" transform="translate(21 237)"/>
  </g>
  <g id="Rectangle_2361" data-name="Rectangle 2361" class="cls-2">
    <rect class="cls-3" width="18" height="22" rx="3"/>
    <rect class="cls-4" x="0.5" y="0.5" width="17" height="21" rx="2.5"/>
  </g>
</svg>
