<svg xmlns="http://www.w3.org/2000/svg" width="25" height="25" viewBox="0 0 25 25">
  <g id="Group_1397" data-name="Group 1397" transform="translate(-33 -538)">
    <rect id="Rectangle_1475" data-name="Rectangle 1475" width="25" height="25" transform="translate(33 538)" fill="#fff" opacity="0"/>
    <g id="Rectangle_1865" data-name="Rectangle 1865" transform="translate(37 540)" fill="#f5f6f7" stroke="#707070" stroke-width="1">
      <rect width="18" height="22" rx="3" stroke="none"/>
      <rect x="0.5" y="0.5" width="17" height="21" rx="2.5" fill="none"/>
    </g>
    <line id="Line_59" data-name="Line 59" x2="11.824" transform="translate(40 544.5)" fill="none" stroke="#707070" stroke-linecap="round" stroke-width="1"/>
    <line id="Line_60" data-name="Line 60" x2="11.824" transform="translate(40 547.5)" fill="none" stroke="#707070" stroke-linecap="round" stroke-width="1"/>
    <path id="Path_313" data-name="Path 313" d="M0,0H11.824" transform="translate(40 550.5)" fill="none" stroke="#707070" stroke-linecap="round" stroke-width="1"/>
    <line id="Line_62" data-name="Line 62" x2="6.947" transform="translate(40 554.5)" fill="none" stroke="#707070" stroke-linecap="round" stroke-width="1"/>
    <g id="Rectangle_1865-2" data-name="Rectangle 1865" transform="translate(35 538)" fill="#f5f6f7" stroke="#707070" stroke-width="1">
      <rect width="18" height="22" rx="3" stroke="none"/>
      <rect x="0.5" y="0.5" width="17" height="21" rx="2.5" fill="none"/>
    </g>
    <g id="Icon_feather-dollar-sign" data-name="Icon feather-dollar-sign" transform="translate(32.513 542.44)">
      <path id="Path_523" data-name="Path 523" d="M18,1.5v9.962" transform="translate(-6.283 0)" fill="none" stroke="#707070" stroke-linecap="round" stroke-linejoin="round" stroke-width="1"/>
      <path id="Path_524" data-name="Path 524" d="M13.981,7.5h-3.4a1.585,1.585,0,0,0,0,3.17h2.264a1.585,1.585,0,1,1,0,3.17H9" transform="translate(0 -4.189)" fill="none" stroke="#707070" stroke-linecap="round" stroke-linejoin="round" stroke-width="1"/>
    </g>
  </g>
</svg>
