<svg width="100%" height="100%" viewBox="0 0 24 24" fill="none" xmlns="http://www.w3.org/2000/svg">
	<path d="M9.9 19.0008C8.28333 19.0008 6.89583 18.4758 5.7375 17.4258C4.57917 16.3758 4 15.0674 4 13.5008C4 11.9341 4.57917 10.6258 5.7375 9.57578C6.89583 8.52578 8.28333 8.00078 9.9 8.00078H16.2L14.3 6.10078C14.1167 5.91745 14.025 5.68411 14.025 5.40078C14.025 5.11745 14.1167 4.88411 14.3 4.70078C14.4833 4.51745 14.7167 4.42578 15 4.42578C15.2833 4.42578 15.5167 4.51745 15.7 4.70078L19.3 8.30078C19.4 8.40078 19.4708 8.50911 19.5125 8.62578C19.5542 8.74245 19.575 8.86745 19.575 9.00078C19.575 9.13411 19.5542 9.25911 19.5125 9.37578C19.4708 9.49245 19.4 9.60078 19.3 9.70078L15.7 13.3008C15.5167 13.4841 15.2833 13.5758 15 13.5758C14.7167 13.5758 14.4833 13.4841 14.3 13.3008C14.1167 13.1174 14.025 12.8841 14.025 12.6008C14.025 12.3174 14.1167 12.0841 14.3 11.9008L16.2 10.0008H9.9C8.85 10.0008 7.9375 10.3341 7.1625 11.0008C6.3875 11.6674 6 12.5008 6 13.5008C6 14.5008 6.3875 15.3341 7.1625 16.0008C7.9375 16.6674 8.85 17.0008 9.9 17.0008H16C16.2833 17.0008 16.5208 17.0966 16.7125 17.2883C16.9042 17.4799 17 17.7174 17 18.0008C17 18.2841 16.9042 18.5216 16.7125 18.7133C16.5208 18.9049 16.2833 19.0008 16 19.0008H9.9Z" fill="#3060AA" />
</svg>
