<svg id="Component_85_1" data-name="Component 85 – 1" xmlns="http://www.w3.org/2000/svg" width="20" height="24" viewBox="0 0 20 24">
  <defs>
    <style>
      .cls-1, .cls-2, .cls-4 {
        fill: none;
      }

      .cls-1, .cls-2 {
        stroke: #707070;
      }

      .cls-2 {
        stroke-linecap: round;
      }

      .cls-3 {
        stroke: none;
      }
    </style>
  </defs>
  <path id="Subtraction_4" data-name="Subtraction 4" class="cls-1" d="M17,23.5H5a2.5,2.5,0,0,1-2.458-2.042A2.525,2.525,0,0,0,3,21.5H15A2.5,2.5,0,0,0,17.5,19V3a2.522,2.522,0,0,0-.042-.458A2.5,2.5,0,0,1,19.5,5V21A2.5,2.5,0,0,1,17,23.5Z"/>
  <g id="Group_361" data-name="Group 361" transform="translate(-223.449 -130.149)">
    <g id="Rectangle_1865" data-name="Rectangle 1865" class="cls-1" transform="translate(223.449 130.149)">
      <rect class="cls-3" width="18" height="22" rx="3"/>
      <rect class="cls-4" x="0.5" y="0.5" width="17" height="21" rx="2.5"/>
    </g>
    <line id="Line_59" data-name="Line 59" class="cls-2" x2="11.824" transform="translate(226.449 134.649)"/>
    <line id="Line_60" data-name="Line 60" class="cls-2" x2="11.824" transform="translate(226.449 137.649)"/>
    <path id="Path_313" data-name="Path 313" class="cls-2" d="M0,0H11.824" transform="translate(226.449 140.649)"/>
    <line id="Line_62" data-name="Line 62" class="cls-2" x2="6.947" transform="translate(226.449 144.649)"/>
  </g>
</svg>
