<svg width="100%" height="100%" viewBox="0 0 88 56" fill="none" xmlns="http://www.w3.org/2000/svg">
	<g filter="url(#filter0_d_3654_4065)">
		<mask id="mask0_3654_4065" style="mask-type:alpha" maskUnits="userSpaceOnUse" x="20" y="2" width="48" height="48">
			<rect x="20" y="2" width="48" height="48" fill="#D9D9D9" />
		</mask>
		<g mask="url(#mask0_3654_4065)">
			<path d="M44 36.0699L35.7 41.0699C35.3334 41.3033 34.95 41.4033 34.55 41.3699C34.15 41.3366 33.8 41.2033 33.5 40.9699C33.2 40.7366 32.9667 40.4453 32.8 40.0959C32.6334 39.7453 32.6 39.3533 32.7 38.9199L34.9 29.4699L27.55 23.1199C27.2167 22.8199 27.0087 22.4779 26.926 22.0939C26.842 21.7113 26.8667 21.3366 27 20.9699C27.1334 20.6033 27.3334 20.3033 27.6 20.0699C27.8667 19.8366 28.2334 19.6866 28.7 19.6199L38.4 18.7699L42.15 9.86992C42.3167 9.46992 42.5754 9.16992 42.926 8.96992C43.2754 8.76992 43.6334 8.66992 44 8.66992C44.3667 8.66992 44.7254 8.76992 45.076 8.96992C45.4254 9.16992 45.6834 9.46992 45.85 9.86992L49.6 18.7699L59.3 19.6199C59.7667 19.6866 60.1334 19.8366 60.4 20.0699C60.6667 20.3033 60.8667 20.6033 61 20.9699C61.1334 21.3366 61.1587 21.7113 61.076 22.0939C60.992 22.4779 60.7834 22.8199 60.45 23.1199L53.1 29.4699L55.3 38.9199C55.4 39.3533 55.3667 39.7453 55.2 40.0959C55.0334 40.4453 54.8 40.7366 54.5 40.9699C54.2 41.2033 53.85 41.3366 53.45 41.3699C53.05 41.4033 52.6667 41.3033 52.3 41.0699L44 36.0699Z" fill="white" />
		</g>
		<mask id="mask1_3654_4065" style="mask-type:alpha" maskUnits="userSpaceOnUse" x="60" y="4" width="24" height="24">
			<rect x="60" y="4" width="24" height="24" fill="#D9D9D9" />
		</mask>
		<g mask="url(#mask1_3654_4065)">
			<path d="M71.9999 21.034L67.8499 23.534C67.6666 23.6507 67.4749 23.7006 67.2749 23.684C67.0749 23.6673 66.8999 23.6007 66.7499 23.484C66.5999 23.3673 66.4833 23.2217 66.3999 23.047C66.3166 22.8717 66.2999 22.6757 66.3499 22.459L67.4499 17.734L63.7749 14.559C63.6083 14.409 63.5043 14.238 63.4629 14.046C63.4209 13.8547 63.4333 13.6673 63.4999 13.484C63.5666 13.3007 63.6666 13.1507 63.7999 13.034C63.9333 12.9173 64.1166 12.8423 64.3499 12.809L69.1999 12.384L71.0749 7.93398C71.1583 7.73398 71.2876 7.58398 71.4629 7.48398C71.6376 7.38398 71.8166 7.33398 71.9999 7.33398C72.1833 7.33398 72.3626 7.38398 72.5379 7.48398C72.7126 7.58398 72.8416 7.73398 72.9249 7.93398L74.7999 12.384L79.6499 12.809C79.8833 12.8423 80.0666 12.9173 80.1999 13.034C80.3333 13.1507 80.4333 13.3007 80.4999 13.484C80.5666 13.6673 80.5793 13.8547 80.5379 14.046C80.4959 14.238 80.3916 14.409 80.2249 14.559L76.5499 17.734L77.6499 22.459C77.6999 22.6757 77.6833 22.8717 77.5999 23.047C77.5166 23.2217 77.3999 23.3673 77.2499 23.484C77.0999 23.6007 76.9249 23.6673 76.7249 23.684C76.5249 23.7006 76.3333 23.6507 76.1499 23.534L71.9999 21.034Z" fill="white" />
		</g>
		<mask id="mask2_3654_4065" style="mask-type:alpha" maskUnits="userSpaceOnUse" x="4" y="4" width="24" height="24">
			<rect x="4" y="4" width="24" height="24" fill="#D9D9D9" />
		</mask>
		<g mask="url(#mask2_3654_4065)">
			<path d="M15.9999 21.034L11.8499 23.534C11.6666 23.6507 11.4749 23.7006 11.2749 23.684C11.0749 23.6673 10.8999 23.6007 10.7499 23.484C10.5999 23.3673 10.4833 23.2217 10.3999 23.047C10.3166 22.8717 10.2999 22.6757 10.3499 22.459L11.4499 17.734L7.77495 14.559C7.60828 14.409 7.50428 14.238 7.46295 14.046C7.42095 13.8547 7.43328 13.6673 7.49995 13.484C7.56661 13.3007 7.66661 13.1507 7.79995 13.034C7.93328 12.9173 8.11661 12.8423 8.34995 12.809L13.1999 12.384L15.0749 7.93398C15.1583 7.73398 15.2876 7.58398 15.4629 7.48398C15.6376 7.38398 15.8166 7.33398 15.9999 7.33398C16.1833 7.33398 16.3626 7.38398 16.5379 7.48398C16.7126 7.58398 16.8416 7.73398 16.9249 7.93398L18.7999 12.384L23.6499 12.809C23.8833 12.8423 24.0666 12.9173 24.1999 13.034C24.3333 13.1507 24.4333 13.3007 24.4999 13.484C24.5666 13.6673 24.5793 13.8547 24.5379 14.046C24.4959 14.238 24.3916 14.409 24.2249 14.559L20.5499 17.734L21.6499 22.459C21.6999 22.6757 21.6833 22.8717 21.5999 23.047C21.5166 23.2217 21.3999 23.3673 21.2499 23.484C21.0999 23.6007 20.9249 23.6673 20.7249 23.684C20.5249 23.7006 20.3333 23.6507 20.1499 23.534L15.9999 21.034Z" fill="white" />
		</g>
	</g>
	<defs>
		<filter id="filter0_d_3654_4065" x="0" y="0" width="88" height="56" filterUnits="userSpaceOnUse" color-interpolation-filters="sRGB">
			<feFlood flood-opacity="0" result="BackgroundImageFix" />
			<feColorMatrix in="SourceAlpha" type="matrix" values="0 0 0 0 0 0 0 0 0 0 0 0 0 0 0 0 0 0 127 0" result="hardAlpha" />
			<feOffset dy="2" />
			<feGaussianBlur stdDeviation="2" />
			<feComposite in2="hardAlpha" operator="out" />
			<feColorMatrix type="matrix" values="0 0 0 0 0 0 0 0 0 0 0 0 0 0 0 0 0 0 0.08 0" />
			<feBlend mode="normal" in2="BackgroundImageFix" result="effect1_dropShadow_3654_4065" />
			<feBlend mode="normal" in="SourceGraphic" in2="effect1_dropShadow_3654_4065" result="shape" />
		</filter>
	</defs>
</svg>
