<svg width="100%" height="100%" viewBox="0 0 24 24" fill="none" xmlns="http://www.w3.org/2000/svg">
	<path d="M12.15 20.0016C11.0667 20.0016 10.0917 19.7307 9.225 19.1891C8.35833 18.6474 7.65833 17.8849 7.125 16.9016C6.975 16.6182 6.95833 16.3182 7.075 16.0016C7.19167 15.6849 7.41667 15.4599 7.75 15.3266C8.03333 15.1932 8.32083 15.1849 8.6125 15.3016C8.90417 15.4182 9.14167 15.6266 9.325 15.9266C9.625 16.4266 10.0208 16.8307 10.5125 17.1391C11.0042 17.4474 11.5667 17.6016 12.2 17.6016C12.9 17.6016 13.5333 17.4349 14.1 17.1016C14.6667 16.7682 14.95 16.2349 14.95 15.5016C14.95 15.2016 14.8917 14.9266 14.775 14.6766C14.6583 14.4266 14.5 14.2016 14.3 14.0016H17.1C17.1833 14.2349 17.2458 14.4724 17.2875 14.7141C17.3292 14.9557 17.35 15.2182 17.35 15.5016C17.35 16.9349 16.8375 18.0432 15.8125 18.8266C14.7875 19.6099 13.5667 20.0016 12.15 20.0016ZM3 12.0016C2.71667 12.0016 2.47917 11.9057 2.2875 11.7141C2.09583 11.5224 2 11.2849 2 11.0016C2 10.7182 2.09583 10.4807 2.2875 10.2891C2.47917 10.0974 2.71667 10.0016 3 10.0016H21C21.2833 10.0016 21.5208 10.0974 21.7125 10.2891C21.9042 10.4807 22 10.7182 22 11.0016C22 11.2849 21.9042 11.5224 21.7125 11.7141C21.5208 11.9057 21.2833 12.0016 21 12.0016H3ZM7.25 8.00156C7.28333 6.85156 7.7375 5.8724 8.6125 5.06406C9.4875 4.25573 10.6333 3.85156 12.05 3.85156C12.95 3.85156 13.7583 4.03073 14.475 4.38906C15.1917 4.7474 15.7917 5.30156 16.275 6.05156C16.4583 6.3349 16.4917 6.6349 16.375 6.95156C16.2583 7.26823 16.0333 7.50156 15.7 7.65156C15.45 7.76823 15.1792 7.78073 14.8875 7.68906C14.5958 7.5974 14.3333 7.4099 14.1 7.12656C13.8833 6.87656 13.6083 6.66823 13.275 6.50156C12.9417 6.3349 12.55 6.25156 12.1 6.25156C11.4167 6.25156 10.85 6.40573 10.4 6.71406C9.95 7.0224 9.7 7.45156 9.65 8.00156H7.25Z" fill="#3060AA" />
</svg>
