<svg xmlns="http://www.w3.org/2000/svg" width="25" height="25" viewBox="0 0 25 25">
  <g id="Group_1398" data-name="Group 1398" transform="translate(-33 -592)">
    <rect id="Rectangle_3100" data-name="Rectangle 3100" width="25" height="25" transform="translate(33 592)" fill="#fff" opacity="0"/>
    <g id="Rectangle_3101" data-name="Rectangle 3101" transform="translate(37 594)" fill="#f5f6f7" stroke="#707070" stroke-width="1">
      <rect width="18" height="22" rx="3" stroke="none"/>
      <rect x="0.5" y="0.5" width="17" height="21" rx="2.5" fill="none"/>
    </g>
    <line id="Line_262" data-name="Line 262" x2="11.824" transform="translate(40 598.5)" fill="none" stroke="#707070" stroke-linecap="round" stroke-width="1"/>
    <line id="Line_263" data-name="Line 263" x2="11.824" transform="translate(40 601.5)" fill="none" stroke="#707070" stroke-linecap="round" stroke-width="1"/>
    <path id="Path_519" data-name="Path 519" d="M0,0H11.824" transform="translate(40 604.5)" fill="none" stroke="#707070" stroke-linecap="round" stroke-width="1"/>
    <line id="Line_264" data-name="Line 264" x2="6.947" transform="translate(40 607.5)" fill="none" stroke="#707070" stroke-linecap="round" stroke-width="1"/>
    <g id="Rectangle_3102" data-name="Rectangle 3102" transform="translate(35 592)" fill="#f5f6f7" stroke="#707070" stroke-width="1">
      <rect width="18" height="22" rx="3" stroke="none"/>
      <rect x="0.5" y="0.5" width="17" height="21" rx="2.5" fill="none"/>
    </g>
    <path id="Icon_material-done-all" data-name="Icon material-done-all" d="M7.036,8.9l-.515-.515L4.207,10.7l.515.515Zm1.548-.515L4.722,12.247,3.2,10.725l-.515.515L4.722,13.28,9.1,8.9l-.518-.515ZM.615,11.24,2.656,13.28l.515-.515L1.133,10.725Z" transform="translate(40.898 595.831)" fill="#707070"/>
    <line id="Line_274" data-name="Line 274" x2="11.824" transform="translate(38 599.5)" fill="none" stroke="#707070" stroke-linecap="round" stroke-width="1"/>
    <line id="Line_276" data-name="Line 276" x2="11.824" transform="translate(38 596.5)" fill="none" stroke="#707070" stroke-linecap="round" stroke-width="1"/>
    <line id="Line_275" data-name="Line 275" x2="2.5" transform="translate(38 602.5)" fill="none" stroke="#707070" stroke-linecap="round" stroke-width="1"/>
  </g>
</svg>
