<?xml version="1.0" encoding="utf-8"?>
<!-- Generator: Adobe Illustrator 24.3.0, SVG Export Plug-In . SVG Version: 6.00 Build 0)  -->
<svg version="1.1" id="Layer_1" xmlns="http://www.w3.org/2000/svg" xmlns:xlink="http://www.w3.org/1999/xlink" x="0px" y="0px"
	 viewBox="0 0 26 26" style="enable-background:new 0 0 26 26;" xml:space="preserve">
<style type="text/css">
	.st0{fill:#FFFFFF;fill-opacity:0;}
	.st1{fill:#F5F6F7;}
	.st2{fill:none;stroke:#707070;}
	.st3{fill:none;stroke:#707070;stroke-linecap:round;}
	.st4{fill:#707070;}
</style>
<g id="Group_1398" transform="translate(-33 -592)">
	<rect id="Rectangle_3100" x="33.5" y="592.5" class="st0" width="25" height="25"/>
	<g id="Rectangle_3101" transform="translate(37 594)">
		<path class="st1" d="M3.5,0.5h12c1.7,0,3,1.3,3,3v16c0,1.7-1.3,3-3,3h-12c-1.7,0-3-1.3-3-3v-16C0.5,1.8,1.8,0.5,3.5,0.5z"/>
		<path class="st2" d="M3.5,1h12C16.9,1,18,2.1,18,3.5v16c0,1.4-1.1,2.5-2.5,2.5h-12C2.1,22,1,20.9,1,19.5v-16C1,2.1,2.1,1,3.5,1z"
			/>
	</g>
	<line id="Line_262" class="st3" x1="40.5" y1="599" x2="52.3" y2="599"/>
	<line id="Line_263" class="st3" x1="40.5" y1="602" x2="52.3" y2="602"/>
	<path id="Path_519" class="st3" d="M40.5,605h11.8"/>
	<line id="Line_264" class="st3" x1="40.5" y1="608" x2="47.4" y2="608"/>
	<g id="Rectangle_3102" transform="translate(35 592)">
		<path class="st1" d="M3.5,0.5h12c1.7,0,3,1.3,3,3v16c0,1.7-1.3,3-3,3h-12c-1.7,0-3-1.3-3-3v-16C0.5,1.8,1.8,0.5,3.5,0.5z"/>
		<path class="st2" d="M3.5,1h12C16.9,1,18,2.1,18,3.5v16c0,1.4-1.1,2.5-2.5,2.5h-12C2.1,22,1,20.9,1,19.5v-16C1,2.1,2.1,1,3.5,1z"
			/>
	</g>
	<path id="Icon_material-done-all" class="st4" d="M48.4,605.2l-0.5-0.5l-2.3,2.3l0.5,0.5L48.4,605.2z M50,604.7l-3.9,3.9l-1.5-1.5
		l-0.5,0.5l2,2l4.4-4.4L50,604.7L50,604.7z M42,607.6l2,2l0.5-0.5l-2-2L42,607.6z"/>
	<line id="Line_274" class="st3" x1="38.5" y1="600" x2="50.3" y2="600"/>
	<line id="Line_276" class="st3" x1="38.5" y1="597" x2="50.3" y2="597"/>
	<line id="Line_275" class="st3" x1="38.5" y1="603" x2="41" y2="603"/>
</g>
</svg>
