<svg width="100%" height="100%" viewBox="0 0 24 24" fill="none" xmlns="http://www.w3.org/2000/svg">
	<path d="M19.9999 20C19.7166 20 19.4791 19.9042 19.2874 19.7125C19.0958 19.5208 18.9999 19.2833 18.9999 19V18C18.9999 17.7167 19.0958 17.4792 19.2874 17.2875C19.4791 17.0958 19.7166 17 19.9999 17H21.9999V16H19.4999C19.3666 16 19.2499 15.95 19.1499 15.85C19.0499 15.75 18.9999 15.6333 18.9999 15.5C18.9999 15.3667 19.0499 15.25 19.1499 15.15C19.2499 15.05 19.3666 15 19.4999 15H21.9999C22.2833 15 22.5208 15.0958 22.7124 15.2875C22.9041 15.4792 22.9999 15.7167 22.9999 16V17C22.9999 17.2833 22.9041 17.5208 22.7124 17.7125C22.5208 17.9042 22.2833 18 21.9999 18H19.9999V19H22.4999C22.6333 19 22.7499 19.05 22.8499 19.15C22.9499 19.25 22.9999 19.3667 22.9999 19.5C22.9999 19.6333 22.9499 19.75 22.8499 19.85C22.7499 19.95 22.6333 20 22.4999 20H19.9999ZM10.4999 10.725L7.29994 5.725C7.06661 5.34167 7.05411 4.95833 7.26244 4.575C7.47078 4.19167 7.79161 4 8.22494 4C8.42494 4 8.60828 4.04583 8.77494 4.1375C8.94161 4.22917 9.07494 4.35833 9.17494 4.525L11.9499 9H12.0499L14.7999 4.525C14.8999 4.34167 15.0333 4.20833 15.1999 4.125C15.3666 4.04167 15.5499 4 15.7499 4C16.1999 4 16.5249 4.19167 16.7249 4.575C16.9249 4.95833 16.9083 5.34167 16.6749 5.725L13.4749 10.725L17.0249 16.25C17.2583 16.6333 17.2666 17.0208 17.0499 17.4125C16.8333 17.8042 16.5083 18 16.0749 18C15.8749 18 15.6916 17.9542 15.5249 17.8625C15.3583 17.7708 15.2249 17.6417 15.1249 17.475L12.0499 12.575H11.9499L8.87494 17.475C8.75828 17.6583 8.62078 17.7917 8.46244 17.875C8.30411 17.9583 8.12494 18 7.92494 18C7.47494 18 7.14578 17.8083 6.93744 17.425C6.72911 17.0417 6.74161 16.6583 6.97494 16.275L10.4999 10.725Z" fill="#3060AA" />
</svg>
