<?xml version="1.0" encoding="utf-8"?>
<!-- Generator: Adobe Illustrator 24.3.0, SVG Export Plug-In . SVG Version: 6.00 Build 0)  -->
<svg version="1.1" id="Component_88_1" xmlns="http://www.w3.org/2000/svg" xmlns:xlink="http://www.w3.org/1999/xlink" x="0px"
	 y="0px" viewBox="0 0 26 26" style="enable-background:new 0 0 26 26;" xml:space="preserve">
<style type="text/css">
	.st0{fill:none;}
	.st1{fill:none;stroke:#707070;}
	.st2{fill:none;stroke:#707070;stroke-linecap:round;}
	.st3{fill:#FFFFFF;}
</style>
<g id="Group_359" transform="translate(-223.449 -130.149)">
	<g id="Rectangle_1865" transform="translate(223.449 130.149)">
		<path class="st0" d="M7,2h12c1.7,0,3,1.3,3,3v16c0,1.7-1.3,3-3,3H7c-1.7,0-3-1.3-3-3V5C4,3.3,5.3,2,7,2z"/>
		<path class="st1" d="M7,2.5h12c1.4,0,2.5,1.1,2.5,2.5v16c0,1.4-1.1,2.5-2.5,2.5H7c-1.4,0-2.5-1.1-2.5-2.5V5C4.5,3.6,5.6,2.5,7,2.5
			z"/>
	</g>
	<line id="Line_59" class="st2" x1="230.4" y1="136.6" x2="242.3" y2="136.6"/>
	<line id="Line_60" class="st2" x1="230.4" y1="139.6" x2="242.3" y2="139.6"/>
	<path id="Path_313" class="st2" d="M230.4,142.6h11.8"/>
	<g id="Rectangle_1867" transform="translate(232.449 144.149)">
		<path class="st3" d="M5.5,2h3C9.3,2,10,2.7,10,3.5l0,0C10,4.3,9.3,5,8.5,5h-3C4.7,5,4,4.3,4,3.5l0,0C4,2.7,4.7,2,5.5,2z"/>
		<path class="st1" d="M5.5,2.5h3c0.6,0,1,0.4,1,1l0,0c0,0.6-0.4,1-1,1h-3c-0.6,0-1-0.4-1-1l0,0C4.5,2.9,4.9,2.5,5.5,2.5z"/>
	</g>
</g>
</svg>
