<svg width="270" height="80" viewBox="0 0 270 80" fill="none" xmlns="http://www.w3.org/2000/svg">
<path d="M44.9701 16.784C44.9701 16.784 21.0482 2.91421 8.42773 14.3851C8.03785 14.873 7.98722 15.5705 8.33153 16.1095C8.45811 16.3139 11.5923 21.1833 19.0836 21.1833C22.8255 21.1833 25.8027 19.3771 28.6787 17.6245C31.4611 15.9332 34.0788 14.334 37.327 14.334C40.1549 14.334 42.5423 15.4529 44.9727 16.784" fill="#A8A9CF"/>
<path d="M8.42773 14.3851C15.5443 5.54569 26.0812 0.477051 37.3244 0.477051C48.5677 0.477051 59.0919 5.54569 66.2085 14.3851C66.6338 14.914 66.644 15.6676 66.2338 16.2118C66.0971 16.3906 62.7553 20.7209 55.5577 20.7209C51.9728 20.7209 49.0158 19.0578 46.1702 17.4483C45.7676 17.2235 45.3676 16.9987 44.9702 16.7815C44.9702 16.7815 21.0482 2.91173 8.42773 14.3826" fill="#6B47F5"/>
<path d="M72.1557 24.5044C71.9329 23.9194 71.3582 23.5285 70.7252 23.5566C70.4873 23.5643 64.7403 23.8683 60.9934 30.4161C59.1225 33.6862 59.1833 37.1913 59.2516 40.5815C59.3124 43.8592 59.3731 46.9454 57.7503 49.7837C56.3376 52.2542 54.1832 53.7845 51.8262 55.2407C51.8464 55.2279 75.6899 41.2636 72.1531 24.5044" fill="#A8A9CF"/>
<path d="M72.1555 24.5045C76.1835 35.1451 75.2645 46.8867 69.6441 56.7123C64.0288 66.5277 54.4109 73.2007 43.2664 74.9993C42.6006 75.1066 41.9474 74.7387 41.6841 74.1076C41.6006 73.8982 39.5524 68.8142 43.1525 62.5218C44.9449 59.3871 47.8488 57.6371 50.6539 55.9536C51.0488 55.7134 51.4412 55.4758 51.8286 55.2382C51.8286 55.2382 75.6948 41.2663 72.1581 24.502" fill="#6B47F5"/>
<path d="M31.8766 62.3787C30.0057 59.1086 26.9677 57.4097 24.0233 55.7746C21.1802 54.1881 18.4991 52.6987 16.8763 49.8629C15.4611 47.3925 15.2282 44.7457 15.1548 41.9585C15.1548 41.9662 15.213 69.8002 31.3677 75.0911C31.9829 75.1882 32.6057 74.8816 32.8969 74.3145C33.0108 74.1024 35.621 68.9291 31.8766 62.3812" fill="#A8A9CF"/>
<path d="M31.3675 75.0914C20.223 73.2903 10.6051 66.6173 4.98221 56.7917C-0.633084 46.9763 -1.54956 35.2347 2.47583 24.5941C2.71634 23.958 3.35939 23.5722 4.03029 23.6565C4.25308 23.6872 9.63798 24.4408 13.238 30.7306C15.0305 33.8653 15.0837 37.2785 15.1242 40.5716C15.1318 41.0365 15.1393 41.4964 15.152 41.9537C15.152 41.9537 15.2102 69.7954 31.365 75.0863" fill="#6B47F5"/>
<path d="M164.613 25.2835H160.096C159.008 25.2835 154.522 25.2151 154.522 20.2784C154.522 16.9923 156.557 14.9493 159.448 14.9493C162.785 14.9493 164.613 17.3898 164.613 22.2733V25.286V25.2835ZM169.37 21.9164C169.37 15.443 166.433 10.962 159.853 10.962C154.689 10.962 149.684 13.8607 149.684 20.443C149.684 27.0252 155.192 29.3138 160.177 29.3138H164.613V29.9645C164.613 32.562 162.997 35.2531 159.286 35.2531C157.195 35.2531 155.77 34.7037 152.749 33.1746C151.111 35.1923 152.116 36.843 153.696 37.6278C155.623 38.5847 157.749 39.0556 159.899 39.086C166.81 39.1873 169.37 35.0607 169.37 28.1518V21.9164Z" fill="#312E52"/>
<path d="M109.494 19.9114C109.494 21.5924 109.066 22.9088 108.213 23.8582C107.357 24.8076 106.172 25.2835 104.653 25.2835C103.134 25.2835 102.035 24.8633 101.195 24.0228C100.354 23.1823 99.9342 22.0557 99.9342 20.6455C99.9342 18.8835 100.597 17.5392 101.929 16.6177C103.258 15.6962 105.197 15.2329 107.747 15.2329H109.496V19.9114H109.494ZM118.689 29.3519C119.281 29.3569 120.101 29.3468 120.681 29.3519C122.747 29.3696 124.904 29.4405 126.871 28.7012C127.954 28.2936 128.797 27.5747 129.395 26.5443C130.372 28.3898 132.041 29.3114 134.4 29.3114H147.197V11.6506C146.954 11.5164 146.468 11.4076 146.063 11.324C145.656 11.243 145.263 11.2025 144.884 11.2025C144.152 11.2025 143.562 11.3848 143.114 11.7519C142.666 12.119 142.443 12.6532 142.443 13.3595V25.281H137.451C135.534 25.281 133.015 25.3671 132.22 23.1645C131.934 22.3772 131.792 21.2785 131.792 19.8683V11.6481C131.549 11.5139 131.063 11.405 130.658 11.3215C130.251 11.2405 129.858 11.2 129.479 11.2C128.747 11.2 128.157 11.3823 127.709 11.7494C127.261 12.1164 127.038 12.6506 127.038 13.3569V19.8683C127.038 21.2531 126.901 22.3367 126.63 23.124C125.995 24.9645 123.992 25.2683 122.263 25.2962C120.962 25.319 119.377 25.3417 118.084 25.281C117.084 25.2329 115.927 25.0278 115.21 24.2633C114.572 23.5848 114.253 22.405 114.253 20.724V11.2025H107.668C103.787 11.2025 100.732 12.0354 98.4937 13.7038C96.2557 15.3721 95.1367 17.6709 95.1367 20.6C95.1367 22.3367 95.5241 23.8557 96.2962 25.1569C97.0684 26.4582 98.162 27.4759 99.5722 28.2076C100.982 28.9392 102.77 29.3063 104.613 29.3063C107.704 29.3063 110.132 28.3443 111.896 26.4177C112.466 27.3417 113.258 28.0531 114.276 28.5544C115.646 29.2304 117.175 29.3341 118.691 29.3468" fill="#312E52"/>
<path d="M103.266 8.8481C104.005 8.8481 104.633 8.58481 105.147 8.05823C105.658 7.53164 105.916 6.91139 105.916 6.2C105.916 5.48861 105.661 4.83291 105.147 4.31899C104.633 3.80507 104.007 3.54937 103.266 3.54937C102.524 3.54937 101.942 3.80507 101.428 4.31899C100.916 4.83291 100.658 5.45823 100.658 6.2C100.658 6.94177 100.914 7.53164 101.428 8.05823C101.942 8.58481 102.552 8.8481 103.266 8.8481Z" fill="#312E52"/>
<path d="M110.387 8.8481C111.126 8.8481 111.762 8.58481 112.288 8.05823C112.815 7.53164 113.078 6.91139 113.078 6.2C113.078 5.48861 112.815 4.83291 112.288 4.31899C111.762 3.80507 111.129 3.54937 110.387 3.54937C109.645 3.54937 109.063 3.80507 108.549 4.31899C108.035 4.83291 107.78 5.45823 107.78 6.2C107.78 6.94177 108.035 7.53164 108.549 8.05823C109.063 8.58481 109.673 8.8481 110.387 8.8481Z" fill="#312E52"/>
<path d="M144.8 8.76707C145.539 8.76707 146.167 8.50378 146.681 7.9772C147.192 7.45061 147.45 6.83036 147.45 6.11897C147.45 5.40758 147.195 4.78733 146.681 4.26075C146.167 3.73416 145.542 3.47087 144.8 3.47087C144.058 3.47087 143.418 3.73416 142.878 4.26075C142.337 4.78733 142.066 5.40758 142.066 6.11897C142.066 6.83036 142.337 7.45061 142.878 7.9772C143.42 8.50378 144.061 8.76707 144.8 8.76707Z" fill="#312E52"/>
<path d="M266.937 0.00253412C265.549 0.00253412 264.496 0.686075 264.496 2.15949V29.3139H269.253V0.450632C268.537 0.141772 267.585 0.00253412 266.937 0.00253412Z" fill="#312E52"/>
<path d="M243.833 8.8481C244.572 8.8481 245.208 8.58481 245.734 8.05823C246.261 7.53164 246.524 6.91139 246.524 6.2C246.524 5.48861 246.261 4.83291 245.734 4.31899C245.208 3.80507 244.572 3.54937 243.833 3.54937C243.094 3.54937 242.509 3.80507 241.995 4.31899C241.484 4.83291 241.225 5.45823 241.225 6.2C241.225 6.94177 241.481 7.53164 241.995 8.05823C242.509 8.58481 243.119 8.8481 243.833 8.8481Z" fill="#312E52"/>
<path d="M236.714 8.8481C237.456 8.8481 238.081 8.58481 238.595 8.05823C239.106 7.53164 239.365 6.91139 239.365 6.2C239.365 5.48861 239.109 4.83291 238.595 4.31899C238.084 3.80507 237.456 3.54937 236.714 3.54937C235.972 3.54937 235.39 3.80507 234.876 4.31899C234.365 4.83291 234.106 5.45823 234.106 6.2C234.106 6.94177 234.362 7.53164 234.876 8.05823C235.39 8.58481 236.002 8.8481 236.714 8.8481Z" fill="#312E52"/>
<path d="M261.329 29.3114V0.448106C261.086 0.313929 260.6 0.205066 260.195 0.121522C259.787 0.0405091 259.395 0 259.015 0C258.283 0 257.694 0.182282 257.245 0.54937C256.797 0.916458 256.575 1.45064 256.575 2.15697V25.2835H242.937V11.7038C242.559 11.5494 242.175 11.4025 241.775 11.3089C241.382 11.2177 240.985 11.2025 240.582 11.2025C239.82 11.2025 239.23 11.3873 238.81 11.7494C238.387 12.1164 238.18 12.681 238.18 13.4405V25.281H221.699C212.833 25.281 208.478 20.1544 205.995 17.0304C208.339 15.0608 211.025 14.8861 212.544 14.9873C214.673 15.1291 216.645 15.9266 217.909 17.1063C217.081 18.205 215.38 20.1088 213.445 21.638C214.691 22.319 216.094 22.9342 217.777 23.2633C220.463 20.7316 222.352 18.043 223.01 17C222.539 16.2557 219.952 11.4405 212.813 10.9696C205.096 10.4582 201.205 16.0329 200.537 16.8304C202.823 19.762 204.861 22.3038 207.742 24.6025C206.344 25.0278 204.825 25.2835 203.19 25.2835H176.491V0.448106C176.248 0.313929 175.921 0.205066 175.514 0.121522C175.106 0.0405091 174.554 0 174.175 0C173.443 0 172.853 0.182282 172.405 0.54937C171.957 0.916458 171.734 1.45064 171.734 2.15697V29.3114H203.19C206.387 29.3114 209.337 28.5088 211.954 27.2354C214.886 28.6152 218.152 29.3114 221.699 29.3114H261.329Z" fill="#312E52"/>
<path d="M125.582 37.1367C126.322 37.1367 126.949 36.8734 127.463 36.3468C127.975 35.8202 128.233 35.2 128.233 34.4886C128.233 33.7772 127.977 33.1215 127.463 32.6076C126.949 32.0937 126.324 31.838 125.582 31.838C124.841 31.838 124.258 32.0937 123.744 32.6076C123.233 33.1215 122.975 33.7468 122.975 34.4886C122.975 35.2304 123.23 35.8202 123.744 36.3468C124.258 36.8734 124.868 37.1367 125.582 37.1367Z" fill="#312E52"/>
<path d="M132.701 37.1367C133.441 37.1367 134.076 36.8734 134.603 36.3468C135.129 35.8202 135.392 35.2 135.392 34.4886C135.392 33.7772 135.129 33.1215 134.603 32.6076C134.076 32.0937 133.443 31.838 132.701 31.838C131.96 31.838 131.377 32.0937 130.863 32.6076C130.349 33.1215 130.094 33.7468 130.094 34.4886C130.094 35.2304 130.349 35.8202 130.863 36.3468C131.377 36.8734 131.987 37.1367 132.701 37.1367Z" fill="#312E52"/>
<path d="M164.613 25.2835H160.096C159.008 25.2835 154.522 25.2151 154.522 20.2784C154.522 16.9923 156.557 14.9493 159.448 14.9493C162.785 14.9493 164.613 17.3898 164.613 22.2733V25.286V25.2835ZM169.37 21.9164C169.37 15.443 166.433 10.962 159.853 10.962C154.689 10.962 149.684 13.8607 149.684 20.443C149.684 27.0252 155.192 29.3138 160.177 29.3138H164.613V29.9645C164.613 32.562 162.997 35.2531 159.286 35.2531C157.195 35.2531 155.77 34.7037 152.749 33.1746C151.111 35.1923 152.116 36.843 153.696 37.6278C155.623 38.5847 157.749 39.0556 159.899 39.086C166.81 39.1873 169.37 35.0607 169.37 28.1518V21.9164Z" fill="#312E52"/>
<path d="M109.494 19.9114C109.494 21.5924 109.066 22.9088 108.213 23.8582C107.357 24.8076 106.172 25.2835 104.653 25.2835C103.134 25.2835 102.035 24.8633 101.195 24.0228C100.354 23.1823 99.9342 22.0557 99.9342 20.6455C99.9342 18.8835 100.597 17.5392 101.929 16.6177C103.258 15.6962 105.197 15.2329 107.747 15.2329H109.496V19.9114H109.494ZM118.689 29.3519C119.281 29.3569 120.101 29.3468 120.681 29.3519C122.747 29.3696 124.904 29.4405 126.871 28.7012C127.954 28.2936 128.797 27.5747 129.395 26.5443C130.372 28.3898 132.041 29.3114 134.4 29.3114H147.197V11.6506C146.954 11.5164 146.468 11.4076 146.063 11.324C145.656 11.243 145.263 11.2025 144.884 11.2025C144.152 11.2025 143.562 11.3848 143.114 11.7519C142.666 12.119 142.443 12.6532 142.443 13.3595V25.281H137.451C135.534 25.281 133.015 25.3671 132.22 23.1645C131.934 22.3772 131.792 21.2785 131.792 19.8683V11.6481C131.549 11.5139 131.063 11.405 130.658 11.3215C130.251 11.2405 129.858 11.2 129.479 11.2C128.747 11.2 128.157 11.3823 127.709 11.7494C127.261 12.1164 127.038 12.6506 127.038 13.3569V19.8683C127.038 21.2531 126.901 22.3367 126.63 23.124C125.995 24.9645 123.992 25.2683 122.263 25.2962C120.962 25.319 119.377 25.3417 118.084 25.281C117.084 25.2329 115.927 25.0278 115.21 24.2633C114.572 23.5848 114.253 22.405 114.253 20.724V11.2025H107.668C103.787 11.2025 100.732 12.0354 98.4937 13.7038C96.2557 15.3721 95.1367 17.6709 95.1367 20.6C95.1367 22.3367 95.5241 23.8557 96.2962 25.1569C97.0684 26.4582 98.162 27.4759 99.5722 28.2076C100.982 28.9392 102.77 29.3063 104.613 29.3063C107.704 29.3063 110.132 28.3443 111.896 26.4177C112.466 27.3417 113.258 28.0531 114.276 28.5544C115.646 29.2304 117.175 29.3341 118.691 29.3468" fill="#312E52"/>
<path d="M103.266 8.8481C104.005 8.8481 104.633 8.58481 105.147 8.05823C105.658 7.53164 105.916 6.91139 105.916 6.2C105.916 5.48861 105.661 4.83291 105.147 4.31899C104.633 3.80507 104.007 3.54937 103.266 3.54937C102.524 3.54937 101.942 3.80507 101.428 4.31899C100.916 4.83291 100.658 5.45823 100.658 6.2C100.658 6.94177 100.914 7.53164 101.428 8.05823C101.942 8.58481 102.552 8.8481 103.266 8.8481Z" fill="#312E52"/>
<path d="M110.387 8.8481C111.126 8.8481 111.762 8.58481 112.288 8.05823C112.815 7.53164 113.078 6.91139 113.078 6.2C113.078 5.48861 112.815 4.83291 112.288 4.31899C111.762 3.80507 111.129 3.54937 110.387 3.54937C109.645 3.54937 109.063 3.80507 108.549 4.31899C108.035 4.83291 107.78 5.45823 107.78 6.2C107.78 6.94177 108.035 7.53164 108.549 8.05823C109.063 8.58481 109.673 8.8481 110.387 8.8481Z" fill="#312E52"/>
<path d="M144.8 8.76707C145.539 8.76707 146.167 8.50378 146.681 7.9772C147.192 7.45061 147.45 6.83036 147.45 6.11897C147.45 5.40758 147.195 4.78733 146.681 4.26075C146.167 3.73416 145.542 3.47087 144.8 3.47087C144.058 3.47087 143.418 3.73416 142.878 4.26075C142.337 4.78733 142.066 5.40758 142.066 6.11897C142.066 6.83036 142.337 7.45061 142.878 7.9772C143.42 8.50378 144.061 8.76707 144.8 8.76707Z" fill="#312E52"/>
<path d="M266.937 0.00253412C265.549 0.00253412 264.496 0.686075 264.496 2.15949V29.3139H269.253V0.450632C268.537 0.141772 267.585 0.00253412 266.937 0.00253412Z" fill="#312E52"/>
<path d="M243.833 8.8481C244.572 8.8481 245.208 8.58481 245.734 8.05823C246.261 7.53164 246.524 6.91139 246.524 6.2C246.524 5.48861 246.261 4.83291 245.734 4.31899C245.208 3.80507 244.572 3.54937 243.833 3.54937C243.094 3.54937 242.509 3.80507 241.995 4.31899C241.484 4.83291 241.225 5.45823 241.225 6.2C241.225 6.94177 241.481 7.53164 241.995 8.05823C242.509 8.58481 243.119 8.8481 243.833 8.8481Z" fill="#312E52"/>
<path d="M236.714 8.8481C237.456 8.8481 238.081 8.58481 238.595 8.05823C239.106 7.53164 239.365 6.91139 239.365 6.2C239.365 5.48861 239.109 4.83291 238.595 4.31899C238.084 3.80507 237.456 3.54937 236.714 3.54937C235.972 3.54937 235.39 3.80507 234.876 4.31899C234.365 4.83291 234.106 5.45823 234.106 6.2C234.106 6.94177 234.362 7.53164 234.876 8.05823C235.39 8.58481 236.002 8.8481 236.714 8.8481Z" fill="#312E52"/>
<path d="M261.329 29.3114V0.448106C261.086 0.313929 260.6 0.205066 260.195 0.121522C259.787 0.0405091 259.395 0 259.015 0C258.283 0 257.694 0.182282 257.245 0.54937C256.797 0.916458 256.575 1.45064 256.575 2.15697V25.2835H242.937V11.7038C242.559 11.5494 242.175 11.4025 241.775 11.3089C241.382 11.2177 240.985 11.2025 240.582 11.2025C239.82 11.2025 239.23 11.3873 238.81 11.7494C238.387 12.1164 238.18 12.681 238.18 13.4405V25.281H221.699C212.833 25.281 208.478 20.1544 205.995 17.0304C208.339 15.0608 211.025 14.8861 212.544 14.9873C214.673 15.1291 216.645 15.9266 217.909 17.1063C217.081 18.205 215.38 20.1088 213.445 21.638C214.691 22.319 216.094 22.9342 217.777 23.2633C220.463 20.7316 222.352 18.043 223.01 17C222.539 16.2557 219.952 11.4405 212.813 10.9696C205.096 10.4582 201.205 16.0329 200.537 16.8304C202.823 19.762 204.861 22.3038 207.742 24.6025C206.344 25.0278 204.825 25.2835 203.19 25.2835H176.491V0.448106C176.248 0.313929 175.921 0.205066 175.514 0.121522C175.106 0.0405091 174.554 0 174.175 0C173.443 0 172.853 0.182282 172.405 0.54937C171.957 0.916458 171.734 1.45064 171.734 2.15697V29.3114H203.19C206.387 29.3114 209.337 28.5088 211.954 27.2354C214.886 28.6152 218.152 29.3114 221.699 29.3114H261.329Z" fill="#312E52"/>
<path d="M125.582 37.1367C126.322 37.1367 126.949 36.8734 127.463 36.3468C127.975 35.8202 128.233 35.2 128.233 34.4886C128.233 33.7772 127.977 33.1215 127.463 32.6076C126.949 32.0937 126.324 31.838 125.582 31.838C124.841 31.838 124.258 32.0937 123.744 32.6076C123.233 33.1215 122.975 33.7468 122.975 34.4886C122.975 35.2304 123.23 35.8202 123.744 36.3468C124.258 36.8734 124.868 37.1367 125.582 37.1367Z" fill="#312E52"/>
<path d="M132.701 37.1367C133.441 37.1367 134.076 36.8734 134.603 36.3468C135.129 35.8202 135.392 35.2 135.392 34.4886C135.392 33.7772 135.129 33.1215 134.603 32.6076C134.076 32.0937 133.443 31.838 132.701 31.838C131.96 31.838 131.377 32.0937 130.863 32.6076C130.349 33.1215 130.094 33.7468 130.094 34.4886C130.094 35.2304 130.349 35.8202 130.863 36.3468C131.377 36.8734 131.987 37.1367 132.701 37.1367Z" fill="#312E52"/>
<path d="M112.263 64.6094C111.957 64.8322 111.504 65.1689 110.81 65.4196C110.114 65.6702 109.362 65.7943 108.557 65.7943C108.056 65.7943 107.577 65.7386 107.116 65.6272C106.658 65.5158 106.253 65.3208 105.906 65.0423C105.557 64.7639 105.286 64.3968 105.094 63.936C104.899 63.4778 104.8 62.8854 104.8 62.1613V52.855H112.813C112.896 52.6879 113.008 52.4018 113.147 51.9993C113.286 51.5968 113.354 51.1588 113.354 50.6854C113.354 49.9614 113.167 49.412 112.792 49.0373C112.418 48.6626 111.77 48.4727 110.851 48.4727H104.8V43.0069C104.661 42.9512 104.375 42.8601 103.944 42.736C103.511 42.612 103.048 42.5487 102.547 42.5487C101.767 42.5487 101.157 42.7234 100.711 43.0702C100.266 43.4196 100.043 43.9816 100.043 44.7613V48.4753H97.6405C96.7215 48.4753 96.076 48.6626 95.6988 49.0398C95.3241 49.4145 95.1367 49.9639 95.1367 50.6879C95.1367 51.1613 95.2076 51.5993 95.3443 52.0018C95.4836 52.4044 95.5949 52.6905 95.6785 52.8575H100.043V63.1234C100.043 65.1816 100.668 66.8449 101.922 68.1107C103.175 69.3765 105.023 70.0094 107.471 70.0094C108.332 70.0094 109.124 69.9335 109.848 69.7791C110.572 69.6246 111.225 69.4373 111.81 69.2145C112.395 68.9917 112.889 68.7563 113.291 68.5056C113.694 68.255 114.008 68.0474 114.23 67.8803C114.23 67.8803 114.038 67.017 113.509 66.1436C112.98 65.2702 112.261 64.6094 112.261 64.6094" fill="#312E52"/>
<path d="M220.772 48.4778C219.964 48.4778 219.339 48.6525 218.894 48.9993C218.448 49.3487 218.225 49.9107 218.225 50.6904V69.4271H222.982V48.9385C222.843 48.8828 222.564 48.7917 222.147 48.6677C221.729 48.5436 221.268 48.4803 220.77 48.4803" fill="#312E52"/>
<path d="M220.605 39.0879C219.797 39.0879 219.116 39.3664 218.559 39.9233C218.002 40.4803 217.724 41.1613 217.724 41.9689C217.724 42.7765 218.002 43.4575 218.559 44.0145C219.116 44.5714 219.797 44.8499 220.605 44.8499C221.412 44.8499 222.093 44.5714 222.65 44.0145C223.207 43.4575 223.486 42.7765 223.486 41.9689C223.486 41.1613 223.207 40.4803 222.65 39.9233C222.093 39.3664 221.412 39.0879 220.605 39.0879Z" fill="#312E52"/>
<path d="M264.509 66.0626C263.466 66.1689 260.772 66.293 260.476 66.298C259.002 66.3259 257.418 66.2525 256.023 65.731C254.8 65.2727 253.646 64.2651 253.392 62.9588C253.354 62.7689 253.339 62.5689 253.342 62.3664C253.372 61.0373 254.24 59.7841 255.39 59.1816C256.721 58.4829 258.471 58.5715 259.929 58.6626C261.278 58.7461 263.04 58.9082 264.489 59.0727C264.496 59.6499 264.501 60.1031 264.506 60.1031V66.0601L264.509 66.0626ZM266.137 49.9234C265.159 49.2297 264 48.7208 262.653 48.3993C261.301 48.0829 259.808 47.9183 258.167 47.9183C256.802 47.9183 255.676 48.0019 254.787 48.1689C253.894 48.336 253.185 48.5664 252.658 48.8575C252.129 49.1487 251.762 49.4829 251.552 49.8601C251.344 50.2348 251.238 50.6196 251.238 51.0069C251.238 51.5664 251.385 52.0373 251.676 52.4246C251.967 52.817 252.197 53.0803 252.365 53.217C252.668 52.9664 253.304 52.6626 254.263 52.2981C255.223 51.9386 256.496 51.7563 258.081 51.7563C259.023 51.7563 259.889 51.8272 260.668 51.9639C261.446 52.1056 262.111 52.3563 262.671 52.7158C263.225 53.0778 263.663 53.5791 263.985 54.217C264.121 54.493 264.223 54.8069 264.301 55.1436C261.843 54.8474 259.005 54.6069 257.37 54.7613C255.625 54.9259 253.843 55.2651 252.362 56.2018C249.17 58.2221 248.076 62.5259 249.934 65.8018C250.83 67.3841 252.425 68.4854 254.137 69.098C255.848 69.7107 257.686 69.8778 259.504 69.9487C262.301 70.0575 265.127 69.8829 267.904 69.5537C268.501 69.4879 268.939 69.4246 269.218 69.3664V56.8069C269.218 55.1968 268.947 53.8196 268.405 52.6753C267.863 51.536 267.104 50.6196 266.132 49.9208" fill="#312E52"/>
<path d="M130.539 66.0626C129.496 66.1689 126.803 66.293 126.509 66.298C125.033 66.3259 123.451 66.2525 122.056 65.7309C120.833 65.2727 119.678 64.2651 119.425 62.9613C119.387 62.7689 119.37 62.5714 119.375 62.3689C119.405 61.0398 120.273 59.7866 121.423 59.1841C122.754 58.4854 124.504 58.574 125.962 58.6651C127.311 58.7487 129.073 58.9107 130.521 59.0752C130.529 59.6525 130.534 60.1056 130.539 60.1056V66.0626ZM167.615 48.4525C166.866 48.3892 166.061 48.5892 165.544 49.136C165.177 49.5233 164.99 50.0449 164.81 50.5487C163.321 54.7461 161.835 58.9436 160.347 63.1411C158.785 58.6499 157.225 54.1588 155.663 49.6702C155.575 49.4145 155.478 49.1512 155.281 48.9689C155.053 48.7613 154.734 48.7006 154.43 48.6474C153.273 48.4449 151.914 48.3031 151.086 49.1335C150.716 49.5056 150.524 50.012 150.344 50.5031C148.868 54.5056 147.43 58.5208 146.033 62.5512C145.304 60.6854 145.382 60.7082 144.653 58.8423C144.567 58.6271 144.473 58.3968 144.281 58.2676C144.119 58.1588 143.8 58.0449 143.61 57.9917C141.43 57.3866 137.843 56.3487 135.203 55.6854C135.104 54.5487 134.851 53.5436 134.438 52.6753C133.896 51.536 133.137 50.617 132.165 49.9208C131.187 49.2272 130.028 48.7183 128.681 48.3968C127.329 48.0803 125.835 47.9158 124.195 47.9158C122.83 47.9158 121.704 47.9993 120.815 48.1664C119.922 48.3335 119.213 48.5639 118.686 48.855C118.157 49.1461 117.79 49.4803 117.58 49.8575C117.37 50.2322 117.266 50.617 117.266 51.0044C117.266 51.5639 117.413 52.0347 117.704 52.4221C117.995 52.8145 118.225 53.0778 118.392 53.2145C118.696 52.9639 119.332 52.6601 120.291 52.2955C121.251 51.936 122.524 51.7537 124.109 51.7537C125.051 51.7537 125.916 51.8246 126.696 51.9613C127.473 52.1031 128.139 52.3537 128.699 52.7132C129.253 53.0752 129.691 53.5765 130.013 54.2145C130.149 54.4904 130.251 54.8044 130.329 55.1411C127.871 54.8449 125.033 54.6044 123.397 54.7588C121.651 54.9234 119.871 55.2626 118.39 56.1993C115.197 58.2196 114.104 62.5233 115.962 65.7993C116.858 67.3816 118.453 68.4828 120.165 69.0955C121.876 69.7082 123.714 69.8752 125.532 69.9461C128.329 70.055 131.154 69.8803 133.932 69.5512C134.529 69.4854 134.967 69.4221 135.246 69.3639V59.812C137.549 60.3411 140.276 61.0955 140.347 61.1613C140.952 61.7233 143.491 69.4221 143.547 69.4221C145.185 69.4221 146.823 69.4246 148.458 69.4271C150.051 64.7132 151.567 59.9715 153.005 55.2094C154.446 59.9816 155.99 64.7233 157.64 69.4271C159.286 69.4271 160.932 69.4297 162.58 69.4322C164.97 62.6601 167.362 55.8904 169.752 49.1183C169.747 49.1158 169.739 49.1132 169.734 49.1107C169.056 48.7993 168.352 48.5132 167.61 48.4499" fill="#312E52"/>
<path d="M139.17 48.4803C138.365 48.4803 137.767 48.7006 137.375 49.1487C136.987 49.5917 136.929 49.8828 136.929 50.4677C136.929 50.5765 137.478 52.4069 138.306 54.7309L143.734 56.2803C142.704 53.3968 141.453 49.4651 141.299 48.898C141.19 48.8398 140.962 48.7563 140.61 48.6474C140.263 48.536 139.785 48.4803 139.17 48.4803Z" fill="#312E52"/>
<path d="M189.828 48.4423C189.048 48.4423 188.438 48.617 187.992 48.9638C187.59 49.2777 187.352 49.774 187.326 50.4398V60.4904C187.326 62.3815 186.873 63.8221 185.969 64.8094C185.066 65.7967 183.709 66.2904 181.901 66.2904C180.094 66.2904 178.772 65.7967 177.853 64.8094C176.937 63.8221 176.476 62.3815 176.476 60.4904V48.9005C176.337 48.8448 176.05 48.7537 175.62 48.6296C175.19 48.5056 174.724 48.4423 174.223 48.4423C173.443 48.4423 172.833 48.617 172.387 48.9638C171.947 49.3107 171.724 49.8676 171.721 50.6373V61.7005C171.721 63.0904 171.972 64.336 172.471 65.4347C172.972 66.5334 173.676 67.4651 174.577 68.2296C175.481 68.9942 176.559 69.579 177.81 69.9815C179.063 70.3841 180.425 70.5866 181.899 70.5866C183.372 70.5866 184.729 70.3841 185.967 69.9815C187.205 69.579 188.276 68.9942 189.18 68.2296C190.083 67.4651 190.795 66.5309 191.309 65.4347C191.823 64.336 192.081 63.0904 192.081 61.7005V48.9005C191.942 48.8448 191.656 48.7537 191.225 48.6296C190.792 48.5056 190.326 48.4423 189.828 48.4423Z" fill="#312E52"/>
<path d="M212.435 50.2221C211.531 49.4575 210.461 48.8727 209.223 48.4702C207.985 48.0677 206.63 47.8651 205.154 47.8651C203.678 47.8651 202.316 48.0677 201.066 48.4702C199.815 48.8727 198.736 49.4575 197.833 50.2221C196.929 50.9867 196.225 51.9183 195.724 53.017C195.223 54.1158 194.972 55.3613 194.972 56.7512V67.8145C194.974 68.5841 195.197 69.1411 195.638 69.4879C196.083 69.8348 196.696 70.0094 197.473 70.0094C197.974 70.0094 198.44 69.9461 198.871 69.8221C199.301 69.698 199.587 69.6069 199.726 69.5512V57.9639C199.726 56.0727 200.185 54.6322 201.104 53.6449C202.02 52.6575 203.372 52.1639 205.152 52.1639C206.931 52.1639 208.316 52.6575 209.22 53.6449C210.124 54.6322 210.577 56.0727 210.577 57.9639V68.0145C210.602 68.6803 210.84 69.174 211.243 69.4904C211.688 69.8373 212.299 70.012 213.078 70.012C213.58 70.012 214.045 69.9487 214.476 69.8246C214.906 69.7006 215.192 69.6094 215.331 69.5537V56.7537C215.331 55.3639 215.076 54.1183 214.559 53.0196C214.045 51.9208 213.334 50.9892 212.43 50.2246" fill="#312E52"/>
<path d="M244.483 48.4778C243.704 48.4778 243.091 48.6601 242.645 49.0196C242.2 49.3816 241.977 49.9385 241.977 50.6879V59.617C241.977 61.536 241.491 62.9917 240.516 63.9765C239.542 64.9639 238.207 65.4575 236.511 65.4575C234.676 65.4575 233.319 64.9714 232.443 63.9968C231.567 63.0221 231.129 61.7158 231.129 60.0752V48.9335C230.99 48.8778 230.704 48.7866 230.273 48.6626C229.84 48.5385 229.377 48.4752 228.876 48.4752C228.096 48.4752 227.483 48.6575 227.04 49.017C226.595 49.3791 226.372 49.936 226.372 50.6854V61.0347C226.372 62.3968 226.602 63.6094 227.061 64.6651C227.519 65.7233 228.152 66.6044 228.959 67.3157C229.764 68.0246 230.739 68.5689 231.881 68.9436C233.02 69.3183 234.261 69.5082 235.595 69.5082C237.012 69.5082 238.314 69.2651 239.496 68.7765C240.678 68.2904 241.547 67.6423 242.104 66.8347C242.104 72.736 241.316 76.1689 235.134 76.1689C231.704 76.1689 229.319 75.4069 228.375 74.9993C228.223 75.3309 227.499 76.7234 227.896 77.9158C228.157 78.7031 228.883 79.0828 229.623 79.3006C231.802 79.9487 236.24 80.2347 239.056 79.774C244.901 78.817 246.734 74.8246 246.734 67.2094V48.9309C246.595 48.8752 246.311 48.7841 245.878 48.6601C245.445 48.536 244.98 48.4727 244.481 48.4727" fill="#312E52"/>
<path d="M112.263 64.6094C111.957 64.8322 111.504 65.1689 110.81 65.4196C110.114 65.6702 109.362 65.7943 108.557 65.7943C108.056 65.7943 107.577 65.7386 107.116 65.6272C106.658 65.5158 106.253 65.3208 105.906 65.0423C105.557 64.7639 105.286 64.3968 105.094 63.936C104.899 63.4778 104.8 62.8854 104.8 62.1613V52.855H112.813C112.896 52.6879 113.008 52.4018 113.147 51.9993C113.286 51.5968 113.354 51.1588 113.354 50.6854C113.354 49.9614 113.167 49.412 112.792 49.0373C112.418 48.6626 111.77 48.4727 110.851 48.4727H104.8V43.0069C104.661 42.9512 104.375 42.8601 103.944 42.736C103.511 42.612 103.048 42.5487 102.547 42.5487C101.767 42.5487 101.157 42.7234 100.711 43.0702C100.266 43.4196 100.043 43.9816 100.043 44.7613V48.4753H97.6405C96.7215 48.4753 96.076 48.6626 95.6988 49.0398C95.3241 49.4145 95.1367 49.9639 95.1367 50.6879C95.1367 51.1613 95.2076 51.5993 95.3443 52.0018C95.4836 52.4044 95.5949 52.6905 95.6785 52.8575H100.043V63.1234C100.043 65.1816 100.668 66.8449 101.922 68.1107C103.175 69.3765 105.023 70.0094 107.471 70.0094C108.332 70.0094 109.124 69.9335 109.848 69.7791C110.572 69.6246 111.225 69.4373 111.81 69.2145C112.395 68.9917 112.889 68.7563 113.291 68.5056C113.694 68.255 114.008 68.0474 114.23 67.8803C114.23 67.8803 114.038 67.017 113.509 66.1436C112.98 65.2702 112.261 64.6094 112.261 64.6094" fill="#312E52"/>
<path d="M220.772 48.4778C219.964 48.4778 219.339 48.6525 218.894 48.9993C218.448 49.3487 218.225 49.9107 218.225 50.6904V69.4271H222.982V48.9385C222.843 48.8828 222.564 48.7917 222.147 48.6677C221.729 48.5436 221.268 48.4803 220.77 48.4803" fill="#312E52"/>
<path d="M220.605 39.0879C219.797 39.0879 219.116 39.3664 218.559 39.9233C218.002 40.4803 217.724 41.1613 217.724 41.9689C217.724 42.7765 218.002 43.4575 218.559 44.0145C219.116 44.5714 219.797 44.8499 220.605 44.8499C221.412 44.8499 222.093 44.5714 222.65 44.0145C223.207 43.4575 223.486 42.7765 223.486 41.9689C223.486 41.1613 223.207 40.4803 222.65 39.9233C222.093 39.3664 221.412 39.0879 220.605 39.0879Z" fill="#312E52"/>
<path d="M264.509 66.0626C263.466 66.1689 260.772 66.293 260.476 66.298C259.002 66.3259 257.418 66.2525 256.023 65.731C254.8 65.2727 253.646 64.2651 253.392 62.9588C253.354 62.7689 253.339 62.5689 253.342 62.3664C253.372 61.0373 254.24 59.7841 255.39 59.1816C256.721 58.4829 258.471 58.5715 259.929 58.6626C261.278 58.7461 263.04 58.9082 264.489 59.0727C264.496 59.6499 264.501 60.1031 264.506 60.1031V66.0601L264.509 66.0626ZM266.137 49.9234C265.159 49.2297 264 48.7208 262.653 48.3993C261.301 48.0829 259.808 47.9183 258.167 47.9183C256.802 47.9183 255.676 48.0019 254.787 48.1689C253.894 48.336 253.185 48.5664 252.658 48.8575C252.129 49.1487 251.762 49.4829 251.552 49.8601C251.344 50.2348 251.238 50.6196 251.238 51.0069C251.238 51.5664 251.385 52.0373 251.676 52.4246C251.967 52.817 252.197 53.0803 252.365 53.217C252.668 52.9664 253.304 52.6626 254.263 52.2981C255.223 51.9386 256.496 51.7563 258.081 51.7563C259.023 51.7563 259.889 51.8272 260.668 51.9639C261.446 52.1056 262.111 52.3563 262.671 52.7158C263.225 53.0778 263.663 53.5791 263.985 54.217C264.121 54.493 264.223 54.8069 264.301 55.1436C261.843 54.8474 259.005 54.6069 257.37 54.7613C255.625 54.9259 253.843 55.2651 252.362 56.2018C249.17 58.2221 248.076 62.5259 249.934 65.8018C250.83 67.3841 252.425 68.4854 254.137 69.098C255.848 69.7107 257.686 69.8778 259.504 69.9487C262.301 70.0575 265.127 69.8829 267.904 69.5537C268.501 69.4879 268.939 69.4246 269.218 69.3664V56.8069C269.218 55.1968 268.947 53.8196 268.405 52.6753C267.863 51.536 267.104 50.6196 266.132 49.9208" fill="#312E52"/>
<path d="M130.539 66.0626C129.496 66.1689 126.803 66.293 126.509 66.298C125.033 66.3259 123.451 66.2525 122.056 65.7309C120.833 65.2727 119.678 64.2651 119.425 62.9613C119.387 62.7689 119.37 62.5714 119.375 62.3689C119.405 61.0398 120.273 59.7866 121.423 59.1841C122.754 58.4854 124.504 58.574 125.962 58.6651C127.311 58.7487 129.073 58.9107 130.521 59.0752C130.529 59.6525 130.534 60.1056 130.539 60.1056V66.0626ZM167.615 48.4525C166.866 48.3892 166.061 48.5892 165.544 49.136C165.177 49.5233 164.99 50.0449 164.81 50.5487C163.321 54.7461 161.835 58.9436 160.347 63.1411C158.785 58.6499 157.225 54.1588 155.663 49.6702C155.575 49.4145 155.478 49.1512 155.281 48.9689C155.053 48.7613 154.734 48.7006 154.43 48.6474C153.273 48.4449 151.914 48.3031 151.086 49.1335C150.716 49.5056 150.524 50.012 150.344 50.5031C148.868 54.5056 147.43 58.5208 146.033 62.5512C145.304 60.6854 145.382 60.7082 144.653 58.8423C144.567 58.6271 144.473 58.3968 144.281 58.2676C144.119 58.1588 143.8 58.0449 143.61 57.9917C141.43 57.3866 137.843 56.3487 135.203 55.6854C135.104 54.5487 134.851 53.5436 134.438 52.6753C133.896 51.536 133.137 50.617 132.165 49.9208C131.187 49.2272 130.028 48.7183 128.681 48.3968C127.329 48.0803 125.835 47.9158 124.195 47.9158C122.83 47.9158 121.704 47.9993 120.815 48.1664C119.922 48.3335 119.213 48.5639 118.686 48.855C118.157 49.1461 117.79 49.4803 117.58 49.8575C117.37 50.2322 117.266 50.617 117.266 51.0044C117.266 51.5639 117.413 52.0347 117.704 52.4221C117.995 52.8145 118.225 53.0778 118.392 53.2145C118.696 52.9639 119.332 52.6601 120.291 52.2955C121.251 51.936 122.524 51.7537 124.109 51.7537C125.051 51.7537 125.916 51.8246 126.696 51.9613C127.473 52.1031 128.139 52.3537 128.699 52.7132C129.253 53.0752 129.691 53.5765 130.013 54.2145C130.149 54.4904 130.251 54.8044 130.329 55.1411C127.871 54.8449 125.033 54.6044 123.397 54.7588C121.651 54.9234 119.871 55.2626 118.39 56.1993C115.197 58.2196 114.104 62.5233 115.962 65.7993C116.858 67.3816 118.453 68.4828 120.165 69.0955C121.876 69.7082 123.714 69.8752 125.532 69.9461C128.329 70.055 131.154 69.8803 133.932 69.5512C134.529 69.4854 134.967 69.4221 135.246 69.3639V59.812C137.549 60.3411 140.276 61.0955 140.347 61.1613C140.952 61.7233 143.491 69.4221 143.547 69.4221C145.185 69.4221 146.823 69.4246 148.458 69.4271C150.051 64.7132 151.567 59.9715 153.005 55.2094C154.446 59.9816 155.99 64.7233 157.64 69.4271C159.286 69.4271 160.932 69.4297 162.58 69.4322C164.97 62.6601 167.362 55.8904 169.752 49.1183C169.747 49.1158 169.739 49.1132 169.734 49.1107C169.056 48.7993 168.352 48.5132 167.61 48.4499" fill="#312E52"/>
<path d="M139.17 48.4803C138.365 48.4803 137.767 48.7006 137.375 49.1487C136.987 49.5917 136.929 49.8828 136.929 50.4677C136.929 50.5765 137.478 52.4069 138.306 54.7309L143.734 56.2803C142.704 53.3968 141.453 49.4651 141.299 48.898C141.19 48.8398 140.962 48.7563 140.61 48.6474C140.263 48.536 139.785 48.4803 139.17 48.4803Z" fill="#312E52"/>
<path d="M189.828 48.4423C189.048 48.4423 188.438 48.617 187.992 48.9638C187.59 49.2777 187.352 49.774 187.326 50.4398V60.4904C187.326 62.3815 186.873 63.8221 185.969 64.8094C185.066 65.7967 183.709 66.2904 181.901 66.2904C180.094 66.2904 178.772 65.7967 177.853 64.8094C176.937 63.8221 176.476 62.3815 176.476 60.4904V48.9005C176.337 48.8448 176.05 48.7537 175.62 48.6296C175.19 48.5056 174.724 48.4423 174.223 48.4423C173.443 48.4423 172.833 48.617 172.387 48.9638C171.947 49.3107 171.724 49.8676 171.721 50.6373V61.7005C171.721 63.0904 171.972 64.336 172.471 65.4347C172.972 66.5334 173.676 67.4651 174.577 68.2296C175.481 68.9942 176.559 69.579 177.81 69.9815C179.063 70.3841 180.425 70.5866 181.899 70.5866C183.372 70.5866 184.729 70.3841 185.967 69.9815C187.205 69.579 188.276 68.9942 189.18 68.2296C190.083 67.4651 190.795 66.5309 191.309 65.4347C191.823 64.336 192.081 63.0904 192.081 61.7005V48.9005C191.942 48.8448 191.656 48.7537 191.225 48.6296C190.792 48.5056 190.326 48.4423 189.828 48.4423Z" fill="#312E52"/>
<path d="M212.435 50.2221C211.531 49.4575 210.461 48.8727 209.223 48.4702C207.985 48.0677 206.63 47.8651 205.154 47.8651C203.678 47.8651 202.316 48.0677 201.066 48.4702C199.815 48.8727 198.736 49.4575 197.833 50.2221C196.929 50.9867 196.225 51.9183 195.724 53.017C195.223 54.1158 194.972 55.3613 194.972 56.7512V67.8145C194.974 68.5841 195.197 69.1411 195.638 69.4879C196.083 69.8348 196.696 70.0094 197.473 70.0094C197.974 70.0094 198.44 69.9461 198.871 69.8221C199.301 69.698 199.587 69.6069 199.726 69.5512V57.9639C199.726 56.0727 200.185 54.6322 201.104 53.6449C202.02 52.6575 203.372 52.1639 205.152 52.1639C206.931 52.1639 208.316 52.6575 209.22 53.6449C210.124 54.6322 210.577 56.0727 210.577 57.9639V68.0145C210.602 68.6803 210.84 69.174 211.243 69.4904C211.688 69.8373 212.299 70.012 213.078 70.012C213.58 70.012 214.045 69.9487 214.476 69.8246C214.906 69.7006 215.192 69.6094 215.331 69.5537V56.7537C215.331 55.3639 215.076 54.1183 214.559 53.0196C214.045 51.9208 213.334 50.9892 212.43 50.2246" fill="#312E52"/>
<path d="M244.483 48.4778C243.704 48.4778 243.091 48.6601 242.645 49.0196C242.2 49.3816 241.977 49.9385 241.977 50.6879V59.617C241.977 61.536 241.491 62.9917 240.516 63.9765C239.542 64.9639 238.207 65.4575 236.511 65.4575C234.676 65.4575 233.319 64.9714 232.443 63.9968C231.567 63.0221 231.129 61.7158 231.129 60.0752V48.9335C230.99 48.8778 230.704 48.7866 230.273 48.6626C229.84 48.5385 229.377 48.4752 228.876 48.4752C228.096 48.4752 227.483 48.6575 227.04 49.017C226.595 49.3791 226.372 49.936 226.372 50.6854V61.0347C226.372 62.3968 226.602 63.6094 227.061 64.6651C227.519 65.7233 228.152 66.6044 228.959 67.3157C229.764 68.0246 230.739 68.5689 231.881 68.9436C233.02 69.3183 234.261 69.5082 235.595 69.5082C237.012 69.5082 238.314 69.2651 239.496 68.7765C240.678 68.2904 241.547 67.6423 242.104 66.8347C242.104 72.736 241.316 76.1689 235.134 76.1689C231.704 76.1689 229.319 75.4069 228.375 74.9993C228.223 75.3309 227.499 76.7234 227.896 77.9158C228.157 78.7031 228.883 79.0828 229.623 79.3006C231.802 79.9487 236.24 80.2347 239.056 79.774C244.901 78.817 246.734 74.8246 246.734 67.2094V48.9309C246.595 48.8752 246.311 48.7841 245.878 48.6601C245.445 48.536 244.98 48.4727 244.481 48.4727" fill="#312E52"/>
</svg>
