<svg width="100%" height="100%" viewBox="0 0 24 24" fill="none" xmlns="http://www.w3.org/2000/svg">
	<path d="M4 24C3.45 24 2.97917 23.8042 2.5875 23.4125C2.19583 23.0208 2 22.55 2 22C2 21.45 2.19583 20.9792 2.5875 20.5875C2.97917 20.1958 3.45 20 4 20H20C20.55 20 21.0208 20.1958 21.4125 20.5875C21.8042 20.9792 22 21.45 22 22C22 22.55 21.8042 23.0208 21.4125 23.4125C21.0208 23.8042 20.55 24 20 24H4ZM7.15 17C6.7 17 6.36667 16.85 6.15 16.55C5.93333 16.25 5.90833 15.8833 6.075 15.45L10.325 4.15C10.4417 3.83333 10.6667 3.5625 11 3.3375C11.3333 3.1125 11.675 3 12.025 3C12.3583 3 12.6875 3.1125 13.0125 3.3375C13.3375 3.5625 13.5583 3.83333 13.675 4.15L17.925 15.45C18.0917 15.8833 18.0667 16.25 17.85 16.55C17.6333 16.85 17.2917 17 16.825 17C16.625 17 16.4292 16.9333 16.2375 16.8C16.0458 16.6667 15.9167 16.5083 15.85 16.325L14.85 13.4H9.2L8.15 16.325C8.08333 16.5083 7.95417 16.6667 7.7625 16.8C7.57083 16.9333 7.36667 17 7.15 17ZM9.9 11.4H14.1L12.05 5.6H11.95L9.9 11.4Z" fill="#3060AA" />
</svg>
