<svg width="100%" height="100%" viewBox="0 0 24 24" fill="none" xmlns="http://www.w3.org/2000/svg">
	<path d="M8.00005 19.0008C7.71672 19.0008 7.47922 18.9049 7.28755 18.7133C7.09588 18.5216 7.00005 18.2841 7.00005 18.0008C7.00005 17.7174 7.09588 17.4799 7.28755 17.2883C7.47922 17.0966 7.71672 17.0008 8.00005 17.0008H14.1C15.15 17.0008 16.0625 16.6674 16.8375 16.0008C17.6125 15.3341 18 14.5008 18 13.5008C18 12.5008 17.6125 11.6674 16.8375 11.0008C16.0625 10.3341 15.15 10.0008 14.1 10.0008H7.80005L9.70005 11.9008C9.88338 12.0841 9.97505 12.3174 9.97505 12.6008C9.97505 12.8841 9.88338 13.1174 9.70005 13.3008C9.51672 13.4841 9.28338 13.5758 9.00005 13.5758C8.71672 13.5758 8.48338 13.4841 8.30005 13.3008L4.70005 9.70078C4.60005 9.60078 4.52922 9.49245 4.48755 9.37578C4.44588 9.25911 4.42505 9.13411 4.42505 9.00078C4.42505 8.86745 4.44588 8.74245 4.48755 8.62578C4.52922 8.50911 4.60005 8.40078 4.70005 8.30078L8.30005 4.70078C8.48338 4.51745 8.71672 4.42578 9.00005 4.42578C9.28338 4.42578 9.51672 4.51745 9.70005 4.70078C9.88338 4.88411 9.97505 5.11745 9.97505 5.40078C9.97505 5.68411 9.88338 5.91745 9.70005 6.10078L7.80005 8.00078H14.1C15.7167 8.00078 17.1042 8.52578 18.2625 9.57578C19.4209 10.6258 20 11.9341 20 13.5008C20 15.0674 19.4209 16.3758 18.2625 17.4258C17.1042 18.4758 15.7167 19.0008 14.1 19.0008H8.00005Z" fill="#3060AA" />
</svg>
