<svg width="100%" height="100%" viewBox="0 0 24 24" fill="none" xmlns="http://www.w3.org/2000/svg">
	<path d="M15.825 13.0016L13.825 11.0016H15.825C16.1083 11.0016 16.3458 11.0974 16.5375 11.2891C16.7291 11.4807 16.825 11.7182 16.825 12.0016C16.825 12.2849 16.7291 12.5224 16.5375 12.7141C16.3458 12.9057 16.1083 13.0016 15.825 13.0016ZM19.25 16.4516L17.75 14.9016C18.4 14.7182 18.9375 14.3641 19.3625 13.8391C19.7875 13.3141 20 12.7016 20 12.0016C20 11.1682 19.7083 10.4599 19.125 9.87656C18.5416 9.29323 17.8333 9.00156 17 9.00156H14C13.7166 9.00156 13.4791 8.90573 13.2875 8.71406C13.0958 8.5224 13 8.2849 13 8.00156C13 7.71823 13.0958 7.48073 13.2875 7.28906C13.4791 7.0974 13.7166 7.00156 14 7.00156H17C18.3833 7.00156 19.5625 7.48073 20.5375 8.43906C21.5125 9.3974 22 10.5849 22 12.0016C22 12.9516 21.75 13.8307 21.25 14.6391C20.75 15.4474 20.0833 16.0516 19.25 16.4516ZM19.1 21.9016L2.09995 4.90156C1.91662 4.71823 1.82495 4.4849 1.82495 4.20156C1.82495 3.91823 1.91662 3.6849 2.09995 3.50156C2.28328 3.31823 2.51662 3.22656 2.79995 3.22656C3.08328 3.22656 3.31662 3.31823 3.49995 3.50156L20.5 20.5016C20.6833 20.6849 20.775 20.9182 20.775 21.2016C20.775 21.4849 20.6833 21.7182 20.5 21.9016C20.3166 22.0849 20.0833 22.1766 19.8 22.1766C19.5166 22.1766 19.2833 22.0849 19.1 21.9016ZM9.99995 17.0016H6.99995C5.61662 17.0016 4.43745 16.5141 3.46245 15.5391C2.48745 14.5641 1.99995 13.3849 1.99995 12.0016C1.99995 10.8349 2.35412 9.80573 3.06245 8.91406C3.77078 8.0224 4.66662 7.4349 5.74995 7.15156L7.59995 9.00156H6.99995C6.16662 9.00156 5.45828 9.29323 4.87495 9.87656C4.29162 10.4599 3.99995 11.1682 3.99995 12.0016C3.99995 12.8349 4.29162 13.5432 4.87495 14.1266C5.45828 14.7099 6.16662 15.0016 6.99995 15.0016H9.99995C10.2833 15.0016 10.5208 15.0974 10.7125 15.2891C10.9041 15.4807 11 15.7182 11 16.0016C11 16.2849 10.9041 16.5224 10.7125 16.7141C10.5208 16.9057 10.2833 17.0016 9.99995 17.0016ZM11.6 13.0016H8.17495C7.89162 13.0016 7.65412 12.9057 7.46245 12.7141C7.27078 12.5224 7.17495 12.2849 7.17495 12.0016C7.17495 11.7182 7.27078 11.4807 7.46245 11.2891C7.65412 11.0974 7.89162 11.0016 8.17495 11.0016H9.62495L11.6 13.0016Z" fill="#3060AA" />
</svg>
