<?xml version="1.0" encoding="utf-8"?>
<!-- Generator: Adobe Illustrator 24.3.0, SVG Export Plug-In . SVG Version: 6.00 Build 0)  -->
<svg version="1.1" id="Component_89_1" xmlns="http://www.w3.org/2000/svg" xmlns:xlink="http://www.w3.org/1999/xlink" x="0px"
	 y="0px" viewBox="0 0 26 26" style="enable-background:new 0 0 26 26;" xml:space="preserve">
<style type="text/css">
	.st0{fill:#707070;}
</style>
<g id="Group_664" transform="translate(-33 -268)">
	<path id="Path_295" class="st0" d="M52.8,276.2c-0.6-3.4-3.8-5.8-7.3-5.2c-1.9,0.3-3.5,1.4-4.4,3.1c-0.2,0-0.4-0.1-0.7-0.1
		c-1.9,0-3.5,1.6-3.5,3.5c0,0.2,0,0.5,0.1,0.7c-1.2,0.9-2,2.3-2,3.9c0,1.3,0.5,2.5,1.3,3.4c0.8,1,2,1.5,3.2,1.6h3.9
		c0.3,0,0.6-0.3,0.6-0.6s-0.3-0.6-0.6-0.6h-3.8c-1.9-0.2-3.4-1.9-3.4-3.8c0-1.3,0.7-2.5,1.8-3.1c0.3-0.1,0.4-0.5,0.3-0.7
		c-0.1-0.2-0.1-0.5-0.1-0.8c0-1.2,1-2.2,2.2-2.2c0.3,0,0.5,0,0.8,0.1c0.3,0.1,0.6,0,0.8-0.3c1.2-2.6,4.2-3.6,6.8-2.4
		c1.6,0.8,2.7,2.3,2.9,4.1c0,0.3,0.2,0.5,0.5,0.5c2.4,0.5,3.9,2.8,3.4,5.1c-0.4,1.9-1.9,3.3-3.8,3.5h-3.3c-0.3,0-0.6,0.3-0.6,0.6
		s0.3,0.6,0.6,0.6h3.4c1.4-0.1,2.7-0.7,3.6-1.8c2.1-2.3,1.9-5.8-0.4-7.9C54.5,276.8,53.7,276.4,52.8,276.2L52.8,276.2z"/>
	<path id="Path_296" class="st0" d="M49.6,282.7c0.2-0.2,0.2-0.6,0-0.8c0,0,0,0,0,0l-3.2-3.2c-0.1-0.1-0.3-0.2-0.4-0.2
		c-0.2,0-0.3,0.1-0.4,0.2l-3.2,3.2c-0.2,0.2-0.2,0.6,0,0.9c0.1,0.1,0.3,0.2,0.4,0.2c0.2,0,0.3-0.1,0.4-0.2l2.2-2.2v10
		c0,0.3,0.3,0.6,0.6,0.6s0.6-0.3,0.6-0.6v-10l2.2,2.2C49,282.9,49.4,282.9,49.6,282.7C49.6,282.7,49.6,282.7,49.6,282.7z"/>
</g>
</svg>
