<svg id="Component_89_1" data-name="Component 89 – 1" xmlns="http://www.w3.org/2000/svg" width="21.828" height="20.176" viewBox="0 0 21.828 20.176">
  <defs>
    <style>
      .cls-1 {
        fill: #707070;
      }
    </style>
  </defs>
  <g id="Group_664" data-name="Group 664" transform="translate(-33 -268)">
    <path id="Path_295" data-name="Path 295" class="cls-1" d="M17.752,23.67a6.323,6.323,0,0,0-11.715-2.1,3.622,3.622,0,0,0-.664-.063,3.465,3.465,0,0,0-3.461,3.461,3.783,3.783,0,0,0,.072.718A4.816,4.816,0,0,0,0,29.568a5.149,5.149,0,0,0,1.306,3.407A4.662,4.662,0,0,0,4.538,34.6h3.9a.606.606,0,0,0,0-1.212H4.592a3.822,3.822,0,0,1-3.38-3.824,3.6,3.6,0,0,1,1.782-3.1.611.611,0,0,0,.265-.736,2.2,2.2,0,0,1-.135-.772,2.253,2.253,0,0,1,2.249-2.249,2.21,2.21,0,0,1,.768.135.609.609,0,0,0,.759-.31,5.11,5.11,0,0,1,9.709,1.683.605.605,0,0,0,.5.539,4.368,4.368,0,0,1-.413,8.627H13.389a.606.606,0,1,0,0,1.212h3.375a5.37,5.37,0,0,0,3.6-1.777,5.587,5.587,0,0,0-2.612-9.148Z" transform="translate(33 249.6)"/>
    <path id="Path_296" data-name="Path 296" class="cls-1" d="M165.675,189.646a.6.6,0,0,0,0-.857l-3.209-3.209a.613.613,0,0,0-.426-.18.594.594,0,0,0-.426.18l-3.209,3.209a.608.608,0,0,0,.426,1.037.591.591,0,0,0,.426-.18l2.177-2.177v10.005a.606.606,0,1,0,1.212,0V187.469l2.177,2.177A.6.6,0,0,0,165.675,189.646Z" transform="translate(-118.123 90.096)"/>
  </g>
</svg>
