<?xml version="1.0" encoding="utf-8"?>
<!-- Generator: Adobe Illustrator 25.2.0, SVG Export Plug-In . SVG Version: 6.00 Build 0)  -->
<svg version="1.1" xmlns="http://www.w3.org/2000/svg" xmlns:xlink="http://www.w3.org/1999/xlink" x="0px" y="0px"
	 viewBox="0 0 305.4 305.4" style="enable-background:new 0 0 305.4 305.4;" xml:space="preserve">
<style type="text/css">
	.st0{fill:#FFFFFF;}
	.st1{fill-rule:evenodd;clip-rule:evenodd;fill:#FFFFFF;}
</style>
<g id="background_1_">
</g>
<g id="WhatsApp_Logo">
	<path class="st0" d="M0.7,305.4L22.2,227C9,204,2,178,2,151.3C2,67.9,69.9,0,153.3,0c40.5,0,78.5,15.8,107.1,44.4
		C289,73,304.7,111,304.7,151.5c0,83.4-67.9,151.3-151.3,151.3c0,0,0,0,0,0h-0.1c-25.3,0-50.2-6.4-72.3-18.4L0.7,305.4z M84.7,257
		l4.6,2.7c19.3,11.5,41.5,17.5,64,17.5h0.1c69.3,0,125.8-56.4,125.8-125.8c0-33.6-13.1-65.2-36.8-89c-23.7-23.8-55.3-36.9-88.9-36.9
		C84,25.6,27.6,82,27.6,151.3c0,23.8,6.6,46.9,19.2,66.9l3,4.8l-12.7,46.4L84.7,257z"/>
	<path class="st1" d="M229.6,187.4c-0.9-1.6-3.5-2.5-7.2-4.4c-3.8-1.9-22.4-11-25.8-12.3c-3.5-1.3-6-1.9-8.5,1.9
		c-2.5,3.8-9.8,12.3-12,14.8c-2.2,2.5-4.4,2.8-8.2,0.9c-3.8-1.9-16-5.9-30.4-18.8c-11.2-10-18.8-22.4-21-26.2
		c-2.2-3.8-0.2-5.8,1.7-7.7c1.7-1.7,3.8-4.4,5.7-6.6c1.9-2.2,2.5-3.8,3.8-6.3c1.3-2.5,0.6-4.7-0.3-6.6c-0.9-1.9-8.5-20.5-11.7-28.1
		c-3.1-7.4-6.2-6.4-8.5-6.5c-2.2-0.1-4.7-0.1-7.2-0.1c-2.5,0-6.6,0.9-10.1,4.7c-3.5,3.8-13.2,12.9-13.2,31.5
		c0,18.6,13.5,36.6,15.4,39.1c1.9,2.5,26.7,40.7,64.6,57.1c9,3.9,16.1,6.2,21.6,8c9.1,2.9,17.3,2.5,23.8,1.5
		c7.3-1.1,22.4-9.1,25.5-18C230.5,196.6,230.5,189,229.6,187.4z"/>
</g>
</svg>
