<?xml version="1.0" encoding="utf-8"?>
<!-- Generator: Adobe Illustrator 24.3.0, SVG Export Plug-In . SVG Version: 6.00 Build 0)  -->
<svg version="1.1" id="Layer_1" xmlns="http://www.w3.org/2000/svg" xmlns:xlink="http://www.w3.org/1999/xlink" x="0px" y="0px"
	 viewBox="0 0 157 179.4" style="enable-background:new 0 0 157 179.4;" xml:space="preserve">
<style type="text/css">
	.st0{fill:#E2E5E7;}
	.st1{fill:#B0B7BD;}
	.st2{fill:#CAD1D8;}
	.st3{fill:#5FD156;}
	.st4{enable-background:new    ;}
	.st5{fill:#FFFFFF;}
</style>
<path class="st0" d="M33.6,0c-6.2,0-11.2,5-11.2,11.2v157c0,6.2,5,11.2,11.2,11.2h112.1c6.2,0,11.2-5,11.2-11.2V44.9L112.1,0H33.6z"
	/>
<path class="st1" d="M123.4,44.9H157L112.1,0v33.6C112.2,39.8,117.2,44.8,123.4,44.9z"/>
<path class="st2" d="M157,78.5l-33.6-33.6H157V78.5z"/>
<path class="st3" d="M134.6,145.8c0,3.1-2.5,5.6-5.6,5.6H5.6c-3.1,0-5.6-2.5-5.6-5.6V89.7c0-3.1,2.5-5.6,5.6-5.6H129
	c3.1,0,5.6,2.5,5.6,5.6V145.8z"/>
<path class="st2" d="M129,151.4H22.4v5.6H129c3.1,0,5.6-2.5,5.6-5.6v-5.6C134.6,148.9,132.1,151.4,129,151.4z"/>
<g class="st4">
	<path class="st5" d="M48.9,117.9l8.6,13.9h-5.1l-6.3-10.1l-5.9,10.1h-5.1l8.6-13.9L35.1,104h5.1l6.3,10.2l5.9-10.2h5.1L48.9,117.9z
		"/>
	<path class="st5" d="M67.1,128.1h9.4v3.7h-14V104h4.6V128.1z"/>
	<path class="st5" d="M84.4,131.1c-1.5-0.7-2.7-1.6-3.5-2.8c-0.9-1.2-1.3-2.6-1.3-4.2h4.9c0.1,1.2,0.6,2.2,1.4,3s2,1.2,3.5,1.2
		c1.6,0,2.8-0.4,3.7-1.1s1.3-1.7,1.3-2.9c0-0.9-0.3-1.7-0.8-2.3c-0.5-0.6-1.2-1-2-1.4c-0.8-0.3-1.9-0.7-3.4-1
		c-1.8-0.5-3.3-1-4.4-1.5c-1.1-0.5-2.1-1.3-2.9-2.3c-0.8-1-1.2-2.4-1.2-4.2c0-1.6,0.4-3,1.2-4.2c0.8-1.2,1.9-2.1,3.4-2.8
		c1.4-0.6,3.1-1,5-1c2.7,0,4.9,0.7,6.6,2s2.7,3.2,2.9,5.5h-5c-0.1-1-0.6-1.9-1.4-2.6s-2-1.1-3.5-1.1c-1.3,0-2.4,0.3-3.2,1
		c-0.8,0.7-1.2,1.6-1.2,2.9c0,0.9,0.3,1.6,0.8,2.1c0.5,0.5,1.2,1,2,1.3s1.9,0.7,3.3,1c1.8,0.5,3.3,1,4.5,1.5c1.2,0.5,2.1,1.3,3,2.3
		s1.2,2.5,1.2,4.2c0,1.4-0.4,2.7-1.1,4c-0.8,1.3-1.9,2.3-3.3,3c-1.5,0.8-3.2,1.1-5.1,1.1C87.6,132.1,85.9,131.7,84.4,131.1z"/>
</g>
</svg>
