<svg xmlns="http://www.w3.org/2000/svg" width="156.995" height="179.423" viewBox="0 0 156.995 179.423"><defs><style>.a{fill:#e2e5e7;}.b{fill:#b0b7bd;}.c{fill:#cad1d8;}.d{fill:#5fd156;}.e{fill:#fff;}</style></defs><g transform="translate(-32)"><path class="a" d="M107.214,0A11.247,11.247,0,0,0,96,11.214V168.209a11.247,11.247,0,0,0,11.214,11.214H219.353a11.247,11.247,0,0,0,11.214-11.214V44.856L185.711,0Z" transform="translate(-41.572)"/><path class="b" d="M363.214,44.856h33.642L352,0V33.642A11.247,11.247,0,0,0,363.214,44.856Z" transform="translate(-207.861)"/><path class="c" d="M417.642,161.642,384,128h33.642Z" transform="translate(-228.647 -83.144)"/><path class="d" d="M166.567,301.677a5.623,5.623,0,0,1-5.607,5.607H37.607A5.623,5.623,0,0,1,32,301.677v-56.07A5.623,5.623,0,0,1,37.607,240H160.96a5.623,5.623,0,0,1,5.607,5.607Z" transform="translate(0 -155.896)"/><g transform="translate(57.661 102.119)"><path class="e" d="M118.931,305.959l7.8-9.773c2.332-3.05,6.863.847,4.306,3.762-2.686,3.185-5.512,6.639-8.2,10.177l9.145,11.388c2.467,3.364-2.461,6.588-4.884,3.269l-8.253-10.58-8.113,10.81c-2.288,3.269-7.356-.4-4.8-3.454l9.01-11.433c-2.826-3.544-5.562-6.992-8.293-10.177-2.82-3.364,2.422-6.812,4.486-3.667Z" transform="translate(-105.226 -293.769)"/><path class="e" d="M197.36,298.08a2.8,2.8,0,0,1,2.826-2.736,2.734,2.734,0,0,1,2.646,2.736v22.461h12.2c4.39,0,4.486,5.871,0,5.871H200.192a2.708,2.708,0,0,1-2.826-2.731v-25.6Z" transform="translate(-165.073 -293.964)"/><path class="e" d="M271.067,299.56c1.032-8.7,14.163-10.266,20.353-5.512,3.05,2.461-.179,6.364-2.871,4.39-3.319-2.1-10.849-3.089-11.791,1.564-1.211,7.356,18.29,3.146,17.976,15.072-.314,11.388-16.81,11.651-23,6.543a3.314,3.314,0,0,1-.628-4.4c1.166-1.161,2.461-1.564,3.992-.308,3.673,2.506,13.137,4.39,13.8-1.979C288.325,308.307,269.677,312.293,271.067,299.56Z" transform="translate(-212.612 -291.407)"/></g><path class="c" d="M202.532,421.607H96v5.607H202.532a5.623,5.623,0,0,0,5.607-5.607V416A5.623,5.623,0,0,1,202.532,421.607Z" transform="translate(-41.572 -270.219)"/></g></svg>