<svg version="1.2" xmlns="http://www.w3.org/2000/svg" viewBox="0 0 157 180" width="157" height="180">
	<title>xls-svg</title>
	<style>
		.s0 { fill: #e2e5e7 } 
		.s1 { fill: #b0b7bd } 
		.s2 { fill: #cad1d8 } 
		.s3 { fill: #5fd156 } 
		.s4 { fill: #ffffff } 
	</style>
	<path id="Layer" class="s0" d="m112.1 0l44.8 44.9v123.3c0 6.2-5 11.2-11.2 11.2h-112.1c-6.2 0-11.2-5-11.2-11.2v-157c0-6.2 5-11.2 11.2-11.2z"/>
	<path id="Layer" class="s1" d="m112.1 33.6v-33.6l44.9 44.9h-33.6c-6.2-0.1-11.2-5.1-11.3-11.3z"/>
	<path id="Layer" class="s2" d="m157 78.5l-33.6-33.6h33.6z"/>
	<rect id="Layer" class="s3" y="84.1" width="134.6" height="67.3" rx="5.6"></rect>
	<path id="Layer" class="s2" d="m134.6 145.8v5.6c0 3.1-2.5 5.6-5.6 5.6h-106.6v-5.6h106.6c3.1 0 5.6-2.5 5.6-5.6z"/>
	<g id="Layer">
		<path id="Layer" class="s4" d="m48.9 117.9l8.6 13.9h-5.1l-6.3-10.1-5.9 10.1h-5.1l8.6-13.9-8.6-13.9h5.1l6.3 10.2 5.9-10.2h5.1z"/>
		<path id="Layer copy" class="s4" d="m116.9 117.9l8.6 13.9h-5.1l-6.3-10.1-5.9 10.1h-5.1l8.6-13.9-8.6-13.9h5.1l6.3 10.2 5.9-10.2h5.1z"/>
		<path id="Layer" class="s4" d="m67.1 128.1h9.4v3.7h-14v-27.8h4.6z"/>
		<path id="Layer" class="s4" d="m84.4 131.1c-1.5-0.7-2.7-1.6-3.5-2.8-0.9-1.2-1.3-2.6-1.3-4.2h4.9c0.1 1.2 0.6 2.2 1.4 3 0.8 0.8 2 1.2 3.5 1.2 1.6 0 2.8-0.4 3.7-1.1 0.9-0.7 1.3-1.7 1.3-2.9 0-0.9-0.3-1.7-0.8-2.3-0.5-0.6-1.2-1-2-1.4-0.8-0.3-1.9-0.7-3.4-1-1.8-0.5-3.3-1-4.4-1.5-1.1-0.5-2.1-1.3-2.9-2.3q-1.2-1.5-1.2-4.2 0-2.4 1.2-4.2c0.8-1.2 1.9-2.1 3.4-2.8 1.4-0.6 3.1-1 5-1 2.7 0 4.9 0.7 6.6 2 1.7 1.3 2.7 3.2 2.9 5.5h-5c-0.1-1-0.6-1.9-1.4-2.6-0.8-0.7-2-1.1-3.5-1.1-1.3 0-2.4 0.3-3.2 1-0.8 0.7-1.2 1.6-1.2 2.9 0 0.9 0.3 1.6 0.8 2.1 0.5 0.5 1.2 1 2 1.3 0.8 0.3 1.9 0.7 3.3 1q2.7 0.7 4.5 1.5c1.2 0.5 2.1 1.3 3 2.3 0.9 1 1.2 2.5 1.2 4.2 0 1.4-0.4 2.7-1.1 4q-1.2 2-3.3 3c-1.5 0.8-3.2 1.1-5.1 1.1-2.2 0.3-3.9-0.1-5.4-0.7z"/>
	</g>
</svg>